<?xml version="1.0" standalone="no"?>
<!DOCTYPE svg PUBLIC "-//W3C//DTD SVG 1.1//EN" "http://www.w3.org/Graphics/SVG/1.1/DTD/svg11.dtd" >
<svg xmlns="http://www.w3.org/2000/svg" xmlns:xlink="http://www.w3.org/1999/xlink" version="1.1">
<metadata>
Created by FontForge 20201107 at Wed Nov  8 18:06:16 2017
 By Jimmy Wärting
Copyright (c) 2015 Monotype Imaging Inc. All rights reserved.
</metadata>
<defs>
<font id="HelveticaNeueLTGEOW82-75Bold" horiz-adv-x="741" >
  <font-face 
    font-family="HelveticaNeueLTGEOW82 55 Roman"
    font-weight="700"
    font-stretch="squinchy"
    units-per-em="1000"
    panose-1="0 0 8 0 0 0 0 0 0 0"
    ascent="714"
    descent="-286"
    x-height="517"
    cap-height="714"
    bbox="-315 -248 1085 973"
    underline-thickness="50"
    underline-position="-100"
    unicode-range="U+000D-FEFF"
  />
<missing-glyph horiz-adv-x="512" 
d="M512 0h-512v718h512v-718zM462 667h-412v-617h412v617zM322.5 592.5q28.5 -16.5 44.5 -46.5t16 -68t-14.5 -63.5t-49.5 -57.5q-34 -31 -41 -46q-7 -17 -7 -77h-46l-2 19q0 34 4 54q3 20 21 44.5t38 43.5q21 19 33.5 37.5t12.5 41.5q0 22 -10.5 42t-28 31.5t-37.5 11.5
q-34 0 -55 -24t-27 -71l-50 8q7 67 41.5 102t93.5 35q35 0 63.5 -16.5zM278 184v-67h-56v67h56z" />
    <glyph glyph-name="fi" unicode="fi" horiz-adv-x="591" 
d="M85 422h-85v95h85v38q0 78 47 118.5t126 40.5q19 0 75 -4v-106q-27 3 -51 3q-31 0 -43 -13.5t-12 -46.5v-30h98v-95h-98v-422h-142v422zM533 597h-142v117h142v-117zM533 0h-142v517h142v-517z" />
    <glyph glyph-name="fl" unicode="fl" horiz-adv-x="591" 
d="M85 422h-85v95h85v38q0 78 47 118.5t126 40.5q19 0 75 -4v-106q-27 3 -51 3q-31 0 -43 -13.5t-12 -46.5v-30h98v-95h-98v-422h-142v422zM533 0h-142v714h142v-714z" />
    <glyph glyph-name=".notdef" horiz-adv-x="512" 
d="M512 0h-512v718h512v-718zM462 667h-412v-617h412v617zM322.5 592.5q28.5 -16.5 44.5 -46.5t16 -68t-14.5 -63.5t-49.5 -57.5q-34 -31 -41 -46q-7 -17 -7 -77h-46l-2 19q0 34 4 54q3 20 21 44.5t38 43.5q21 19 33.5 37.5t12.5 41.5q0 22 -10.5 42t-28 31.5t-37.5 11.5
q-34 0 -55 -24t-27 -71l-50 8q7 67 41.5 102t93.5 35q35 0 63.5 -16.5zM278 184v-67h-56v67h56z" />
    <glyph glyph-name="NULL" horiz-adv-x="0" 
 />
    <glyph glyph-name="nonmarkingreturn" unicode="&#xd;" horiz-adv-x="278" 
 />
    <glyph glyph-name="space" unicode=" " horiz-adv-x="278" 
 />
    <glyph glyph-name="exclam" unicode="!" horiz-adv-x="278" 
d="M213 522l-39 -308h-71l-38 308v192h148v-192zM218 0h-157v154h157v-154z" />
    <glyph glyph-name="quotedbl" unicode="&#x22;" horiz-adv-x="463" 
d="M192 393h-107v321h107v-321zM378 393h-107v321h107v-321z" />
    <glyph glyph-name="numbersign" unicode="#" horiz-adv-x="556" 
d="M255 502h97l27 198h97l-27 -198h74v-90h-87l-17 -124h74v-90h-87l-27 -198h-97l27 198h-96l-27 -195l-1 -3h-97l28 198h-83v90h95l18 124h-83v90h95l28 198h97zM225 288h97l17 124h-96z" />
    <glyph glyph-name="dollar" unicode="$" horiz-adv-x="556" 
d="M307 808v-77q103 -11 161.5 -65.5t63.5 -147.5h-142q0 26 -11.5 48t-30.5 35t-41 13v-177q92 -21 146.5 -51.5t79 -76t24.5 -111.5q0 -45 -26 -92.5t-82.5 -82.5t-141.5 -40v-85h-59v85q-227 17 -249 249h142v-3q0 -51 29 -85t78 -44v209q-7 2 -24.5 6.5t-43.5 12.5
q-83 26 -123.5 70.5t-40.5 118.5q0 61 29.5 108t82 74t120.5 32v77h59zM179 480.5q21 -17.5 69 -29.5v163q-25 0 -45.5 -10t-32.5 -29t-12 -44q0 -33 21 -50.5zM385 131.5q30 26.5 30 66.5q0 25 -10 42t-33.5 29t-64.5 23v-192q48 5 78 31.5z" />
    <glyph glyph-name="percent" unicode="%" horiz-adv-x="1000" 
d="M341 -22h-87l414 744h85zM369.5 659.5q39.5 -54.5 39.5 -146.5q0 -91 -44 -140t-125 -49q-82 0 -123.5 48.5t-41.5 143.5q0 58 19 102.5t57.5 70t93.5 25.5q85 0 124.5 -54.5zM180.5 457.5q3.5 -23.5 17.5 -41t43 -17.5q37 0 51.5 30.5t14.5 83.5q0 126 -62 126
q-41 0 -54.5 -35.5t-13.5 -90.5q0 -32 3.5 -55.5zM883.5 326q41.5 -50 41.5 -146q0 -60 -19.5 -103.5t-57.5 -67t-92 -23.5q-83 0 -124 52t-41 145q0 56 18.5 99.5t57 68.5t94.5 25q81 0 122.5 -50zM696.5 123.5q3.5 -24.5 17.5 -43.5t43 -19q36 0 51 31.5t15 89.5
q0 59 -15.5 89t-47.5 30q-42 0 -54.5 -35.5t-12.5 -83.5q0 -34 3.5 -58.5z" />
    <glyph glyph-name="ampersand" unicode="&#x26;" horiz-adv-x="685" 
d="M409 702.5q44 -19.5 70.5 -58t26.5 -93.5q0 -110 -127 -178l92 -113q20 35 26 85h123q-11 -102 -69 -176l145 -169h-174l-58 71q-44 -43 -92.5 -64t-108.5 -21q-66 0 -118.5 26.5t-82.5 75t-30 112.5t40.5 117t119.5 90q-38 45 -53 80t-15 72q0 47 25.5 84t68.5 58t93 21
q54 0 98 -19.5zM264.5 517q11.5 -23 44.5 -60q39 24 56 47t17 55q0 18 -9 34t-24 25t-33 9q-17 0 -31.5 -8t-23 -22.5t-8.5 -32.5q0 -24 11.5 -47zM181.5 150q14.5 -22 38 -34.5t49.5 -12.5q32 0 61 14.5t59 48.5l-122 149q-48 -20 -74 -50.5t-26 -67.5q0 -25 14.5 -47z" />
    <glyph glyph-name="quotesingle" unicode="'" horiz-adv-x="278" 
d="M193 393h-107v321h107v-321z" />
    <glyph glyph-name="parenleft" unicode="(" horiz-adv-x="296" 
d="M222 516q-28 -116 -28 -238q0 -124 26.5 -238t81.5 -222h-118q-64 105 -98 221t-34 229q0 118 33.5 243t98.5 220h119q-53 -99 -81 -215z" />
    <glyph glyph-name="parenright" unicode=")" horiz-adv-x="296" 
d="M210 509.5q34 -116.5 34 -229.5q0 -73 -14 -155t-44 -162t-74 -145h-119q54 104 81.5 217.5t27.5 234.5q0 250 -108 461h118q64 -105 98 -221.5z" />
    <glyph glyph-name="asterisk" unicode="*" horiz-adv-x="407" 
d="M242 589l116 44l27 -77l-118 -39l74 -98l-66 -49l-74 103l-70 -103l-67 49l74 98l-116 39l27 77l113 -44v125h80v-125z" />
    <glyph glyph-name="plus" unicode="+" horiz-adv-x="600" 
d="M354 306h199v-107h-199v-199h-107v199h-199v107h199v199h107v-199z" />
    <glyph glyph-name="comma" unicode="," horiz-adv-x="278" 
d="M218 -2q0 -39 -18.5 -73.5t-53.5 -58.5t-84 -32v72q21 4 37 17.5t25 32t9 37.5v7h-72v154h157v-156z" />
    <glyph glyph-name="hyphen" unicode="-" horiz-adv-x="407" 
d="M354 212h-301v122h301v-122z" />
    <glyph glyph-name="period" unicode="." horiz-adv-x="278" 
d="M217 0h-157v154h157v-154z" />
    <glyph glyph-name="slash" unicode="/" horiz-adv-x="371" 
d="M103 -17h-114l279 748h114z" />
    <glyph glyph-name="zero" unicode="0" horiz-adv-x="556" 
d="M469 622q66 -92 66 -269q0 -180 -66 -273.5t-192 -93.5t-191 93t-65 274q0 177 65 269t191 92t192 -92zM169 238.5q6 -52.5 31 -94t77 -41.5t77.5 40.5t32 93.5t6.5 120q0 64 -7.5 115.5t-33.5 88t-76 36.5q-51 0 -76 -41t-31 -91t-6 -108q0 -66 6 -118.5z" />
    <glyph glyph-name="one" unicode="1" horiz-adv-x="556" 
d="M392 0h-142v454h-176v107h10q85 0 134.5 35.5t60.5 103.5h113v-700z" />
    <glyph glyph-name="two" unicode="2" horiz-adv-x="556" 
d="M411 687q55 -27 87.5 -76.5t32.5 -115.5q0 -68 -32 -120q-20 -31 -50 -58t-85 -62q-70 -44 -104 -73t-56 -60h331v-122h-514q0 68 23 119.5t70 96.5q27 25 61 50t116 80q47 32 72.5 64t25.5 74q0 31 -13 55.5t-36.5 38.5t-55.5 14q-52 0 -81 -43t-30 -118h-136v13
q0 81 31 142t88.5 94.5t134.5 33.5q65 0 120 -27z" />
    <glyph glyph-name="three" unicode="3" horiz-adv-x="556" 
d="M389 691q54 -23 88.5 -67t34.5 -104q0 -53 -25.5 -91.5t-72.5 -51.5v-2q38 -8 66 -31t43 -56t15 -72q0 -70 -35.5 -122.5t-95 -80t-129.5 -27.5q-79 0 -137.5 30t-90.5 86t-32 131v8h135q3 -66 35.5 -102t87.5 -36q33 0 59 14t40.5 39t14.5 57q0 58 -35 81t-105 23h-22
v100h26q60 0 91.5 22.5t31.5 64.5q0 29 -13.5 50t-36 32t-49.5 11q-45 0 -76.5 -30t-31.5 -95h-135q2 73 33 127.5t85 84.5t124 30q58 0 112 -23z" />
    <glyph glyph-name="four" unicode="4" horiz-adv-x="556" 
d="M447 279h93v-117h-93v-162h-135v162h-296v130l304 408h127v-421zM128 279h184v243h-3z" />
    <glyph glyph-name="five" unicode="5" horiz-adv-x="556" 
d="M500 583h-289l-28 -159l2 -2q27 27 60 40.5t77 13.5q67 0 116 -32t74.5 -86t25.5 -120q0 -69 -34 -126.5t-93 -91.5t-130 -34q-75 0 -134 26.5t-93 76.5t-36 119h142q5 -48 36.5 -76.5t78.5 -28.5q35 0 62.5 18.5t43 49.5t15.5 67t-14 66t-41.5 47.5t-66.5 17.5
q-37 0 -61 -13.5t-45 -42.5h-128l69 387h391v-117z" />
    <glyph glyph-name="six" unicode="6" horiz-adv-x="556" 
d="M405.5 691q48.5 -23 79 -67t38.5 -104h-135q-8 39 -34 63t-60 24q-42 0 -71 -29t-44.5 -77t-18.5 -107l2 -2q29 41 67 59.5t90 18.5q56 0 105.5 -27t80 -78.5t30.5 -122.5q0 -72 -31 -130.5t-87 -92t-127 -33.5q-93 0 -153 45.5t-88 126.5t-28 190q0 90 28 173.5
t89.5 138t157.5 54.5q61 0 109.5 -23zM187 168.5q14 -29.5 40 -47.5t59 -18q32 0 56.5 18t37.5 47.5t13 62.5q0 34 -12 64t-36 49t-60 19q-34 0 -59 -16.5t-39 -46t-14 -67.5q0 -35 14 -64.5z" />
    <glyph glyph-name="seven" unicode="7" horiz-adv-x="556" 
d="M517 578q-70 -62 -121 -160t-78.5 -208t-29.5 -210h-152q12 154 73 300.5t162 267.5h-332v132h478v-122z" />
    <glyph glyph-name="eight" unicode="8" horiz-adv-x="556" 
d="M411.5 683.5q52.5 -30.5 77 -74t24.5 -84.5q0 -52 -26.5 -90.5t-75.5 -55.5v-2q64 -15 97.5 -60t33.5 -111q0 -70 -36.5 -119.5t-96.5 -75t-129 -25.5q-70 0 -130.5 24t-98 73.5t-37.5 121.5q0 66 34.5 111.5t97.5 60.5v2q-49 13 -76 51.5t-27 92.5q0 60 34 103t88 65.5
t114 22.5q80 0 132.5 -30.5zM186.5 460q14.5 -21 39 -31.5t53.5 -10.5q46 0 75.5 24.5t29.5 67.5q0 38 -23.5 67.5t-82.5 29.5q-28 0 -52 -11t-39 -33t-15 -53q0 -29 14.5 -50zM172.5 150q16.5 -27 44.5 -42t63 -15q34 0 61.5 15t43 42t15.5 61q0 32 -15.5 57.5t-43 40
t-62.5 14.5t-63 -13.5t-44 -38.5t-16 -59q0 -35 16.5 -62z" />
    <glyph glyph-name="nine" unicode="9" horiz-adv-x="556" 
d="M417.5 669q59.5 -45 88.5 -125.5t29 -190.5q0 -93 -28.5 -176.5t-90.5 -137t-156 -53.5q-61 0 -109.5 23t-79 66.5t-38.5 104.5h135q8 -38 34 -62.5t60 -24.5q57 0 92 54.5t42 158.5l-2 2q-28 -40 -66 -59t-92 -19q-50 0 -99.5 24.5t-82.5 76t-33 127.5q0 70 30 128.5
t86 93t130 34.5q91 0 150.5 -45zM175 404.5q12 -30.5 36 -49t59 -18.5q36 0 61.5 17.5t38.5 47t13 65.5q0 35 -14 64.5t-40 47.5t-59 18q-32 0 -56.5 -18t-37.5 -47.5t-13 -62.5q0 -34 12 -64.5z" />
    <glyph glyph-name="colon" unicode=":" horiz-adv-x="278" 
d="M218 354h-157v154h157v-154zM218 0h-157v154h157v-154z" />
    <glyph glyph-name="semicolon" unicode=";" horiz-adv-x="278" 
d="M218 354h-157v154h157v-154zM218 -1q0 -42 -20 -77t-55.5 -58t-80.5 -30v72q30 6 50.5 31t20.5 56v7h-72v154h157v-155z" />
    <glyph glyph-name="less" unicode="&#x3c;" horiz-adv-x="600" 
d="M187 253l367 -146v-115l-508 202v118l508 202v-115z" />
    <glyph glyph-name="equal" unicode="=" horiz-adv-x="600" 
d="M553 306h-505v107h505v-107zM553 92h-505v107h505v-107z" />
    <glyph glyph-name="greater" unicode="&#x3e;" horiz-adv-x="600" 
d="M554 312v-118l-508 -202v115l367 146l-367 146v115z" />
    <glyph glyph-name="question" unicode="?" horiz-adv-x="556" 
d="M417 701q56 -30 81.5 -74.5t25.5 -89.5q0 -47 -13 -79.5t-31 -52.5t-43 -38l-33 -24q-62 -45 -62 -100v-29h-135v29q0 58 21.5 98.5t67.5 76.5q29 23 42.5 36t21 29.5t7.5 40.5q0 44 -22 67t-63 23q-49 0 -76 -35t-27 -95h-147q1 73 32 129t85.5 87t125.5 31
q86 0 142 -30zM350 0h-157v154h157v-154z" />
    <glyph glyph-name="at" unicode="@" horiz-adv-x="800" 
d="M587 692.5q80 -38.5 128.5 -108t48.5 -158.5q0 -93 -42 -158.5t-98.5 -98.5t-95.5 -33q-30 0 -50 15.5t-22 41.5h-2q-18 -29 -46 -43.5t-62 -14.5q-41 0 -77.5 23t-58 63t-21.5 86q0 62 27 121t77 96t114 37q39 0 71 -18t46 -52l16 54h82l-61 -250q-4 -16 -7 -29t-3 -22
q0 -11 4.5 -17t12.5 -6q29 0 56.5 24t44.5 66t17 94q0 75 -34 130.5t-95.5 85.5t-141.5 30q-84 0 -148.5 -38.5t-99.5 -105.5t-35 -152t37 -151.5t104 -103.5t154 -37q62 0 119 21.5t96 60.5h84q-53 -79 -132.5 -120.5t-172.5 -41.5q-105 0 -193.5 49t-140 135t-51.5 190
q0 103 51.5 189t138.5 135.5t190 49.5q91 0 171 -38.5zM312 255q21 -25 57 -25q34 0 62.5 22.5t44.5 57.5t16 71q0 23 -10 42.5t-27.5 31t-40.5 11.5q-33 0 -61.5 -21.5t-45 -55.5t-16.5 -70q0 -39 21 -64z" />
    <glyph glyph-name="A" unicode="A" horiz-adv-x="685" 
d="M692 0h-163l-54 159h-267l-56 -159h-159l271 714h161zM249 276h185l-90 262h-2z" />
    <glyph glyph-name="B" unicode="B" horiz-adv-x="704" 
d="M575.5 671q57.5 -43 57.5 -133q0 -54 -24.5 -90.5t-72.5 -59.5q65 -18 98 -65.5t33 -115.5t-34.5 -114.5t-91.5 -69.5t-126 -23h-346v714h337q112 0 169.5 -43zM455.5 446.5q25.5 21.5 25.5 63.5q0 82 -106 82h-149v-167h160q44 0 69.5 21.5zM480.5 145.5
q29.5 23.5 29.5 70.5q0 51 -29 76.5t-83 25.5h-172v-196h169q56 0 85.5 23.5z" />
    <glyph glyph-name="C" unicode="C" 
d="M536 700q67 -31 109.5 -89t51.5 -137h-152q-5 35 -27.5 63.5t-56.5 45t-72 16.5q-63 0 -106.5 -31t-65.5 -86t-22 -128q0 -69 21.5 -123t65.5 -85t107 -31q68 0 110 42t52 118h152q-8 -89 -49.5 -155t-109.5 -101.5t-155 -35.5q-106 0 -186 48.5t-122.5 133t-42.5 189.5
q0 106 42 192t121.5 135.5t187.5 49.5q80 0 147 -31z" />
    <glyph glyph-name="D" unicode="D" 
d="M547.5 672.5q73.5 -41.5 113.5 -121t40 -190.5q0 -112 -39 -193t-111.5 -124.5t-171.5 -43.5h-310v714h306q99 0 172.5 -41.5zM456.5 154.5q40.5 22.5 64 70.5t23.5 122q0 124 -52 179.5t-154 55.5h-112v-450h139q51 0 91.5 22.5z" />
    <glyph glyph-name="E" unicode="E" horiz-adv-x="648" 
d="M603 582h-377v-153h346v-122h-346v-175h385v-132h-542v714h534v-132z" />
    <glyph glyph-name="F" unicode="F" horiz-adv-x="593" 
d="M571 582h-345v-165h299v-122h-299v-295h-157v714h502v-132z" />
    <glyph glyph-name="G" unicode="G" horiz-adv-x="759" 
d="M532.5 700q66.5 -31 108.5 -88t49 -133h-150q-14 59 -53.5 89.5t-97.5 30.5q-63 0 -106.5 -31.5t-65.5 -87t-22 -126.5q0 -66 20.5 -120t64 -86.5t109.5 -32.5q76 0 119.5 38.5t50.5 115.5h-158v117h300v-386h-100l-16 81q-38 -49 -88 -73.5t-108 -24.5q-106 0 -186 49
t-122.5 133.5t-42.5 188.5q0 107 42 192.5t121.5 135t187.5 49.5q77 0 143.5 -31z" />
    <glyph glyph-name="H" unicode="H" 
d="M226 440h289v274h157v-714h-157v308h-289v-308h-157v714h157v-274z" />
    <glyph glyph-name="I" unicode="I" horiz-adv-x="295" 
d="M226 0h-157v714h157v-714z" />
    <glyph glyph-name="J" unicode="J" horiz-adv-x="556" 
d="M487 224q0 -118 -59.5 -179.5t-176.5 -61.5q-72 0 -125.5 27t-82.5 76.5t-29 115.5v64h142v-35q0 -62 22.5 -89t68.5 -27q36 0 54.5 15.5t23.5 38.5t5 57v488h157v-490z" />
    <glyph glyph-name="K" unicode="K" horiz-adv-x="722" 
d="M226 418l279 296h196l-279 -282l306 -432h-197l-215 321l-90 -91v-230h-157v714h157v-296z" />
    <glyph glyph-name="L" unicode="L" horiz-adv-x="593" 
d="M226 132h348v-132h-505v714h157v-582z" />
    <glyph glyph-name="M" unicode="M" horiz-adv-x="907" 
d="M457 223h2l158 491h221v-714h-147v506h-2l-175 -506h-121l-175 501h-2v-501h-147v714h221z" />
    <glyph glyph-name="N" unicode="N" 
d="M523 235h2v479h147v-714h-157l-297 478h-2v-478h-147v714h156z" />
    <glyph glyph-name="O" unicode="O" horiz-adv-x="778" 
d="M574.5 682q79.5 -49 122.5 -134.5t43 -193.5q0 -104 -42.5 -188.5t-122.5 -133.5t-186 -49t-186 49t-122.5 133.5t-42.5 188.5q0 107 42.5 192.5t122 135t186.5 49.5q106 0 185.5 -49zM216.5 232q21.5 -54 65.5 -85.5t107 -31.5q64 0 107.5 32t65 86t21.5 121
q0 71 -21.5 126t-65 87t-108.5 32q-63 0 -106.5 -32t-65 -87t-21.5 -126q0 -68 21.5 -122z" />
    <glyph glyph-name="P" unicode="P" horiz-adv-x="667" 
d="M528 684q55 -30 82.5 -82t27.5 -117q0 -66 -27.5 -117.5t-82.5 -81.5t-135 -30h-167v-256h-157v714h323q81 0 136 -30zM453 403.5q33 25.5 33 81.5q0 55 -32.5 81t-101.5 26h-126v-214h125q69 0 102 25.5z" />
    <glyph glyph-name="Q" unicode="Q" horiz-adv-x="778" 
d="M573.5 682.5q79.5 -48.5 123 -134t43.5 -194.5q0 -77 -23.5 -143.5t-69.5 -119.5l89 -81l-73 -77l-101 92q-73 -42 -173 -42q-107 0 -186.5 49.5t-122 134t-42.5 187.5q0 107 42 192.5t121.5 135t187.5 49.5q105 0 184.5 -48.5zM213.5 240q18.5 -54 62.5 -89.5t114 -35.5
q27 0 40.5 2t21.5 8l-67 61l73 78l81 -74q22 29 33 71t11 93q0 73 -22 128t-66 86t-107 31q-62 0 -105.5 -31.5t-65.5 -86.5t-22 -127q0 -60 18.5 -114z" />
    <glyph glyph-name="R" unicode="R" horiz-adv-x="722" 
d="M563.5 688q47.5 -26 73.5 -71t26 -100q0 -134 -113 -179v-2q46 -13 68.5 -47t29 -70.5t8.5 -87.5q2 -52 8.5 -82.5t19.5 -48.5h-157q-8 20 -12 48.5t-8 75.5q-4 56 -14.5 88.5t-35.5 49.5t-73 17h-158v-279h-157v714h385q62 0 109.5 -26zM478.5 415q27.5 24 27.5 78
q0 52 -27.5 75.5t-80.5 23.5h-172v-201h173q52 0 79.5 24z" />
    <glyph glyph-name="S" unicode="S" horiz-adv-x="649" 
d="M459.5 706.5q64.5 -24.5 103 -76t38.5 -129.5h-152q-4 55 -37.5 81.5t-102.5 26.5q-47 0 -78 -20.5t-31 -60.5q0 -27 14 -41.5t50.5 -26.5t125.5 -34q71 -18 119 -38.5t82 -63t34 -112.5q0 -68 -35 -119.5t-102 -80.5t-160 -29q-80 0 -149 26.5t-112 82.5t-43 140v5h152
q0 -48 22.5 -77.5t58 -42t76.5 -12.5q60 0 100 21.5t40 67.5q0 34 -28.5 56.5t-94.5 38.5l-47 12q-10 3 -41 11t-57 16q-80 27 -118.5 73t-38.5 115t38 117.5t99.5 73t129.5 24.5q80 0 144.5 -24.5z" />
    <glyph glyph-name="T" unicode="T" horiz-adv-x="611" 
d="M598 582h-214v-582h-157v582h-214v132h585v-132z" />
    <glyph glyph-name="U" unicode="U" 
d="M223 267q0 -79 35.5 -115.5t111.5 -36.5q55 0 87 16t46.5 49t14.5 87v447h157v-447q0 -89 -34.5 -153t-102.5 -97.5t-168 -33.5q-152 0 -228 74t-76 210v447h157v-447z" />
    <glyph glyph-name="V" unicode="V" horiz-adv-x="630" 
d="M313 212h2l161 502h162l-237 -714h-177l-232 714h162z" />
    <glyph glyph-name="W" unicode="W" horiz-adv-x="944" 
d="M273 228h2l124 486h147l122 -492h2l117 492h154l-192 -714h-156l-121 486h-2l-119 -486h-159l-189 714h157z" />
    <glyph glyph-name="X" unicode="X" horiz-adv-x="667" 
d="M336 486l145 228h172l-229 -341l249 -373h-187l-156 247l-159 -247h-177l250 374l-230 340h182z" />
    <glyph glyph-name="Y" unicode="Y" horiz-adv-x="667" 
d="M335 432l166 282h175l-265 -440v-274h-157v278l-263 436h177z" />
    <glyph glyph-name="Z" unicode="Z" horiz-adv-x="648" 
d="M615 590l-383 -458h393v-132h-602v124l383 458h-353v132h562v-124z" />
    <glyph glyph-name="bracketleft" unicode="[" horiz-adv-x="333" 
d="M332 619h-122v-689h122v-112h-264v913h264v-112z" />
    <glyph glyph-name="backslash" unicode="\" horiz-adv-x="371" 
d="M382 -17h-114l-279 748h114z" />
    <glyph glyph-name="bracketright" unicode="]" horiz-adv-x="333" 
d="M265 -182h-264v112h122v689h-122v112h264v-913z" />
    <glyph glyph-name="asciicircum" unicode="^" horiz-adv-x="600" 
d="M539 315h-117l-122 275l-122 -275h-117l172 385h134z" />
    <glyph glyph-name="underscore" unicode="_" horiz-adv-x="500" 
d="M500 -125h-500v50h500v-50z" />
    <glyph glyph-name="grave" unicode="`" horiz-adv-x="259" 
d="M205 589h-99l-154 142h157z" />
    <glyph glyph-name="a" unicode="a" horiz-adv-x="574" 
d="M461.5 493.5q56.5 -37.5 56.5 -109.5v-274q0 -34 4.5 -64.5t13.5 -45.5h-144q-9 28 -10 50q-30 -31 -74.5 -47.5t-99.5 -16.5q-53 0 -93 18t-61.5 53t-21.5 84q0 71 45 110q25 21 64 33t103 19q52 6 78.5 12t40 18t13.5 34q0 40 -24 54.5t-67 14.5q-45 0 -68 -19t-27 -59
h-142q3 56 33.5 94.5t84 58.5t126.5 20q113 0 169.5 -37.5zM261 81q57 0 86 30t29 87v55q-10 -9 -30 -14.5t-56 -10.5q-40 -5 -64.5 -13.5t-38 -24.5t-13.5 -43q0 -66 87 -66z" />
    <glyph glyph-name="b" unicode="b" horiz-adv-x="611" 
d="M196 454h2q24 36 66.5 56.5t96.5 20.5q55 0 104 -30t79.5 -91.5t30.5 -150.5q0 -87 -29.5 -148.5t-78.5 -93t-107 -31.5q-62 0 -105 20.5t-64 59.5h-2v-66h-135v714h142v-260zM205 172.5q14 -37.5 41.5 -58.5t65.5 -21q39 0 66 21.5t41 59t14 84.5t-13.5 84.5t-41 59.5
t-67.5 22q-38 0 -65 -21.5t-41 -59t-14 -85.5t14 -85.5z" />
    <glyph glyph-name="c" unicode="c" horiz-adv-x="574" 
d="M422 507.5q54 -23.5 87 -67.5t36 -105h-139q-14 89 -105 89q-41 0 -68 -23.5t-40 -62t-13 -82.5q0 -45 12.5 -81.5t39 -59t66.5 -22.5q47 0 76.5 26.5t36.5 78.5h137q-9 -67 -42 -115t-85.5 -72.5t-121.5 -24.5q-79 0 -138 34.5t-91 95t-32 135.5q0 82 32 145.5t91.5 99
t140.5 35.5q66 0 120 -23.5z" />
    <glyph glyph-name="d" unicode="d" horiz-adv-x="611" 
d="M558 0h-135v66h-2q-23 -39 -63 -59.5t-94 -20.5q-74 0 -126.5 37.5t-79 100.5t-26.5 139q0 73 26.5 134t78.5 97.5t124 36.5q48 0 89 -20t64 -57h2v260h142v-714zM187.5 178q13.5 -38 42 -61.5t69.5 -23.5q60 0 91 44t31 123q0 75 -30.5 119.5t-92.5 44.5
q-60 0 -92 -44.5t-32 -120.5q0 -43 13.5 -81z" />
    <glyph glyph-name="e" unicode="e" horiz-adv-x="574" 
d="M429 493.5q57 -37.5 86.5 -101.5t29.5 -142l-1 -26h-373q3 -67 34 -99t92 -32q26 0 50 9t41 24.5t22 33.5h125q-28 -88 -88.5 -131t-153.5 -43q-81 0 -140.5 34.5t-91.5 96.5t-32 141q0 77 33.5 139.5t93.5 98t137 35.5q79 0 136 -37.5zM365 398q-27 26 -77 26
q-51 0 -81.5 -29t-35.5 -81h231q-10 58 -37 84z" />
    <glyph glyph-name="f" unicode="f" horiz-adv-x="333" 
d="M85 422h-85v95h85v38q0 78 47 118.5t126 40.5q19 0 75 -4v-106q-27 3 -51 3q-31 0 -43 -13.5t-12 -46.5v-30h98v-95h-98v-422h-142v422z" />
    <glyph glyph-name="g" unicode="g" horiz-adv-x="611" 
d="M352.5 510.5q37.5 -20.5 61.5 -62.5h2v69h135v-485q0 -106 -65.5 -167t-201.5 -61q-61 0 -112 20t-82.5 57.5t-34.5 88.5h141q17 -71 106 -71q55 0 84.5 33t29.5 92v71h-2q-21 -38 -62 -59t-93 -21q-73 0 -122.5 33t-74 91.5t-24.5 135.5q0 68 26 126.5t76 94t120 35.5
q55 0 92.5 -20.5zM208.5 165.5q28.5 -43.5 86.5 -43.5q37 0 64.5 19t42 51.5t14.5 73.5q0 66 -27 112t-95 46q-36 0 -61.5 -19t-39 -52t-13.5 -76q0 -68 28.5 -111.5z" />
    <glyph glyph-name="h" unicode="h" horiz-adv-x="593" 
d="M196 445h3q24 40 65 63t87 23q98 0 143 -50t45 -158v-323h-142v294q0 64 -21 94.5t-70 30.5q-62 0 -86 -37t-24 -111v-271h-142v714h142v-269z" />
    <glyph glyph-name="i" unicode="i" horiz-adv-x="258" 
d="M200 597h-142v117h142v-117zM200 0h-142v517h142v-517z" />
    <glyph glyph-name="j" unicode="j" horiz-adv-x="278" 
d="M209 597h-142v117h142v-117zM209 -29q0 -56 -17.5 -89t-57 -48.5t-106.5 -15.5q-26 0 -47 4v117q11 -4 32 -4q30 0 42 12t12 35v535h142v-546z" />
    <glyph glyph-name="k" unicode="k" horiz-adv-x="574" 
d="M209 331l179 186h168l-195 -190l217 -327h-172l-142 231l-55 -53v-178h-142v714h142v-383z" />
    <glyph glyph-name="l" unicode="l" horiz-adv-x="258" 
d="M200 0h-142v714h142v-714z" />
    <glyph glyph-name="m" unicode="m" horiz-adv-x="906" 
d="M447 508.5q38 -22.5 56 -63.5q29 41 69.5 63.5t87.5 22.5q94 0 141 -48t47 -136v-347h-142v299q0 39 -6 64.5t-25 40.5t-56 15q-49 0 -72 -33t-23 -97v-289h-142v305q0 38 -6 62t-25 38t-55 14q-20 0 -42 -10.5t-38 -37t-16 -70.5v-301h-142v517h134v-70h2q59 84 158 84
q57 0 95 -22.5z" />
    <glyph glyph-name="n" unicode="n" horiz-adv-x="593" 
d="M494 481q45 -50 45 -159v-322h-142v293q0 65 -21 95.5t-70 30.5q-43 0 -67 -18t-33.5 -50.5t-9.5 -81.5v-269h-142v517h135v-72h3q25 41 67 63.5t92 22.5q98 0 143 -50z" />
    <glyph glyph-name="o" unicode="o" horiz-adv-x="611" 
d="M446.5 497q60.5 -34 93.5 -96t33 -143q0 -82 -33.5 -143.5t-94.5 -95t-140 -33.5q-81 0 -141 34t-93 95.5t-33 142.5q0 82 33 143.5t93.5 95.5t140.5 34q81 0 141.5 -34zM212.5 136q32.5 -43 92.5 -43q62 0 94 43.5t32 121.5q0 72 -29.5 119t-97.5 47q-59 0 -91.5 -43.5
t-32.5 -122.5t32.5 -122z" />
    <glyph glyph-name="p" unicode="p" horiz-adv-x="611" 
d="M474 494.5q53 -36.5 79.5 -99.5t26.5 -142q0 -73 -26.5 -133.5t-77.5 -97t-123 -36.5q-48 0 -89 20.5t-66 57.5h-2v-246h-142v699h135v-66h2q25 40 64 60t90 20q76 0 129 -36.5zM222 138q31 -45 93 -45q63 0 93 45t30 119q0 43 -12 81t-40 62t-73 24q-58 0 -90 -44
t-32 -123q0 -74 31 -119z" />
    <glyph glyph-name="q" unicode="q" horiz-adv-x="611" 
d="M358.5 510.5q40.5 -20.5 62.5 -59.5h2v66h135v-699h-142v247h-2q-23 -38 -66 -58.5t-97 -20.5q-52 0 -102.5 27.5t-83.5 87.5t-33 153q0 75 26.5 138t78.5 101t127 38q54 0 94.5 -20.5zM204.5 138q30.5 -45 92.5 -45q63 0 93.5 45t30.5 118q0 43 -12 81t-39.5 62.5
t-70.5 24.5q-62 0 -93.5 -46t-31.5 -120q0 -75 30.5 -120z" />
    <glyph glyph-name="r" unicode="r" horiz-adv-x="389" 
d="M387 526v-132q-23 5 -51 5q-73 0 -106.5 -44.5t-33.5 -121.5v-233h-142v517h135v-96h2q13 32 38.5 57t58.5 39t68 14q13 0 31 -5z" />
    <glyph glyph-name="s" unicode="s" horiz-adv-x="537" 
d="M429 488.5q58 -42.5 65 -122.5h-135q-3 37 -27.5 53.5t-69.5 16.5q-79 0 -79 -48q0 -17 11 -28.5t35 -20.5t65 -17q76 -15 113 -29t61 -34q40 -36 40 -93q0 -63 -32.5 -103.5t-85.5 -58.5t-118 -18q-72 0 -125.5 20.5t-84.5 61t-33 100.5h135q0 -42 31 -64.5t78 -22.5
q39 0 66 17t27 49q0 19 -15.5 32t-48.5 24t-92 23q-61 13 -97.5 31t-54 44.5t-17.5 63.5q0 82 57.5 124t167.5 42q105 0 163 -42.5z" />
    <glyph glyph-name="t" unicode="t" horiz-adv-x="352" 
d="M234 517h104v-95h-104v-256q0 -25 5 -37.5t17.5 -17.5t37.5 -5q28 0 44 4v-111q-30 -5 -84 -5q-84 0 -123 28.5t-39 96.5v303h-86v95h86v155h142v-155z" />
    <glyph glyph-name="u" unicode="u" horiz-adv-x="593" 
d="M196 224q0 -63 20.5 -94.5t70.5 -31.5q58 0 84 35t26 112v272h142v-517h-135v72h-3q-26 -42 -68 -64t-91 -22q-67 0 -108.5 23t-60.5 69t-19 118v321h142v-293z" />
    <glyph glyph-name="v" unicode="v" horiz-adv-x="520" 
d="M263 164h2l109 353h141l-175 -517h-158l-177 517h149z" />
    <glyph glyph-name="w" unicode="w" horiz-adv-x="814" 
d="M251 166h2l86 351h138l88 -350h2l95 350h146l-163 -517h-146l-92 347h-2l-88 -347h-147l-164 517h150z" />
    <glyph glyph-name="x" unicode="x" horiz-adv-x="537" 
d="M269 382l90 135h157l-170 -242l191 -275h-162l-108 163l-108 -163h-159l186 272l-170 245h162z" />
    <glyph glyph-name="y" unicode="y" horiz-adv-x="519" 
d="M263 163h2l113 354h147l-216 -582q-23 -61 -64 -89t-112 -28q-39 0 -89 5v117q38 -5 75 -5q29 0 46 18t17 47q0 15 -6 32l-182 485h152z" />
    <glyph glyph-name="z" unicode="z" horiz-adv-x="519" 
d="M478 410l-269 -303h288v-107h-475v107l269 303h-249v107h436v-107z" />
    <glyph glyph-name="braceleft" unicode="{" horiz-adv-x="333" 
d="M279 619q-28 0 -41 -17.5t-13 -53.5v-153q0 -53 -26 -83.5t-73 -35.5v-3q42 -6 70.5 -34.5t28.5 -74.5v-163q0 -37 13.5 -54t41.5 -17h53v-112h-124q-29 0 -58.5 16.5t-48.5 47t-19 70.5v196q0 27 -14 45.5t-35.5 27.5t-42.5 10v87q25 1 46 12t33.5 31t12.5 45v191
q0 38 18.5 69t48 48t60.5 17h123v-112h-54z" />
    <glyph glyph-name="bar" unicode="|" horiz-adv-x="223" 
d="M165 -214h-107v1000h107v-1000z" />
    <glyph glyph-name="braceright" unicode="}" horiz-adv-x="333" 
d="M181 715.5q29 -15.5 49 -46.5t20 -74v-188q0 -26 12.5 -46t33.5 -31t46 -12v-87q-27 -1 -48 -12.5t-32.5 -29.5t-11.5 -39v-198q0 -41 -20 -71.5t-49 -46.5t-55 -16h-126v112h54q28 0 41 18t13 54v161q0 49 28.5 77t70.5 33v3q-49 5 -74 36.5t-25 79.5v156q0 71 -54 71
h-54v112h126q26 0 55 -15.5z" />
    <glyph glyph-name="asciitilde" unicode="~" horiz-adv-x="600" 
d="M473.5 185.5q-28.5 -20.5 -65.5 -20.5q-24 0 -48.5 8t-61.5 26t-61 26t-46 8q-26 0 -46.5 -17t-37.5 -55l-40 93q23 45 54.5 65.5t70.5 20.5q26 0 53.5 -9t70.5 -29q36 -17 55 -23.5t34 -6.5q23 0 43 16.5t45 55.5l40 -93q-31 -45 -59.5 -65.5z" />
    <glyph glyph-name="Agrave" unicode="&#xc0;" horiz-adv-x="685" 
d="M692 0h-163l-54 159h-267l-56 -159h-159l271 714h161zM249 276h185l-90 262h-2zM411 779h-99l-154 142h157z" />
    <glyph glyph-name="Aacute" unicode="&#xc1;" horiz-adv-x="685" 
d="M692 0h-163l-54 159h-267l-56 -159h-159l271 714h161zM249 276h185l-90 262h-2zM317 779h-99l96 142h157z" />
    <glyph glyph-name="Acircumflex" unicode="&#xc2;" horiz-adv-x="685" 
d="M692 0h-163l-54 159h-267l-56 -159h-159l271 714h161zM249 276h185l-90 262h-2zM520 779h-115l-62 81l-64 -81h-110l111 142h130z" />
    <glyph glyph-name="Atilde" unicode="&#xc3;" horiz-adv-x="685" 
d="M692 0h-163l-54 159h-267l-56 -159h-159l271 714h161zM249 276h185l-90 262h-2zM313.5 906.5q17.5 -4.5 44.5 -14.5q24 -9 38 -12.5t25 -3.5q18 0 28 8t15 27h64q-12 -59 -39.5 -86.5t-72.5 -27.5q-18 0 -36 4t-41 12q-27 10 -41.5 14t-28.5 4q-34 0 -45 -42h-63
q4 33 19.5 61t41 44.5t56.5 16.5q18 0 35.5 -4.5z" />
    <glyph glyph-name="Adieresis" unicode="&#xc4;" horiz-adv-x="685" 
d="M692 0h-163l-54 159h-267l-56 -159h-159l271 714h161zM249 276h185l-90 262h-2zM309 788h-135v117h135v-117zM515 788h-135v117h135v-117z" />
    <glyph glyph-name="Amacron" unicode="&#x100;" horiz-adv-x="685" 
d="M692 0h-163l-54 159h-267l-56 -159h-159l271 714h161zM249 276h185l-90 262h-2zM521 809h-353v75h353v-75z" />
    <glyph glyph-name="Abreve" unicode="&#x102;" horiz-adv-x="685" 
d="M692 0h-163l-54 159h-267l-56 -159h-159l271 714h161zM249 276h185l-90 262h-2zM274.5 871q28.5 -17 65.5 -17q94 0 110 67h63q-9 -70 -53.5 -106t-124.5 -36q-72 0 -112.5 36.5t-46.5 105.5h65q5 -33 33.5 -50z" />
    <glyph glyph-name="Aring" unicode="&#xc5;" horiz-adv-x="685" 
d="M692 0h-163l-54 159h-267l-56 -159h-159l271 714h161zM249 276h185l-90 262h-2zM405 957.5q27 -15.5 42 -41.5t15 -57t-15.5 -57t-42.5 -41.5t-59 -15.5t-59 15t-42.5 41t-15.5 58q0 31 15.5 57.5t42.5 41.5t59 15q33 0 60 -15.5zM301 813.5q17 -17.5 44 -17.5
q28 0 44.5 17.5t16.5 45.5q0 26 -16 44.5t-46 18.5q-26 0 -43 -17t-17 -46q0 -28 17 -45.5z" />
    <glyph glyph-name="Aringacute" unicode="&#x1fa;" horiz-adv-x="685" 
d="M382 858h-99l77 115h147zM397.5 824.5q23.5 -12.5 36.5 -35t13 -50.5q0 -30 -16 -54l261 -685h-163l-54 159h-267l-56 -159h-159l264 683q-17 23 -17 56q0 28 13.5 50.5t37.5 35t53 12.5q30 0 53.5 -12.5zM307.5 701q14.5 -15 36.5 -15t36 15t14 38t-14 38t-36 15
t-36.5 -15t-14.5 -38t14.5 -38zM249 276h185l-90 272h-2z" />
    <glyph glyph-name="Aogonek" unicode="&#x104;" horiz-adv-x="685" 
d="M692 0h-83q-29 -31 -43.5 -49t-22 -35t-7.5 -35q0 -17 10.5 -27.5t26.5 -10.5q29 0 55 32l45 -26q-22 -34 -52 -50t-72 -16q-49 0 -79 22.5t-30 60.5q0 34 25 65.5t80 68.5h-16l-54 159h-267l-56 -159h-159l271 714h161zM249 276h185l-90 262h-2z" />
    <glyph glyph-name="AE" unicode="&#xc6;" horiz-adv-x="981" 
d="M936 582h-332v-153h312v-122h-312v-175h340v-132h-492v159h-224l-72 -159h-167l341 714h606v-132zM280 276h172v306h-34z" />
    <glyph glyph-name="AEacute" unicode="&#x1fc;" horiz-adv-x="981" 
d="M936 582h-332v-153h312v-122h-312v-175h340v-132h-492v159h-224l-72 -159h-167l341 714h606v-132zM280 276h172v306h-34zM623 779h-99l96 142h157z" />
    <glyph glyph-name="Cacute" unicode="&#x106;" 
d="M536 700q67 -31 109.5 -89t51.5 -137h-152q-5 35 -27.5 63.5t-56.5 45t-72 16.5q-63 0 -106.5 -31t-65.5 -86t-22 -128q0 -69 21.5 -123t65.5 -85t107 -31q68 0 110 42t52 118h152q-8 -89 -49.5 -155t-109.5 -101.5t-155 -35.5q-106 0 -186 48.5t-122.5 133t-42.5 189.5
q0 106 42 192t121.5 135.5t187.5 49.5q80 0 147 -31zM357 779h-99l96 142h157z" />
    <glyph glyph-name="Ccircumflex" unicode="&#x108;" 
d="M536 700q67 -31 109.5 -89t51.5 -137h-152q-5 35 -27.5 63.5t-56.5 45t-72 16.5q-63 0 -106.5 -31t-65.5 -86t-22 -128q0 -69 21.5 -123t65.5 -85t107 -31q68 0 110 42t52 118h152q-8 -89 -49.5 -155t-109.5 -101.5t-155 -35.5q-106 0 -186 48.5t-122.5 133t-42.5 189.5
q0 106 42 192t121.5 135.5t187.5 49.5q80 0 147 -31zM560 779h-115l-62 81l-64 -81h-110l111 142h130z" />
    <glyph glyph-name="Ccaron" unicode="&#x10c;" 
d="M536 700q67 -31 109.5 -89t51.5 -137h-152q-5 35 -27.5 63.5t-56.5 45t-72 16.5q-63 0 -106.5 -31t-65.5 -86t-22 -128q0 -69 21.5 -123t65.5 -85t107 -31q68 0 110 42t52 118h152q-8 -89 -49.5 -155t-109.5 -101.5t-155 -35.5q-106 0 -186 48.5t-122.5 133t-42.5 189.5
q0 106 42 192t121.5 135.5t187.5 49.5q80 0 147 -31zM386 840l64 81h110l-111 -142h-130l-110 142h115z" />
    <glyph glyph-name="Cdotaccent" unicode="&#x10a;" 
d="M536 700q67 -31 109.5 -89t51.5 -137h-152q-5 35 -27.5 63.5t-56.5 45t-72 16.5q-63 0 -106.5 -31t-65.5 -86t-22 -128q0 -69 21.5 -123t65.5 -85t107 -31q68 0 110 42t52 118h152q-8 -89 -49.5 -155t-109.5 -101.5t-155 -35.5q-106 0 -186 48.5t-122.5 133t-42.5 189.5
q0 106 42 192t121.5 135.5t187.5 49.5q80 0 147 -31zM452 788h-135v117h135v-117z" />
    <glyph glyph-name="Ccedilla" unicode="&#xc7;" 
d="M536 700q67 -31 109.5 -89t51.5 -137h-152q-6 36 -29 64.5t-56.5 44.5t-70.5 16q-65 0 -108.5 -32.5t-64.5 -87.5t-21 -125q0 -68 21.5 -122t65 -85.5t107.5 -31.5q68 0 110 42t52 118h152q-8 -89 -49 -154.5t-109 -101.5t-155 -36l-26 -35l2 -2q8 3 19.5 5t20.5 2
q40 0 63 -20.5t23 -56.5q0 -44 -33 -68.5t-92 -24.5q-31 0 -57.5 5t-58.5 17l21 48q18 -8 39.5 -13t39.5 -5q22 0 33.5 9t11.5 25q0 15 -11.5 24t-30.5 9q-17 0 -38 -8l-21 24l48 68q-93 10 -162 60t-106 130t-37 178q0 106 42 192t121.5 135.5t187.5 49.5q80 0 147 -31z
" />
    <glyph glyph-name="Dcaron" unicode="&#x10e;" 
d="M547.5 672.5q73.5 -41.5 113.5 -121t40 -190.5q0 -112 -39 -193t-111.5 -124.5t-171.5 -43.5h-310v714h306q99 0 172.5 -41.5zM456.5 154.5q40.5 22.5 64 70.5t23.5 122q0 124 -52 179.5t-154 55.5h-112v-450h139q51 0 91.5 22.5zM334 840l64 81h110l-111 -142h-130
l-110 142h115z" />
    <glyph glyph-name="Dcroat" unicode="&#x110;" 
d="M549.5 671.5q73.5 -42.5 112.5 -122t39 -188.5q0 -110 -38.5 -191.5t-111 -125.5t-172.5 -44h-310v320h-73v98h73v296h306q101 0 174.5 -42.5zM386 320h-160v-188h140q50 0 90 22t64 70t24 123q0 126 -53 180.5t-154 54.5h-111v-164h160v-98z" />
    <glyph glyph-name="Eth" unicode="&#xd0;" 
d="M549.5 671.5q73.5 -42.5 112.5 -122t39 -188.5q0 -110 -38.5 -191.5t-111 -125.5t-172.5 -44h-310v320h-73v98h73v296h306q101 0 174.5 -42.5zM386 320h-160v-188h140q50 0 90 22t64 70t24 123q0 126 -53 180.5t-154 54.5h-111v-164h160v-98z" />
    <glyph glyph-name="Egrave" unicode="&#xc8;" horiz-adv-x="648" 
d="M603 582h-377v-153h346v-122h-346v-175h385v-132h-542v714h534v-132zM390 779h-99l-154 142h157z" />
    <glyph glyph-name="Eacute" unicode="&#xc9;" horiz-adv-x="648" 
d="M603 582h-377v-153h346v-122h-346v-175h385v-132h-542v714h534v-132zM301 779h-99l96 142h157z" />
    <glyph glyph-name="Ecircumflex" unicode="&#xca;" horiz-adv-x="648" 
d="M603 582h-377v-153h346v-122h-346v-175h385v-132h-542v714h534v-132zM504 779h-115l-62 81l-64 -81h-110l111 142h130z" />
    <glyph glyph-name="Ecaron" unicode="&#x11a;" horiz-adv-x="648" 
d="M603 582h-377v-153h346v-122h-346v-175h385v-132h-542v714h534v-132zM330 840l64 81h110l-111 -142h-130l-110 142h115z" />
    <glyph glyph-name="Edieresis" unicode="&#xcb;" horiz-adv-x="648" 
d="M603 582h-377v-153h346v-122h-346v-175h385v-132h-542v714h534v-132zM293 788h-135v117h135v-117zM499 788h-135v117h135v-117z" />
    <glyph glyph-name="Emacron" unicode="&#x112;" horiz-adv-x="648" 
d="M603 582h-377v-153h346v-122h-346v-175h385v-132h-542v714h534v-132zM505 809h-353v75h353v-75z" />
    <glyph glyph-name="Ebreve" unicode="&#x114;" horiz-adv-x="648" 
d="M603 582h-377v-153h346v-122h-346v-175h385v-132h-542v714h534v-132zM263.5 871q28.5 -17 65.5 -17q94 0 110 67h63q-9 -70 -53.5 -106t-124.5 -36q-72 0 -112.5 36.5t-46.5 105.5h65q5 -33 33.5 -50z" />
    <glyph glyph-name="Edotaccent" unicode="&#x116;" horiz-adv-x="648" 
d="M603 582h-377v-153h346v-122h-346v-175h385v-132h-542v714h534v-132zM396 788h-135v117h135v-117z" />
    <glyph glyph-name="Eogonek" unicode="&#x118;" horiz-adv-x="648" 
d="M603 582h-377v-153h346v-122h-346v-175h385v-132h-71q-42 -44 -57.5 -69t-15.5 -50q0 -17 10.5 -27.5t26.5 -10.5q15 0 28 7.5t27 24.5l45 -26q-23 -35 -52.5 -50.5t-71.5 -15.5q-49 0 -79 22.5t-30 60.5q0 33 24.5 64.5t80.5 69.5h-407v714h534v-132z" />
    <glyph glyph-name="Gcircumflex" unicode="&#x11c;" horiz-adv-x="759" 
d="M532.5 700q66.5 -31 108.5 -88t49 -133h-150q-14 59 -53.5 89.5t-97.5 30.5q-63 0 -106.5 -31.5t-65.5 -87t-22 -126.5q0 -66 20.5 -120t64 -86.5t109.5 -32.5q76 0 119.5 38.5t50.5 115.5h-158v117h300v-386h-100l-16 81q-38 -49 -88 -73.5t-108 -24.5q-106 0 -186 49
t-122.5 133.5t-42.5 188.5q0 107 42 192.5t121.5 135t187.5 49.5q77 0 143.5 -31zM559 779h-115l-62 81l-64 -81h-110l111 142h130z" />
    <glyph glyph-name="Gbreve" unicode="&#x11e;" horiz-adv-x="759" 
d="M532.5 700q66.5 -31 108.5 -88t49 -133h-150q-14 59 -53.5 89.5t-97.5 30.5q-63 0 -106.5 -31.5t-65.5 -87t-22 -126.5q0 -66 20.5 -120t64 -86.5t109.5 -32.5q76 0 119.5 38.5t50.5 115.5h-158v117h300v-386h-100l-16 81q-38 -49 -88 -73.5t-108 -24.5q-106 0 -186 49
t-122.5 133.5t-42.5 188.5q0 107 42 192.5t121.5 135t187.5 49.5q77 0 143.5 -31zM313.5 871q28.5 -17 65.5 -17q94 0 110 67h63q-9 -70 -53.5 -106t-124.5 -36q-72 0 -112.5 36.5t-46.5 105.5h65q5 -33 33.5 -50z" />
    <glyph glyph-name="Gdotaccent" unicode="&#x120;" horiz-adv-x="759" 
d="M532.5 700q66.5 -31 108.5 -88t49 -133h-150q-14 59 -53.5 89.5t-97.5 30.5q-63 0 -106.5 -31.5t-65.5 -87t-22 -126.5q0 -66 20.5 -120t64 -86.5t109.5 -32.5q76 0 119.5 38.5t50.5 115.5h-158v117h300v-386h-100l-16 81q-38 -49 -88 -73.5t-108 -24.5q-106 0 -186 49
t-122.5 133.5t-42.5 188.5q0 107 42 192.5t121.5 135t187.5 49.5q77 0 143.5 -31zM451 788h-135v117h135v-117z" />
    <glyph glyph-name="uni0122" unicode="&#x122;" horiz-adv-x="759" 
d="M532.5 700q66.5 -31 108.5 -88t49 -133h-150q-14 59 -53.5 89.5t-97.5 30.5q-63 0 -106.5 -31.5t-65.5 -87t-22 -126.5q0 -66 20.5 -120t64 -86.5t109.5 -32.5q76 0 119.5 38.5t50.5 115.5h-158v117h300v-386h-100l-16 81q-38 -49 -88 -73.5t-108 -24.5q-106 0 -186 49
t-122.5 133.5t-42.5 188.5q0 107 42 192.5t121.5 135t187.5 49.5q77 0 143.5 -31zM452 -122q0 -36 -14 -57t-42 -29.5t-73 -8.5h-6v37q25 2 38.5 10.5t18.5 26.5h-67v93h145v-72z" />
    <glyph glyph-name="Hcircumflex" unicode="&#x124;" 
d="M226 440h289v274h157v-714h-157v308h-289v-308h-157v714h157v-274zM546 779h-115l-62 81l-64 -81h-110l111 142h130z" />
    <glyph glyph-name="Hbar" unicode="&#x126;" 
d="M226 605h289v109h157v-714h-157v281h-289v-281h-157v714h157v-109zM515 516h-289v-113h289v113z" />
    <glyph glyph-name="Igrave" unicode="&#xcc;" horiz-adv-x="295" 
d="M226 0h-157v714h157v-714zM217 779h-99l-154 142h157z" />
    <glyph glyph-name="Iacute" unicode="&#xcd;" horiz-adv-x="295" 
d="M226 0h-157v714h157v-714zM120 779h-99l96 142h157z" />
    <glyph glyph-name="Ibreve" unicode="&#x12c;" horiz-adv-x="295" 
d="M226 0h-157v714h157v-714zM77.5 871q28.5 -17 65.5 -17q94 0 110 67h63q-9 -70 -53.5 -106t-124.5 -36q-72 0 -112.5 36.5t-46.5 105.5h65q5 -33 33.5 -50z" />
    <glyph glyph-name="Icircumflex" unicode="&#xce;" horiz-adv-x="295" 
d="M226 0h-157v714h157v-714zM323 779h-115l-62 81l-64 -81h-110l111 142h130z" />
    <glyph glyph-name="Itilde" unicode="&#x128;" horiz-adv-x="295" 
d="M226 0h-157v714h157v-714zM116.5 906.5q17.5 -4.5 44.5 -14.5q24 -9 38 -12.5t25 -3.5q18 0 28 8t15 27h64q-12 -59 -39.5 -86.5t-72.5 -27.5q-18 0 -36 4t-41 12q-27 10 -41.5 14t-28.5 4q-34 0 -45 -42h-63q4 33 19.5 61t41 44.5t56.5 16.5q18 0 35.5 -4.5z" />
    <glyph glyph-name="Idieresis" unicode="&#xcf;" horiz-adv-x="295" 
d="M226 0h-157v714h157v-714zM112 788h-135v117h135v-117zM318 788h-135v117h135v-117z" />
    <glyph glyph-name="Imacron" unicode="&#x12a;" horiz-adv-x="295" 
d="M226 0h-157v714h157v-714zM324 809h-353v75h353v-75z" />
    <glyph glyph-name="Idotaccent" unicode="&#x130;" horiz-adv-x="295" 
d="M226 0h-157v714h157v-714zM215 788h-135v117h135v-117z" />
    <glyph glyph-name="Iogonek" unicode="&#x12e;" horiz-adv-x="295" 
d="M226 0q-50 -42 -68 -68.5t-18 -52.5q0 -17 9 -26.5t23 -9.5q25 0 46 28l41 -26q-23 -32 -48 -47t-61 -15q-47 0 -74.5 22.5t-27.5 60.5q0 35 26.5 67.5t83.5 66.5h-89v714h157v-714z" />
    <glyph glyph-name="Jcircumflex" unicode="&#x134;" horiz-adv-x="556" 
d="M487 224q0 -118 -59.5 -179.5t-176.5 -61.5q-72 0 -125.5 27t-82.5 76.5t-29 115.5v64h142v-35q0 -62 22.5 -89t68.5 -27q36 0 54.5 15.5t23.5 38.5t5 57v488h157v-490zM453 779h-115l-62 81l-64 -81h-110l111 142h130z" />
    <glyph glyph-name="uni0136" unicode="&#x136;" horiz-adv-x="722" 
d="M226 418l279 296h196l-279 -282l306 -432h-197l-215 321l-90 -91v-230h-157v714h157v-296zM443 -122q0 -36 -14 -57t-42 -29.5t-73 -8.5h-6v37q25 2 38.5 10.5t18.5 26.5h-67v93h145v-72z" />
    <glyph glyph-name="Lacute" unicode="&#x139;" horiz-adv-x="593" 
d="M226 132h348v-132h-505v714h157v-582zM194 779h-99l96 142h157z" />
    <glyph glyph-name="Lcaron" unicode="&#x13d;" horiz-adv-x="593" 
d="M226 132h348v-132h-505v714h157v-582zM402 572h-98l31 142h148z" />
    <glyph glyph-name="uni013B" unicode="&#x13b;" horiz-adv-x="593" 
d="M226 132h348v-132h-505v714h157v-582zM391 -122q0 -36 -14 -57t-42 -29.5t-73 -8.5h-6v37q25 2 38.5 10.5t18.5 26.5h-67v93h145v-72z" />
    <glyph glyph-name="Lslash" unicode="&#x141;" horiz-adv-x="593" 
d="M226 436l211 148v-112l-211 -148v-192h348v-132h-505v214l-80 -56v112l80 56v388h157v-278z" />
    <glyph glyph-name="Ldot" unicode="&#x13f;" horiz-adv-x="593" 
d="M226 132h348v-132h-505v714h157v-582zM475 333h-135v117h135v-117z" />
    <glyph glyph-name="Nacute" unicode="&#x143;" 
d="M523 235h2v479h147v-714h-157l-297 478h-2v-478h-147v714h156zM341 779h-99l96 142h157z" />
    <glyph glyph-name="Ncaron" unicode="&#x147;" 
d="M523 235h2v479h147v-714h-157l-297 478h-2v-478h-147v714h156zM370 840l64 81h110l-111 -142h-130l-110 142h115z" />
    <glyph glyph-name="Ntilde" unicode="&#xd1;" 
d="M523 235h2v479h147v-714h-157l-297 478h-2v-478h-147v714h156zM337.5 906.5q17.5 -4.5 44.5 -14.5q24 -9 38 -12.5t25 -3.5q18 0 28 8t15 27h64q-12 -59 -39.5 -86.5t-72.5 -27.5q-18 0 -36 4t-41 12q-27 10 -41.5 14t-28.5 4q-34 0 -45 -42h-63q4 33 19.5 61t41 44.5
t56.5 16.5q18 0 35.5 -4.5z" />
    <glyph glyph-name="uni0145" unicode="&#x145;" 
d="M523 235h2v479h147v-714h-157l-297 478h-2v-478h-147v714h156zM445 -122q0 -36 -14 -57t-42 -29.5t-73 -8.5h-6v37q25 2 38.5 10.5t18.5 26.5h-67v93h145v-72z" />
    <glyph glyph-name="Ograve" unicode="&#xd2;" horiz-adv-x="778" 
d="M574.5 682q79.5 -49 122.5 -134.5t43 -193.5q0 -104 -42.5 -188.5t-122.5 -133.5t-186 -49t-186 49t-122.5 133.5t-42.5 188.5q0 107 42.5 192.5t122 135t186.5 49.5q106 0 185.5 -49zM216.5 232q21.5 -54 65.5 -85.5t107 -31.5q64 0 107.5 32t65 86t21.5 121
q0 71 -21.5 126t-65 87t-108.5 32q-63 0 -106.5 -32t-65 -87t-21.5 -126q0 -68 21.5 -122zM447 779h-99l-154 142h157z" />
    <glyph glyph-name="Oacute" unicode="&#xd3;" horiz-adv-x="778" 
d="M574.5 682q79.5 -49 122.5 -134.5t43 -193.5q0 -104 -42.5 -188.5t-122.5 -133.5t-186 -49t-186 49t-122.5 133.5t-42.5 188.5q0 107 42.5 192.5t122 135t186.5 49.5q106 0 185.5 -49zM216.5 232q21.5 -54 65.5 -85.5t107 -31.5q64 0 107.5 32t65 86t21.5 121
q0 71 -21.5 126t-65 87t-108.5 32q-63 0 -106.5 -32t-65 -87t-21.5 -126q0 -68 21.5 -122zM363 779h-99l96 142h157z" />
    <glyph glyph-name="Ocircumflex" unicode="&#xd4;" horiz-adv-x="778" 
d="M574.5 682q79.5 -49 122.5 -134.5t43 -193.5q0 -104 -42.5 -188.5t-122.5 -133.5t-186 -49t-186 49t-122.5 133.5t-42.5 188.5q0 107 42.5 192.5t122 135t186.5 49.5q106 0 185.5 -49zM216.5 232q21.5 -54 65.5 -85.5t107 -31.5q64 0 107.5 32t65 86t21.5 121
q0 71 -21.5 126t-65 87t-108.5 32q-63 0 -106.5 -32t-65 -87t-21.5 -126q0 -68 21.5 -122zM566 779h-115l-62 81l-64 -81h-110l111 142h130z" />
    <glyph glyph-name="Otilde" unicode="&#xd5;" horiz-adv-x="778" 
d="M574.5 682q79.5 -49 122.5 -134.5t43 -193.5q0 -104 -42.5 -188.5t-122.5 -133.5t-186 -49t-186 49t-122.5 133.5t-42.5 188.5q0 107 42.5 192.5t122 135t186.5 49.5q106 0 185.5 -49zM216.5 232q21.5 -54 65.5 -85.5t107 -31.5q64 0 107.5 32t65 86t21.5 121
q0 71 -21.5 126t-65 87t-108.5 32q-63 0 -106.5 -32t-65 -87t-21.5 -126q0 -68 21.5 -122zM359.5 906.5q17.5 -4.5 44.5 -14.5q24 -9 38 -12.5t25 -3.5q18 0 28 8t15 27h64q-12 -59 -39.5 -86.5t-72.5 -27.5q-18 0 -36 4t-41 12q-27 10 -41.5 14t-28.5 4q-34 0 -45 -42h-63
q4 33 19.5 61t41 44.5t56.5 16.5q18 0 35.5 -4.5z" />
    <glyph glyph-name="Odieresis" unicode="&#xd6;" horiz-adv-x="778" 
d="M574.5 682q79.5 -49 122.5 -134.5t43 -193.5q0 -104 -42.5 -188.5t-122.5 -133.5t-186 -49t-186 49t-122.5 133.5t-42.5 188.5q0 107 42.5 192.5t122 135t186.5 49.5q106 0 185.5 -49zM216.5 232q21.5 -54 65.5 -85.5t107 -31.5q64 0 107.5 32t65 86t21.5 121
q0 71 -21.5 126t-65 87t-108.5 32q-63 0 -106.5 -32t-65 -87t-21.5 -126q0 -68 21.5 -122zM355 788h-135v117h135v-117zM561 788h-135v117h135v-117z" />
    <glyph glyph-name="Omacron" unicode="&#x14c;" horiz-adv-x="778" 
d="M574.5 682q79.5 -49 122.5 -134.5t43 -193.5q0 -104 -42.5 -188.5t-122.5 -133.5t-186 -49t-186 49t-122.5 133.5t-42.5 188.5q0 107 42.5 192.5t122 135t186.5 49.5q106 0 185.5 -49zM216.5 232q21.5 -54 65.5 -85.5t107 -31.5q64 0 107.5 32t65 86t21.5 121
q0 71 -21.5 126t-65 87t-108.5 32q-63 0 -106.5 -32t-65 -87t-21.5 -126q0 -68 21.5 -122zM567 809h-353v75h353v-75z" />
    <glyph glyph-name="Obreve" unicode="&#x14e;" horiz-adv-x="778" 
d="M574.5 682q79.5 -49 122.5 -134.5t43 -193.5q0 -104 -42.5 -188.5t-122.5 -133.5t-186 -49t-186 49t-122.5 133.5t-42.5 188.5q0 107 42.5 192.5t122 135t186.5 49.5q106 0 185.5 -49zM216.5 232q21.5 -54 65.5 -85.5t107 -31.5q64 0 107.5 32t65 86t21.5 121
q0 71 -21.5 126t-65 87t-108.5 32q-63 0 -106.5 -32t-65 -87t-21.5 -126q0 -68 21.5 -122zM320.5 871q28.5 -17 65.5 -17q94 0 110 67h63q-9 -70 -53.5 -106t-124.5 -36q-72 0 -112.5 36.5t-46.5 105.5h65q5 -33 33.5 -50z" />
    <glyph glyph-name="Ohungarumlaut" unicode="&#x150;" horiz-adv-x="778" 
d="M574.5 682q79.5 -49 122.5 -134.5t43 -193.5q0 -104 -42.5 -188.5t-122.5 -133.5t-186 -49t-186 49t-122.5 133.5t-42.5 188.5q0 107 42.5 192.5t122 135t186.5 49.5q106 0 185.5 -49zM216.5 232q21.5 -54 65.5 -85.5t107 -31.5q64 0 107.5 32t65 86t21.5 121
q0 71 -21.5 126t-65 87t-108.5 32q-63 0 -106.5 -32t-65 -87t-21.5 -126q0 -68 21.5 -122zM324 779h-99l91 142h157zM531 779h-99l91 142h157z" />
    <glyph glyph-name="Oslash" unicode="&#xd8;" horiz-adv-x="778" 
d="M660 606q40 -50 60 -115t20 -137q0 -105 -43 -189.5t-123 -133t-185 -48.5q-64 0 -120.5 19t-102.5 57l-83 -92l-49 43l86 95q-41 50 -61.5 113t-20.5 136q0 106 42 192t121.5 135.5t187.5 49.5q66 0 123.5 -19.5t101.5 -57.5l80 89l50 -44zM223 219l296 329
q-51 51 -131 51q-63 0 -106.5 -32t-65 -87t-21.5 -126q0 -77 28 -135zM389 115q67 0 110.5 33.5t63.5 87.5t20 118q0 76 -27 136l-295 -326q49 -49 128 -49z" />
    <glyph glyph-name="Oslashacute" unicode="&#x1fe;" horiz-adv-x="778" 
d="M660 606q40 -50 60 -115t20 -137q0 -105 -43 -189.5t-123 -133t-185 -48.5q-64 0 -120.5 19t-102.5 57l-83 -92l-49 43l86 95q-41 50 -61.5 113t-20.5 136q0 106 42 192t121.5 135.5t187.5 49.5q66 0 123.5 -19.5t101.5 -57.5l80 89l50 -44zM223 219l296 329
q-51 51 -131 51q-63 0 -106.5 -32t-65 -87t-21.5 -126q0 -77 28 -135zM389 115q67 0 110.5 33.5t63.5 87.5t20 118q0 76 -27 136l-295 -326q49 -49 128 -49zM431 779h-99l96 142h157z" />
    <glyph glyph-name="OE" unicode="&#x152;" horiz-adv-x="1093" 
d="M472 713.5q44 -17.5 70 -50.5h2v51h500v-132h-354v-153h324v-122h-324v-175h361v-132h-507v54h-2q-31 -34 -76.5 -52.5t-95.5 -18.5q-100 0 -175.5 49.5t-116 133.5t-40.5 187q0 99 39.5 185.5t115.5 139.5t180 53q55 0 99 -17.5zM215 236.5q20 -54.5 62 -88t104 -33.5
q48 0 83.5 21t54.5 57.5t19 83.5v172q0 42 -19.5 76.5t-54.5 54t-81 19.5q-63 0 -105.5 -33.5t-62.5 -88.5t-20 -122q0 -64 20 -118.5z" />
    <glyph glyph-name="Racute" unicode="&#x154;" horiz-adv-x="722" 
d="M563.5 688q47.5 -26 73.5 -71t26 -100q0 -134 -113 -179v-2q46 -13 68.5 -47t29 -70.5t8.5 -87.5q2 -52 8.5 -82.5t19.5 -48.5h-157q-8 20 -12 48.5t-8 75.5q-4 56 -14.5 88.5t-35.5 49.5t-73 17h-158v-279h-157v714h385q62 0 109.5 -26zM478.5 415q27.5 24 27.5 78
q0 52 -27.5 75.5t-80.5 23.5h-172v-201h173q52 0 79.5 24zM311 779h-99l96 142h157z" />
    <glyph glyph-name="Rcaron" unicode="&#x158;" horiz-adv-x="722" 
d="M563.5 688q47.5 -26 73.5 -71t26 -100q0 -134 -113 -179v-2q46 -13 68.5 -47t29 -70.5t8.5 -87.5q2 -52 8.5 -82.5t19.5 -48.5h-157q-8 20 -12 48.5t-8 75.5q-4 56 -14.5 88.5t-35.5 49.5t-73 17h-158v-279h-157v714h385q62 0 109.5 -26zM478.5 415q27.5 24 27.5 78
q0 52 -27.5 75.5t-80.5 23.5h-172v-201h173q52 0 79.5 24zM340 840l64 81h110l-111 -142h-130l-110 142h115z" />
    <glyph glyph-name="uni0156" unicode="&#x156;" horiz-adv-x="722" 
d="M563.5 688q47.5 -26 73.5 -71t26 -100q0 -134 -113 -179v-2q46 -13 68.5 -47t29 -70.5t8.5 -87.5q2 -52 8.5 -82.5t19.5 -48.5h-157q-8 20 -12 48.5t-8 75.5q-4 56 -14.5 88.5t-35.5 49.5t-73 17h-158v-279h-157v714h385q62 0 109.5 -26zM478.5 415q27.5 24 27.5 78
q0 52 -27.5 75.5t-80.5 23.5h-172v-201h173q52 0 79.5 24zM440 -122q0 -36 -14 -57t-42 -29.5t-73 -8.5h-6v37q25 2 38.5 10.5t18.5 26.5h-67v93h145v-72z" />
    <glyph glyph-name="Sacute" unicode="&#x15a;" horiz-adv-x="649" 
d="M459.5 706.5q64.5 -24.5 103 -76t38.5 -129.5h-152q-4 55 -37.5 81.5t-102.5 26.5q-47 0 -78 -20.5t-31 -60.5q0 -27 14 -41.5t50.5 -26.5t125.5 -34q71 -18 119 -38.5t82 -63t34 -112.5q0 -68 -35 -119.5t-102 -80.5t-160 -29q-80 0 -149 26.5t-112 82.5t-43 140v5h152
q0 -48 22.5 -77.5t58 -42t76.5 -12.5q60 0 100 21.5t40 67.5q0 34 -28.5 56.5t-94.5 38.5l-47 12q-10 3 -41 11t-57 16q-80 27 -118.5 73t-38.5 115t38 117.5t99.5 73t129.5 24.5q80 0 144.5 -24.5zM299 779h-99l96 142h157z" />
    <glyph glyph-name="Scircumflex" unicode="&#x15c;" horiz-adv-x="649" 
d="M459.5 706.5q64.5 -24.5 103 -76t38.5 -129.5h-152q-4 55 -37.5 81.5t-102.5 26.5q-47 0 -78 -20.5t-31 -60.5q0 -27 14 -41.5t50.5 -26.5t125.5 -34q71 -18 119 -38.5t82 -63t34 -112.5q0 -68 -35 -119.5t-102 -80.5t-160 -29q-80 0 -149 26.5t-112 82.5t-43 140v5h152
q0 -48 22.5 -77.5t58 -42t76.5 -12.5q60 0 100 21.5t40 67.5q0 34 -28.5 56.5t-94.5 38.5l-47 12q-10 3 -41 11t-57 16q-80 27 -118.5 73t-38.5 115t38 117.5t99.5 73t129.5 24.5q80 0 144.5 -24.5zM502 779h-115l-62 81l-64 -81h-110l111 142h130z" />
    <glyph glyph-name="Scaron" unicode="&#x160;" horiz-adv-x="649" 
d="M459.5 706.5q64.5 -24.5 103 -76t38.5 -129.5h-152q-4 55 -37.5 81.5t-102.5 26.5q-47 0 -78 -20.5t-31 -60.5q0 -27 14 -41.5t50.5 -26.5t125.5 -34q71 -18 119 -38.5t82 -63t34 -112.5q0 -68 -35 -119.5t-102 -80.5t-160 -29q-80 0 -149 26.5t-112 82.5t-43 140v5h152
q0 -48 22.5 -77.5t58 -42t76.5 -12.5q60 0 100 21.5t40 67.5q0 34 -28.5 56.5t-94.5 38.5l-47 12q-10 3 -41 11t-57 16q-80 27 -118.5 73t-38.5 115t38 117.5t99.5 73t129.5 24.5q80 0 144.5 -24.5zM328 840l64 81h110l-111 -142h-130l-110 142h115z" />
    <glyph glyph-name="Scedilla" unicode="&#x15e;" horiz-adv-x="649" 
d="M460.5 706q64.5 -25 102.5 -76.5t38 -128.5h-152q-3 54 -37 81t-103 27q-46 0 -77.5 -20.5t-31.5 -60.5q0 -18 5.5 -29.5t19.5 -20.5t41 -18q20 -7 64.5 -18.5t103.5 -26.5q93 -23 142 -74t49 -129q0 -68 -34.5 -119t-100.5 -80t-157 -30l-26 -35l2 -2q8 3 19.5 5t20.5 2
q39 0 62.5 -20t23.5 -57q0 -44 -33 -68.5t-93 -24.5q-31 0 -57.5 5t-57.5 17l21 48q18 -8 39.5 -13t38.5 -5q22 0 34 9t12 25q0 15 -11.5 24t-31.5 9q-16 0 -37 -8l-21 24l48 67q-79 8 -138 39t-91.5 83.5t-32.5 122.5v7h152q0 -48 22.5 -77.5t58 -42t76.5 -12.5
q61 0 100.5 22t39.5 67q0 35 -29 57t-97 39q-12 3 -21.5 5.5t-16.5 4.5q-57 14 -95 25q-81 25 -123.5 71t-42.5 119q0 69 38 118t99 73.5t130 24.5q81 0 145.5 -25z" />
    <glyph glyph-name="uni0218" unicode="&#x218;" horiz-adv-x="649" 
d="M459.5 706.5q64.5 -24.5 103 -76t38.5 -129.5h-152q-4 55 -37.5 81.5t-102.5 26.5q-47 0 -78 -20.5t-31 -60.5q0 -27 14 -41.5t50.5 -26.5t125.5 -34q71 -18 119 -38.5t82 -63t34 -112.5q0 -68 -35 -119.5t-102 -80.5t-160 -29q-80 0 -149 26.5t-112 82.5t-43 140v5h152
q0 -48 22.5 -77.5t58 -42t76.5 -12.5q60 0 100 21.5t40 67.5q0 34 -28.5 56.5t-94.5 38.5l-47 12q-10 3 -41 11t-57 16q-80 27 -118.5 73t-38.5 115t38 117.5t99.5 73t129.5 24.5q80 0 144.5 -24.5zM391 -122q0 -36 -14 -57t-42 -29.5t-73 -8.5h-6v37q25 2 38.5 10.5
t18.5 26.5h-67v93h145v-72z" />
    <glyph glyph-name="Tcaron" unicode="&#x164;" horiz-adv-x="611" 
d="M598 582h-214v-582h-157v582h-214v132h585v-132zM307 840l64 81h110l-111 -142h-130l-110 142h115z" />
    <glyph glyph-name="uni021A" unicode="&#x21a;" horiz-adv-x="611" 
d="M598 582h-214v-582h-157v582h-214v132h585v-132zM378 -122q0 -36 -14 -57t-42 -29.5t-73 -8.5h-6v37q25 2 38.5 10.5t18.5 26.5h-67v93h145v-72z" />
    <glyph glyph-name="Tbar" unicode="&#x166;" horiz-adv-x="611" 
d="M598 582h-214v-120h147v-96h-147v-366h-157v366h-147v96h147v120h-214v132h585v-132z" />
    <glyph glyph-name="Thorn" unicode="&#xde;" horiz-adv-x="667" 
d="M226 617h167q78 0 133.5 -29.5t83.5 -81t28 -118.5q0 -64 -27 -116t-82.5 -82.5t-137.5 -30.5h-165v-159h-157v714h157v-97zM453 306.5q33 25.5 33 81.5t-33 81.5t-104 25.5h-123v-214h125q69 0 102 25.5z" />
    <glyph glyph-name="Ugrave" unicode="&#xd9;" 
d="M223 267q0 -79 35.5 -115.5t111.5 -36.5q55 0 87 16t46.5 49t14.5 87v447h157v-447q0 -89 -34.5 -153t-102.5 -97.5t-168 -33.5q-152 0 -228 74t-76 210v447h157v-447zM428 779h-99l-154 142h157z" />
    <glyph glyph-name="Uacute" unicode="&#xda;" 
d="M223 267q0 -79 35.5 -115.5t111.5 -36.5q55 0 87 16t46.5 49t14.5 87v447h157v-447q0 -89 -34.5 -153t-102.5 -97.5t-168 -33.5q-152 0 -228 74t-76 210v447h157v-447zM344 779h-99l96 142h157z" />
    <glyph glyph-name="Ucircumflex" unicode="&#xdb;" 
d="M223 267q0 -79 35.5 -115.5t111.5 -36.5q55 0 87 16t46.5 49t14.5 87v447h157v-447q0 -89 -34.5 -153t-102.5 -97.5t-168 -33.5q-152 0 -228 74t-76 210v447h157v-447zM547 779h-115l-62 81l-64 -81h-110l111 142h130z" />
    <glyph glyph-name="Utilde" unicode="&#x168;" 
d="M223 267q0 -79 35.5 -115.5t111.5 -36.5q55 0 87 16t46.5 49t14.5 87v447h157v-447q0 -89 -34.5 -153t-102.5 -97.5t-168 -33.5q-152 0 -228 74t-76 210v447h157v-447zM340.5 906.5q17.5 -4.5 44.5 -14.5q24 -9 38 -12.5t25 -3.5q18 0 28 8t15 27h64q-12 -59 -39.5 -86.5
t-72.5 -27.5q-18 0 -36 4t-41 12q-27 10 -41.5 14t-28.5 4q-34 0 -45 -42h-63q4 33 19.5 61t41 44.5t56.5 16.5q18 0 35.5 -4.5z" />
    <glyph glyph-name="Udieresis" unicode="&#xdc;" 
d="M223 267q0 -79 35.5 -115.5t111.5 -36.5q55 0 87 16t46.5 49t14.5 87v447h157v-447q0 -89 -34.5 -153t-102.5 -97.5t-168 -33.5q-152 0 -228 74t-76 210v447h157v-447zM336 788h-135v117h135v-117zM542 788h-135v117h135v-117z" />
    <glyph glyph-name="Umacron" unicode="&#x16a;" 
d="M223 267q0 -79 35.5 -115.5t111.5 -36.5q55 0 87 16t46.5 49t14.5 87v447h157v-447q0 -89 -34.5 -153t-102.5 -97.5t-168 -33.5q-152 0 -228 74t-76 210v447h157v-447zM548 809h-353v75h353v-75z" />
    <glyph glyph-name="Ubreve" unicode="&#x16c;" 
d="M223 267q0 -79 35.5 -115.5t111.5 -36.5q55 0 87 16t46.5 49t14.5 87v447h157v-447q0 -89 -34.5 -153t-102.5 -97.5t-168 -33.5q-152 0 -228 74t-76 210v447h157v-447zM301.5 871q28.5 -17 65.5 -17q94 0 110 67h63q-9 -70 -53.5 -106t-124.5 -36q-72 0 -112.5 36.5
t-46.5 105.5h65q5 -33 33.5 -50z" />
    <glyph glyph-name="Uring" unicode="&#x16e;" 
d="M223 267q0 -79 35.5 -115.5t111.5 -36.5q55 0 87 16t46.5 49t14.5 87v447h157v-447q0 -89 -34.5 -153t-102.5 -97.5t-168 -33.5q-152 0 -228 74t-76 210v447h157v-447zM432 957.5q27 -15.5 42 -41.5t15 -57t-15.5 -57t-42.5 -41.5t-59 -15.5t-59 15t-42.5 41t-15.5 58
q0 31 15.5 57.5t42.5 41.5t59 15q33 0 60 -15.5zM328 813.5q17 -17.5 44 -17.5q28 0 44.5 17.5t16.5 45.5q0 26 -16 44.5t-46 18.5q-26 0 -43 -17t-17 -46q0 -28 17 -45.5z" />
    <glyph glyph-name="Uhungarumlaut" unicode="&#x170;" 
d="M223 267q0 -79 35.5 -115.5t111.5 -36.5q55 0 87 16t46.5 49t14.5 87v447h157v-447q0 -89 -34.5 -153t-102.5 -97.5t-168 -33.5q-152 0 -228 74t-76 210v447h157v-447zM305 779h-99l91 142h157zM512 779h-99l91 142h157z" />
    <glyph glyph-name="Uogonek" unicode="&#x172;" 
d="M223 266q0 -78 35.5 -114.5t111.5 -36.5q55 0 87 16t46.5 49.5t14.5 86.5v447h157v-448q0 -126 -68 -199.5t-199 -82.5q-32 -35 -45 -56.5t-13 -46.5q0 -17 10.5 -27.5t26.5 -10.5q29 0 55 32l45 -26q-23 -35 -52 -50.5t-72 -15.5q-49 0 -79 22.5t-30 60.5
q0 30 19.5 58.5t62.5 59.5q-135 8 -202.5 81.5t-67.5 202.5v446h157v-448z" />
    <glyph glyph-name="Wacute" unicode="&#x1e82;" horiz-adv-x="944" 
d="M273 228h2l124 486h147l122 -492h2l117 492h154l-192 -714h-156l-121 486h-2l-119 -486h-159l-189 714h157zM446 779h-99l96 142h157z" />
    <glyph glyph-name="Wcircumflex" unicode="&#x174;" horiz-adv-x="944" 
d="M273 228h2l124 486h147l122 -492h2l117 492h154l-192 -714h-156l-121 486h-2l-119 -486h-159l-189 714h157zM649 779h-115l-62 81l-64 -81h-110l111 142h130z" />
    <glyph glyph-name="Wdieresis" unicode="&#x1e84;" horiz-adv-x="944" 
d="M273 228h2l124 486h147l122 -492h2l117 492h154l-192 -714h-156l-121 486h-2l-119 -486h-159l-189 714h157zM438 788h-135v117h135v-117zM644 788h-135v117h135v-117z" />
    <glyph glyph-name="Wgrave" unicode="&#x1e80;" horiz-adv-x="944" 
d="M273 228h2l124 486h147l122 -492h2l117 492h154l-192 -714h-156l-121 486h-2l-119 -486h-159l-189 714h157zM541 779h-99l-154 142h157z" />
    <glyph glyph-name="Yacute" unicode="&#xdd;" horiz-adv-x="667" 
d="M335 432l166 282h175l-265 -440v-274h-157v278l-263 436h177zM308 779h-99l96 142h157z" />
    <glyph glyph-name="Ycircumflex" unicode="&#x176;" horiz-adv-x="667" 
d="M335 432l166 282h175l-265 -440v-274h-157v278l-263 436h177zM511 779h-115l-62 81l-64 -81h-110l111 142h130z" />
    <glyph glyph-name="Ydieresis" unicode="&#x178;" horiz-adv-x="667" 
d="M335 432l166 282h175l-265 -440v-274h-157v278l-263 436h177zM300 788h-135v117h135v-117zM506 788h-135v117h135v-117z" />
    <glyph glyph-name="Ygrave" unicode="&#x1ef2;" horiz-adv-x="667" 
d="M335 432l166 282h175l-265 -440v-274h-157v278l-263 436h177zM394 779h-99l-154 142h157z" />
    <glyph glyph-name="Zacute" unicode="&#x179;" horiz-adv-x="648" 
d="M615 590l-383 -458h393v-132h-602v124l383 458h-353v132h562v-124zM300 779h-99l96 142h157z" />
    <glyph glyph-name="Zcaron" unicode="&#x17d;" horiz-adv-x="648" 
d="M615 590l-383 -458h393v-132h-602v124l383 458h-353v132h562v-124zM335 840l64 81h110l-111 -142h-130l-110 142h115z" />
    <glyph glyph-name="Zdotaccent" unicode="&#x17b;" horiz-adv-x="648" 
d="M615 590l-383 -458h393v-132h-602v124l383 458h-353v132h562v-124zM395 788h-135v117h135v-117z" />
    <glyph glyph-name="agrave" unicode="&#xe0;" horiz-adv-x="574" 
d="M461.5 493.5q56.5 -37.5 56.5 -109.5v-274q0 -34 4.5 -64.5t13.5 -45.5h-144q-9 28 -10 50q-30 -31 -74.5 -47.5t-99.5 -16.5q-53 0 -93 18t-61.5 53t-21.5 84q0 71 45 110q25 21 64 33t103 19q52 6 78.5 12t40 18t13.5 34q0 40 -24 54.5t-67 14.5q-45 0 -68 -19t-27 -59
h-142q3 56 33.5 94.5t84 58.5t126.5 20q113 0 169.5 -37.5zM261 81q57 0 86 30t29 87v55q-10 -9 -30 -14.5t-56 -10.5q-40 -5 -64.5 -13.5t-38 -24.5t-13.5 -43q0 -66 87 -66zM356 589h-99l-154 142h157z" />
    <glyph glyph-name="aacute" unicode="&#xe1;" horiz-adv-x="574" 
d="M461.5 493.5q56.5 -37.5 56.5 -109.5v-274q0 -34 4.5 -64.5t13.5 -45.5h-144q-9 28 -10 50q-30 -31 -74.5 -47.5t-99.5 -16.5q-53 0 -93 18t-61.5 53t-21.5 84q0 71 45 110q25 21 64 33t103 19q52 6 78.5 12t40 18t13.5 34q0 40 -24 54.5t-67 14.5q-45 0 -68 -19t-27 -59
h-142q3 56 33.5 94.5t84 58.5t126.5 20q113 0 169.5 -37.5zM261 81q57 0 86 30t29 87v55q-10 -9 -30 -14.5t-56 -10.5q-40 -5 -64.5 -13.5t-38 -24.5t-13.5 -43q0 -66 87 -66zM328 589h-99l96 142h157z" />
    <glyph glyph-name="acircumflex" unicode="&#xe2;" horiz-adv-x="574" 
d="M461.5 493.5q56.5 -37.5 56.5 -109.5v-274q0 -34 4.5 -64.5t13.5 -45.5h-144q-9 28 -10 50q-30 -31 -74.5 -47.5t-99.5 -16.5q-53 0 -93 18t-61.5 53t-21.5 84q0 71 45 110q25 21 64 33t103 19q52 6 78.5 12t40 18t13.5 34q0 40 -24 54.5t-67 14.5q-45 0 -68 -19t-27 -59
h-142q3 56 33.5 94.5t84 58.5t126.5 20q113 0 169.5 -37.5zM261 81q57 0 86 30t29 87v55q-10 -9 -30 -14.5t-56 -10.5q-40 -5 -64.5 -13.5t-38 -24.5t-13.5 -43q0 -66 87 -66zM467 589h-115l-62 81l-64 -81h-110l111 142h130z" />
    <glyph glyph-name="atilde" unicode="&#xe3;" horiz-adv-x="574" 
d="M461.5 493.5q56.5 -37.5 56.5 -109.5v-274q0 -34 4.5 -64.5t13.5 -45.5h-144q-9 28 -10 50q-30 -31 -74.5 -47.5t-99.5 -16.5q-53 0 -93 18t-61.5 53t-21.5 84q0 71 45 110q25 21 64 33t103 19q52 6 78.5 12t40 18t13.5 34q0 40 -24 54.5t-67 14.5q-45 0 -68 -19t-27 -59
h-142q3 56 33.5 94.5t84 58.5t126.5 20q113 0 169.5 -37.5zM261 81q57 0 86 30t29 87v55q-10 -9 -30 -14.5t-56 -10.5q-40 -5 -64.5 -13.5t-38 -24.5t-13.5 -43q0 -66 87 -66zM257.5 717q17.5 -4 42.5 -13q25 -10 40 -14t28 -4q18 0 28 8t15 27h64q-12 -60 -40 -87t-72 -27
q-18 0 -35.5 4t-41.5 12q-27 10 -41.5 14t-28.5 4q-33 0 -45 -42h-63q4 32 19.5 60t40.5 45t57 17q15 0 32.5 -4z" />
    <glyph glyph-name="adieresis" unicode="&#xe4;" horiz-adv-x="574" 
d="M461.5 493.5q56.5 -37.5 56.5 -109.5v-274q0 -34 4.5 -64.5t13.5 -45.5h-144q-9 28 -10 50q-30 -31 -74.5 -47.5t-99.5 -16.5q-53 0 -93 18t-61.5 53t-21.5 84q0 71 45 110q25 21 64 33t103 19q52 6 78.5 12t40 18t13.5 34q0 40 -24 54.5t-67 14.5q-45 0 -68 -19t-27 -59
h-142q3 56 33.5 94.5t84 58.5t126.5 20q113 0 169.5 -37.5zM261 81q57 0 86 30t29 87v55q-10 -9 -30 -14.5t-56 -10.5q-40 -5 -64.5 -13.5t-38 -24.5t-13.5 -43q0 -66 87 -66zM256 598h-135v117h135v-117zM462 598h-135v117h135v-117z" />
    <glyph glyph-name="amacron" unicode="&#x101;" horiz-adv-x="574" 
d="M461.5 493.5q56.5 -37.5 56.5 -109.5v-274q0 -34 4.5 -64.5t13.5 -45.5h-144q-9 28 -10 50q-30 -31 -74.5 -47.5t-99.5 -16.5q-53 0 -93 18t-61.5 53t-21.5 84q0 71 45 110q25 21 64 33t103 19q52 6 78.5 12t40 18t13.5 34q0 40 -24 54.5t-67 14.5q-45 0 -68 -19t-27 -59
h-142q3 56 33.5 94.5t84 58.5t126.5 20q113 0 169.5 -37.5zM261 81q57 0 86 30t29 87v55q-10 -9 -30 -14.5t-56 -10.5q-40 -5 -64.5 -13.5t-38 -24.5t-13.5 -43q0 -66 87 -66zM468 619h-353v75h353v-75z" />
    <glyph glyph-name="abreve" unicode="&#x103;" horiz-adv-x="574" 
d="M461.5 493.5q56.5 -37.5 56.5 -109.5v-274q0 -34 4.5 -64.5t13.5 -45.5h-144q-9 28 -10 50q-30 -31 -74.5 -47.5t-99.5 -16.5q-53 0 -93 18t-61.5 53t-21.5 84q0 71 45 110q25 21 64 33t103 19q52 6 78.5 12t40 18t13.5 34q0 40 -24 54.5t-67 14.5q-45 0 -68 -19t-27 -59
h-142q3 56 33.5 94.5t84 58.5t126.5 20q113 0 169.5 -37.5zM261 81q57 0 86 30t29 87v55q-10 -9 -30 -14.5t-56 -10.5q-40 -5 -64.5 -13.5t-38 -24.5t-13.5 -43q0 -66 87 -66zM220 682q28 -18 67 -18q47 0 74 16.5t36 50.5h63q-9 -70 -54 -106t-124 -36q-72 0 -112.5 36.5
t-46.5 105.5h65q4 -31 32 -49z" />
    <glyph glyph-name="aring" unicode="&#xe5;" horiz-adv-x="574" 
d="M461.5 493.5q56.5 -37.5 56.5 -109.5v-274q0 -34 4.5 -64.5t13.5 -45.5h-144q-9 28 -10 50q-30 -31 -74.5 -47.5t-99.5 -16.5q-53 0 -93 18t-61.5 53t-21.5 84q0 71 45 110q25 21 64 33t103 19q52 6 78.5 12t40 18t13.5 34q0 40 -24 54.5t-67 14.5q-45 0 -68 -19t-27 -59
h-142q3 56 33.5 94.5t84 58.5t126.5 20q113 0 169.5 -37.5zM261 81q57 0 86 30t29 87v55q-10 -9 -30 -14.5t-56 -10.5q-40 -5 -64.5 -13.5t-38 -24.5t-13.5 -43q0 -66 87 -66zM355 788.5q28 -15.5 43.5 -43t15.5 -61.5t-16.5 -61.5t-44.5 -43t-62 -15.5q-36 0 -63.5 16
t-43 43.5t-15.5 60.5q0 34 16 61t44.5 43t62.5 16q35 0 63 -15.5zM244.5 636q16.5 -19 46.5 -19q29 0 46.5 18.5t17.5 48.5q0 29 -16.5 48t-47.5 19q-27 0 -45 -18t-18 -49q0 -29 16.5 -48z" />
    <glyph glyph-name="aringacute" unicode="&#x1fb;" horiz-adv-x="574" 
d="M335 802h-98l79 119h147zM350.5 760.5q24.5 -13.5 38.5 -37.5t14 -54t-14.5 -54t-39 -37.5t-54.5 -13.5q-31 0 -55.5 13.5t-38.5 37.5t-14 54t14 54t38.5 37.5t55.5 13.5t55.5 -13.5zM254.5 627q15.5 -16 40.5 -16t40.5 16t15.5 42q0 25 -15 41.5t-42 16.5q-23 0 -39 -16
t-16 -42t15.5 -42zM461.5 493.5q56.5 -37.5 56.5 -108.5v-275q0 -34 4.5 -64.5t13.5 -45.5h-144q-9 28 -10 50q-30 -31 -74 -47.5t-100 -16.5q-53 0 -93 18t-61.5 53t-21.5 84q0 72 45 110q25 21 64 33t102 19q53 6 79.5 11.5t40 17.5t13.5 35q0 40 -24 54.5t-67 14.5
q-45 0 -68 -19t-27 -59h-142q5 85 70 129t174 44q113 0 169.5 -37.5zM261 81q57 0 86 30t29 87v55q-12 -10 -32 -15.5t-67 -11.5q-54 -7 -78.5 -25t-24.5 -54q0 -66 87 -66z" />
    <glyph glyph-name="aogonek" unicode="&#x105;" horiz-adv-x="574" 
d="M461.5 493.5q56.5 -37.5 56.5 -108.5v-275q0 -34 4.5 -64.5t13.5 -45.5h-66q-36 -36 -52 -62.5t-16 -55.5q0 -18 10.5 -28.5t27.5 -10.5q14 0 27 7.5t28 24.5l45 -26q-23 -35 -52 -50.5t-72 -15.5q-49 0 -79 23t-30 61q0 33 22 64t71 69q-15 29 -18 50q-30 -31 -74 -47.5
t-100 -16.5q-53 0 -93 18t-61.5 53t-21.5 84q0 72 45 110q23 20 62.5 32.5t103.5 19.5q55 6 83 13t39 18.5t11 32.5q0 38 -23 53.5t-68 15.5t-68 -19t-27 -59h-142q3 56 33.5 94.5t84 58.5t126.5 20q113 0 169.5 -37.5zM195.5 98q21.5 -17 65.5 -17q57 0 86 30t29 87v55
q-13 -11 -32.5 -16t-67.5 -11q-55 -8 -78.5 -26t-23.5 -53q0 -32 21.5 -49z" />
    <glyph glyph-name="ae" unicode="&#xe6;" horiz-adv-x="907" 
d="M398.5 512.5q45.5 -18.5 68.5 -51.5q32 37 72 53.5t101 16.5q74 0 127.5 -36.5t82 -105.5t28.5 -165h-369v-6q0 -36 15.5 -67.5t44 -50.5t63.5 -19q44 0 70 20t33 61h138q-15 -56 -50.5 -95.5t-84 -60t-103.5 -20.5q-62 0 -112.5 22.5t-80.5 65.5q-32 -43 -88.5 -65.5
t-122.5 -22.5q-88 0 -140.5 39t-52.5 115q0 52 22 84q15 22 36 36.5t55.5 25t90.5 17.5q59 7 88.5 14.5t42 19.5t12.5 33q0 66 -92 66q-94 0 -99 -80h-142q2 58 33.5 97.5t85.5 58.5t124 19q58 0 103.5 -18.5zM723 374q-13 28 -38 45t-61 17q-31 0 -57 -15t-42 -43t-16 -64
h227q0 32 -13 60zM202.5 98.5q22.5 -17.5 65.5 -17.5q29 0 56 12t44 36t17 58v65q-13 -10 -32 -15.5t-70 -12.5q-59 -8 -81 -26.5t-22 -49.5q0 -32 22.5 -49.5z" />
    <glyph glyph-name="aeacute" unicode="&#x1fd;" horiz-adv-x="907" 
d="M398.5 512.5q45.5 -18.5 68.5 -51.5q32 37 72 53.5t101 16.5q74 0 127.5 -36.5t82 -105.5t28.5 -165h-369v-6q0 -36 15.5 -67.5t44 -50.5t63.5 -19q44 0 70 20t33 61h138q-15 -56 -50.5 -95.5t-84 -60t-103.5 -20.5q-62 0 -112.5 22.5t-80.5 65.5q-32 -43 -88.5 -65.5
t-122.5 -22.5q-88 0 -140.5 39t-52.5 115q0 52 22 84q15 22 36 36.5t55.5 25t90.5 17.5q59 7 88.5 14.5t42 19.5t12.5 33q0 66 -92 66q-94 0 -99 -80h-142q2 58 33.5 97.5t85.5 58.5t124 19q58 0 103.5 -18.5zM723 374q-13 28 -38 45t-61 17q-31 0 -57 -15t-42 -43t-16 -64
h227q0 32 -13 60zM202.5 98.5q22.5 -17.5 65.5 -17.5q29 0 56 12t44 36t17 58v65q-13 -10 -32 -15.5t-70 -12.5q-59 -8 -81 -26.5t-22 -49.5q0 -32 22.5 -49.5zM506 589h-99l96 142h157z" />
    <glyph glyph-name="cacute" unicode="&#x107;" horiz-adv-x="574" 
d="M422 507.5q54 -23.5 87 -67.5t36 -105h-139q-14 89 -105 89q-41 0 -68 -23.5t-40 -62t-13 -82.5q0 -45 12.5 -81.5t39 -59t66.5 -22.5q47 0 76.5 26.5t36.5 78.5h137q-9 -67 -42 -115t-85.5 -72.5t-121.5 -24.5q-79 0 -138 34.5t-91 95t-32 135.5q0 82 32 145.5t91.5 99
t140.5 35.5q66 0 120 -23.5zM342 589h-99l96 142h157z" />
    <glyph glyph-name="ccircumflex" unicode="&#x109;" horiz-adv-x="574" 
d="M422 507.5q54 -23.5 87 -67.5t36 -105h-139q-14 89 -105 89q-41 0 -68 -23.5t-40 -62t-13 -82.5q0 -45 12.5 -81.5t39 -59t66.5 -22.5q47 0 76.5 26.5t36.5 78.5h137q-9 -67 -42 -115t-85.5 -72.5t-121.5 -24.5q-79 0 -138 34.5t-91 95t-32 135.5q0 82 32 145.5t91.5 99
t140.5 35.5q66 0 120 -23.5zM481 589h-115l-62 81l-64 -81h-110l111 142h130z" />
    <glyph glyph-name="ccaron" unicode="&#x10d;" horiz-adv-x="574" 
d="M422 507.5q54 -23.5 87 -67.5t36 -105h-139q-14 89 -105 89q-41 0 -68 -23.5t-40 -62t-13 -82.5q0 -45 12.5 -81.5t39 -59t66.5 -22.5q47 0 76.5 26.5t36.5 78.5h137q-9 -67 -42 -115t-85.5 -72.5t-121.5 -24.5q-79 0 -138 34.5t-91 95t-32 135.5q0 82 32 145.5t91.5 99
t140.5 35.5q66 0 120 -23.5zM307 650l64 81h110l-111 -142h-130l-110 142h115z" />
    <glyph glyph-name="cdotaccent" unicode="&#x10b;" horiz-adv-x="574" 
d="M422 507.5q54 -23.5 87 -67.5t36 -105h-139q-14 89 -105 89q-41 0 -68 -23.5t-40 -62t-13 -82.5q0 -45 12.5 -81.5t39 -59t66.5 -22.5q47 0 76.5 26.5t36.5 78.5h137q-9 -67 -42 -115t-85.5 -72.5t-121.5 -24.5q-79 0 -138 34.5t-91 95t-32 135.5q0 82 32 145.5t91.5 99
t140.5 35.5q66 0 120 -23.5zM373 598h-135v117h135v-117z" />
    <glyph glyph-name="ccedilla" unicode="&#xe7;" horiz-adv-x="574" 
d="M422 508q54 -23 87 -67.5t36 -105.5h-139q-14 89 -105 89q-42 0 -69 -24.5t-39.5 -62.5t-12.5 -81t12 -80t38.5 -60t67.5 -23q48 0 77 27.5t36 77.5h137q-9 -63 -38.5 -109.5t-79.5 -73.5t-118 -29l-28 -38l2 -2q17 7 40 7q40 0 63 -20.5t23 -56.5q0 -44 -33 -68.5
t-92 -24.5q-31 0 -58 5t-58 17l21 48q18 -8 39.5 -13t39.5 -5q20 0 32.5 8.5t12.5 25.5q0 15 -11.5 24t-30.5 9q-18 0 -38 -8l-21 24l50 70q-71 7 -122 43.5t-78 94t-27 125.5q0 83 32 146.5t92 98.5t140 35q66 0 120 -23z" />
    <glyph glyph-name="dcaron" unicode="&#x10f;" horiz-adv-x="611" 
d="M558 0h-135v66h-2q-23 -39 -63 -59.5t-94 -20.5q-74 0 -126.5 37.5t-79 100.5t-26.5 139q0 73 26.5 134t78.5 97.5t124 36.5q48 0 89 -20t64 -57h2v260h142v-714zM187.5 178q13.5 -38 42 -61.5t69.5 -23.5q60 0 91 44t31 123q0 75 -30.5 119.5t-92.5 44.5
q-60 0 -92 -44.5t-32 -120.5q0 -43 13.5 -81zM703 572h-98l31 142h148z" />
    <glyph glyph-name="dcroat" unicode="&#x111;" horiz-adv-x="621" 
d="M558 644h81v-76h-81v-568h-135v66h-2q-23 -39 -63 -59.5t-94 -20.5q-74 0 -126.5 37.5t-79 100.5t-26.5 139q0 73 26.5 134t78.5 97.5t124 36.5q48 0 89 -20.5t64 -56.5h2v114h-158v76h158v70h142v-70zM188 176q14 -38 42.5 -60.5t68.5 -22.5q62 0 92 46t30 121
q0 73 -29.5 118.5t-93.5 45.5q-60 0 -92 -44.5t-32 -120.5q0 -45 14 -83z" />
    <glyph glyph-name="eth" unicode="&#xf0;" horiz-adv-x="611" 
d="M308.5 719q25.5 -12 48.5 -26l106 50l46 -59l-89 -41q79 -71 116 -161.5t37 -209.5q0 -83 -33 -148t-94 -101.5t-141 -36.5t-140.5 34t-93.5 94.5t-33 135.5q0 69 26.5 127.5t79.5 93.5t129 35q42 0 77.5 -13t62.5 -37h2q-17 44 -43 80.5t-54 56.5l-117 -56l-46 59l92 43
q-20 11 -45 21.5t-29 12.5l74 70q36 -12 61.5 -24zM209 140.5q29 -47.5 96 -47.5q64 0 95 45t31 119q0 39 -12.5 74t-41.5 57.5t-74 22.5q-39 0 -67 -20t-42 -54.5t-14 -79.5q0 -69 29 -116.5z" />
    <glyph glyph-name="egrave" unicode="&#xe8;" horiz-adv-x="574" 
d="M429 493.5q57 -37.5 86.5 -101.5t29.5 -142l-1 -26h-373q3 -67 34 -99t92 -32q26 0 50 9t41 24.5t22 33.5h125q-28 -88 -88.5 -131t-153.5 -43q-81 0 -140.5 34.5t-91.5 96.5t-32 141q0 77 33.5 139.5t93.5 98t137 35.5q79 0 136 -37.5zM365 398q-27 26 -77 26
q-51 0 -81.5 -29t-35.5 -81h231q-10 58 -37 84zM355 589h-99l-154 142h157z" />
    <glyph glyph-name="eacute" unicode="&#xe9;" horiz-adv-x="574" 
d="M429 493.5q57 -37.5 86.5 -101.5t29.5 -142l-1 -26h-373q3 -67 34 -99t92 -32q26 0 50 9t41 24.5t22 33.5h125q-28 -88 -88.5 -131t-153.5 -43q-81 0 -140.5 34.5t-91.5 96.5t-32 141q0 77 33.5 139.5t93.5 98t137 35.5q79 0 136 -37.5zM365 398q-27 26 -77 26
q-51 0 -81.5 -29t-35.5 -81h231q-10 58 -37 84zM328 589h-99l96 142h157z" />
    <glyph glyph-name="ecircumflex" unicode="&#xea;" horiz-adv-x="574" 
d="M429 493.5q57 -37.5 86.5 -101.5t29.5 -142l-1 -26h-373q3 -67 34 -99t92 -32q26 0 50 9t41 24.5t22 33.5h125q-28 -88 -88.5 -131t-153.5 -43q-81 0 -140.5 34.5t-91.5 96.5t-32 141q0 77 33.5 139.5t93.5 98t137 35.5q79 0 136 -37.5zM365 398q-27 26 -77 26
q-51 0 -81.5 -29t-35.5 -81h231q-10 58 -37 84zM467 589h-115l-62 81l-64 -81h-110l111 142h130z" />
    <glyph glyph-name="ecaron" unicode="&#x11b;" horiz-adv-x="574" 
d="M429 493.5q57 -37.5 86.5 -101.5t29.5 -142l-1 -26h-373q3 -67 34 -99t92 -32q26 0 50 9t41 24.5t22 33.5h125q-28 -88 -88.5 -131t-153.5 -43q-81 0 -140.5 34.5t-91.5 96.5t-32 141q0 77 33.5 139.5t93.5 98t137 35.5q79 0 136 -37.5zM365 398q-27 26 -77 26
q-51 0 -81.5 -29t-35.5 -81h231q-10 58 -37 84zM293 650l64 81h110l-111 -142h-130l-110 142h115z" />
    <glyph glyph-name="edieresis" unicode="&#xeb;" horiz-adv-x="574" 
d="M429 493.5q57 -37.5 86.5 -101.5t29.5 -142l-1 -26h-373q3 -67 34 -99t92 -32q26 0 50 9t41 24.5t22 33.5h125q-28 -88 -88.5 -131t-153.5 -43q-81 0 -140.5 34.5t-91.5 96.5t-32 141q0 77 33.5 139.5t93.5 98t137 35.5q79 0 136 -37.5zM365 398q-27 26 -77 26
q-51 0 -81.5 -29t-35.5 -81h231q-10 58 -37 84zM256 598h-135v117h135v-117zM462 598h-135v117h135v-117z" />
    <glyph glyph-name="emacron" unicode="&#x113;" horiz-adv-x="574" 
d="M429 493.5q57 -37.5 86.5 -101.5t29.5 -142l-1 -26h-373q3 -67 34 -99t92 -32q26 0 50 9t41 24.5t22 33.5h125q-28 -88 -88.5 -131t-153.5 -43q-81 0 -140.5 34.5t-91.5 96.5t-32 141q0 77 33.5 139.5t93.5 98t137 35.5q79 0 136 -37.5zM365 398q-27 26 -77 26
q-51 0 -81.5 -29t-35.5 -81h231q-10 58 -37 84zM468 619h-353v75h353v-75z" />
    <glyph glyph-name="ebreve" unicode="&#x115;" horiz-adv-x="574" 
d="M429 493.5q57 -37.5 86.5 -101.5t29.5 -142l-1 -26h-373q3 -67 34 -99t92 -32q26 0 50 9t41 24.5t22 33.5h125q-28 -88 -88.5 -131t-153.5 -43q-81 0 -140.5 34.5t-91.5 96.5t-32 141q0 77 33.5 139.5t93.5 98t137 35.5q79 0 136 -37.5zM365 398q-27 26 -77 26
q-51 0 -81.5 -29t-35.5 -81h231q-10 58 -37 84zM220 682q28 -18 67 -18q47 0 74 16.5t36 50.5h63q-9 -70 -54 -106t-124 -36q-72 0 -112.5 36.5t-46.5 105.5h65q4 -31 32 -49z" />
    <glyph glyph-name="edotaccent" unicode="&#x117;" horiz-adv-x="574" 
d="M429 493.5q57 -37.5 86.5 -101.5t29.5 -142l-1 -26h-373q3 -67 34 -99t92 -32q26 0 50 9t41 24.5t22 33.5h125q-28 -88 -88.5 -131t-153.5 -43q-81 0 -140.5 34.5t-91.5 96.5t-32 141q0 77 33.5 139.5t93.5 98t137 35.5q79 0 136 -37.5zM365 398q-27 26 -77 26
q-51 0 -81.5 -29t-35.5 -81h231q-10 58 -37 84zM359 598h-135v117h135v-117z" />
    <glyph glyph-name="eogonek" unicode="&#x119;" horiz-adv-x="574" 
d="M429 493.5q57 -37.5 86.5 -101.5t29.5 -142l-1 -26h-373q3 -67 34 -99t93 -32q26 0 49.5 9t40.5 24.5t22 33.5h125q-25 -76 -75.5 -119.5t-128.5 -52.5q-35 -38 -48 -61t-13 -46q0 -17 10.5 -27.5t26.5 -10.5q15 0 28.5 8t26.5 24l45 -26q-23 -35 -52.5 -50.5
t-71.5 -15.5q-49 0 -79 22.5t-30 60.5q0 31 21 60.5t66 61.5q-72 7 -124.5 43.5t-80 95t-27.5 131.5q0 77 33.5 139.5t93.5 98t137 35.5q79 0 136 -37.5zM364 398q-27 26 -76 26q-54 0 -83.5 -31t-33.5 -79h231q-11 58 -38 84z" />
    <glyph glyph-name="gcircumflex" unicode="&#x11d;" horiz-adv-x="611" 
d="M352.5 510.5q37.5 -20.5 61.5 -62.5h2v69h135v-485q0 -106 -65.5 -167t-201.5 -61q-61 0 -112 20t-82.5 57.5t-34.5 88.5h141q17 -71 106 -71q55 0 84.5 33t29.5 92v71h-2q-21 -38 -62 -59t-93 -21q-73 0 -122.5 33t-74 91.5t-24.5 135.5q0 68 26 126.5t76 94t120 35.5
q55 0 92.5 -20.5zM208.5 165.5q28.5 -43.5 86.5 -43.5q37 0 64.5 19t42 51.5t14.5 73.5q0 66 -27 112t-95 46q-36 0 -61.5 -19t-39 -52t-13.5 -76q0 -68 28.5 -111.5zM484 589h-115l-62 81l-64 -81h-110l111 142h130z" />
    <glyph glyph-name="gbreve" unicode="&#x11f;" horiz-adv-x="611" 
d="M352.5 510.5q37.5 -20.5 61.5 -62.5h2v69h135v-485q0 -106 -65.5 -167t-201.5 -61q-61 0 -112 20t-82.5 57.5t-34.5 88.5h141q17 -71 106 -71q55 0 84.5 33t29.5 92v71h-2q-21 -38 -62 -59t-93 -21q-73 0 -122.5 33t-74 91.5t-24.5 135.5q0 68 26 126.5t76 94t120 35.5
q55 0 92.5 -20.5zM208.5 165.5q28.5 -43.5 86.5 -43.5q37 0 64.5 19t42 51.5t14.5 73.5q0 66 -27 112t-95 46q-36 0 -61.5 -19t-39 -52t-13.5 -76q0 -68 28.5 -111.5zM237 682q28 -18 67 -18q47 0 74 16.5t36 50.5h63q-9 -70 -54 -106t-124 -36q-72 0 -112.5 36.5
t-46.5 105.5h65q4 -31 32 -49z" />
    <glyph glyph-name="gdotaccent" unicode="&#x121;" horiz-adv-x="611" 
d="M352.5 510.5q37.5 -20.5 61.5 -62.5h2v69h135v-485q0 -106 -65.5 -167t-201.5 -61q-61 0 -112 20t-82.5 57.5t-34.5 88.5h141q17 -71 106 -71q55 0 84.5 33t29.5 92v71h-2q-21 -38 -62 -59t-93 -21q-73 0 -122.5 33t-74 91.5t-24.5 135.5q0 68 26 126.5t76 94t120 35.5
q55 0 92.5 -20.5zM208.5 165.5q28.5 -43.5 86.5 -43.5q37 0 64.5 19t42 51.5t14.5 73.5q0 66 -27 112t-95 46q-36 0 -61.5 -19t-39 -52t-13.5 -76q0 -68 28.5 -111.5zM376 598h-135v117h135v-117z" />
    <glyph glyph-name="uni0123" unicode="&#x123;" horiz-adv-x="611" 
d="M352.5 510.5q37.5 -20.5 61.5 -62.5h2v69h135v-485q0 -106 -65.5 -167t-201.5 -61q-61 0 -112 20t-82.5 57.5t-34.5 88.5h141q17 -71 106 -71q55 0 84.5 33t29.5 92v71h-2q-21 -38 -62 -59t-93 -21q-73 0 -122.5 33t-74 91.5t-24.5 135.5q0 68 26 126.5t76 94t120 35.5
q55 0 92.5 -20.5zM208.5 165.5q28.5 -43.5 86.5 -43.5q37 0 64.5 19t42 51.5t14.5 73.5q0 66 -27 112t-95 46q-36 0 -61.5 -19t-39 -52t-13.5 -76q0 -68 28.5 -111.5zM332 740q-13 -9 -18 -26h67v-93h-145v70q0 34 11.5 55t39 31.5t77.5 10.5h7v-37q-26 -2 -39 -11z" />
    <glyph glyph-name="hcircumflex" unicode="&#x125;" horiz-adv-x="593" 
d="M494 481q45 -50 45 -158v-323h-142v294q0 64 -21 94.5t-70 30.5q-62 0 -86 -37t-24 -111v-271h-142v714h142v-36l36 46h130l110 -142h-115l-62 81l-64 -81h-35v-137h3q24 40 65 63t87 23q98 0 143 -50z" />
    <glyph glyph-name="hbar" unicode="&#x127;" horiz-adv-x="603" 
d="M206 644h158v-76h-158v-123h3q24 39 64.5 62.5t87.5 23.5q98 0 143 -50t45 -159v-322h-142v294q0 64 -21.5 94.5t-69.5 30.5q-60 0 -85 -36t-25 -111v-272h-142v568h-81v76h81v70h142v-70z" />
    <glyph glyph-name="igrave" unicode="&#xec;" horiz-adv-x="258" 
d="M200 0h-142v517h142v-517zM201 589h-99l-154 142h157z" />
    <glyph glyph-name="iacute" unicode="&#xed;" horiz-adv-x="258" 
d="M200 0h-142v517h142v-517zM156 589h-99l96 142h157z" />
    <glyph glyph-name="ibreve" unicode="&#x12d;" horiz-adv-x="258" 
d="M200 0h-142v517h142v-517zM60 682q28 -18 67 -18q47 0 74 16.5t36 50.5h63q-9 -70 -54 -106t-124 -36q-72 0 -112.5 36.5t-46.5 105.5h65q4 -31 32 -49z" />
    <glyph glyph-name="icircumflex" unicode="&#xee;" horiz-adv-x="258" 
d="M200 0h-142v517h142v-517zM307 589h-115l-62 81l-64 -81h-110l111 142h130z" />
    <glyph glyph-name="itilde" unicode="&#x129;" horiz-adv-x="258" 
d="M200 0h-142v517h142v-517zM97.5 717q17.5 -4 42.5 -13q25 -10 40 -14t28 -4q18 0 28 8t15 27h64q-12 -60 -40 -87t-72 -27q-18 0 -35.5 4t-41.5 12q-27 10 -41.5 14t-28.5 4q-33 0 -45 -42h-63q4 32 19.5 60t40.5 45t57 17q15 0 32.5 -4z" />
    <glyph glyph-name="idieresis" unicode="&#xef;" horiz-adv-x="258" 
d="M200 0h-142v517h142v-517zM96 598h-135v117h135v-117zM302 598h-135v117h135v-117z" />
    <glyph glyph-name="imacron" unicode="&#x12b;" horiz-adv-x="258" 
d="M200 0h-142v517h142v-517zM308 619h-353v75h353v-75z" />
    <glyph glyph-name="iogonek" unicode="&#x12f;" horiz-adv-x="258" 
d="M200 597h-142v117h142v-117zM200 0q-43 -41 -60 -67t-17 -54q0 -18 9 -27t23 -9q25 0 46 28l41 -26q-23 -32 -48 -47t-61 -15q-47 0 -74.5 22.5t-27.5 60.5q0 36 27 68.5t80 65.5h-80v517h142v-517z" />
    <glyph glyph-name="jcircumflex" unicode="&#x135;" horiz-adv-x="278" 
d="M209 -27q0 -56 -17 -89.5t-56 -49.5t-108 -16q-26 0 -47 4v117q11 -4 31 -4q30 0 42.5 11.5t12.5 35.5v535h142v-544zM313 589h-115l-62 81l-64 -81h-110l111 142h130z" />
    <glyph glyph-name="uni0137" unicode="&#x137;" horiz-adv-x="574" 
d="M209 331l179 186h168l-195 -190l217 -327h-172l-142 231l-55 -53v-178h-142v714h142v-383zM380 -122q0 -36 -14 -57t-42 -29.5t-73 -8.5h-6v37q25 2 38.5 10.5t18.5 26.5h-67v93h145v-72z" />
    <glyph glyph-name="kgreenlandic" unicode="&#x138;" horiz-adv-x="565" 
d="M196 313l179 204h168l-194 -202l217 -315h-172l-140 216l-58 -56v-160h-142v517h142v-204z" />
    <glyph glyph-name="lacute" unicode="&#x13a;" horiz-adv-x="258" 
d="M200 673v-673h-142v582h-56l56 83v49h33l7 10h157z" />
    <glyph glyph-name="lcaron" unicode="&#x13e;" horiz-adv-x="258" 
d="M200 0h-142v714h142v-714zM345 572h-98l31 142h148z" />
    <glyph glyph-name="uni013C" unicode="&#x13c;" horiz-adv-x="258" 
d="M200 0h-142v714h142v-714zM201 -122q0 -36 -14 -57t-42 -29.5t-73 -8.5h-6v37q25 2 38.5 10.5t18.5 26.5h-67v93h145v-72z" />
    <glyph glyph-name="lslash" unicode="&#x142;" horiz-adv-x="258" 
d="M200 500l67 53v-102l-67 -53v-398h-142v286l-67 -53v102l67 53v326h142v-214z" />
    <glyph glyph-name="ldot" unicode="&#x140;" horiz-adv-x="258" 
d="M200 0h-142v714h142v-714zM396 333h-135v117h135v-117z" />
    <glyph glyph-name="nacute" unicode="&#x144;" horiz-adv-x="593" 
d="M494 481q45 -50 45 -159v-322h-142v293q0 65 -21 95.5t-70 30.5q-43 0 -67 -18t-33.5 -50.5t-9.5 -81.5v-269h-142v517h135v-72h3q25 41 67 63.5t92 22.5q98 0 143 -50zM333 589h-99l96 142h157z" />
    <glyph glyph-name="ncaron" unicode="&#x148;" horiz-adv-x="593" 
d="M494 481q45 -50 45 -159v-322h-142v293q0 65 -21 95.5t-70 30.5q-43 0 -67 -18t-33.5 -50.5t-9.5 -81.5v-269h-142v517h135v-72h3q25 41 67 63.5t92 22.5q98 0 143 -50zM298 650l64 81h110l-111 -142h-130l-110 142h115z" />
    <glyph glyph-name="ntilde" unicode="&#xf1;" horiz-adv-x="593" 
d="M494 481q45 -50 45 -159v-322h-142v293q0 65 -21 95.5t-70 30.5q-43 0 -67 -18t-33.5 -50.5t-9.5 -81.5v-269h-142v517h135v-72h3q25 41 67 63.5t92 22.5q98 0 143 -50zM262.5 717q17.5 -4 42.5 -13q25 -10 40 -14t28 -4q18 0 28 8t15 27h64q-12 -60 -40 -87t-72 -27
q-18 0 -35.5 4t-41.5 12q-27 10 -41.5 14t-28.5 4q-33 0 -45 -42h-63q4 32 19.5 60t40.5 45t57 17q15 0 32.5 -4z" />
    <glyph glyph-name="uni0146" unicode="&#x146;" horiz-adv-x="593" 
d="M494 481q45 -50 45 -159v-322h-142v293q0 65 -21 95.5t-70 30.5q-43 0 -67 -18t-33.5 -50.5t-9.5 -81.5v-269h-142v517h135v-72h3q25 41 67 63.5t92 22.5q98 0 143 -50zM366 -122q0 -36 -14 -57t-42 -29.5t-73 -8.5h-6v37q25 2 38.5 10.5t18.5 26.5h-67v93h145v-72z" />
    <glyph glyph-name="napostrophe" unicode="&#x149;" horiz-adv-x="737" 
d="M638 481q45 -50 45 -159v-322h-142v293q0 65 -21 95.5t-70 30.5q-43 0 -67 -18t-33.5 -50.5t-9.5 -81.5v-269h-142v517h135v-72h3q25 41 67 63.5t92 22.5q98 0 143 -50zM162 555q0 -41 -18 -76t-50.5 -58t-73.5 -28v66q35 12 50.5 36t15.5 63v2h-66v154h142v-159z" />
    <glyph glyph-name="ograve" unicode="&#xf2;" horiz-adv-x="611" 
d="M446.5 497q60.5 -34 93.5 -96t33 -143q0 -82 -33.5 -143.5t-94.5 -95t-140 -33.5q-81 0 -141 34t-93 95.5t-33 142.5q0 82 33 143.5t93.5 95.5t140.5 34q81 0 141.5 -34zM212.5 136q32.5 -43 92.5 -43q62 0 94 43.5t32 121.5q0 72 -29.5 119t-97.5 47q-59 0 -91.5 -43.5
t-32.5 -122.5t32.5 -122zM368 589h-99l-154 142h157z" />
    <glyph glyph-name="oacute" unicode="&#xf3;" horiz-adv-x="611" 
d="M446.5 497q60.5 -34 93.5 -96t33 -143q0 -82 -33.5 -143.5t-94.5 -95t-140 -33.5q-81 0 -141 34t-93 95.5t-33 142.5q0 82 33 143.5t93.5 95.5t140.5 34q81 0 141.5 -34zM212.5 136q32.5 -43 92.5 -43q62 0 94 43.5t32 121.5q0 72 -29.5 119t-97.5 47q-59 0 -91.5 -43.5
t-32.5 -122.5t32.5 -122zM341 589h-99l96 142h157z" />
    <glyph glyph-name="ocircumflex" unicode="&#xf4;" horiz-adv-x="611" 
d="M446.5 497q60.5 -34 93.5 -96t33 -143q0 -82 -33.5 -143.5t-94.5 -95t-140 -33.5q-81 0 -141 34t-93 95.5t-33 142.5q0 82 33 143.5t93.5 95.5t140.5 34q81 0 141.5 -34zM212.5 136q32.5 -43 92.5 -43q62 0 94 43.5t32 121.5q0 72 -29.5 119t-97.5 47q-59 0 -91.5 -43.5
t-32.5 -122.5t32.5 -122zM480 589h-115l-62 81l-64 -81h-110l111 142h130z" />
    <glyph glyph-name="otilde" unicode="&#xf5;" horiz-adv-x="611" 
d="M446.5 497q60.5 -34 93.5 -96t33 -143q0 -82 -33.5 -143.5t-94.5 -95t-140 -33.5q-81 0 -141 34t-93 95.5t-33 142.5q0 82 33 143.5t93.5 95.5t140.5 34q81 0 141.5 -34zM212.5 136q32.5 -43 92.5 -43q62 0 94 43.5t32 121.5q0 72 -29.5 119t-97.5 47q-59 0 -91.5 -43.5
t-32.5 -122.5t32.5 -122zM270.5 717q17.5 -4 42.5 -13q25 -10 40 -14t28 -4q18 0 28 8t15 27h64q-12 -60 -40 -87t-72 -27q-18 0 -35.5 4t-41.5 12q-27 10 -41.5 14t-28.5 4q-33 0 -45 -42h-63q4 32 19.5 60t40.5 45t57 17q15 0 32.5 -4z" />
    <glyph glyph-name="odieresis" unicode="&#xf6;" horiz-adv-x="611" 
d="M446.5 497q60.5 -34 93.5 -96t33 -143q0 -82 -33.5 -143.5t-94.5 -95t-140 -33.5q-81 0 -141 34t-93 95.5t-33 142.5q0 82 33 143.5t93.5 95.5t140.5 34q81 0 141.5 -34zM212.5 136q32.5 -43 92.5 -43q62 0 94 43.5t32 121.5q0 72 -29.5 119t-97.5 47q-59 0 -91.5 -43.5
t-32.5 -122.5t32.5 -122zM269 598h-135v117h135v-117zM475 598h-135v117h135v-117z" />
    <glyph glyph-name="omacron" unicode="&#x14d;" horiz-adv-x="611" 
d="M446.5 497q60.5 -34 93.5 -96t33 -143q0 -82 -33.5 -143.5t-94.5 -95t-140 -33.5q-81 0 -141 34t-93 95.5t-33 142.5q0 82 33 143.5t93.5 95.5t140.5 34q81 0 141.5 -34zM212.5 136q32.5 -43 92.5 -43q62 0 94 43.5t32 121.5q0 72 -29.5 119t-97.5 47q-59 0 -91.5 -43.5
t-32.5 -122.5t32.5 -122zM481 619h-353v75h353v-75z" />
    <glyph glyph-name="obreve" unicode="&#x14f;" horiz-adv-x="611" 
d="M446.5 497q60.5 -34 93.5 -96t33 -143q0 -82 -33.5 -143.5t-94.5 -95t-140 -33.5q-81 0 -141 34t-93 95.5t-33 142.5q0 82 33 143.5t93.5 95.5t140.5 34q81 0 141.5 -34zM212.5 136q32.5 -43 92.5 -43q62 0 94 43.5t32 121.5q0 72 -29.5 119t-97.5 47q-59 0 -91.5 -43.5
t-32.5 -122.5t32.5 -122zM233 682q28 -18 67 -18q47 0 74 16.5t36 50.5h63q-9 -70 -54 -106t-124 -36q-72 0 -112.5 36.5t-46.5 105.5h65q4 -31 32 -49z" />
    <glyph glyph-name="ohungarumlaut" unicode="&#x151;" horiz-adv-x="611" 
d="M446.5 497q60.5 -34 93.5 -96t33 -143q0 -82 -33.5 -143.5t-94.5 -95t-140 -33.5q-81 0 -141 34t-93 95.5t-33 142.5q0 82 33 143.5t93.5 95.5t140.5 34q81 0 141.5 -34zM212.5 136q32.5 -43 92.5 -43q62 0 94 43.5t32 121.5q0 72 -29.5 119t-97.5 47q-59 0 -91.5 -43.5
t-32.5 -122.5t32.5 -122zM239 589h-99l91 142h157zM446 589h-99l91 142h157z" />
    <glyph glyph-name="oslash" unicode="&#xf8;" horiz-adv-x="611" 
d="M558 512l-54 -61q34 -36 51.5 -85.5t17.5 -107.5q0 -82 -33 -143.5t-94 -95t-141 -33.5q-97 0 -165 50l-59 -67l-37 32l60 68q-66 72 -66 189q0 82 33 143.5t93.5 95.5t140.5 34q95 0 163 -48l53 61zM195 172l193 220q-30 32 -84 32q-60 0 -92 -43.5t-32 -122.5
q0 -51 15 -86zM305 93q62 0 94 43.5t32 121.5q0 51 -16 91l-195 -222q31 -34 85 -34z" />
    <glyph glyph-name="oslashacute" unicode="&#x1ff;" horiz-adv-x="611" 
d="M558 512l-54 -61q34 -36 51.5 -85.5t17.5 -107.5q0 -82 -33 -143.5t-94 -95t-141 -33.5q-97 0 -165 50l-59 -67l-37 32l60 68q-66 72 -66 189q0 82 33 143.5t93.5 95.5t140.5 34q95 0 163 -48l53 61zM195 172l193 220q-30 32 -84 32q-60 0 -92 -43.5t-32 -122.5
q0 -51 15 -86zM305 93q62 0 94 43.5t32 121.5q0 51 -16 91l-195 -222q31 -34 85 -34zM343 589h-99l96 142h157z" />
    <glyph glyph-name="oe" unicode="&#x153;" horiz-adv-x="926" 
d="M398.5 509.5q45.5 -21.5 71.5 -60.5q24 37 73.5 59.5t100.5 22.5q79 0 135.5 -36t87 -105t30.5 -166h-369q0 -62 33 -96.5t90 -34.5q39 0 64.5 17.5t39.5 53.5h138q-16 -56 -50.5 -96t-83.5 -61t-108 -21q-62 0 -111 22.5t-76 65.5q-25 -42 -74 -65t-109 -23
q-77 0 -132 37t-83 99.5t-28 138.5q0 75 31 136.5t89 97.5t134 36q61 0 106.5 -21.5zM191.5 176q11.5 -37 36 -60t62.5 -23q56 0 85 42.5t29 124.5q0 81 -28.5 122.5t-83.5 41.5q-54 0 -83 -46t-29 -122q0 -43 11.5 -80zM724 395.5q-29 28.5 -84 28.5q-48 0 -78.5 -29
t-33.5 -81h227q-2 53 -31 81.5z" />
    <glyph glyph-name="racute" unicode="&#x155;" horiz-adv-x="389" 
d="M387 526v-132q-23 5 -51 5q-73 0 -106.5 -44.5t-33.5 -121.5v-233h-142v517h135v-96h2q13 32 38.5 57t58.5 39t68 14q13 0 31 -5zM257 589h-99l96 142h157z" />
    <glyph glyph-name="rcaron" unicode="&#x159;" horiz-adv-x="389" 
d="M387 526v-132q-23 5 -51 5q-73 0 -106.5 -44.5t-33.5 -121.5v-233h-142v517h135v-96h2q13 32 38.5 57t58.5 39t68 14q13 0 31 -5zM222 650l64 81h110l-111 -142h-130l-110 142h115z" />
    <glyph glyph-name="uni0157" unicode="&#x157;" horiz-adv-x="389" 
d="M387 526v-132q-23 5 -51 5q-73 0 -106.5 -44.5t-33.5 -121.5v-233h-142v517h135v-96h2q13 32 38.5 57t58.5 39t68 14q13 0 31 -5zM199 -122q0 -36 -14 -57t-42 -29.5t-73 -8.5h-6v37q25 2 38.5 10.5t18.5 26.5h-67v93h145v-72z" />
    <glyph glyph-name="sacute" unicode="&#x15b;" horiz-adv-x="537" 
d="M429 488.5q58 -42.5 65 -122.5h-135q-3 37 -27.5 53.5t-69.5 16.5q-79 0 -79 -48q0 -17 11 -28.5t35 -20.5t65 -17q76 -15 113 -29t61 -34q40 -36 40 -93q0 -63 -32.5 -103.5t-85.5 -58.5t-118 -18q-72 0 -125.5 20.5t-84.5 61t-33 100.5h135q0 -42 31 -64.5t78 -22.5
q39 0 66 17t27 49q0 19 -15.5 32t-48.5 24t-92 23q-61 13 -97.5 31t-54 44.5t-17.5 63.5q0 82 57.5 124t167.5 42q105 0 163 -42.5zM307 589h-99l96 142h157z" />
    <glyph glyph-name="scircumflex" unicode="&#x15d;" horiz-adv-x="537" 
d="M429 488.5q58 -42.5 65 -122.5h-135q-3 37 -27.5 53.5t-69.5 16.5q-79 0 -79 -48q0 -17 11 -28.5t35 -20.5t65 -17q76 -15 113 -29t61 -34q40 -36 40 -93q0 -63 -32.5 -103.5t-85.5 -58.5t-118 -18q-72 0 -125.5 20.5t-84.5 61t-33 100.5h135q0 -42 31 -64.5t78 -22.5
q39 0 66 17t27 49q0 19 -15.5 32t-48.5 24t-92 23q-61 13 -97.5 31t-54 44.5t-17.5 63.5q0 82 57.5 124t167.5 42q105 0 163 -42.5zM446 589h-115l-62 81l-64 -81h-110l111 142h130z" />
    <glyph glyph-name="scaron" unicode="&#x161;" horiz-adv-x="537" 
d="M429 488.5q58 -42.5 65 -122.5h-135q-3 37 -27.5 53.5t-69.5 16.5q-79 0 -79 -48q0 -17 11 -28.5t35 -20.5t65 -17q76 -15 113 -29t61 -34q40 -36 40 -93q0 -63 -32.5 -103.5t-85.5 -58.5t-118 -18q-72 0 -125.5 20.5t-84.5 61t-33 100.5h135q0 -42 31 -64.5t78 -22.5
q39 0 66 17t27 49q0 19 -15.5 32t-48.5 24t-92 23q-61 13 -97.5 31t-54 44.5t-17.5 63.5q0 82 57.5 124t167.5 42q105 0 163 -42.5zM272 650l64 81h110l-111 -142h-130l-110 142h115z" />
    <glyph glyph-name="scedilla" unicode="&#x15f;" horiz-adv-x="537" 
d="M428.5 489q58.5 -42 65.5 -123h-135q-3 37 -27.5 53.5t-69.5 16.5q-79 0 -79 -48q0 -19 14 -31t40 -20.5t71 -17.5q70 -14 104 -28t57 -33q39 -34 39 -92q0 -84 -59.5 -131t-169.5 -49l-28 -38l2 -2q8 3 19.5 5t20.5 2q40 0 63 -20.5t23 -56.5q0 -44 -33 -68.5t-93 -24.5
q-29 0 -56 5t-59 17l21 48q18 -8 39.5 -13t39.5 -5q22 0 33.5 9t11.5 25t-12.5 24.5t-29.5 8.5q-18 0 -38 -8l-21 24l50 70q-97 9 -148.5 55t-54.5 125h135q0 -42 31 -64.5t78 -22.5q39 0 66 17t27 48q0 19 -14 32t-47 24t-95 24q-61 13 -98 31t-54 44.5t-17 63.5
q0 82 57.5 124t167.5 42q104 0 162.5 -42z" />
    <glyph glyph-name="uni0219" unicode="&#x219;" horiz-adv-x="537" 
d="M429 488.5q58 -42.5 65 -122.5h-135q-3 37 -27.5 53.5t-69.5 16.5q-79 0 -79 -48q0 -17 11 -28.5t35 -20.5t65 -17q76 -15 113 -29t61 -34q40 -36 40 -93q0 -63 -32.5 -103.5t-85.5 -58.5t-118 -18q-72 0 -125.5 20.5t-84.5 61t-33 100.5h135q0 -42 31 -64.5t78 -22.5
q39 0 66 17t27 49q0 19 -15.5 32t-48.5 24t-92 23q-61 13 -97.5 31t-54 44.5t-17.5 63.5q0 82 57.5 124t167.5 42q105 0 163 -42.5zM337 -122q0 -36 -14 -57t-42 -29.5t-73 -8.5h-6v37q25 2 38.5 10.5t18.5 26.5h-67v93h145v-72z" />
    <glyph glyph-name="germandbls" unicode="&#xdf;" horiz-adv-x="611" 
d="M407.5 709q51.5 -22 81 -65.5t29.5 -103.5q0 -33 -12 -61.5t-33 -49.5t-48 -29v-2q40 -8 69.5 -33t45 -62.5t15.5 -83.5q0 -62 -28 -115.5t-78 -85.5t-112 -32q-37 0 -81 6v116q16 -5 40 -5q33 0 60 16t42 43.5t15 62.5q0 58 -32 89.5t-90 31.5q-15 0 -35 -2v94
q16 -2 22 -2q28 0 52 10t38.5 30t14.5 49q0 44 -24 66.5t-71 22.5q-45 0 -67.5 -27t-22.5 -71v-516h-142v494q0 237 235 237q65 0 116.5 -22z" />
    <glyph glyph-name="tcaron" unicode="&#x165;" horiz-adv-x="352" 
d="M234 517h104v-95h-104v-256q0 -25 5 -37.5t17.5 -17.5t37.5 -5q28 0 44 4v-111q-30 -5 -84 -5q-84 0 -123 28.5t-39 96.5v303h-86v95h86v155h142v-155zM385 572h-98l31 142h148z" />
    <glyph glyph-name="uni021B" unicode="&#x21b;" horiz-adv-x="352" 
d="M234 517h104v-95h-104v-256q0 -25 5 -37.5t17.5 -17.5t37.5 -5q28 0 44 4v-111q-30 -5 -84 -5q-84 0 -123 28.5t-39 96.5v303h-86v95h86v155h142v-155zM286 -122q0 -36 -14 -57t-42 -29.5t-73 -8.5h-6v37q25 2 38.5 10.5t18.5 26.5h-67v93h145v-72z" />
    <glyph glyph-name="tbar" unicode="&#x167;" horiz-adv-x="352" 
d="M234 517h104v-95h-104v-81h92v-76h-92v-98q0 -24 4.5 -37t17 -18.5t37.5 -5.5q29 0 45 4v-111q-30 -5 -82 -5q-54 0 -90 11t-55 38.5t-19 75.5v146h-78v76h78v81h-86v95h86v155h142v-155z" />
    <glyph glyph-name="thorn" unicode="&#xfe;" horiz-adv-x="611" 
d="M196 451h2q24 39 62.5 59.5t85.5 20.5q75 0 128 -36.5t79.5 -99.5t26.5 -142q0 -72 -26 -132.5t-77.5 -97.5t-123.5 -37q-49 0 -89 20.5t-66 57.5h-2v-246h-142v896h142v-263zM221 139.5q30 -46.5 94 -46.5q61 0 92 44.5t31 119.5q0 40 -11 78t-39 63.5t-75 25.5
q-62 0 -92 -46.5t-30 -120.5q0 -71 30 -117.5z" />
    <glyph glyph-name="ugrave" unicode="&#xf9;" horiz-adv-x="593" 
d="M196 224q0 -63 20.5 -94.5t70.5 -31.5q58 0 84 35t26 112v272h142v-517h-135v72h-3q-26 -42 -68 -64t-91 -22q-67 0 -108.5 23t-60.5 69t-19 118v321h142v-293zM360 589h-99l-154 142h157z" />
    <glyph glyph-name="uacute" unicode="&#xfa;" horiz-adv-x="593" 
d="M196 224q0 -63 20.5 -94.5t70.5 -31.5q58 0 84 35t26 112v272h142v-517h-135v72h-3q-26 -42 -68 -64t-91 -22q-67 0 -108.5 23t-60.5 69t-19 118v321h142v-293zM333 589h-99l96 142h157z" />
    <glyph glyph-name="ucircumflex" unicode="&#xfb;" horiz-adv-x="593" 
d="M196 224q0 -63 20.5 -94.5t70.5 -31.5q58 0 84 35t26 112v272h142v-517h-135v72h-3q-26 -42 -68 -64t-91 -22q-67 0 -108.5 23t-60.5 69t-19 118v321h142v-293zM472 589h-115l-62 81l-64 -81h-110l111 142h130z" />
    <glyph glyph-name="utilde" unicode="&#x169;" horiz-adv-x="593" 
d="M196 224q0 -63 20.5 -94.5t70.5 -31.5q58 0 84 35t26 112v272h142v-517h-135v72h-3q-26 -42 -68 -64t-91 -22q-67 0 -108.5 23t-60.5 69t-19 118v321h142v-293zM262.5 717q17.5 -4 42.5 -13q25 -10 40 -14t28 -4q18 0 28 8t15 27h64q-12 -60 -40 -87t-72 -27
q-18 0 -35.5 4t-41.5 12q-27 10 -41.5 14t-28.5 4q-33 0 -45 -42h-63q4 32 19.5 60t40.5 45t57 17q15 0 32.5 -4z" />
    <glyph glyph-name="udieresis" unicode="&#xfc;" horiz-adv-x="593" 
d="M196 224q0 -63 20.5 -94.5t70.5 -31.5q58 0 84 35t26 112v272h142v-517h-135v72h-3q-26 -42 -68 -64t-91 -22q-67 0 -108.5 23t-60.5 69t-19 118v321h142v-293zM261 598h-135v117h135v-117zM467 598h-135v117h135v-117z" />
    <glyph glyph-name="umacron" unicode="&#x16b;" horiz-adv-x="593" 
d="M196 224q0 -63 20.5 -94.5t70.5 -31.5q58 0 84 35t26 112v272h142v-517h-135v72h-3q-26 -42 -68 -64t-91 -22q-67 0 -108.5 23t-60.5 69t-19 118v321h142v-293zM473 619h-353v75h353v-75z" />
    <glyph glyph-name="ubreve" unicode="&#x16d;" horiz-adv-x="593" 
d="M196 224q0 -63 20.5 -94.5t70.5 -31.5q58 0 84 35t26 112v272h142v-517h-135v72h-3q-26 -42 -68 -64t-91 -22q-67 0 -108.5 23t-60.5 69t-19 118v321h142v-293zM225 682q28 -18 67 -18q47 0 74 16.5t36 50.5h63q-9 -70 -54 -106t-124 -36q-72 0 -112.5 36.5t-46.5 105.5
h65q4 -31 32 -49z" />
    <glyph glyph-name="uring" unicode="&#x16f;" horiz-adv-x="593" 
d="M196 224q0 -63 20.5 -94.5t70.5 -31.5q58 0 84 35t26 112v272h142v-517h-135v72h-3q-26 -42 -68 -64t-91 -22q-67 0 -108.5 23t-60.5 69t-19 118v321h142v-293zM360 788.5q28 -15.5 43.5 -43t15.5 -61.5t-16.5 -61.5t-44.5 -43t-62 -15.5q-36 0 -63.5 16t-43 43.5
t-15.5 60.5q0 34 16 61t44.5 43t62.5 16q35 0 63 -15.5zM249.5 636q16.5 -19 46.5 -19q29 0 46.5 18.5t17.5 48.5q0 29 -16.5 48t-47.5 19q-27 0 -45 -18t-18 -49q0 -29 16.5 -48z" />
    <glyph glyph-name="uhungarumlaut" unicode="&#x171;" horiz-adv-x="593" 
d="M196 224q0 -63 20.5 -94.5t70.5 -31.5q58 0 84 35t26 112v272h142v-517h-135v72h-3q-26 -42 -68 -64t-91 -22q-67 0 -108.5 23t-60.5 69t-19 118v321h142v-293zM231 589h-99l91 142h157zM438 589h-99l91 142h157z" />
    <glyph glyph-name="uogonek" unicode="&#x173;" horiz-adv-x="593" 
d="M196 225q0 -65 21 -96t70 -31q55 0 82.5 33t27.5 113v273h142v-517h-65q-35 -36 -50.5 -62.5t-15.5 -55.5q0 -18 11 -28.5t27 -10.5q15 0 28.5 8t26.5 24l45 -26q-23 -34 -52 -50t-72 -16q-49 0 -79 23t-30 61q0 33 21 63.5t70 69.5v72h-3q-25 -42 -67.5 -64t-91.5 -22
q-65 0 -106 21.5t-61.5 67.5t-20.5 120v322h142v-292z" />
    <glyph glyph-name="wacute" unicode="&#x1e83;" horiz-adv-x="814" 
d="M251 166h2l86 351h138l88 -350h2l95 350h146l-163 -517h-146l-92 347h-2l-88 -347h-147l-164 517h150zM443 589h-99l96 142h157z" />
    <glyph glyph-name="wcircumflex" unicode="&#x175;" horiz-adv-x="814" 
d="M251 166h2l86 351h138l88 -350h2l95 350h146l-163 -517h-146l-92 347h-2l-88 -347h-147l-164 517h150zM582 589h-115l-62 81l-64 -81h-110l111 142h130z" />
    <glyph glyph-name="wdieresis" unicode="&#x1e85;" horiz-adv-x="814" 
d="M251 166h2l86 351h138l88 -350h2l95 350h146l-163 -517h-146l-92 347h-2l-88 -347h-147l-164 517h150zM371 598h-135v117h135v-117zM577 598h-135v117h135v-117z" />
    <glyph glyph-name="wgrave" unicode="&#x1e81;" horiz-adv-x="814" 
d="M251 166h2l86 351h138l88 -350h2l95 350h146l-163 -517h-146l-92 347h-2l-88 -347h-147l-164 517h150zM475 589h-99l-154 142h157z" />
    <glyph glyph-name="yacute" unicode="&#xfd;" horiz-adv-x="519" 
d="M263 163h2l113 354h147l-216 -582q-23 -61 -64 -89t-112 -28q-39 0 -89 5v117q38 -5 75 -5q29 0 46 18t17 47q0 15 -6 32l-182 485h152zM299 589h-99l96 142h157z" />
    <glyph glyph-name="ycircumflex" unicode="&#x177;" horiz-adv-x="519" 
d="M263 163h2l113 354h147l-216 -582q-23 -61 -64 -89t-112 -28q-39 0 -89 5v117q38 -5 75 -5q29 0 46 18t17 47q0 15 -6 32l-182 485h152zM438 589h-115l-62 81l-64 -81h-110l111 142h130z" />
    <glyph glyph-name="ydieresis" unicode="&#xff;" horiz-adv-x="519" 
d="M263 163h2l113 354h147l-216 -582q-23 -61 -64 -89t-112 -28q-39 0 -89 5v117q38 -5 75 -5q29 0 46 18t17 47q0 15 -6 32l-182 485h152zM227 598h-135v117h135v-117zM433 598h-135v117h135v-117z" />
    <glyph glyph-name="ygrave" unicode="&#x1ef3;" horiz-adv-x="519" 
d="M263 163h2l113 354h147l-216 -582q-23 -61 -64 -89t-112 -28q-39 0 -89 5v117q38 -5 75 -5q29 0 46 18t17 47q0 15 -6 32l-182 485h152zM326 589h-99l-154 142h157z" />
    <glyph glyph-name="zacute" unicode="&#x17a;" horiz-adv-x="519" 
d="M478 410l-269 -303h288v-107h-475v107l269 303h-249v107h436v-107zM297 589h-99l96 142h157z" />
    <glyph glyph-name="zcaron" unicode="&#x17e;" horiz-adv-x="519" 
d="M478 410l-269 -303h288v-107h-475v107l269 303h-249v107h436v-107zM262 650l64 81h110l-111 -142h-130l-110 142h115z" />
    <glyph glyph-name="zdotaccent" unicode="&#x17c;" horiz-adv-x="519" 
d="M478 410l-269 -303h288v-107h-475v107l269 303h-249v107h436v-107zM328 598h-135v117h135v-117z" />
    <glyph glyph-name="IJ" unicode="&#x132;" horiz-adv-x="851" 
d="M226 0h-157v714h157v-714zM782 224q0 -118 -59.5 -179.5t-176.5 -61.5q-72 0 -125.5 27t-82.5 76.5t-29 115.5v64h142v-35q0 -62 22.5 -89t68.5 -27q36 0 54.5 15.5t23.5 38.5t5 57v488h157v-490z" />
    <glyph glyph-name="ij" unicode="&#x133;" horiz-adv-x="536" 
d="M200 597h-142v117h142v-117zM200 0h-142v517h142v-517zM467 597h-142v117h142v-117zM467 -29q0 -56 -17.5 -89t-57 -48.5t-106.5 -15.5q-26 0 -47 4v117q11 -4 32 -4q30 0 42 12t12 35v535h142v-546z" />
    <glyph glyph-name="f_f" unicode="&#xfb00;" horiz-adv-x="636" 
d="M388 422h-161v-422h-142v422h-85v95h85v38q0 77 46.5 118t126.5 41q22 0 52 -3q15 0 23 -1v-106q-27 3 -51 3q-27 0 -41 -12t-14 -45v-33h161v39q0 54 23 89.5t62 52t88 16.5q16 0 43 -2t32 -2v-106q-27 3 -51 3q-28 0 -41.5 -12t-13.5 -46v-32h98v-95h-98v-422h-142v422
z" />
    <glyph glyph-name="f_f_i" unicode="&#xfb03;" horiz-adv-x="894" 
d="M388 422h-161v-422h-142v422h-85v95h85v38q0 77 46.5 118t126.5 41q22 0 52 -3q15 0 23 -1v-106q-27 3 -51 3q-27 0 -41 -12t-14 -45v-33h161v39q0 54 23 89.5t62 52t88 16.5q16 0 43 -2t32 -2v-106q-27 3 -51 3q-28 0 -41.5 -12t-13.5 -46v-32h98v-95h-98v-422h-142v422
zM836 597h-142v117h142v-117zM836 0h-142v517h142v-517z" />
    <glyph glyph-name="f_f_l" unicode="&#xfb04;" horiz-adv-x="894" 
d="M388 422h-161v-422h-142v422h-85v95h85v38q0 77 46.5 118t126.5 41q22 0 52 -3q15 0 23 -1v-106q-27 3 -51 3q-27 0 -41 -12t-14 -45v-33h161v39q0 54 23 89.5t62 52t88 16.5q16 0 43 -2t32 -2v-106q-27 3 -51 3q-28 0 -41.5 -12t-13.5 -46v-32h98v-95h-98v-422h-142v422
zM836 0h-142v714h142v-714z" />
    <glyph glyph-name="grave.cap" horiz-adv-x="259" 
d="M205 779h-99l-154 142h157z" />
    <glyph glyph-name="acute" unicode="&#xb4;" horiz-adv-x="259" 
d="M153 589h-99l96 142h157z" />
    <glyph glyph-name="acute.cap" horiz-adv-x="259" 
d="M154 779h-99l96 142h157z" />
    <glyph glyph-name="circumflex" unicode="&#x2c6;" horiz-adv-x="259" 
d="M305 589h-115l-62 81l-64 -81h-110l111 142h130z" />
    <glyph glyph-name="circumflex.cap" horiz-adv-x="259" 
d="M305 779h-115l-62 81l-64 -81h-110l111 142h130z" />
    <glyph glyph-name="caron" unicode="&#x2c7;" horiz-adv-x="259" 
d="M131 650l64 81h110l-111 -142h-130l-110 142h115z" />
    <glyph glyph-name="caron.cap" horiz-adv-x="259" 
d="M131 840l64 81h110l-111 -142h-130l-110 142h115z" />
    <glyph glyph-name="caron.alt" horiz-adv-x="259" 
d="M185 572h-98l31 142h148z" />
    <glyph glyph-name="tilde" unicode="&#x2dc;" horiz-adv-x="259" 
d="M95.5 717q17.5 -4 42.5 -13q25 -10 40 -14t28 -4q18 0 28 8t15 27h64q-12 -60 -40 -87t-72 -27q-18 0 -35.5 4t-41.5 12q-27 10 -41.5 14t-28.5 4q-33 0 -45 -42h-63q4 32 19.5 60t40.5 45t57 17q15 0 32.5 -4z" />
    <glyph glyph-name="tilde.cap" horiz-adv-x="259" 
d="M98.5 906.5q17.5 -4.5 44.5 -14.5q24 -9 38 -12.5t25 -3.5q18 0 28 8t15 27h64q-12 -59 -39.5 -86.5t-72.5 -27.5q-18 0 -36 4t-41 12q-27 10 -41.5 14t-28.5 4q-34 0 -45 -42h-63q4 33 19.5 61t41 44.5t56.5 16.5q18 0 35.5 -4.5z" />
    <glyph glyph-name="dieresis" unicode="&#xa8;" horiz-adv-x="259" 
d="M94 598h-135v117h135v-117zM300 598h-135v117h135v-117z" />
    <glyph glyph-name="dieresis.cap" horiz-adv-x="259" 
d="M94 788h-135v117h135v-117zM300 788h-135v117h135v-117z" />
    <glyph glyph-name="macron" unicode="&#xaf;" horiz-adv-x="259" 
d="M306 619h-353v75h353v-75z" />
    <glyph glyph-name="macron.cap" horiz-adv-x="259" 
d="M306 809h-353v75h353v-75z" />
    <glyph glyph-name="breve" unicode="&#x2d8;" horiz-adv-x="259" 
d="M58 682q28 -18 67 -18q47 0 74 16.5t36 50.5h63q-9 -70 -54 -106t-124 -36q-72 0 -112.5 36.5t-46.5 105.5h65q4 -31 32 -49z" />
    <glyph glyph-name="breve.cap" horiz-adv-x="259" 
d="M59.5 871q28.5 -17 65.5 -17q94 0 110 67h63q-9 -70 -53.5 -106t-124.5 -36q-72 0 -112.5 36.5t-46.5 105.5h65q5 -33 33.5 -50z" />
    <glyph glyph-name="ring" unicode="&#x2da;" horiz-adv-x="259" 
d="M193 788.5q28 -15.5 43.5 -43t15.5 -61.5t-16.5 -61.5t-44.5 -43t-62 -15.5q-36 0 -63.5 16t-43 43.5t-15.5 60.5q0 34 16 61t44.5 43t62.5 16q35 0 63 -15.5zM82.5 636q16.5 -19 46.5 -19q29 0 46.5 18.5t17.5 48.5q0 29 -16.5 48t-47.5 19q-27 0 -45 -18t-18 -49
q0 -29 16.5 -48z" />
    <glyph glyph-name="ring.cap" horiz-adv-x="259" 
d="M190 957.5q27 -15.5 42 -41.5t15 -57t-15.5 -57t-42.5 -41.5t-59 -15.5t-59 15t-42.5 41t-15.5 58q0 31 15.5 57.5t42.5 41.5t59 15q33 0 60 -15.5zM86 813.5q17 -17.5 44 -17.5q28 0 44.5 17.5t16.5 45.5q0 26 -16 44.5t-46 18.5q-26 0 -43 -17t-17 -46q0 -28 17 -45.5z
" />
    <glyph glyph-name="hungarumlaut" unicode="&#x2dd;" horiz-adv-x="259" 
d="M43 589h-99l91 142h157zM250 589h-99l91 142h157z" />
    <glyph glyph-name="hungarumlaut.cap" horiz-adv-x="259" 
d="M43 779h-99l91 142h157zM250 779h-99l91 142h157z" />
    <glyph glyph-name="dotaccent" unicode="&#x2d9;" horiz-adv-x="259" 
d="M197 598h-135v117h135v-117z" />
    <glyph glyph-name="dotaccent.cap" horiz-adv-x="259" 
d="M197 788h-135v117h135v-117z" />
    <glyph glyph-name="cedilla" unicode="&#xb8;" horiz-adv-x="259" 
d="M164 0l-39 -52l2 -2q8 3 19.5 5t20.5 2q39 0 62.5 -20t23.5 -57q0 -44 -32.5 -68.5t-93.5 -24.5q-35 0 -61.5 6t-53.5 16l21 48q18 -8 39.5 -13t39.5 -5q22 0 33.5 9t11.5 25q0 15 -11.5 24t-30.5 9q-18 0 -38 -8l-21 24l59 82h49z" />
    <glyph glyph-name="ogonek" unicode="&#x2db;" horiz-adv-x="259" 
d="M152 -30.5q-24 -25.5 -34.5 -47t-10.5 -40.5t11 -29t26 -10q14 0 27.5 7.5t27.5 24.5l45 -26q-23 -35 -52.5 -50.5t-71.5 -15.5q-49 0 -79 22.5t-30 60.5q0 34 24.5 65t80.5 69h64q-4 -5 -28 -30.5z" />
    <glyph glyph-name="ellipsis" unicode="&#x2026;" horiz-adv-x="1000" 
d="M245 0h-157v154h157v-154zM578 0h-157v154h157v-154zM911 0h-157v154h157v-154z" />
    <glyph glyph-name="exclamdown" unicode="&#xa1;" horiz-adv-x="278" 
d="M218 377h-157v154h157v-154zM213 9v-192h-148v192l39 308h71z" />
    <glyph glyph-name="questiondown" unicode="&#xbf;" horiz-adv-x="556" 
d="M363 377h-157v154h157v-154zM349 296q0 -62 -22.5 -104t-71.5 -79q-26 -20 -40 -34.5t-20 -30t-6 -36.5q0 -48 23 -69.5t62 -21.5q49 0 75 36t26 94h147q-2 -74 -33 -130t-85 -86.5t-124 -30.5q-86 0 -141.5 30t-81 74.5t-25.5 89.5q0 57 20 97t67 73q39 28 53.5 40.5
t25.5 29.5q16 26 16 54v29h135v-25z" />
    <glyph glyph-name="quoteleft" unicode="&#x2018;" horiz-adv-x="278" 
d="M160 613q-16 -24 -16 -64v-2h66v-154h-142v159q0 42 18.5 77t50.5 57.5t73 27.5v-66q-34 -11 -50 -35z" />
    <glyph glyph-name="quoteright" unicode="&#x2019;" horiz-adv-x="278" 
d="M210 555q0 -41 -18 -76t-50.5 -58t-73.5 -28v66q35 12 50.5 36t15.5 63v2h-66v154h142v-159z" />
    <glyph glyph-name="quotedblleft" unicode="&#x201c;" horiz-adv-x="463" 
d="M145.5 612.5q-15.5 -23.5 -15.5 -65.5h66v-154h-142v160q0 40 18 75t50.5 58t73.5 28v-66q-35 -12 -50.5 -35.5zM358.5 612q-15.5 -24 -15.5 -65h66v-154h-142v160q0 40 18 75t50.5 58t73.5 28v-66q-35 -12 -50.5 -36z" />
    <glyph glyph-name="quotedblright" unicode="&#x201d;" horiz-adv-x="463" 
d="M196 553q0 -40 -18 -74.5t-50.5 -57.5t-73.5 -28v66q34 12 50 35.5t16 65.5h-66v154h142v-161zM409 555q0 -41 -18 -76t-50 -57.5t-74 -28.5v66q34 11 50 35t16 66h-66v154h142v-159z" />
    <glyph glyph-name="quotesinglbase" unicode="&#x201a;" horiz-adv-x="278" 
d="M210 -6q0 -41 -18.5 -76t-50.5 -57.5t-73 -27.5v66q34 11 50 35t16 64v2h-66v154h142v-160z" />
    <glyph glyph-name="quotedblbase" unicode="&#x201e;" horiz-adv-x="463" 
d="M196 -7q0 -39 -17.5 -73.5t-50 -57.5t-74.5 -29v66q34 12 50 35t16 66h-66v154h142v-161zM409 -6q0 -40 -17.5 -74.5t-50 -57.5t-74.5 -29v66q33 11 49.5 34.5t16.5 66.5h-66v154h142v-160z" />
    <glyph glyph-name="guilsinglleft" unicode="&#x2039;" horiz-adv-x="241" 
d="M199 343l-90 -71l90 -72v-120l-157 125v135l157 123v-120z" />
    <glyph glyph-name="guilsinglright" unicode="&#x203a;" horiz-adv-x="241" 
d="M199 205l-157 -125v120l90 72l-90 71v120l157 -123v-135z" />
    <glyph glyph-name="endash" unicode="&#x2013;" horiz-adv-x="500" 
d="M500 212h-500v122h500v-122z" />
    <glyph glyph-name="emdash" unicode="&#x2014;" horiz-adv-x="1000" 
d="M870 212h-740v122h740v-122z" />
    <glyph glyph-name="bullet" unicode="&#x2022;" horiz-adv-x="501" 
d="M339 511.5q41 -23.5 65.5 -64.5t24.5 -90q0 -48 -24 -89.5t-65 -65.5t-90 -24q-48 0 -89 24t-65 65t-24 90t24 90t65 64.5t89 23.5t89 -23.5z" />
    <glyph glyph-name="periodcentered" unicode="&#xb7;" horiz-adv-x="278" 
d="M182 360.5q19 -11.5 30.5 -31t11.5 -42.5q0 -21 -11.5 -40.5t-31 -31.5t-40.5 -12q-23 0 -42.5 11t-31.5 30.5t-12 42.5t12 42.5t31.5 31t41.5 11.5q23 0 42 -11.5z" />
    <glyph glyph-name="dagger" unicode="&#x2020;" horiz-adv-x="556" 
d="M345 517h187v-117h-187v-566h-135v566h-186v117h186v197h135v-197z" />
    <glyph glyph-name="daggerdbl" unicode="&#x2021;" horiz-adv-x="556" 
d="M345 517h187v-117h-187v-256h187v-117h-187v-193h-135v193h-186v117h186v256h-186v117h186v197h135v-197z" />
    <glyph glyph-name="section" unicode="&#xa7;" horiz-adv-x="556" 
d="M391 708q48 -23 75.5 -66.5t27.5 -103.5h-124q0 38 -23.5 62t-61.5 24q-19 0 -36.5 -8t-28.5 -22.5t-11 -32.5q0 -17 11 -33t38 -33.5t75 -39.5q75 -33 112 -56t57 -44q23 -24 33.5 -49.5t10.5 -55.5q0 -51 -28.5 -90t-75.5 -56q55 -41 55 -118q0 -53 -31 -91t-80 -57.5
t-102 -19.5q-106 0 -165.5 50t-59.5 144h124q2 -44 27 -65.5t71 -21.5q28 0 51 15t23 53q0 29 -28 53q-18 15 -44.5 29t-88.5 42q-69 31 -109.5 61.5t-57.5 63t-17 70.5q0 52 27 89t80 56q-23 26 -33 49t-10 52q0 54 30.5 93.5t78.5 59.5t100 20q60 0 108 -23zM143.5 292.5
q9.5 -11.5 24.5 -19.5l165 -90q14 -8 23.5 -11t19.5 -3q13 0 23.5 9t16.5 22t6 24q0 17 -9 32.5t-36 30.5l-174 98q-8 5 -16 5q-13 0 -25 -10t-20 -25.5t-8 -31.5q0 -19 9.5 -30.5z" />
    <glyph glyph-name="paragraph" unicode="&#xb6;" horiz-adv-x="620" 
d="M433 -166v800h-110v-800h-102v523q-70 0 -119.5 21.5t-74.5 61t-25 92.5q0 92 59.5 137t178.5 45h295v-880h-102z" />
    <glyph glyph-name="brokenbar" unicode="&#xa6;" horiz-adv-x="223" 
d="M165 411h-107v250h107v-250zM165 -89h-107v250h107v-250z" />
    <glyph glyph-name="copyright" unicode="&#xa9;" horiz-adv-x="800" 
d="M590 684.5q88 -46.5 141 -131.5t53 -196q0 -110 -52.5 -195t-141 -132t-190.5 -47t-190 46.5t-141 132t-53 195.5t53 195.5t141 132t190 46.5t190 -46.5zM155 207q37 -67 101.5 -105.5t143.5 -38.5q76 0 141 37.5t103 105t38 151.5t-38 151t-102.5 105t-142.5 38
q-77 0 -141.5 -38t-102 -105t-37.5 -151q0 -83 37 -150zM499 564q39 -19 63.5 -54t30.5 -82h-78q-8 35 -36 55t-67 20q-55 0 -86 -39t-31 -103q0 -39 15 -72t42 -52.5t62 -19.5q41 0 68 20.5t33 57.5h81q-8 -48 -34 -84t-64.5 -55t-83.5 -19q-63 0 -112 29t-76 79.5
t-27 113.5q0 66 26.5 116.5t74.5 79t112 28.5q48 0 87 -19z" />
    <glyph glyph-name="registered" unicode="&#xae;" horiz-adv-x="800" 
d="M591 684.5q88 -46.5 140.5 -131.5t52.5 -195t-52.5 -195.5t-140.5 -132.5t-191 -47q-102 0 -190.5 47t-141 132.5t-52.5 195.5t53 195t141 131.5t190 46.5q103 0 191 -46.5zM155 208.5q37 -67.5 101.5 -106.5t143.5 -39q77 0 141.5 38t102.5 105.5t38 151.5q0 81 -37 148
t-101.5 106t-144.5 39q-77 0 -141.5 -37.5t-102 -104.5t-37.5 -151q0 -82 37 -149.5zM533 538q40 -30 40 -94q0 -50 -28 -79t-82 -33l112 -183h-87l-102 179h-52v-179h-83v419h160q82 0 122 -30zM473 406.5q17 13.5 17 44.5q0 25 -21.5 38.5t-63.5 13.5h-71v-110h79
q43 0 60 13.5z" />
    <glyph glyph-name="trademark" unicode="&#x2122;" horiz-adv-x="1000" 
d="M398 634h-117v-332h-102v332h-117v80h336v-80zM690 443l103 271h135v-412h-96v292h-2l-106 -292h-69l-106 292h-2v-292h-96v412h136z" />
    <glyph glyph-name="currency" unicode="&#xa4;" horiz-adv-x="556" 
d="M536 549l-56 -55q22 -24 33.5 -63t11.5 -80q0 -46 -12.5 -83.5t-33.5 -62.5l55 -56l-55 -55l-57 58q-24 -23 -61.5 -36.5t-81.5 -13.5t-82.5 12.5t-64.5 36.5l-56 -58l-56 56l57 58q-24 28 -36 64t-12 78q0 44 12 82t36 62l-57 58l57 57l57 -56q25 21 65 33.5t81 12.5
q36 0 73.5 -11.5t63.5 -33.5l58 57zM168 279q15 -32 43.5 -51t67.5 -19q38 0 65.5 19t42 51t14.5 72q0 35 -13.5 67.5t-41 52.5t-67.5 20q-38 0 -66.5 -18.5t-44 -51t-15.5 -72.5q0 -38 15 -70z" />
    <glyph glyph-name="cent" unicode="&#xa2;" horiz-adv-x="556" 
d="M319 616v-85q54 0 104.5 -23.5t83.5 -68.5t36 -105h-139q-3 36 -27 61.5t-58 28.5v-331q24 4 44 21t31.5 40.5t11.5 48.5h139q-5 -62 -34.5 -108.5t-79 -74.5t-112.5 -34v-101h-59v101q-70 4 -124.5 39.5t-84.5 94.5t-30 130q0 77 28 138.5t82 99t129 43.5v85h59z
M188 152.5q25 -44.5 72 -59.5v330q-46 -12 -71.5 -54t-25.5 -105q0 -67 25 -111.5z" />
    <glyph glyph-name="sterling" unicode="&#xa3;" horiz-adv-x="556" 
d="M474.5 667q63.5 -64 64.5 -186h-135q-3 67 -30 100t-79 33q-44 0 -71 -25t-27 -68q0 -32 8 -56.5t33 -70.5h133v-85h-105q5 -14 6.5 -27t1.5 -34q0 -41 -20.5 -74.5t-61.5 -66.5l2 -2q21 13 35 18t33 5q30 0 78 -11q4 -1 18.5 -4.5t30.5 -5.5t31 -2q27 0 46 10t41 33
l60 -101q-32 -31 -71.5 -47.5t-85.5 -16.5q-36 0 -61 4.5t-50 14.5t-46.5 14.5t-49.5 4.5q-38 0 -65.5 -10.5t-49.5 -27.5l-62 93q55 35 84 78.5t29 87.5q0 14 -4 29t-15 38h-99v85h64q-20 25 -32.5 62.5t-12.5 75.5q0 57 31 102.5t89 71t135 25.5q116 0 179.5 -64z" />
    <glyph glyph-name="florin" unicode="&#x192;" horiz-adv-x="556" 
d="M511 724l-18 -107q-15 7 -38 7q-26 0 -41 -5.5t-23.5 -19t-13.5 -37.5l-25 -130h98l-16 -95h-100l-56 -310q-13 -74 -34.5 -115t-62.5 -61.5t-114 -20.5q-45 0 -72 3l19 107q19 -3 45 -3q25 0 39 10.5t19 24t9 36.5l63 329h-92l18 95h91l24 127q13 66 37 103.5t64.5 53
t104.5 15.5q43 0 75 -7z" />
    <glyph glyph-name="yen" unicode="&#xa5;" horiz-adv-x="556" 
d="M286 403l129 311h162l-155 -311h95v-95h-143l-15 -29v-46h158v-95h-158v-138h-152v138h-157v95h157v46l-14 29h-143v95h95l-154 311h163z" />
    <glyph glyph-name="ordfeminine" unicode="&#xaa;" horiz-adv-x="344" 
d="M289 691.5q37 -22.5 37 -67.5v-168q0 -21 3 -40.5t9 -31.5h-101q-6 20 -7 31q-18 -19 -46 -29.5t-62 -10.5q-53 0 -82.5 26t-29.5 74q0 42 23 63t51 27t85 12q32 4 47 10t15 23q0 23 -15 31t-44 8q-21 0 -34.5 -12t-15.5 -32h-102q9 57 48 83t108 26q76 0 113 -22.5z
M124 450q12 -10 34 -10q72 0 72 72v23q-6 -5 -16.5 -8.5t-31.5 -6.5q-37 -5 -53.5 -15t-16.5 -28q0 -17 12 -27z" />
    <glyph glyph-name="ordmasculine" unicode="&#xba;" horiz-adv-x="367" 
d="M274 693.5q39 -20.5 60 -59t21 -90.5t-21 -90t-60 -58.5t-91 -20.5t-90.5 20.5t-59.5 58.5t-21 90t21 90.5t59.5 59t90.5 20.5t91 -20.5zM135.5 478q16.5 -28 47.5 -28q22 0 36.5 14t21.5 35.5t7 44.5q0 38 -16.5 66.5t-48.5 28.5q-31 0 -47.5 -28.5t-16.5 -66.5
t16.5 -66z" />
    <glyph glyph-name="uni00B9" unicode="&#xb9;" horiz-adv-x="390" 
d="M269 397h-102v268h-110v72h21q51 0 76 21.5t31 61.5h84v-423z" />
    <glyph glyph-name="uni00B2" unicode="&#xb2;" horiz-adv-x="390" 
d="M317 795q40 -34 40 -93q0 -41 -22 -71q-13 -20 -35 -35.5t-69 -45.5q-21 -11 -37 -22q-20 -13 -32 -26.5t-14 -24.5h206v-80h-321v1q0 47 9.5 79.5t30.5 57.5t58 48l75 47q27 17 38.5 33t11.5 39q0 22 -14 36t-38 14q-61 0 -64 -76h-100q0 47 20 81.5t57.5 53t87.5 18.5
q72 0 112 -34z" />
    <glyph glyph-name="uni00B3" unicode="&#xb3;" horiz-adv-x="390" 
d="M274.5 815.5q33.5 -13.5 51.5 -39t18 -60.5q0 -31 -17.5 -54t-48.5 -34q40 -8 61.5 -35t21.5 -71q0 -40 -22.5 -70.5t-61.5 -47t-86 -16.5q-52 0 -89 17.5t-56 49t-19 72.5h96q4 -29 21 -44.5t50 -15.5t53 16t20 43q0 32 -18.5 46t-58.5 14h-28v69h26q29 0 46.5 13
t17.5 36t-15.5 36t-42.5 13q-62 0 -62 -66h-95q3 68 45.5 105t115.5 37q43 0 76.5 -13.5z" />
    <glyph glyph-name="fraction" unicode="&#x2044;" horiz-adv-x="167" 
d="M-79 -22h-87l414 744h85z" />
    <glyph glyph-name="onehalf" unicode="&#xbd;" horiz-adv-x="947" 
d="M719 501.5q-12 -13.5 -14 -24.5h206v-80h-321v1q0 47 9.5 79.5t30.5 57.5t58 48l75 47q27 17 38.5 33t11.5 39q0 22 -14 36t-38 14q-39 0 -54 -30h16l-412 -744h-87l388 698h-15q0 47 20 81.5t57.5 53t87.5 18.5q72 0 112 -34t40 -93q0 -41 -22 -71q-13 -20 -35 -35.5
t-69 -45.5q-21 -11 -37 -22q-20 -13 -32 -26.5zM167 397v268h-110v72h21q51 0 76 21.5t31 61.5h84v-423h-102z" />
    <glyph glyph-name="uni2153" unicode="&#x2153;" horiz-adv-x="947" 
d="M896.5 593q21.5 -27 21.5 -71q0 -40 -22.5 -70.5t-61.5 -47t-86 -16.5q-63 0 -103.5 25t-54.5 69l-279 -504h-87l395 709h-25q3 68 45.5 105t115.5 37q43 0 76.5 -13.5t51.5 -39t18 -60.5q0 -31 -17 -54t-49 -34q40 -8 61.5 -35zM167 397v268h-110v72h21q51 0 76 21.5
t31 61.5h84v-423h-102zM804 483q20 16 20 43q0 32 -18.5 46t-58.5 14h-28v69h26q29 0 46.5 13t17.5 36t-15.5 36t-42.5 13q-43 0 -56 -31h28l-108 -195h65q4 -29 21 -44.5t50 -15.5t53 16z" />
    <glyph glyph-name="onequarter" unicode="&#xbc;" horiz-adv-x="947" 
d="M167 397v268h-110v72h21q51 0 76 21.5t31 61.5h84v-423h-102zM921 556v-76h-57v-83h-96v83h-179l-278 -502h-87l414 744h61l74 98h91v-264h57zM768 710l-113 -154h113v154z" />
    <glyph glyph-name="oneeighth" unicode="&#x215b;" horiz-adv-x="947" 
d="M896.5 588.5q22.5 -27.5 22.5 -68.5q0 -40 -22 -70t-60 -46t-85 -16q-64 0 -107 24t-55 70l-279 -504h-87l387 695q-8 19 -8 39q0 34 19 61t53 41.5t77 14.5q47 0 80.5 -14t51 -39.5t17.5 -59.5q0 -32 -18 -56t-52 -34q43 -10 65.5 -37.5zM167 397v268h-110v72h21
q51 0 76 21.5t31 61.5h84v-423h-102zM715 749.5q-15 -9.5 -20 -27.5h28l-23 -42q7 -12 21 -18.5t31 -6.5q27 0 42.5 13.5t15.5 37.5t-15 38.5t-44 14.5q-21 0 -36 -9.5zM673 623l-4 1l-2 -2zM805 477q18 16 18 47q0 28 -19 46t-53 18q-32 0 -51.5 -17t-19.5 -47t20 -46.5
t53 -16.5q34 0 52 16z" />
    <glyph glyph-name="uni2154" unicode="&#x2154;" horiz-adv-x="947" 
d="M354 397h-321v1q0 47 9.5 79.5t30.5 57.5t58 48l75 47q27 17 38.5 33t11.5 39q0 22 -14 36t-38 14q-61 0 -64 -76h-100q0 47 20 81.5t57.5 53t87.5 18.5q72 0 112 -34t40 -93q0 -41 -22 -71q-13 -20 -35 -35.5t-69 -45.5q-21 -11 -37 -22q-20 -13 -32 -26.5t-14 -24.5
h206v-80zM896.5 593q21.5 -27 21.5 -71q0 -40 -22.5 -70.5t-61.5 -47t-86 -16.5q-63 0 -103.5 25t-54.5 69l-279 -504h-87l395 709h-25q3 68 45.5 105t115.5 37q43 0 76.5 -13.5t51.5 -39t18 -60.5q0 -31 -17 -54t-49 -34q40 -8 61.5 -35zM804 483q20 16 20 43
q0 32 -18.5 46t-58.5 14h-28v69h26q29 0 46.5 13t17.5 36t-15.5 36t-42.5 13q-43 0 -56 -31h28l-108 -195h65q4 -29 21 -44.5t50 -15.5t53 16z" />
    <glyph glyph-name="threequarters" unicode="&#xbe;" horiz-adv-x="947" 
d="M338.5 451.5q-22.5 -30.5 -61.5 -47t-86 -16.5q-52 0 -89 17.5t-56 49t-19 72.5h96q4 -29 21 -44.5t50 -15.5t53 16t20 43q0 32 -18.5 46t-58.5 14h-28v69h26q29 0 46.5 13t17.5 36t-15.5 36t-42.5 13q-62 0 -62 -66h-95q3 68 45.5 105t115.5 37q43 0 76.5 -13.5
t51.5 -39t18 -60.5q0 -31 -17.5 -54t-48.5 -34q40 -8 61.5 -35t21.5 -71q0 -40 -22.5 -70.5zM921 556v-76h-57v-83h-96v83h-179l-278 -502h-87l414 744h61l74 98h91v-264h57zM768 710l-113 -154h113v154z" />
    <glyph glyph-name="threeeighths" unicode="&#x215c;" horiz-adv-x="947" 
d="M338.5 451.5q-22.5 -30.5 -61.5 -47t-86 -16.5q-52 0 -89 17.5t-56 49t-19 72.5h96q4 -29 21 -44.5t50 -15.5t53 16t20 43q0 32 -18.5 46t-58.5 14h-28v69h26q29 0 46.5 13t17.5 36t-15.5 36t-42.5 13q-62 0 -62 -66h-95q3 68 45.5 105t115.5 37q43 0 76.5 -13.5
t51.5 -39t18 -60.5q0 -31 -17.5 -54t-48.5 -34q40 -8 61.5 -35t21.5 -71q0 -40 -22.5 -70.5zM896.5 588.5q22.5 -27.5 22.5 -68.5q0 -40 -22 -70t-60 -46t-85 -16q-64 0 -107 24t-55 70l-279 -504h-87l387 695q-8 19 -8 39q0 34 19 61t53 41.5t77 14.5q47 0 80.5 -14
t51 -39.5t17.5 -59.5q0 -32 -18 -56t-52 -34q43 -10 65.5 -37.5zM715 749.5q-15 -9.5 -20 -27.5h28l-23 -42q7 -12 21 -18.5t31 -6.5q27 0 42.5 13.5t15.5 37.5t-15 38.5t-44 14.5q-21 0 -36 -9.5zM673 623l-4 1l-2 -2zM805 477q18 16 18 47q0 28 -19 46t-53 18
q-32 0 -51.5 -17t-19.5 -47t20 -46.5t53 -16.5q34 0 52 16z" />
    <glyph glyph-name="fiveeighths" unicode="&#x215d;" horiz-adv-x="947" 
d="M896.5 588.5q22.5 -27.5 22.5 -68.5q0 -40 -22 -70t-60 -46t-85 -16q-64 0 -107 24t-55 70l-279 -504h-87l387 695q-8 19 -8 39q0 34 19 61t53 41.5t77 14.5q47 0 80.5 -14t51 -39.5t17.5 -59.5q0 -32 -18 -56t-52 -34q43 -10 65.5 -37.5zM334.5 462.5
q-20.5 -35.5 -58.5 -55t-88 -19.5q-44 0 -78.5 15t-55 43.5t-22.5 66.5h94q5 -22 22 -34t43 -12q31 0 50 20.5t19 55.5t-17 54t-49 19q-19 0 -34.5 -8.5t-24.5 -22.5h-93l37 235h256v-77h-181l-16 -86q14 13 35 20t47 7q41 0 71.5 -17.5t47 -49t16.5 -72.5
q0 -47 -20.5 -82.5zM715 749.5q-15 -9.5 -20 -27.5h28l-23 -42q7 -12 21 -18.5t31 -6.5q27 0 42.5 13.5t15.5 37.5t-15 38.5t-44 14.5q-21 0 -36 -9.5zM673 623l-4 1l-2 -2zM805 477q18 16 18 47q0 28 -19 46t-53 18q-32 0 -51.5 -17t-19.5 -47t20 -46.5t53 -16.5
q34 0 52 16z" />
    <glyph glyph-name="seveneighths" unicode="&#x215e;" horiz-adv-x="947" 
d="M896.5 588.5q22.5 -27.5 22.5 -68.5q0 -40 -22 -70t-60 -46t-85 -16q-64 0 -107 24t-55 70l-279 -504h-87l387 695q-8 19 -8 39q0 34 19 61t53 41.5t77 14.5q47 0 80.5 -14t51 -39.5t17.5 -59.5q0 -32 -18 -56t-52 -34q43 -10 65.5 -37.5zM277.5 656q-29.5 -54 -47 -121
t-18.5 -138h-110q7 96 41 179.5t100 162.5h-199v81h300v-77q-37 -33 -66.5 -87zM715 749.5q-15 -9.5 -20 -27.5h28l-23 -42q7 -12 21 -18.5t31 -6.5q27 0 42.5 13.5t15.5 37.5t-15 38.5t-44 14.5q-21 0 -36 -9.5zM673 623l-4 1l-2 -2zM805 477q18 16 18 47q0 28 -19 46
t-53 18q-32 0 -51.5 -17t-19.5 -47t20 -46.5t53 -16.5q34 0 52 16z" />
    <glyph glyph-name="perthousand" unicode="&#x2030;" horiz-adv-x="1147" 
d="M237 -22h-87l414 744h85zM324.5 669.5q36.5 -44.5 36.5 -130.5q0 -75 -36 -122t-110 -47q-45 0 -78 21t-50.5 59t-17.5 89q0 49 15.5 88.5t48.5 63t83 23.5q72 0 108.5 -44.5zM173 461.5q14 -26.5 42 -26.5q26 0 38 15t15 36t3 54q0 35 -2.5 57t-14.5 37t-37 15
q-26 0 -39 -14.5t-16 -35t-3 -51.5q0 -60 14 -86.5zM695.5 285.5q36.5 -44.5 36.5 -130.5q0 -80 -38 -124.5t-108 -44.5q-45 0 -78 20.5t-50.5 59t-17.5 89.5q0 52 17 91.5t50 61.5t80 22q72 0 108.5 -44.5zM1041.5 285.5q36.5 -44.5 36.5 -130.5q0 -80 -37.5 -124.5
t-108.5 -44.5q-45 0 -78 20.5t-50.5 59t-17.5 89.5q0 52 16.5 91.5t50 61.5t80.5 22q72 0 108.5 -44.5zM542.5 80.5q12.5 -29.5 43.5 -29.5q25 0 37 14t15.5 35.5t3.5 54.5q0 36 -3 58.5t-15 37t-36 14.5q-27 0 -39.5 -15t-15.5 -35.5t-3 -52.5q0 -52 12.5 -81.5zM888.5 80
q12.5 -29 43.5 -29q26 0 38 14.5t15 35.5t3 54q0 35 -2.5 57t-14.5 37.5t-37 15.5q-26 0 -38.5 -13.5t-16 -34.5t-3.5 -53q0 -55 12.5 -84z" />
    <glyph glyph-name="minus" unicode="&#x2212;" horiz-adv-x="600" 
d="M553 199h-505v107h505v-107z" />
    <glyph glyph-name="plusminus" unicode="&#xb1;" horiz-adv-x="600" 
d="M354 375h199v-107h-199v-131h-107v131h-199v107h199v131h107v-131zM553 0h-505v107h505v-107z" />
    <glyph glyph-name="multiply" unicode="&#xd7;" horiz-adv-x="600" 
d="M301 329l160 160l76 -76l-161 -160l161 -160l-76 -76l-160 161l-161 -161l-76 76l161 160l-159 160l76 76z" />
    <glyph glyph-name="divide" unicode="&#xf7;" horiz-adv-x="600" 
d="M342.5 533.5q19.5 -11.5 31 -31t11.5 -42.5q0 -21 -11.5 -40.5t-31 -31.5t-40.5 -12q-23 0 -43 11.5t-31.5 30.5t-11.5 42t12 42.5t31.5 31t41.5 11.5t41.5 -11.5zM553 199h-505v107h505v-107zM343 117.5q19 -11.5 30.5 -30.5t11.5 -42q0 -21 -12 -41t-31 -32t-40 -12
q-23 0 -43 12t-31.5 31.5t-11.5 41.5q0 23 11.5 42t31 30.5t42.5 11.5t42 -11.5z" />
    <glyph glyph-name="notequal" unicode="&#x2260;" horiz-adv-x="600" 
d="M442 412h111v-104h-172l-55 -111h227v-104h-285l-71 -134l-87 43l49 91h-111v104h173l54 111h-227v104h285l72 135l87 -43z" />
    <glyph glyph-name="approxequal" unicode="&#x2248;" horiz-adv-x="600" 
d="M240.5 428.5q24.5 -6.5 63.5 -23.5q42 -18 65.5 -25.5t42.5 -7.5q52 0 61 62h84q-7 -82 -46.5 -123t-106.5 -41q-24 0 -48.5 7.5t-63.5 24.5q-36 16 -59 23.5t-45 7.5q-53 0 -61 -60h-84q7 79 45.5 120.5t106.5 41.5q21 0 45.5 -6.5zM245 213q26 -8 66 -25
q36 -16 59.5 -23t41.5 -7q52 0 61 62h84q-8 -81 -46.5 -122.5t-106.5 -41.5q-22 0 -47 7t-65 25q-38 17 -61.5 24t-42.5 7q-53 0 -61 -60h-84q7 79 45.5 120.5t106.5 41.5q24 0 50 -8z" />
    <glyph glyph-name="lessequal" unicode="&#x2264;" horiz-adv-x="600" 
d="M197 318l356 -83v-113l-505 142v108l505 142v-113zM553 0h-505v107h505v-107z" />
    <glyph glyph-name="greaterequal" unicode="&#x2265;" horiz-adv-x="600" 
d="M553 372v-108l-505 -142v112l356 83l-356 83v114zM553 0h-505v107h505v-107z" />
    <glyph glyph-name="logicalnot" unicode="&#xac;" horiz-adv-x="600" 
d="M544 99h-107v200h-397v107h504v-307z" />
    <glyph glyph-name="uni0394" horiz-adv-x="681" 
d="M688 0h-695l269 714h161zM198 132h282l-138 406h-2z" />
    <glyph glyph-name="uni03A9" unicode="&#x3a9;" horiz-adv-x="774" 
d="M569 688.5q79 -42.5 123 -119t44 -176.5q0 -81 -36 -148t-104 -112v-5h141v-128h-305v118q53 36 85 75t47 85t15 106q0 68 -23.5 116.5t-67 73.5t-101.5 25q-59 0 -102 -25.5t-66.5 -73.5t-23.5 -116q0 -55 13.5 -99.5t45.5 -85.5t87 -81v-118h-306v128h137v5
q-64 40 -99 107t-35 153q0 96 45.5 173t125.5 121t178 44q103 0 182 -42.5z" />
    <glyph glyph-name="uni03BC" unicode="&#x3bc;" horiz-adv-x="593" 
d="M196 225q0 -65 21 -96t70 -31q58 0 84 35t26 112v272h142v-517h-135v72h-3q-30 -45 -61.5 -65.5t-68.5 -20.5q-44 0 -75 24v-192h-142v699h142v-292z" />
    <glyph glyph-name="pi" unicode="&#x3c0;" horiz-adv-x="692" 
d="M672 410h-110v-271q0 -24 9 -34.5t32 -10.5q15 0 33 4v-92q-22 -11 -43.5 -15.5t-49.5 -4.5q-64 0 -93.5 28t-29.5 86v310h-159v-410h-142v410h-104v107h657v-107z" />
    <glyph glyph-name="degree" unicode="&#xb0;" horiz-adv-x="400" 
d="M275 694q34 -20 53.5 -53.5t19.5 -74.5t-20 -75t-53.5 -53.5t-74.5 -19.5t-75 20t-53.5 53.5t-19.5 74.5t19.5 74.5t53.5 53.5t75 20t75 -20zM128.5 522.5q11.5 -20.5 31 -32.5t40.5 -12q22 0 41 12t30.5 32.5t11.5 43.5t-11.5 43.5t-30.5 32.5t-41 12q-21 0 -40 -12
t-31 -32t-12 -44q0 -23 11.5 -43.5z" />
    <glyph glyph-name="estimated" unicode="&#x212e;" horiz-adv-x="770" 
d="M564 666.5q78 -47.5 120 -131t42 -186.5h-533v-238q80 -78 191 -78q84 0 145 39t110 120l46 -28q-43 -66 -87 -105t-95.5 -56t-118.5 -17q-101 0 -178 48t-119.5 130.5t-42.5 184.5q0 101 41.5 184.5t118.5 132t180 48.5q102 0 180 -47.5zM577 398v191q-84 79 -195 79
q-109 0 -189 -79v-191h384z" />
    <glyph glyph-name="eng" unicode="&#x14b;" horiz-adv-x="593" 
d="M494 480.5q45 -50.5 45 -158.5v-330q0 -62 -20 -100t-62 -56t-110 -18q-29 0 -58 4v117q23 -4 44 -4q31 0 47.5 17t16.5 46v297q0 63 -21.5 93.5t-69.5 30.5q-61 0 -85.5 -36.5t-24.5 -111.5v-271h-142v517h135v-72h3q25 41 67 63.5t92 22.5q98 0 143 -50.5z" />
    <glyph glyph-name="Eng" unicode="&#x14a;" 
d="M523 243h2v471h147v-716q0 -63 -20 -102.5t-63.5 -58.5t-114.5 -19q-31 0 -77 6v121q32 -6 58 -6q34 0 52.5 16t19.5 45l-309 478h-2v-478h-147v714h156z" />
    <glyph glyph-name="infinity" unicode="&#x221e;" horiz-adv-x="848" 
d="M296 451q31 -12 62 -38.5t66 -71.5q48 64 95 93t101 29q55 0 96.5 -25t64 -69t22.5 -100q0 -58 -22.5 -103.5t-64.5 -71t-97 -25.5q-50 0 -97 27t-98 89q-37 -44 -68.5 -69t-60.5 -35t-63 -10q-56 0 -98.5 25t-65.5 69.5t-23 102.5q0 56 22.5 100.5t64 69.5t96.5 25
q37 0 68 -12zM556 204q31 -20 63 -20q34 0 54.5 23t20.5 59q0 37 -21.5 60t-56.5 23q-27 0 -57 -20t-68 -65q34 -40 65 -60zM175 207.5q21 -22.5 56 -22.5q31 0 63 20.5t62 58.5q-72 84 -127 84q-22 0 -39 -11t-26.5 -29.5t-9.5 -41.5q0 -36 21 -58.5z" />
    <glyph glyph-name="partialdiff" unicode="&#x2202;" horiz-adv-x="572" 
d="M408 674q62 -47 91.5 -129t29.5 -187q0 -183 -66.5 -277t-191.5 -94q-67 0 -119.5 29.5t-81 82.5t-28.5 120q0 63 28 114t78 80.5t114 29.5q36 0 69 -12t65 -36v8q0 67 -16 115.5t-47 75t-74 26.5q-32 0 -60 -12.5t-61 -40.5l-70 80q49 42 93 58t92 16q93 0 155 -47z
M181.5 146.5q12.5 -29.5 36 -46t55.5 -16.5q38 0 65.5 25t42 65.5t14.5 87.5v29q-24 26 -52.5 40.5t-60.5 14.5q-33 0 -58.5 -17t-40 -47.5t-14.5 -69.5q0 -36 12.5 -65.5z" />
    <glyph glyph-name="integral" unicode="&#x222b;" horiz-adv-x="628" 
d="M454.5 774.5q27.5 -9.5 46 -28t18.5 -44.5q0 -28 -17 -46t-44 -18q-24 0 -36 13.5t-21 41.5q-6 19 -10.5 25.5t-11.5 6.5q-19 0 -19 -36l2 -60q4 -82 4 -114v-478q0 -128 -40.5 -189t-126.5 -61q-28 0 -56.5 10.5t-47 31t-18.5 47.5q0 26 19 41.5t44 15.5q22 0 35 -13
t20 -45q4 -16 8.5 -22.5t11.5 -6.5q19 0 19 30l-2 64q-4 76 -4 93v482q0 87 11.5 137.5t36.5 81.5q20 25 51.5 37.5t72.5 12.5q27 0 54.5 -9.5z" />
    <glyph glyph-name="radical" unicode="&#x221a;" horiz-adv-x="570" 
d="M362 -214h-122l-147 303l-53 -26l-49 105l171 78l117 -255l162 795h139z" />
    <glyph glyph-name="summation" unicode="&#x2211;" horiz-adv-x="673" 
d="M634 660h-418l263 -367l-281 -381h448v-126h-619v110l295 396l-283 384v110h595v-126z" />
    <glyph glyph-name="product" unicode="&#x220f;" horiz-adv-x="749" 
d="M693 -214h-132v874h-373v-874h-133v1000h638v-1000z" />
    <glyph glyph-name="lozenge" unicode="&#x25ca;" horiz-adv-x="593" 
d="M541 356l-186 -391h-119l-184 391l185 391h118zM296 94l112 262l-112 261l-112 -261z" />
    <glyph glyph-name="f_i" horiz-adv-x="591" 
d="M85 422h-85v95h85v38q0 78 47 118.5t126 40.5q19 0 75 -4v-106q-27 3 -51 3q-31 0 -43 -13.5t-12 -46.5v-30h98v-95h-98v-422h-142v422zM533 597h-142v117h142v-117zM533 0h-142v517h142v-517z" />
    <glyph glyph-name="f_l" horiz-adv-x="591" 
d="M85 422h-85v95h85v38q0 78 47 118.5t126 40.5q19 0 75 -4v-106q-27 3 -51 3q-31 0 -43 -13.5t-12 -46.5v-30h98v-95h-98v-422h-142v422zM533 0h-142v714h142v-714z" />
    <glyph glyph-name="uni203D" unicode="&#x203d;" horiz-adv-x="556" 
d="M336 655q90 -10 139 -54t49 -116q0 -46 -21 -81.5t-65 -72.5q-30 -26 -46.5 -42t-26 -34t-11.5 -41h-124l-23 308v24q-46 -19 -47 -79h-127q2 76 47 123t127 61v63h129v-59zM312 359q6 5 27 24t32.5 42.5t11.5 51.5q0 54 -47 72v-27zM373 0h-157v154h157v-154z" />
    <glyph glyph-name="uni2117" unicode="&#x2117;" horiz-adv-x="800" 
d="M589 685q88 -46 141.5 -131t53.5 -196q0 -109 -52.5 -194.5t-140.5 -133t-191 -47.5q-104 0 -192 47.5t-140 133t-52 194.5q0 108 52 193t140 132.5t192 47.5q101 0 189 -46zM155 207.5q37 -67.5 101.5 -106t143.5 -38.5q75 0 140 37.5t103.5 105t38.5 152.5
q0 82 -37.5 149t-102 105.5t-143.5 38.5q-77 0 -141 -37.5t-102 -104.5t-38 -151q0 -83 37 -150.5zM540 537q42 -31 42 -99q0 -42 -19 -71.5t-51.5 -44t-73.5 -14.5h-93v-159h-85v419h164q74 0 116 -31zM479.5 390q19.5 17 19.5 48t-19.5 48t-52.5 17h-82v-130h82
q33 0 52.5 17z" />
    <glyph glyph-name="tonos" unicode="&#x384;" horiz-adv-x="241" 
d="M181 589h-118l30 142h162z" />
    <glyph glyph-name="tonos.cap" horiz-adv-x="241" 
d="M181 572h-118l30 142h162z" />
    <glyph glyph-name="dieresistonos" unicode="&#x385;" horiz-adv-x="512" 
d="M286 589h-111l26 142h152zM153 598h-125v117h125v-117zM484 598h-125v117h125v-117z" />
    <glyph glyph-name="Alphatonos" unicode="&#x386;" horiz-adv-x="722" 
d="M729 0h-163l-54 159h-267l-56 -159h-159l271 714h161zM286 276h185l-90 262h-2zM132 572h-118l30 142h162z" />
    <glyph glyph-name="anoteleia" unicode="&#x387;" horiz-adv-x="278" 
d="M218 354h-157v154h157v-154z" />
    <glyph glyph-name="Epsilontonos" unicode="&#x388;" horiz-adv-x="844" 
d="M799 582h-377v-153h346v-122h-346v-175h385v-132h-542v714h534v-132zM132 572h-118l30 142h162z" />
    <glyph glyph-name="Etatonos" unicode="&#x389;" horiz-adv-x="937" 
d="M422 440h289v274h157v-714h-157v308h-289v-308h-157v714h157v-274zM132 572h-118l30 142h162z" />
    <glyph glyph-name="Iotatonos" unicode="&#x38a;" horiz-adv-x="491" 
d="M422 0h-157v714h157v-714zM132 572h-118l30 142h162z" />
    <glyph glyph-name="Omicrontonos" unicode="&#x38c;" horiz-adv-x="928" 
d="M724.5 682q79.5 -49 122.5 -134.5t43 -193.5q0 -104 -42.5 -188.5t-122.5 -133.5t-186 -49t-186 49t-122.5 133.5t-42.5 188.5q0 107 42.5 192.5t122 135t186.5 49.5q106 0 185.5 -49zM366.5 232q21.5 -54 65.5 -85.5t107 -31.5q64 0 107.5 32t65 86t21.5 121
q0 71 -21.5 126t-65 87t-108.5 32q-63 0 -106.5 -32t-65 -87t-21.5 -126q0 -68 21.5 -122zM132 572h-118l30 142h162z" />
    <glyph glyph-name="Upsilontonos" unicode="&#x38e;" horiz-adv-x="924" 
d="M592 432l166 282h175l-265 -440v-274h-157v278l-263 436h177zM132 572h-118l30 142h162z" />
    <glyph glyph-name="Omegatonos" unicode="&#x38f;" horiz-adv-x="929" 
d="M724 688.5q79 -42.5 123 -119t44 -176.5q0 -81 -36 -148t-104 -112v-5h141v-128h-305v118q53 36 85 75t47 85t15 106q0 68 -23.5 116.5t-67 73.5t-101.5 25q-59 0 -102 -25.5t-66.5 -73.5t-23.5 -116q0 -55 13.5 -99.5t45.5 -85.5t87 -81v-118h-306v128h137v5
q-64 40 -99 107t-35 153q0 96 45.5 173t125.5 121t178 44q103 0 182 -42.5zM132 572h-118l30 142h162z" />
    <glyph glyph-name="iotadieresistonos" unicode="&#x390;" horiz-adv-x="273" 
d="M196 137q0 -23 7.5 -33.5t25.5 -10.5q12 0 32 5v-91q-22 -11 -44 -16t-48 -5q-59 0 -87 29t-28 84v418h142v-380zM178 589h-111l26 142h152zM45 598h-125v117h125v-117zM376 598h-125v117h125v-117z" />
    <glyph glyph-name="Alpha" unicode="&#x391;" horiz-adv-x="685" 
d="M692 0h-163l-54 159h-267l-56 -159h-159l271 714h161zM249 276h185l-90 262h-2z" />
    <glyph glyph-name="Beta" unicode="&#x392;" horiz-adv-x="704" 
d="M575.5 671q57.5 -43 57.5 -133q0 -54 -24.5 -90.5t-72.5 -59.5q65 -18 98 -65.5t33 -115.5t-34.5 -114.5t-91.5 -69.5t-126 -23h-346v714h337q112 0 169.5 -43zM455.5 446.5q25.5 21.5 25.5 63.5q0 82 -106 82h-149v-167h160q44 0 69.5 21.5zM480.5 145.5
q29.5 23.5 29.5 70.5q0 51 -29 76.5t-83 25.5h-172v-196h169q56 0 85.5 23.5z" />
    <glyph glyph-name="Beta" unicode="&#x394;" horiz-adv-x="704" 
d="M575.5 671q57.5 -43 57.5 -133q0 -54 -24.5 -90.5t-72.5 -59.5q65 -18 98 -65.5t33 -115.5t-34.5 -114.5t-91.5 -69.5t-126 -23h-346v714h337q112 0 169.5 -43zM455.5 446.5q25.5 21.5 25.5 63.5q0 82 -106 82h-149v-167h160q44 0 69.5 21.5zM480.5 145.5
q29.5 23.5 29.5 70.5q0 51 -29 76.5t-83 25.5h-172v-196h169q56 0 85.5 23.5z" />
    <glyph glyph-name="Gamma" unicode="&#x393;" horiz-adv-x="571" 
d="M558 582h-332v-582h-157v714h489v-132z" />
    <glyph glyph-name="Epsilon" unicode="&#x395;" horiz-adv-x="648" 
d="M603 582h-377v-153h346v-122h-346v-175h385v-132h-542v714h534v-132z" />
    <glyph glyph-name="Zeta" unicode="&#x396;" horiz-adv-x="648" 
d="M615 590l-383 -458h393v-132h-602v124l383 458h-353v132h562v-124z" />
    <glyph glyph-name="Eta" unicode="&#x397;" 
d="M226 440h289v274h157v-714h-157v308h-289v-308h-157v714h157v-274z" />
    <glyph glyph-name="Theta" unicode="&#x398;" horiz-adv-x="778" 
d="M573 683q80 -48 123.5 -133.5t43.5 -195.5q0 -104 -42.5 -188.5t-122.5 -133.5t-186 -49q-107 0 -186.5 49t-122 133t-42.5 189t42 191t121.5 136t187.5 50q104 0 184 -48zM217 231q22 -54 65.5 -85t106.5 -31q61 0 104.5 30t66.5 84t23 125t-21.5 126t-65 87t-108.5 32
q-62 0 -105.5 -31t-65.5 -86t-22 -128q0 -69 22 -123zM506 304h-231v122h231v-122z" />
    <glyph glyph-name="Iota" unicode="&#x399;" horiz-adv-x="295" 
d="M226 0h-157v714h157v-714z" />
    <glyph glyph-name="Kappa" unicode="&#x39a;" horiz-adv-x="722" 
d="M226 418l279 296h196l-279 -282l306 -432h-197l-215 321l-90 -91v-230h-157v714h157v-296z" />
    <glyph glyph-name="Lambda" unicode="&#x39b;" horiz-adv-x="665" 
d="M672 0h-163l-175 538h-2l-180 -538h-159l261 714h161z" />
    <glyph glyph-name="Mu" unicode="&#x39c;" horiz-adv-x="907" 
d="M457 223h2l158 491h221v-714h-147v506h-2l-175 -506h-121l-175 501h-2v-501h-147v714h221z" />
    <glyph glyph-name="Nu" unicode="&#x39d;" 
d="M523 235h2v479h147v-714h-157l-297 478h-2v-478h-147v714h156z" />
    <glyph glyph-name="Xi" unicode="&#x39e;" horiz-adv-x="623" 
d="M573 582h-523v132h523v-132zM524 306h-425v132h425v-132zM582 0h-541v132h541v-132z" />
    <glyph glyph-name="Omicron" unicode="&#x39f;" horiz-adv-x="778" 
d="M574.5 682q79.5 -49 122.5 -134.5t43 -193.5q0 -104 -42.5 -188.5t-122.5 -133.5t-186 -49t-186 49t-122.5 133.5t-42.5 188.5q0 107 42.5 192.5t122 135t186.5 49.5q106 0 185.5 -49zM216.5 232q21.5 -54 65.5 -85.5t107 -31.5q64 0 107.5 32t65 86t21.5 121
q0 71 -21.5 126t-65 87t-108.5 32q-63 0 -106.5 -32t-65 -87t-21.5 -126q0 -68 21.5 -122z" />
    <glyph glyph-name="Pi" unicode="&#x3a0;" horiz-adv-x="753" 
d="M684 0h-157v582h-301v-582h-157v714h615v-714z" />
    <glyph glyph-name="Rho" unicode="&#x3a1;" horiz-adv-x="667" 
d="M528 684q55 -30 82.5 -82t27.5 -117q0 -66 -27.5 -117.5t-82.5 -81.5t-135 -30h-167v-256h-157v714h323q81 0 136 -30zM453 403.5q33 25.5 33 81.5q0 55 -32.5 81t-101.5 26h-126v-214h125q69 0 102 25.5z" />
    <glyph glyph-name="Sigma" unicode="&#x3a3;" horiz-adv-x="648" 
d="M599 583h-347l204 -209v-2l-222 -240h381v-132h-578v130l225 240l-213 214v130h550v-131z" />
    <glyph glyph-name="Tau" unicode="&#x3a4;" horiz-adv-x="611" 
d="M598 582h-214v-582h-157v582h-214v132h585v-132z" />
    <glyph glyph-name="Upsilon" unicode="&#x3a5;" horiz-adv-x="667" 
d="M335 432l166 282h175l-265 -440v-274h-157v278l-263 436h177z" />
    <glyph glyph-name="Phi" unicode="&#x3a6;" horiz-adv-x="815" 
d="M487 679q94 -4 159.5 -42t99 -104.5t33.5 -157.5q0 -90 -34.5 -156t-100 -103t-157.5 -41v-75h-157v75q-143 6 -218 82t-75 214q0 93 34 160.5t100 105.5t159 42v70h157v-70zM225.5 236q32.5 -43 104.5 -45v372q-68 -2 -102.5 -48.5t-34.5 -143.5q0 -92 32.5 -135z
M590.5 238.5q31.5 44.5 31.5 136.5q0 93 -32 139.5t-103 48.5v-371q72 2 103.5 46.5z" />
    <glyph glyph-name="Chi" unicode="&#x3a7;" horiz-adv-x="667" 
d="M336 486l145 228h172l-229 -341l249 -373h-187l-156 247l-159 -247h-177l250 374l-230 340h182z" />
    <glyph glyph-name="Psi" unicode="&#x3a8;" horiz-adv-x="841" 
d="M209 437q0 -59 13 -95t42 -53t78 -18v443h157v-442q48 0 77 17t42.5 53t13.5 95v277h158v-280q0 -129 -73 -200t-218 -80v-154h-157v154q-103 4 -167 37t-94 93.5t-30 151.5v278h158v-277z" />
    <glyph glyph-name="Iotadieresis" unicode="&#x3aa;" horiz-adv-x="295" 
d="M226 0h-157v714h157v-714zM112 788h-135v117h135v-117zM318 788h-135v117h135v-117z" />
    <glyph glyph-name="Upsilondieresis" unicode="&#x3ab;" horiz-adv-x="667" 
d="M335 432l166 282h175l-265 -440v-274h-157v278l-263 436h177zM300 788h-135v117h135v-117zM506 788h-135v117h135v-117z" />
    <glyph glyph-name="alphatonos" unicode="&#x3ac;" horiz-adv-x="618" 
d="M339.5 511q36.5 -20 59.5 -56h2v62h142v-381q0 -43 33 -43q13 0 30 5v-91q-40 -21 -85 -21q-41 0 -73.5 20.5t-42.5 59.5h-2q-22 -40 -59.5 -60t-90.5 -20q-69 0 -119 39.5t-76 102.5t-26 133t25 131.5t76.5 100t127.5 38.5q42 0 78.5 -20zM187 178.5q13 -37.5 40 -61.5
t66 -24q35 0 60.5 20.5t39 58t13.5 87.5q0 41 -11.5 78.5t-36.5 62t-63 24.5q-60 0 -90.5 -46t-30.5 -121q0 -41 13 -78.5zM364 592h-118l30 142h162z" />
    <glyph glyph-name="epsilontonos" unicode="&#x3ad;" horiz-adv-x="515" 
d="M419 488.5q55 -42.5 67 -124.5h-138q-5 32 -27.5 47.5t-58.5 15.5q-39 0 -59.5 -16t-20.5 -47q0 -23 16.5 -36.5t46.5 -13.5h65v-90h-68q-73 0 -73 -64q0 -34 24.5 -52t68.5 -18q49 0 74.5 19.5t31.5 66.5h137q-15 -97 -77.5 -143.5t-176.5 -46.5q-68 0 -118.5 19
t-78.5 55.5t-28 85.5q0 42 24 72t70 44v4q-37 13 -56 40t-19 66q0 48 28.5 84t78.5 55.5t113 19.5q99 0 154 -42.5zM323 589h-118l30 142h162z" />
    <glyph glyph-name="etatonos" unicode="&#x3ae;" horiz-adv-x="593" 
d="M494 481q45 -50 45 -158v-504h-142v475q0 64 -21 94.5t-70 30.5q-58 0 -84 -35t-26 -113v-271h-142v517h135v-72h3q25 41 67 63.5t92 22.5q98 0 143 -50zM352 592h-118l30 142h162z" />
    <glyph glyph-name="iotatonos" unicode="&#x3af;" horiz-adv-x="273" 
d="M196 137q0 -23 7.5 -33.5t25.5 -10.5q12 0 32 5v-91q-22 -11 -44 -16t-48 -5q-59 0 -87 29t-28 84v418h142v-380zM189 592h-118l30 142h162z" />
    <glyph glyph-name="upsilondieresistonos" unicode="&#x3b0;" horiz-adv-x="572" 
d="M196 192q0 -47 20.5 -73t63.5 -26q56 0 83 43.5t27 135.5q0 60 -17 126.5t-47 118.5h147q29 -50 44 -115t15 -127q0 -89 -29.5 -154t-86.5 -100t-137 -35q-112 0 -168.5 48t-56.5 143v340h142v-325zM307 589h-111l26 142h152zM174 598h-125v117h125v-117zM505 598h-125
v117h125v-117z" />
    <glyph glyph-name="alpha" unicode="&#x3b1;" horiz-adv-x="618" 
d="M339.5 511q36.5 -20 59.5 -56h2v62h142v-381q0 -43 33 -43q13 0 30 5v-91q-40 -21 -85 -21q-41 0 -73.5 20.5t-42.5 59.5h-2q-22 -40 -59.5 -60t-90.5 -20q-69 0 -119 39.5t-76 102.5t-26 133t25 131.5t76.5 100t127.5 38.5q42 0 78.5 -20zM187 178.5q13 -37.5 40 -61.5
t66 -24q35 0 60.5 20.5t39 58t13.5 87.5q0 41 -11.5 78.5t-36.5 62t-63 24.5q-60 0 -90.5 -46t-30.5 -121q0 -41 13 -78.5z" />
    <glyph glyph-name="beta" unicode="&#x3b2;" horiz-adv-x="588" 
d="M406 701q50 -21 75.5 -60t25.5 -93q0 -49 -26.5 -85t-73.5 -43v-3q47 -7 81 -35t51.5 -70t17.5 -91q0 -74 -25.5 -126.5t-72 -80.5t-109.5 -28q-51 0 -90 20t-63 56h-1v-244h-142v673q0 115 56 173t174 58q72 0 122 -21zM219 139q30 -47 86 -47q30 0 55 13t40 41t15 70
q0 68 -22 101.5t-74 33.5h-55v90h26q39 0 57.5 23t18.5 69q0 38 -21 59t-62 21q-51 0 -72.5 -33t-21.5 -102v-205q0 -87 30 -134z" />
    <glyph glyph-name="gamma" unicode="&#x3b3;" horiz-adv-x="508" 
d="M218 353q30 -108 39 -194h5q29 58 53 151t38 207h145q-43 -285 -192 -520v-179h-142v144q0 47 -12.5 118.5t-36.5 153.5q-23 80 -53 156.5t-57 126.5h151q31 -54 62 -164z" />
    <glyph glyph-name="delta" unicode="&#x3b4;" horiz-adv-x="592" 
d="M409.5 713.5q47.5 -8.5 81.5 -24.5v-106q-37 18 -84.5 26.5t-91.5 8.5q-53 0 -53 -23q0 -10 14 -23t48 -33q75 -45 118 -80t70 -73q44 -62 44 -139q0 -67 -28.5 -127t-85.5 -97t-139 -37q-80 0 -140.5 33.5t-93.5 93t-33 136.5q0 86 45.5 145.5t131.5 84.5
q-50 29 -73.5 59.5t-23.5 65.5q0 58 50.5 88t147.5 30q48 0 95.5 -8.5zM212 132.5q33 -39.5 91 -39.5q52 0 81.5 40.5t29.5 113.5q0 59 -29 101.5t-88 77.5q-118 -26 -118 -177q0 -77 33 -116.5z" />
    <glyph glyph-name="epsilon" unicode="&#x3b5;" horiz-adv-x="515" 
d="M419 488.5q55 -42.5 67 -124.5h-138q-5 32 -27.5 47.5t-58.5 15.5q-39 0 -59.5 -16t-20.5 -47q0 -23 16.5 -36.5t46.5 -13.5h65v-90h-68q-73 0 -73 -64q0 -34 24.5 -52t68.5 -18q49 0 74.5 19.5t31.5 66.5h137q-15 -97 -77.5 -143.5t-176.5 -46.5q-68 0 -118.5 19
t-78.5 55.5t-28 85.5q0 42 24 72t70 44v4q-37 13 -56 40t-19 66q0 48 28.5 84t78.5 55.5t113 19.5q99 0 154 -42.5z" />
    <glyph glyph-name="zeta" unicode="&#x3b6;" horiz-adv-x="474" 
d="M474 621q-100 -40 -165 -90.5t-97 -116.5t-32 -152q0 -77 32 -112t96 -35h24q69 0 104.5 -40t35.5 -115q0 -26 -3.5 -57t-11.5 -57h-124q5 18 8.5 44t3.5 45q0 32 -10 48.5t-34 16.5h-31q-74 0 -126 33t-79 92t-27 137q0 120 60.5 206.5t180.5 137.5h-198v108h393v-93z
" />
    <glyph glyph-name="eta" unicode="&#x3b7;" horiz-adv-x="593" 
d="M494 481q45 -50 45 -158v-504h-142v475q0 64 -21 94.5t-70 30.5q-58 0 -84 -35t-26 -113v-271h-142v517h135v-72h3q25 41 67 63.5t92 22.5q98 0 143 -50z" />
    <glyph glyph-name="theta" unicode="&#x3b8;" horiz-adv-x="575" 
d="M477.5 632.5q61.5 -89.5 61.5 -277.5q0 -187 -62.5 -278t-189.5 -91q-126 0 -188.5 91t-62.5 278q0 185 62.5 276t188.5 91q129 0 190.5 -89.5zM393 420q0 101 -26 148t-81 47q-54 0 -79 -45.5t-25 -145.5v-8h211v4zM350.5 114q22.5 20 32 66t10.5 129h-211
q0 -80 9.5 -126t32 -67.5t63.5 -21.5t63.5 20z" />
    <glyph glyph-name="iota" unicode="&#x3b9;" horiz-adv-x="273" 
d="M196 137q0 -23 7.5 -33.5t25.5 -10.5q12 0 32 5v-91q-22 -11 -44 -16t-48 -5q-59 0 -87 29t-28 84v418h142v-380z" />
    <glyph glyph-name="kappa" unicode="&#x3ba;" horiz-adv-x="567" 
d="M196 310l184 207h168l-198 -207l221 -310h-172l-145 212l-58 -56v-156h-142v517h142v-207z" />
    <glyph glyph-name="lambda" unicode="&#x3bb;" horiz-adv-x="551" 
d="M203 716q24 -6 43 -21t35 -40t33 -71l171 -450q5 -14 10 -24t10.5 -13.5t14.5 -3.5q16 0 31 5v-91q-22 -12 -42.5 -16.5t-37.5 -4.5q-48 0 -73.5 19.5t-36.5 56.5l-84 267h-3l-117 -329h-152l207 478l-41 98q-9 20 -24 28t-42 8q-23 0 -49 -7v106q36 11 90 11q33 0 57 -6
z" />
    <glyph glyph-name="nu" unicode="&#x3bd;" horiz-adv-x="530" 
d="M267 153h3q38 78 65.5 174t38.5 190h141q-20 -128 -63.5 -256t-111.5 -261h-158l-177 517h149z" />
    <glyph glyph-name="xi" unicode="&#x3be;" horiz-adv-x="465" 
d="M450 689v-106q-84 31 -145 31q-50 0 -78 -24.5t-28 -69.5q0 -51 30 -73t99 -22h89v-102h-90q-51 0 -83 -9t-49 -31.5t-17 -62.5q0 -53 30 -79t93 -26h26q66 0 102 -38.5t36 -116.5q0 -62 -15 -114h-124q5 20 8.5 44t3.5 45q0 26 -5.5 40t-17 19.5t-32.5 5.5h-25
q-70 0 -120 24.5t-76 69.5t-26 106q0 71 36.5 117.5t107.5 62.5v2q-59 9 -91 45.5t-32 93.5q0 60 29 105.5t81.5 70.5t121.5 25q85 0 161 -33z" />
    <glyph glyph-name="omicron" unicode="&#x3bf;" horiz-adv-x="611" 
d="M446.5 497q60.5 -34 93.5 -96t33 -143q0 -82 -33.5 -143.5t-94.5 -95t-140 -33.5q-81 0 -141 34t-93 95.5t-33 142.5q0 82 33 143.5t93.5 95.5t140.5 34q81 0 141.5 -34zM212.5 136q32.5 -43 92.5 -43q62 0 94 43.5t32 121.5q0 72 -29.5 119t-97.5 47q-59 0 -91.5 -43.5
t-32.5 -122.5t32.5 -122z" />
    <glyph glyph-name="rho" unicode="&#x3c1;" horiz-adv-x="597" 
d="M448 494q59 -37 88.5 -99.5t29.5 -137.5q0 -69 -24 -131t-74.5 -101t-127.5 -39q-42 0 -80.5 20.5t-61.5 56.5h-2v-245h-142v442q0 83 29 144t85 94t137 33q84 0 143 -37zM205 171.5q14 -37.5 40 -58t62 -20.5q41 0 67 23.5t38 62t12 84.5q0 48 -14.5 84.5t-41.5 56.5
t-63 20q-33 0 -59 -20t-40.5 -57.5t-14.5 -87.5t14 -87.5z" />
    <glyph glyph-name="sigma" unicode="&#x3c3;" horiz-adv-x="598" 
d="M466 410q24 -12 43.5 -36.5t30 -55t10.5 -61.5q0 -67 -27 -129t-84 -102t-144 -40q-80 0 -138.5 35.5t-89.5 97t-31 139.5t34 136.5t97.5 90.5t148.5 32h279v-107h-129zM209.5 135q31.5 -42 85.5 -42t83.5 43.5t29.5 121.5q0 57 -12.5 94t-41.5 58h-31
q-70 0 -107.5 -37.5t-37.5 -114.5q0 -81 31.5 -123z" />
    <glyph glyph-name="tau" unicode="&#x3c4;" horiz-adv-x="499" 
d="M495 410h-184v-271q0 -23 11 -34t36 -11q22 0 40 5v-91q-23 -11 -46 -16.5t-56 -5.5q-72 0 -99.5 30.5t-27.5 83.5v310h-164v107h490v-107z" />
    <glyph glyph-name="upsilon" unicode="&#x3c5;" horiz-adv-x="572" 
d="M196 192q0 -47 20.5 -73t63.5 -26q56 0 83 43.5t27 135.5q0 60 -17 126.5t-47 118.5h147q29 -50 44 -115t15 -127q0 -89 -29.5 -154t-86.5 -100t-137 -35q-112 0 -168.5 48t-56.5 143v340h142v-325z" />
    <glyph glyph-name="phi" unicode="&#x3c6;" horiz-adv-x="754" 
d="M449 531q83 -2 144 -36t94 -94t33 -138q0 -82 -32 -143.5t-93 -96.5t-146 -37v-168h-142v168q-83 1 -144.5 35t-94 95.5t-32.5 144.5q0 79 33.5 139t94.5 94.5t143 36.5v129h142v-129zM546 137q32 42 32 126q0 78 -32.5 120.5t-96.5 42.5v-331q65 0 97 42zM211 135
q33 -42 96 -42v331q-61 0 -95 -42t-34 -121q0 -84 33 -126z" />
    <glyph glyph-name="chi" unicode="&#x3c7;" horiz-adv-x="537" 
d="M270 317l89 200h158l-176 -319l196 -379h-162l-110 250l-105 -250h-160l195 374l-178 324h162z" />
    <glyph glyph-name="psi" unicode="&#x3c8;" horiz-adv-x="726" 
d="M431 92q56 2 85.5 49.5t29.5 131.5q0 56 -13.5 122t-40.5 122h146q22 -45 36 -110t14 -132q0 -84 -30.5 -148.5t-88.5 -101.5t-138 -39v-168h-142v167q-120 4 -177.5 69t-57.5 188v275h142v-271q0 -72 21.5 -111t71.5 -43v567h142v-567z" />
    <glyph glyph-name="omega" unicode="&#x3c9;" horiz-adv-x="760" 
d="M201.5 385.5q-23.5 -69.5 -23.5 -142.5q0 -78 19.5 -114.5t57.5 -36.5q28 0 40 25.5t12 81.5v173h143v-174q0 -55 12.5 -80.5t40.5 -25.5q39 0 59 37.5t20 114.5q0 75 -23 142t-71 131h149q46 -62 66.5 -129.5t20.5 -149.5q0 -72 -23.5 -129t-70 -90t-114.5 -33
q-104 0 -140 88q-17 -33 -35.5 -52t-43.5 -27.5t-60 -8.5q-98 0 -149.5 65t-51.5 187q0 83 22 150.5t65 128.5h149q-47 -62 -70.5 -131.5z" />
    <glyph glyph-name="iotadieresis" unicode="&#x3ca;" horiz-adv-x="273" 
d="M196 137q0 -23 7.5 -33.5t25.5 -10.5q12 0 32 5v-91q-22 -11 -44 -16t-48 -5q-59 0 -87 29t-28 84v418h142v-380zM98 598h-135v117h135v-117zM304 598h-135v117h135v-117z" />
    <glyph glyph-name="upsilondieresis" unicode="&#x3cb;" horiz-adv-x="572" 
d="M196 192q0 -47 20.5 -73t63.5 -26q56 0 83 43.5t27 135.5q0 60 -17 126.5t-47 118.5h147q29 -50 44 -115t15 -127q0 -89 -29.5 -154t-86.5 -100t-137 -35q-112 0 -168.5 48t-56.5 143v340h142v-325zM236 598h-135v117h135v-117zM442 598h-135v117h135v-117z" />
    <glyph glyph-name="omicrontonos" unicode="&#x3cc;" horiz-adv-x="611" 
d="M446.5 497q60.5 -34 93.5 -96t33 -143q0 -82 -33.5 -143.5t-94.5 -95t-140 -33.5q-81 0 -141 34t-93 95.5t-33 142.5q0 82 33 143.5t93.5 95.5t140.5 34q81 0 141.5 -34zM212.5 136q32.5 -43 92.5 -43q62 0 94 43.5t32 121.5q0 72 -29.5 119t-97.5 47q-59 0 -91.5 -43.5
t-32.5 -122.5t32.5 -122zM360 592h-118l30 142h162z" />
    <glyph glyph-name="upsilontonos" unicode="&#x3cd;" horiz-adv-x="572" 
d="M196 192q0 -47 20.5 -73t63.5 -26q56 0 83 43.5t27 135.5q0 60 -17 126.5t-47 118.5h147q29 -50 44 -115t15 -127q0 -89 -29.5 -154t-86.5 -100t-137 -35q-112 0 -168.5 48t-56.5 143v340h142v-325zM327 592h-118l30 142h162z" />
    <glyph glyph-name="omegatonos" unicode="&#x3ce;" horiz-adv-x="760" 
d="M201.5 385.5q-23.5 -69.5 -23.5 -142.5q0 -78 19.5 -114.5t57.5 -36.5q28 0 40 25.5t12 81.5v173h143v-174q0 -55 12.5 -80.5t40.5 -25.5q39 0 59 37.5t20 114.5q0 75 -23 142t-71 131h149q46 -62 66.5 -129.5t20.5 -149.5q0 -72 -23.5 -129t-70 -90t-114.5 -33
q-104 0 -140 88q-17 -33 -35.5 -52t-43.5 -27.5t-60 -8.5q-98 0 -149.5 65t-51.5 187q0 83 22 150.5t65 128.5h149q-47 -62 -70.5 -131.5zM435 592h-118l30 142h162z" />
    <glyph glyph-name="uni20BD" unicode="&#x20bd;" horiz-adv-x="556" 
d="M238 0h-135v138h-88v96h88v63h-88v96h88v303h192q116 0 179 -47t63 -152q0 -104 -66.5 -152t-182.5 -48h-50v-63h140v-96h-140v-138zM366 416q28 23 28 77q0 52 -29.5 72.5t-87.5 20.5h-39v-193h43q57 0 85 23z" />
    <glyph glyph-name="uni1E9E" unicode="&#x1e9e;" horiz-adv-x="792" 
d="M532 572q-47 -20 -47 -58q0 -19 10 -33.5t33.5 -29t68.5 -35.5q54 -26 89.5 -53.5t56 -68t20.5 -98.5q0 -70 -31.5 -118t-86.5 -71.5t-125 -23.5q-62 0 -116 21.5t-88 69t-35 120.5h150q0 -45 25 -68.5t67 -23.5t65 21.5t23 62.5q0 27 -11 47t-36 37.5t-70 37.5
q-79 35 -118.5 77t-39.5 99q0 50 31 82t80 43q-6 1 -25 2t-33 1q-47 0 -81.5 -7.5t-58 -33t-23.5 -75.5v-496h-157v494q0 89 37.5 141.5t106.5 74t171 21.5q68 0 142 -6t121 -14l-2 -117q-66 -2 -113 -22z" />
    <glyph glyph-name="uni018F" unicode="&#x18f;" horiz-adv-x="752" 
d="M199.5 31.5q-76.5 48.5 -119 135t-42.5 196.5l1 36h508q-1 61 -24 107.5t-63.5 72t-93.5 25.5q-44 0 -79 -18t-57 -48.5t-29 -67.5h-153q14 78 59.5 137t114 91.5t148.5 32.5q101 0 179 -47.5t121.5 -132.5t43.5 -195q0 -109 -42.5 -194t-120 -132t-178.5 -47
q-97 0 -173.5 48.5zM234 196.5q23 -40.5 60 -64t81 -23.5q48 0 86.5 23.5t61 64t24.5 88.5h-341q5 -48 28 -88.5z" />
    <glyph glyph-name="uni0162" unicode="&#x162;" horiz-adv-x="611" 
d="M598 582h-214v-582h-157v582h-214v132h585v-132zM378 -122q0 -36 -14 -57t-42 -29.5t-73 -8.5h-6v37q25 2 38.5 10.5t18.5 26.5h-67v93h145v-72z" />
    <glyph glyph-name="uni0259" unicode="&#x259;" horiz-adv-x="574" 
d="M151.5 20.5q-59.5 37.5 -91 102t-31.5 141.5l1 26h373q-3 67 -34 99t-92 32q-39 0 -67.5 -19.5t-37.5 -47.5h-133q28 88 88.5 131t153.5 43q81 0 140.5 -34.5t91.5 -96.5t32 -141q0 -78 -31.5 -140t-89.5 -97.5t-134 -35.5q-79 0 -138.5 37.5zM209 116q27 -26 77 -26
q51 0 81.5 29t35.5 81h-231q10 -58 37 -84z" />
    <glyph glyph-name="dotlessi" unicode="&#x131;" horiz-adv-x="258" 
d="M200 0h-142v517h142v-517z" />
    <glyph glyph-name="uni0237" unicode="&#x237;" horiz-adv-x="278" 
d="M209 -27q0 -56 -17 -89.5t-56 -49.5t-108 -16q-26 0 -47 4v117q11 -4 31 -4q30 0 42.5 11.5t12.5 35.5v535h142v-544z" />
    <glyph glyph-name="uni0163" unicode="&#x163;" horiz-adv-x="352" 
d="M234 517h104v-95h-104v-256q0 -25 5 -37.5t17.5 -17.5t37.5 -5q28 0 44 4v-111q-30 -5 -84 -5q-84 0 -123 28.5t-39 96.5v303h-86v95h86v155h142v-155zM286 -122q0 -36 -14 -57t-42 -29.5t-73 -8.5h-6v37q25 2 38.5 10.5t18.5 26.5h-67v93h145v-72z" />
    <glyph glyph-name="n.sups" unicode="&#x207f;" horiz-adv-x="390" 
d="M323.5 691.5q26.5 -33.5 26.5 -93.5v-201h-102v182q0 32 -10.5 50t-36.5 18q-29 0 -44 -21t-15 -54v-175h-102v319h97v-47q17 27 42.5 41.5t62.5 14.5q55 0 81.5 -33.5z" />
    <glyph glyph-name="uni0410" unicode="&#x410;" horiz-adv-x="685" 
d="M692 0h-163l-54 159h-267l-56 -159h-159l271 714h161zM249 276h185l-90 262h-2z" />
    <glyph glyph-name="uni0411" unicode="&#x411;" horiz-adv-x="704" 
d="M599 582h-373v-124h188q75 0 131.5 -26t88 -77.5t31.5 -125.5q0 -76 -32.5 -127t-91.5 -76.5t-137 -25.5h-335v714h530v-132zM483.5 152.5q29.5 24.5 29.5 76.5t-32.5 76.5t-89.5 24.5h-165v-202h167q61 0 90.5 24.5z" />
    <glyph glyph-name="uni0412" unicode="&#x412;" horiz-adv-x="704" 
d="M575.5 671q57.5 -43 57.5 -133q0 -54 -24.5 -90.5t-72.5 -59.5q65 -18 98 -65.5t33 -115.5t-34.5 -114.5t-91.5 -69.5t-126 -23h-346v714h337q112 0 169.5 -43zM455.5 446.5q25.5 21.5 25.5 63.5q0 82 -106 82h-149v-167h160q44 0 69.5 21.5zM480.5 145.5
q29.5 23.5 29.5 70.5q0 51 -29 76.5t-83 25.5h-172v-196h169q56 0 85.5 23.5z" />
    <glyph glyph-name="uni0413" unicode="&#x413;" horiz-adv-x="571" 
d="M558 582h-332v-582h-157v714h489v-132z" />
    <glyph glyph-name="uni0403" unicode="&#x403;" horiz-adv-x="571" 
d="M558 582h-332v-582h-157v714h489v-132zM258 779h-99l96 142h157z" />
    <glyph glyph-name="uni0490" unicode="&#x490;" horiz-adv-x="571" 
d="M550 582h-324v-582h-157v714h330v157h151v-289z" />
    <glyph glyph-name="uni0414" unicode="&#x414;" horiz-adv-x="770" 
d="M685 132h77v-315h-153v183h-448v-183h-153v315h54q61 83 87.5 195t26.5 275v112h509v-582zM528 582h-197v-12q0 -149 -23 -250.5t-72 -187.5h292v450z" />
    <glyph glyph-name="uni0415" unicode="&#x415;" horiz-adv-x="648" 
d="M603 582h-377v-153h346v-122h-346v-175h385v-132h-542v714h534v-132z" />
    <glyph glyph-name="uni0400" unicode="&#x400;" horiz-adv-x="648" 
d="M603 582h-377v-153h346v-122h-346v-175h385v-132h-542v714h534v-132zM390 779h-99l-154 142h157z" />
    <glyph glyph-name="uni0401" unicode="&#x401;" horiz-adv-x="648" 
d="M603 582h-377v-153h346v-122h-346v-175h385v-132h-542v714h534v-132zM293 788h-135v117h135v-117zM499 788h-135v117h135v-117z" />
    <glyph glyph-name="uni0416" unicode="&#x416;" horiz-adv-x="1059" 
d="M452 425v289h155v-293l247 293h188l-258 -292l284 -422h-194l-191 311l-76 -86v-225h-155v221l-77 88l-195 -309h-189l285 418l-259 296h192z" />
    <glyph glyph-name="uni0417" unicode="&#x417;" horiz-adv-x="649" 
d="M460 706q58 -25 90.5 -70t32.5 -103q0 -56 -28.5 -92.5t-79.5 -52.5q65 -16 100 -60.5t35 -108.5q0 -71 -37 -124.5t-103 -82.5t-150 -29q-93 0 -159.5 29t-102.5 85.5t-37 136.5h155q2 -64 41.5 -97.5t106.5 -33.5q39 0 68 14t45 40t16 61q0 101 -134 101h-54v105h46
q62 0 93.5 23t31.5 70q0 27 -13.5 48.5t-39 33t-59.5 11.5q-58 0 -90 -27.5t-37 -79.5h-148q1 73 36.5 124t97.5 77.5t144 26.5q75 0 133 -25z" />
    <glyph glyph-name="uni0418" unicode="&#x418;" 
d="M226 233h3l274 481h169v-714h-157v482h-3l-274 -482h-169v714h157v-481z" />
    <glyph glyph-name="uni0419" unicode="&#x419;" 
d="M226 233h3l274 481h169v-714h-157v482h-3l-274 -482h-169v714h157v-481zM301.5 871q28.5 -17 65.5 -17q94 0 110 67h63q-9 -70 -53.5 -106t-124.5 -36q-72 0 -112.5 36.5t-46.5 105.5h65q5 -33 33.5 -50z" />
    <glyph glyph-name="uni040D" unicode="&#x40d;" 
d="M226 233h3l274 481h169v-714h-157v482h-3l-274 -482h-169v714h157v-481zM427 779h-99l-154 142h157z" />
    <glyph glyph-name="uni041A" unicode="&#x41a;" horiz-adv-x="722" 
d="M226 418l279 296h196l-279 -282l306 -432h-197l-215 321l-90 -91v-230h-157v714h157v-296z" />
    <glyph glyph-name="uni040C" unicode="&#x40c;" horiz-adv-x="722" 
d="M226 418l279 296h196l-279 -282l306 -432h-197l-215 321l-90 -91v-230h-157v714h157v-296zM333 779h-99l96 142h157z" />
    <glyph glyph-name="uni041B" unicode="&#x41b;" horiz-adv-x="722" 
d="M653 0h-157v581h-192l-8 -336q-3 -132 -55.5 -197t-149.5 -65q-40 0 -81 12v123q36 -8 59 -8q24 0 39.5 13t24 43.5t9.5 83.5l12 464h499v-714z" />
    <glyph glyph-name="uni041C" unicode="&#x41c;" horiz-adv-x="907" 
d="M457 223h2l158 491h221v-714h-147v506h-2l-175 -506h-121l-175 501h-2v-501h-147v714h221z" />
    <glyph glyph-name="uni041D" unicode="&#x41d;" 
d="M226 440h289v274h157v-714h-157v308h-289v-308h-157v714h157v-274z" />
    <glyph glyph-name="uni041E" unicode="&#x41e;" horiz-adv-x="778" 
d="M574.5 682q79.5 -49 122.5 -134.5t43 -193.5q0 -104 -42.5 -188.5t-122.5 -133.5t-186 -49t-186 49t-122.5 133.5t-42.5 188.5q0 107 42.5 192.5t122 135t186.5 49.5q106 0 185.5 -49zM216.5 232q21.5 -54 65.5 -85.5t107 -31.5q64 0 107.5 32t65 86t21.5 121
q0 71 -21.5 126t-65 87t-108.5 32q-63 0 -106.5 -32t-65 -87t-21.5 -126q0 -68 21.5 -122z" />
    <glyph glyph-name="uni041F" unicode="&#x41f;" 
d="M672 0h-157v582h-289v-582h-157v714h603v-714z" />
    <glyph glyph-name="uni0420" unicode="&#x420;" horiz-adv-x="667" 
d="M528 684q55 -30 82.5 -82t27.5 -117q0 -66 -27.5 -117.5t-82.5 -81.5t-135 -30h-167v-256h-157v714h323q81 0 136 -30zM453 403.5q33 25.5 33 81.5q0 55 -32.5 81t-101.5 26h-126v-214h125q69 0 102 25.5z" />
    <glyph glyph-name="uni0421" unicode="&#x421;" 
d="M536 700q67 -31 109.5 -89t51.5 -137h-152q-5 35 -27.5 63.5t-56.5 45t-72 16.5q-63 0 -106.5 -31t-65.5 -86t-22 -128q0 -69 21.5 -123t65.5 -85t107 -31q68 0 110 42t52 118h152q-8 -89 -49.5 -155t-109.5 -101.5t-155 -35.5q-106 0 -186 48.5t-122.5 133t-42.5 189.5
q0 106 42 192t121.5 135.5t187.5 49.5q80 0 147 -31z" />
    <glyph glyph-name="uni0422" unicode="&#x422;" horiz-adv-x="611" 
d="M598 582h-214v-582h-157v582h-214v132h585v-132z" />
    <glyph glyph-name="uni0423" unicode="&#x423;" horiz-adv-x="656" 
d="M340 334l156 380h167l-244 -531q-31 -67 -59 -108t-72 -66.5t-109 -25.5q-56 0 -96 13v126q42 -12 85 -12q38 0 60 19.5t22 51.5q0 10 -4.5 24.5t-10.5 27.5l-231 481h173z" />
    <glyph glyph-name="uni040E" unicode="&#x40e;" horiz-adv-x="656" 
d="M340 334l156 380h167l-244 -531q-31 -67 -59 -108t-72 -66.5t-109 -25.5q-56 0 -96 13v126q42 -12 85 -12q38 0 60 19.5t22 51.5q0 10 -4.5 24.5t-10.5 27.5l-231 481h173zM269.5 871q28.5 -17 65.5 -17q94 0 110 67h63q-9 -70 -53.5 -106t-124.5 -36q-72 0 -112.5 36.5
t-46.5 105.5h65q5 -33 33.5 -50z" />
    <glyph glyph-name="uni0424" unicode="&#x424;" horiz-adv-x="848" 
d="M501 642q99 -4 168.5 -39t105 -96t35.5 -143q0 -84 -37 -147t-106.5 -99t-165.5 -40v-78h-154v78q-98 5 -167.5 40.5t-105.5 98t-36 147.5q0 81 36.5 142.5t106 96.5t166.5 39v72h154v-72zM208 278.5q19 -37.5 54.5 -59.5t84.5 -24v334q-77 -3 -117.5 -45t-40.5 -120
q0 -48 19 -85.5zM586 218.5q36 21.5 54.5 59t18.5 86.5q0 77 -41 119.5t-117 45.5v-334q49 2 85 23.5z" />
    <glyph glyph-name="uni0425" unicode="&#x425;" horiz-adv-x="667" 
d="M336 486l145 228h172l-229 -341l249 -373h-187l-156 247l-159 -247h-177l250 374l-230 340h182z" />
    <glyph glyph-name="uni0427" unicode="&#x427;" horiz-adv-x="670" 
d="M194 512q0 -39 11.5 -62t36.5 -34t67 -11q49 0 135 16v293h157v-714h-157v294q-51 -11 -88.5 -15.5t-70.5 -4.5q-121 0 -184.5 58.5t-63.5 169.5v212h157v-202z" />
    <glyph glyph-name="uni0426" unicode="&#x426;" horiz-adv-x="757" 
d="M226 132h289v582h157v-582h77v-315h-153v183h-527v714h157v-582z" />
    <glyph glyph-name="uni0428" unicode="&#x428;" horiz-adv-x="1077" 
d="M226 132h234v582h157v-582h234v582h157v-714h-939v714h157v-582z" />
    <glyph glyph-name="uni0429" unicode="&#x429;" horiz-adv-x="1092" 
d="M226 132h234v582h157v-582h234v582h157v-582h77v-315h-153v183h-863v714h157v-582z" />
    <glyph glyph-name="uni040F" unicode="&#x40f;" 
d="M226 132h289v582h157v-714h-225v-183h-153v183h-225v714h157v-582z" />
    <glyph glyph-name="uni042C" unicode="&#x42c;" horiz-adv-x="674" 
d="M226 458h166q75 0 132 -25.5t89 -76.5t32 -127q0 -77 -33 -128t-92 -76t-136 -25h-315v714h157v-256zM462.5 152q30.5 24 30.5 77q0 101 -123 101h-144v-202h146q60 0 90.5 24z" />
    <glyph glyph-name="uni042A" unicode="&#x42a;" horiz-adv-x="809" 
d="M361 458h167q75 0 131.5 -25t88.5 -76.5t32 -127.5q0 -77 -33.5 -128.5t-92 -76t-134.5 -24.5h-316v582h-191v132h348v-256zM597 151.5q31 23.5 31 77.5q0 51 -31 76t-91 25h-145v-202h146q59 0 90 23.5z" />
    <glyph glyph-name="uni042B" unicode="&#x42b;" horiz-adv-x="914" 
d="M226 458h130q76 0 132.5 -26t88 -77.5t31.5 -125.5q0 -76 -33 -127.5t-91.5 -76.5t-135.5 -25h-279v714h157v-256zM845 0h-157v714h157v-714zM425.5 152q30.5 24 30.5 77q0 52 -32 76.5t-90 24.5h-108v-202h110q59 0 89.5 24z" />
    <glyph glyph-name="uni0409" unicode="&#x409;" horiz-adv-x="1057" 
d="M635 444h137q77 0 135 -25t90.5 -74.5t32.5 -122.5t-33 -122.5t-93.5 -74.5t-141.5 -25h-284v581h-174l-8 -336q-4 -137 -57.5 -199.5t-147.5 -62.5q-38 0 -81 12v123q38 -8 59 -8q26 0 41 14t22.5 45t9.5 83l12 462h481v-270zM848 154.5q30 20.5 30 67.5q0 46 -31 68
t-89 22h-123v-178h125q58 0 88 20.5z" />
    <glyph glyph-name="uni040A" unicode="&#x40a;" horiz-adv-x="1057" 
d="M226 444h252v270h157v-270h138q74 0 132 -24t91.5 -74t33.5 -124q0 -73 -33.5 -123t-93.5 -74.5t-139 -24.5h-286v311h-252v-311h-157v714h157v-270zM848.5 154.5q29.5 20.5 29.5 67.5q0 46 -31 68t-89 22h-123v-178h125q59 0 88.5 20.5z" />
    <glyph glyph-name="uni0405" unicode="&#x405;" horiz-adv-x="649" 
d="M459.5 706.5q64.5 -24.5 103 -76t38.5 -129.5h-152q-4 55 -37.5 81.5t-102.5 26.5q-47 0 -78 -20.5t-31 -60.5q0 -27 14 -41.5t50.5 -26.5t125.5 -34q71 -18 119 -38.5t82 -63t34 -112.5q0 -68 -35 -119.5t-102 -80.5t-160 -29q-80 0 -149 26.5t-112 82.5t-43 140v5h152
q0 -48 22.5 -77.5t58 -42t76.5 -12.5q60 0 100 21.5t40 67.5q0 34 -28.5 56.5t-94.5 38.5l-47 12q-10 3 -41 11t-57 16q-80 27 -118.5 73t-38.5 115t38 117.5t99.5 73t129.5 24.5q80 0 144.5 -24.5z" />
    <glyph glyph-name="uni0404" unicode="&#x404;" 
d="M535.5 702.5q66.5 -28.5 109 -82.5t52.5 -127h-155q-13 51 -54.5 79.5t-102.5 28.5q-73 0 -121 -44.5t-65 -127.5h261v-122h-264q6 -60 31 -104t65.5 -67t90.5 -23q70 0 112 34t53 100h156q-12 -84 -55 -143.5t-111 -90t-156 -30.5q-102 0 -180 47t-121 132t-43 195
q0 106 41.5 191t121 134t187.5 49q81 0 147.5 -28.5z" />
    <glyph glyph-name="uni042D" unicode="&#x42d;" 
d="M544.5 683.5q76.5 -47.5 117.5 -132.5t41 -194q0 -107 -42.5 -192t-120 -133.5t-178.5 -48.5q-91 0 -161 31.5t-112.5 91t-51.5 141.5h156q9 -65 55 -99.5t115 -34.5q52 0 92 24.5t64 68.5t27 101h-268v122h263q-8 52 -31.5 91t-61.5 60t-86 21q-61 0 -101 -27t-61 -81
h-155q15 74 59 128t111 82t149 28q104 0 180.5 -47.5z" />
    <glyph glyph-name="uni0406" unicode="&#x406;" horiz-adv-x="295" 
d="M226 0h-157v714h157v-714z" />
    <glyph glyph-name="uni0407" unicode="&#x407;" horiz-adv-x="295" 
d="M226 0h-157v714h157v-714zM112 788h-135v117h135v-117zM318 788h-135v117h135v-117z" />
    <glyph glyph-name="uni0408" unicode="&#x408;" horiz-adv-x="556" 
d="M487 224q0 -118 -59.5 -179.5t-176.5 -61.5q-72 0 -125.5 27t-82.5 76.5t-29 115.5v64h142v-35q0 -62 22.5 -89t68.5 -27q36 0 54.5 15.5t23.5 38.5t5 57v488h157v-490z" />
    <glyph glyph-name="uni040B" unicode="&#x40b;" horiz-adv-x="782" 
d="M588 582h-234v-154q77 20 151 20q114 0 173.5 -58t59.5 -173v-217h-157v211q0 56 -25.5 81.5t-84.5 25.5q-46 0 -117 -16v-302h-157v582h-184v132h575v-132z" />
    <glyph glyph-name="uni042E" unicode="&#x42e;" horiz-adv-x="1018" 
d="M828.5 684.5q72.5 -46.5 112 -131.5t39.5 -198t-41.5 -197.5t-114.5 -129.5t-166 -45q-88 0 -158 40t-113 114.5t-50 174.5h-111v-312h-157v714h157v-280h114q15 94 59 161t110.5 101.5t149.5 34.5q97 0 169.5 -46.5zM510.5 223q20.5 -55 58.5 -83.5t90 -28.5q51 0 88 29
t56.5 84.5t19.5 133.5q0 75 -19.5 130.5t-57.5 85t-90 29.5q-50 0 -87.5 -28.5t-58 -84t-20.5 -134.5q0 -78 20.5 -133z" />
    <glyph glyph-name="uni042F" unicode="&#x42f;" horiz-adv-x="716" 
d="M490 0v280h-98l-194 -280h-194l218 288q-81 19 -125 72t-44 134q0 69 32.5 119t88.5 75.5t126 25.5h347v-714h-157zM237 418q31 -25 87 -25h166v198h-164q-120 0 -120 -98q0 -50 31 -75z" />
    <glyph glyph-name="uni0402" unicode="&#x402;" horiz-adv-x="784" 
d="M588 582h-234v-217q64 78 174 78q74 0 126 -35t78 -97.5t26 -144.5q0 -91 -33 -161t-95.5 -109.5t-146.5 -39.5h-21v126q70 0 104 45t34 139q0 77 -30.5 116.5t-90.5 39.5q-42 0 -70 -21t-41.5 -56.5t-13.5 -79.5v-165h-157v582h-184v132h575v-132z" />
    <glyph glyph-name="uni0462" unicode="&#x462;" horiz-adv-x="746" 
d="M302 640h185v-110h-185v-94h158q73 0 130.5 -22.5t92 -71t34.5 -124.5q0 -109 -72 -163.5t-196 -54.5h-304v530h-132v110h132v74h157v-74zM534.5 151q30.5 19 30.5 67q0 88 -119 88h-144v-174h144q58 0 88.5 19z" />
    <glyph glyph-name="uni0472" unicode="&#x472;" horiz-adv-x="778" 
d="M573 683q80 -48 123.5 -133.5t43.5 -195.5q0 -104 -42.5 -188.5t-122.5 -133.5t-186 -49t-185.5 48.5t-122.5 133t-43 189.5t42 191t121.5 136t187.5 50q104 0 184 -48zM514 555q-49 44 -126 44q-76 0 -125 -45t-62 -125h376q-14 82 -63 126zM521 165.5q50 50.5 60 141.5
h-384q6 -59 30 -102t65.5 -66.5t96.5 -23.5q82 0 132 50.5z" />
    <glyph glyph-name="uni0474" unicode="&#x474;" horiz-adv-x="654" 
d="M663 723v-130q-9 2 -21.5 4t-21.5 2q-19 0 -31 -10t-19 -34l-169 -555h-177l-232 714h162l159 -502h2l114 394q14 47 35.5 74.5t51.5 39t75 11.5q32 0 72 -8z" />
    <glyph glyph-name="uni0430" unicode="&#x430;" horiz-adv-x="574" 
d="M461.5 493.5q56.5 -37.5 56.5 -109.5v-274q0 -34 4.5 -64.5t13.5 -45.5h-144q-9 28 -10 50q-30 -31 -74.5 -47.5t-99.5 -16.5q-53 0 -93 18t-61.5 53t-21.5 84q0 71 45 110q25 21 64 33t103 19q52 6 78.5 12t40 18t13.5 34q0 40 -24 54.5t-67 14.5q-45 0 -68 -19t-27 -59
h-142q3 56 33.5 94.5t84 58.5t126.5 20q113 0 169.5 -37.5zM261 81q57 0 86 30t29 87v55q-10 -9 -30 -14.5t-56 -10.5q-40 -5 -64.5 -13.5t-38 -24.5t-13.5 -43q0 -66 87 -66z" />
    <glyph glyph-name="uni0431" unicode="&#x431;" horiz-adv-x="611" 
d="M500 620.5q-38 -30.5 -99 -39.5l-71 -11q-54 -8 -87 -25.5t-54 -50.5t-34 -88h3q34 53 80 79t110 26q71 0 122 -32t77 -90.5t26 -136.5q0 -77 -32.5 -137.5t-92.5 -94.5t-139 -34q-81 0 -140 37.5t-91 110t-32 176.5q0 169 59 254.5t176 104.5l66 11q33 6 46.5 13.5
t18.5 20.5h134q-8 -63 -46 -93.5zM216 139q29 -46 93 -46q62 0 92 44t30 115q0 66 -25.5 112t-87.5 46q-63 0 -97 -43t-34 -115q0 -67 29 -113z" />
    <glyph glyph-name="uni0432" unicode="&#x432;" horiz-adv-x="570" 
d="M467 484q44 -33 44 -98q0 -36 -17.5 -63t-50.5 -42v-2q45 -15 69.5 -48t24.5 -77q0 -50 -23.5 -84.5t-63.5 -52t-89 -17.5h-305v517h296q71 0 115 -33zM354.5 323q19.5 14 19.5 45q0 30 -20 44.5t-61 14.5h-97v-118h102q37 0 56.5 14zM371.5 107.5q23.5 15.5 23.5 52.5
q0 69 -95 69h-104v-137h104q48 0 71.5 15.5z" />
    <glyph glyph-name="uni0433" unicode="&#x433;" horiz-adv-x="455" 
d="M446 410h-248v-410h-142v517h390v-107z" />
    <glyph glyph-name="uni0453" unicode="&#x453;" horiz-adv-x="455" 
d="M446 410h-248v-410h-142v517h390v-107zM265 589h-99l96 142h157z" />
    <glyph glyph-name="uni0491" unicode="&#x491;" horiz-adv-x="455" 
d="M442 410h-244v-410h-142v517h252v141h134v-248z" />
    <glyph glyph-name="uni0434" unicode="&#x434;" horiz-adv-x="622" 
d="M549 107h65v-259h-136v152h-334v-152h-136v259h62q32 68 48.5 151.5t16.5 165.5v93h414v-410zM407 410h-138v-10q0 -161 -59 -293h197v303z" />
    <glyph glyph-name="uni0435" unicode="&#x435;" horiz-adv-x="574" 
d="M429 493.5q57 -37.5 86.5 -101.5t29.5 -142l-1 -26h-373q3 -67 34 -99t92 -32q26 0 50 9t41 24.5t22 33.5h125q-28 -88 -88.5 -131t-153.5 -43q-81 0 -140.5 34.5t-91.5 96.5t-32 141q0 77 33.5 139.5t93.5 98t137 35.5q79 0 136 -37.5zM365 398q-27 26 -77 26
q-51 0 -81.5 -29t-35.5 -81h231q-10 58 -37 84z" />
    <glyph glyph-name="uni0450" unicode="&#x450;" horiz-adv-x="574" 
d="M429 493.5q57 -37.5 86.5 -101.5t29.5 -142l-1 -26h-373q3 -67 34 -99t92 -32q26 0 50 9t41 24.5t22 33.5h125q-28 -88 -88.5 -131t-153.5 -43q-81 0 -140.5 34.5t-91.5 96.5t-32 141q0 77 33.5 139.5t93.5 98t137 35.5q79 0 136 -37.5zM365 398q-27 26 -77 26
q-51 0 -81.5 -29t-35.5 -81h231q-10 58 -37 84zM355 589h-99l-154 142h157z" />
    <glyph glyph-name="uni0451" unicode="&#x451;" horiz-adv-x="574" 
d="M429 493.5q57 -37.5 86.5 -101.5t29.5 -142l-1 -26h-373q3 -67 34 -99t92 -32q26 0 50 9t41 24.5t22 33.5h125q-28 -88 -88.5 -131t-153.5 -43q-81 0 -140.5 34.5t-91.5 96.5t-32 141q0 77 33.5 139.5t93.5 98t137 35.5q79 0 136 -37.5zM365 398q-27 26 -77 26
q-51 0 -81.5 -29t-35.5 -81h231q-10 58 -37 84zM256 598h-135v117h135v-117zM462 598h-135v117h135v-117z" />
    <glyph glyph-name="uni0436" unicode="&#x436;" horiz-adv-x="822" 
d="M341 313v204h140v-206l162 206h162l-179 -200l202 -317h-167l-125 217l-55 -62v-155h-140v153l-55 64l-127 -217h-165l199 312l-177 205h166z" />
    <glyph glyph-name="uni0437" unicode="&#x437;" horiz-adv-x="534" 
d="M385.5 513.5q48.5 -17.5 73.5 -50.5t25 -78q0 -41 -25 -69t-68 -37v-2q109 -22 109 -124q0 -52 -29.5 -89.5t-84.5 -57.5t-131 -20q-113 0 -173 45t-62 137h135q3 -44 29 -64.5t77 -20.5q46 0 71.5 20t25.5 53q0 32 -24 50t-68 18h-53v90h46q89 0 89 60q0 28 -22 44.5
t-62 16.5q-43 0 -67.5 -17.5t-27.5 -51.5h-132q2 79 62 122t171 43q67 0 115.5 -17.5z" />
    <glyph glyph-name="uni0438" unicode="&#x438;" horiz-adv-x="593" 
d="M192 175l187 342h158v-517h-136v342l-187 -342h-158v517h136v-342z" />
    <glyph glyph-name="uni0439" unicode="&#x439;" horiz-adv-x="593" 
d="M192 175l187 342h158v-517h-136v342l-187 -342h-158v517h136v-342zM223 682q28 -18 67 -18q47 0 74 16.5t36 50.5h63q-9 -70 -54 -106t-124 -36q-72 0 -112.5 36.5t-46.5 105.5h65q4 -31 32 -49z" />
    <glyph glyph-name="uni045D" unicode="&#x45d;" horiz-adv-x="593" 
d="M192 175l187 342h158v-517h-136v342l-187 -342h-158v517h136v-342zM358 589h-99l-154 142h157z" />
    <glyph glyph-name="uni043A" unicode="&#x43a;" horiz-adv-x="567" 
d="M196 310l184 207h168l-198 -207l221 -310h-172l-145 212l-58 -56v-156h-142v517h142v-207z" />
    <glyph glyph-name="uni045C" unicode="&#x45c;" horiz-adv-x="567" 
d="M196 310l184 207h168l-198 -207l221 -310h-172l-145 212l-58 -56v-156h-142v517h142v-207zM303 589h-99l96 142h157z" />
    <glyph glyph-name="uni043B" unicode="&#x43b;" horiz-adv-x="593" 
d="M537 0h-142v410h-138l-8 -227q-6 -197 -173 -197q-34 0 -68 10v111q25 -5 40 -5q33 0 47.5 23t16.5 69l9 323h416v-517z" />
    <glyph glyph-name="uni043C" unicode="&#x43c;" horiz-adv-x="722" 
d="M360 140h4l96 377h206v-517h-134v385h-3l-101 -385h-134l-101 385h-3v-385h-134v517h208z" />
    <glyph glyph-name="uni043D" unicode="&#x43d;" horiz-adv-x="593" 
d="M198 329h197v188h142v-517h-142v217h-197v-217h-142v517h142v-188z" />
    <glyph glyph-name="uni043E" unicode="&#x43e;" horiz-adv-x="611" 
d="M446.5 497q60.5 -34 93.5 -96t33 -143q0 -82 -33.5 -143.5t-94.5 -95t-140 -33.5q-81 0 -141 34t-93 95.5t-33 142.5q0 82 33 143.5t93.5 95.5t140.5 34q81 0 141.5 -34zM212.5 136q32.5 -43 92.5 -43q62 0 94 43.5t32 121.5q0 72 -29.5 119t-97.5 47q-59 0 -91.5 -43.5
t-32.5 -122.5t32.5 -122z" />
    <glyph glyph-name="uni043F" unicode="&#x43f;" horiz-adv-x="593" 
d="M537 0h-142v410h-197v-410h-142v517h481v-517z" />
    <glyph glyph-name="uni0440" unicode="&#x440;" horiz-adv-x="611" 
d="M474 494.5q53 -36.5 79.5 -99.5t26.5 -142q0 -73 -26.5 -133.5t-77.5 -97t-123 -36.5q-48 0 -89 20.5t-66 57.5h-2v-246h-142v699h135v-66h2q25 40 64 60t90 20q76 0 129 -36.5zM222 138q31 -45 93 -45q63 0 93 45t30 119q0 43 -12 81t-40 62t-73 24q-58 0 -90 -44
t-32 -123q0 -74 31 -119z" />
    <glyph glyph-name="uni0441" unicode="&#x441;" horiz-adv-x="574" 
d="M422 507.5q54 -23.5 87 -67.5t36 -105h-139q-14 89 -105 89q-41 0 -68 -23.5t-40 -62t-13 -82.5q0 -45 12.5 -81.5t39 -59t66.5 -22.5q47 0 76.5 26.5t36.5 78.5h137q-9 -67 -42 -115t-85.5 -72.5t-121.5 -24.5q-79 0 -138 34.5t-91 95t-32 135.5q0 82 32 145.5t91.5 99
t140.5 35.5q66 0 120 -23.5z" />
    <glyph glyph-name="uni0442" unicode="&#x442;" horiz-adv-x="500" 
d="M491 410h-170v-410h-141v410h-170v107h481v-107z" />
    <glyph glyph-name="uni0443" unicode="&#x443;" horiz-adv-x="519" 
d="M263 163h2l113 354h147l-216 -582q-23 -61 -64 -89t-112 -28q-39 0 -89 5v117q38 -5 75 -5q29 0 46 18t17 47q0 15 -6 32l-182 485h152z" />
    <glyph glyph-name="uni045E" unicode="&#x45e;" horiz-adv-x="519" 
d="M263 163h2l113 354h147l-216 -582q-23 -61 -64 -89t-112 -28q-39 0 -89 5v117q38 -5 75 -5q29 0 46 18t17 47q0 15 -6 32l-182 485h152zM191 682q28 -18 67 -18q47 0 74 16.5t36 50.5h63q-9 -70 -54 -106t-124 -36q-72 0 -112.5 36.5t-46.5 105.5h65q4 -31 32 -49z" />
    <glyph glyph-name="uni0444" unicode="&#x444;" horiz-adv-x="846" 
d="M493 478h3q26 28 55.5 40.5t65.5 12.5q59 0 102.5 -32.5t67 -92t23.5 -140.5q0 -83 -23.5 -146t-69.5 -98.5t-113 -35.5q-33 0 -60.5 12.5t-47.5 35.5h-3v-216h-140v216h-3q-22 -22 -50.5 -35t-64.5 -13q-63 0 -107.5 33t-68 96t-23.5 151q0 80 24.5 140t70 92.5
t105.5 32.5q78 0 114 -53h3v236h140v-236zM203 135.5q25 -42.5 73 -42.5q27 0 49.5 14.5t27.5 37.5v222q-10 25 -33 41t-49 16q-48 0 -70.5 -41.5t-22.5 -119.5q0 -85 25 -127.5zM505 121q10 -12 27 -20t38 -8q48 0 73 42.5t25 127.5q0 161 -94 161q-26 0 -48 -15.5
t-33 -41.5v-222q2 -12 12 -24z" />
    <glyph glyph-name="uni0445" unicode="&#x445;" horiz-adv-x="537" 
d="M269 382l90 135h157l-170 -242l191 -275h-162l-108 163l-108 -163h-159l186 272l-170 245h162z" />
    <glyph glyph-name="uni0447" unicode="&#x447;" horiz-adv-x="574" 
d="M179 369q0 -42 17.5 -62t61.5 -20q22 0 48.5 3t69.5 11v216h142v-517h-142v199q-40 -9 -75.5 -14t-69.5 -5q-97 0 -145.5 46t-48.5 131v160h142v-148z" />
    <glyph glyph-name="uni0446" unicode="&#x446;" horiz-adv-x="604" 
d="M198 107h191v410h142v-410h65v-259h-136v152h-404v517h142v-410z" />
    <glyph glyph-name="uni0448" unicode="&#x448;" horiz-adv-x="844" 
d="M198 107h153v410h142v-410h153v410h142v-517h-732v517h142v-410z" />
    <glyph glyph-name="uni0449" unicode="&#x449;" horiz-adv-x="861" 
d="M198 107h153v410h142v-410h153v410h142v-410h65v-259h-136v152h-661v517h142v-410z" />
    <glyph glyph-name="uni045F" unicode="&#x45f;" horiz-adv-x="593" 
d="M198 107h197v410h142v-517h-171v-152h-138v152h-172v517h142v-410z" />
    <glyph glyph-name="uni044C" unicode="&#x44c;" horiz-adv-x="546" 
d="M198 339h132q58 0 101.5 -19t68 -56.5t24.5 -93.5q0 -55 -24.5 -93.5t-68.5 -57.5t-101 -19h-274v517h142v-178zM360.5 114.5q21.5 16.5 21.5 55.5q0 38 -22.5 55.5t-60.5 17.5h-101v-145h102q39 0 60.5 16.5z" />
    <glyph glyph-name="uni044A" unicode="&#x44a;" horiz-adv-x="650" 
d="M302 339h132q58 0 101.5 -19t68 -56.5t24.5 -93.5q0 -55 -24 -93t-68 -57.5t-102 -19.5h-274v410h-150v107h292v-178zM465 115q21 17 21 55q0 37 -22 55t-61 18h-101v-145h102q40 0 61 17z" />
    <glyph glyph-name="uni044B" unicode="&#x44b;" horiz-adv-x="761" 
d="M198 339h106q56 0 100 -18.5t69 -56t25 -94.5t-25.5 -95t-69.5 -56.5t-99 -18.5h-248v517h142v-178zM705 0h-142v517h142v-517zM334.5 114.5q21.5 16.5 21.5 55.5q0 37 -22.5 55t-60.5 18h-75v-145h75q40 0 61.5 16.5z" />
    <glyph glyph-name="uni0459" unicode="&#x459;" horiz-adv-x="826" 
d="M510 329h100q58 0 101.5 -18.5t68 -55.5t24.5 -90q0 -55 -25.5 -92t-69 -55t-99.5 -18h-242v410h-117l-8 -226q-3 -92 -42 -145t-127 -53q-31 0 -66 10v111q18 -5 37 -5q31 0 45 22.5t16 70.5l9 322h395v-188zM643.5 115.5q19.5 14.5 19.5 48.5t-21 49.5t-58 15.5h-74
v-128h75q39 0 58.5 14.5z" />
    <glyph glyph-name="uni045A" unicode="&#x45a;" horiz-adv-x="826" 
d="M198 329h170v188h142v-188h100q58 0 101.5 -18.5t68 -55.5t24.5 -90t-24.5 -90t-68 -56t-100.5 -19h-243v229h-170v-229h-142v517h142v-188zM643.5 115.5q19.5 14.5 19.5 48.5q0 65 -80 65h-73v-128h75q39 0 58.5 14.5z" />
    <glyph glyph-name="uni0455" unicode="&#x455;" horiz-adv-x="537" 
d="M429 488.5q58 -42.5 65 -122.5h-135q-3 37 -27.5 53.5t-69.5 16.5q-79 0 -79 -48q0 -17 11 -28.5t35 -20.5t65 -17q76 -15 113 -29t61 -34q40 -36 40 -93q0 -63 -32.5 -103.5t-85.5 -58.5t-118 -18q-72 0 -125.5 20.5t-84.5 61t-33 100.5h135q0 -42 31 -64.5t78 -22.5
q39 0 66 17t27 49q0 19 -15.5 32t-48.5 24t-92 23q-61 13 -97.5 31t-54 44.5t-17.5 63.5q0 82 57.5 124t167.5 42q105 0 163 -42.5z" />
    <glyph glyph-name="uni0454" unicode="&#x454;" horiz-adv-x="574" 
d="M423 509q52 -22 84.5 -63t40.5 -98h-141q-9 38 -35.5 57t-67.5 19q-48 0 -79.5 -28.5t-40.5 -81.5h167v-90h-171q5 -64 37 -97.5t84 -33.5q43 0 70 20.5t39 63.5h138q-18 -92 -83.5 -141.5t-162.5 -49.5q-79 0 -138.5 33t-92.5 94t-33 141q0 82 32.5 144.5t92.5 97.5
t141 35q67 0 119 -22z" />
    <glyph glyph-name="uni044D" unicode="&#x44d;" horiz-adv-x="574" 
d="M414.5 498q58.5 -33 90 -95.5t31.5 -148.5q0 -80 -33.5 -141t-94.5 -94t-140 -33q-66 0 -118.5 22.5t-85 65.5t-40.5 103h138q6 -41 34.5 -62.5t74.5 -21.5q52 0 85 34t38 97h-171v90h167q-4 51 -35 80.5t-79 29.5q-41 0 -69 -19.5t-38 -56.5h-141q19 89 83.5 136
t164.5 47q80 0 138.5 -33z" />
    <glyph glyph-name="uni0456" unicode="&#x456;" horiz-adv-x="258" 
d="M200 597h-142v117h142v-117zM200 0h-142v517h142v-517z" />
    <glyph glyph-name="uni0457" unicode="&#x457;" horiz-adv-x="258" 
d="M200 0h-142v517h142v-517zM96 598h-135v117h135v-117zM302 598h-135v117h135v-117z" />
    <glyph glyph-name="uni0458" unicode="&#x458;" horiz-adv-x="278" 
d="M209 597h-142v117h142v-117zM209 -29q0 -56 -17.5 -89t-57 -48.5t-106.5 -15.5q-26 0 -47 4v117q11 -4 32 -4q30 0 42 12t12 35v535h142v-546z" />
    <glyph glyph-name="uni045B" unicode="&#x45b;" horiz-adv-x="593" 
d="M196 656h177v-97h-177v-139h3q26 43 67 64.5t94 21.5q91 0 135 -52t44 -158v-296h-142v269q0 63 -21 94t-70 31q-44 0 -68 -19t-33 -51.5t-9 -80.5v-243h-142v559h-88v97h88v58h142v-58z" />
    <glyph glyph-name="uni044E" unicode="&#x44e;" horiz-adv-x="836" 
d="M680 497q57 -34 87.5 -95.5t30.5 -143.5q0 -83 -31 -144.5t-88 -94.5t-132 -33q-70 0 -123.5 27.5t-85.5 80t-39 126.5h-99v-220h-142v517h142v-199h102q11 66 43.5 114t84 73.5t117.5 25.5q76 0 133 -34zM465.5 134q28.5 -43 81.5 -43q52 0 80.5 43t28.5 125
q0 80 -29 123.5t-81 43.5t-80.5 -42.5t-28.5 -125.5q0 -81 28.5 -124z" />
    <glyph glyph-name="uni044F" unicode="&#x44f;" horiz-adv-x="571" 
d="M373 0v191h-64l-148 -191h-169l171 203q-62 14 -96.5 53.5t-34.5 97.5q0 47 24 84.5t66 58t95 20.5h298v-517h-142zM192 308q21 -15 58 -15h123v122h-121q-38 0 -59.5 -15.5t-21.5 -46.5q0 -30 21 -45z" />
    <glyph glyph-name="uni0452" unicode="&#x452;" horiz-adv-x="593" 
d="M196 656h177v-97h-177v-139h3q26 42 67 64t94 22q92 0 135.5 -52t43.5 -159v-185q0 -92 -33 -159.5t-98.5 -104t-160.5 -36.5v118q75 3 112.5 51t37.5 134v157q0 67 -22.5 95.5t-67.5 28.5q-41 0 -65.5 -16t-35 -49.5t-10.5 -86.5v-242h-142v559h-88v97h88v58h142v-58z
" />
    <glyph glyph-name="uni0463" unicode="&#x463;" horiz-adv-x="614" 
d="M266 517h195v-107h-195v-81h132q57 0 100.5 -18t68.5 -55t25 -91t-25 -91t-69 -55.5t-99 -18.5h-275v410h-114v107h114v197h142v-197zM431.5 115.5q19.5 14.5 19.5 48.5t-21 49.5t-58 15.5h-106v-128h107q39 0 58.5 14.5z" />
    <glyph glyph-name="uni0473" unicode="&#x473;" horiz-adv-x="611" 
d="M446.5 497q60.5 -34 93.5 -96t33 -143q0 -82 -33 -143.5t-94 -95t-141 -33.5t-140.5 33.5t-93.5 95.5t-33 143q0 82 33 143.5t93.5 95.5t140.5 34q81 0 141.5 -34zM388.5 394q-31.5 30 -83.5 30q-51 0 -83 -30t-40 -83h246q-8 53 -39.5 83zM392 126q33 33 39 95h-251
q5 -60 37.5 -94t87.5 -34q54 0 87 33z" />
    <glyph glyph-name="uni0475" unicode="&#x475;" horiz-adv-x="544" 
d="M515.5 529q13.5 -2 26.5 -6v-104q-23 5 -37 5q-16 0 -27 -9t-18 -31l-120 -384h-158l-177 517h149l109 -353h2l76 267q14 47 48 73.5t93 26.5q20 0 33.5 -2z" />
    <glyph glyph-name="uni03C2" unicode="&#x3c2;" horiz-adv-x="547" 
d="M406.5 511q47.5 -20 79.5 -59t44 -94h-138q-21 66 -93 66q-42 0 -69.5 -23.5t-39.5 -60t-12 -78.5q0 -71 31.5 -109t93.5 -38h37q74 0 107.5 -42t33.5 -114q0 -29 -4 -59.5t-11 -53.5h-124q5 21 8.5 45.5t3.5 42.5q0 35 -10.5 50.5t-34.5 15.5h-39q-76 0 -128.5 33
t-79 92t-26.5 137q0 71 29.5 132.5t89 99t144.5 37.5q60 0 107.5 -20z" />
    <glyph glyph-name="uni10D0" unicode="&#x10d0;" horiz-adv-x="551" 
d="M141.5 14q-53.5 28 -79.5 76.5t-26 111.5q0 38 10 67h136q-6 -28 -6 -58q0 -31 10.5 -58t32.5 -43.5t55 -16.5q34 0 55.5 16t31.5 40.5t10 53.5q0 35 -10.5 60t-28.5 43t-46 38q-37 25 -57 43t-34.5 49t-14.5 78h141q3 -22 13.5 -39.5t24 -29.5t39.5 -32q35 -27 59.5 -53
t40 -64.5t15.5 -90.5q0 -58 -28.5 -108t-83 -80.5t-128.5 -30.5q-78 0 -131.5 28z" />
    <glyph glyph-name="uni10D1" unicode="&#x10d1;" horiz-adv-x="592" 
d="M158 19q-58 33 -89 92.5t-31 137.5q0 69 25 124.5t72 90.5t113 44v37q0 22 -8.5 35.5t-21 21.5t-32.5 16q-24 10 -40.5 23t-27.5 39t-11 70h132q2 -21 11.5 -35.5t22 -23.5t33.5 -20q27 -14 42.5 -25t26.5 -32t11 -54v-61q53 -16 90.5 -52t57.5 -86.5t20 -111.5
q0 -77 -31 -136.5t-89.5 -93t-137.5 -33.5q-80 0 -138 33zM360.5 114q26.5 21 39 56.5t12.5 78.5q0 44 -12.5 79t-39 56t-65.5 21q-38 0 -63.5 -21t-38.5 -56.5t-13 -78.5t12.5 -78.5t38.5 -56.5t65 -21q38 0 64.5 21z" />
    <glyph glyph-name="uni10D2" unicode="&#x10d2;" horiz-adv-x="569" 
d="M156 -185.5q-57 28.5 -90 83.5t-33 130q0 69 31 119t81 78.5t109 39.5q36 6 56.5 25.5t20.5 53.5q0 30 -15 50t-44 20q-30 0 -45 -21t-15 -57h-137q0 53 24.5 93.5t69 62.5t101.5 22q55 0 100.5 -20.5t71 -56t25.5 -77.5q0 -92 -80 -126v-4q45 -11 78.5 -40t52 -70.5
t18.5 -91.5q0 -75 -33 -130t-90 -83.5t-128 -28.5q-72 0 -129 28.5zM366.5 -71q28.5 38 28.5 99q0 62 -28 99t-83 37q-53 0 -81.5 -37.5t-28.5 -98.5q0 -39 12.5 -70t37.5 -49t61 -18q53 0 81.5 38z" />
    <glyph glyph-name="uni10D3" unicode="&#x10d3;" horiz-adv-x="856" 
d="M423.5 -152.5q-18.5 21.5 -55.5 34t-91 12.5h-174v97h94v4q-53 19 -88.5 59t-53 92.5t-17.5 110.5q0 82 24 139.5t69 87.5t108 30q56 0 98 -23t61 -71h4q27 47 73 70.5t108 23.5q69 0 122.5 -33.5t83 -92t29.5 -130.5q0 -73 -30 -129.5t-85.5 -88.5t-129.5 -32
q-73 0 -128 32.5t-85 89.5t-30 128v51q0 44 -18.5 71t-52.5 27q-41 0 -60 -38t-19 -114q0 -70 27 -125.5t73 -92.5t105 -52q70 -18 115.5 -40t71 -57t25.5 -88h-155q0 26 -18.5 47.5zM633.5 134q24.5 20 36.5 52.5t12 72.5q0 41 -12 75t-36.5 54t-60.5 20q-35 0 -59 -20.5
t-36 -54.5t-12 -74q0 -39 11.5 -72t36 -53t59.5 -20q36 0 60.5 20z" />
    <glyph glyph-name="uni10D4" unicode="&#x10d4;" horiz-adv-x="569" 
d="M143.5 -186.5q-54.5 27.5 -82.5 76.5t-28 112q0 47 18 98h137q-13 -42 -13 -89q0 -31 10.5 -58t33 -43.5t57.5 -16.5q53 0 78 34.5t25 83.5v269q0 59 -21 93t-72 34q-47 0 -70 -30.5t-23 -75.5q0 -22 5 -42h-141q-6 26 -6 48q0 55 27.5 102.5t80.5 76t127 28.5
q77 0 130 -31t79 -82.5t26 -111.5v-279q0 -62 -29 -113t-84 -81t-132 -30q-78 0 -132.5 27.5z" />
    <glyph glyph-name="uni10D5" unicode="&#x10d5;" horiz-adv-x="565" 
d="M150 -185.5q-57 28.5 -87 76t-30 105.5q0 24 4.5 45t13.5 44h137q-13 -42 -13 -80q0 -32 12.5 -57.5t37.5 -40.5t60 -15q34 0 57.5 15.5t35.5 41.5t12 56q0 53 -27 83.5t-78 30.5h-33v107h31q48 0 67.5 23.5t19.5 64.5q0 37 -20 65t-66 28q-48 0 -69.5 -27.5t-21.5 -71.5
q0 -16 3 -34h-139q-5 18 -5 42q0 55 28 100t81 71.5t125 26.5q68 0 119 -26t78.5 -69.5t27.5 -95.5q0 -58 -25.5 -95.5t-67.5 -52.5v-4q49 -17 81.5 -59t32.5 -112q0 -58 -31 -107t-87.5 -78t-130.5 -29q-76 0 -133 28.5z" />
    <glyph glyph-name="uni10D6" unicode="&#x10d6;" horiz-adv-x="673" 
d="M236.5 19q-59.5 33 -92.5 92.5t-33 137.5q0 40 12.5 77t39.5 66v5q-38 5 -72 27t-55 60t-21 89q0 56 25.5 99.5t71 67.5t105.5 24q59 0 105.5 -23t73 -63.5t26.5 -90.5q0 -20 -7 -44t-19 -39v-4q70 -2 124.5 -34t84.5 -88t30 -129q0 -78 -33 -137.5t-92.5 -92.5
t-136.5 -33t-136.5 33zM275 503.5q21 25.5 21 66.5q0 27 -9.5 48.5t-27 34.5t-40.5 13t-40.5 -12.5t-27.5 -34.5t-10 -49q0 -26 10 -47t27.5 -33t40.5 -12q35 0 56 25.5zM438 114.5q27 21.5 40.5 57t13.5 77.5q0 43 -13.5 78t-40.5 56t-66 21q-37 0 -63.5 -21t-40 -56.5
t-13.5 -77.5q0 -41 13 -76.5t39.5 -57.5t65.5 -22q38 0 65 21.5z" />
    <glyph glyph-name="uni10D7" unicode="&#x10d7;" horiz-adv-x="863" 
d="M664.5 122q18.5 62 18.5 134q0 77 -18 113.5t-57 36.5q-36 0 -54 -25.5t-18 -73.5v-57q0 -76 -27.5 -136t-83.5 -94t-138 -34q-83 0 -139 34.5t-83 94t-27 135.5q0 74 28 134t83 95t132 35q62 0 106.5 -20.5t76.5 -73.5h4q25 52 63 72.5t93 20.5q63 0 108 -30.5t69 -88
t24 -137.5q0 -82 -17.5 -143t-53.5 -114h-144q36 60 54.5 122zM368.5 136.5q27.5 43.5 27.5 113.5q0 71 -27 114t-83 43q-54 0 -80 -43.5t-26 -113.5t26.5 -113.5t80.5 -43.5t81.5 43.5z" />
    <glyph glyph-name="uni10D8" unicode="&#x10d8;" horiz-adv-x="569" 
d="M374.5 115.5q13.5 54.5 13.5 127.5t-24 118.5t-80 45.5q-55 0 -79 -45.5t-24 -118.5t13.5 -127.5t41.5 -115.5h-139q-30 57 -44.5 113t-14.5 135q0 77 28.5 137t84 94.5t133.5 34.5t134 -34.5t84.5 -94.5t28.5 -137q0 -78 -14.5 -134t-44.5 -114h-139q28 61 41.5 115.5z
" />
    <glyph glyph-name="uni10D9" unicode="&#x10d9;" horiz-adv-x="561" 
d="M147 -186q-56 28 -85 76t-29 106q0 24 4 44.5t13 44.5h135q-11 -32 -11 -78q0 -30 12.5 -56.5t36.5 -43t58 -16.5t56.5 17t33.5 45t11 62q0 55 -26.5 89.5t-74.5 34.5h-43v107h43q38 0 58 21.5t20 54.5q0 18 -8.5 35t-24.5 29.5t-39 15.5v107q68 -2 115.5 -25t71.5 -61
t24 -87q0 -53 -24.5 -87.5t-65.5 -50.5v-4q33 -10 59.5 -34.5t42 -62.5t15.5 -87q0 -63 -30 -114t-85.5 -80.5t-130.5 -29.5q-76 0 -132 28z" />
    <glyph glyph-name="uni10DA" unicode="&#x10da;" horiz-adv-x="1023" 
d="M535.5 -129.5q-47.5 23.5 -131.5 23.5h-290v99h85l1 4q-78 33 -119 103t-41 157q0 82 23.5 139.5t68 87.5t107.5 30q51 0 87 -22.5t54 -69.5h4q14 46 47.5 69t78.5 23q51 0 81.5 -22t44.5 -70h4q19 46 56.5 69t83.5 23q99 0 151 -66t52 -188q0 -62 -10.5 -114.5
t-31.5 -100.5h-144q22 46 32.5 97t10.5 112q0 79 -18.5 116t-55.5 37q-29 0 -44.5 -26t-15.5 -72v-176h-133v175q0 49 -13.5 74t-47.5 25t-48 -25.5t-14 -72.5v-176h-134v174q0 49 -15 74.5t-45 25.5q-39 0 -56.5 -37.5t-17.5 -114.5q0 -73 26 -125.5t70.5 -83t102.5 -40.5
l61 -8q14 -2 57 -7.5t65 -11.5q89 -24 133.5 -66.5t48.5 -112.5h-155q-8 47 -55.5 70.5z" />
    <glyph glyph-name="uni10DB" unicode="&#x10db;" horiz-adv-x="602" 
d="M152.5 19.5q-57.5 33.5 -86 93t-28.5 137.5q0 79 26.5 137t75 88.5t112.5 30.5q50 0 91.5 -19.5t64.5 -53.5h2v100q0 59 -27.5 92t-78.5 33q-30 0 -54 -12t-37.5 -32t-13.5 -44h-139q0 52 27.5 96t82.5 71t134 27q81 0 136.5 -28.5t83.5 -79t28 -114.5v-295
q0 -77 -29.5 -136t-87.5 -92t-142 -33q-83 0 -140.5 33.5zM357.5 112q27.5 19 42.5 53t15 79q0 76 -31.5 116t-88.5 40q-56 0 -85.5 -41t-29.5 -115q0 -69 29.5 -110t83.5 -41q37 0 64.5 19z" />
    <glyph glyph-name="uni10DC" unicode="&#x10dc;" horiz-adv-x="602" 
d="M167 19q-58 33 -87.5 91.5t-29.5 136.5v290q0 74 26 121t80.5 69.5t143.5 22.5h204v-109h-217q-51 0 -73 -21.5t-22 -71.5v-109h2q22 34 64 53.5t92 19.5q63 0 111.5 -32.5t75.5 -92.5t27 -139q0 -78 -28.5 -137t-86 -92t-141.5 -33q-83 0 -141 33zM369.5 112
q25.5 19 39 53.5t13.5 79.5q0 74 -30 117.5t-85 43.5q-57 0 -88.5 -42.5t-31.5 -118.5q0 -45 14.5 -79.5t42 -53.5t64.5 -19q36 0 61.5 19z" />
    <glyph glyph-name="uni10DD" unicode="&#x10dd;" horiz-adv-x="767" 
d="M568.5 121q18.5 62 18.5 133q0 79 -20 116t-60 37q-30 0 -44.5 -27t-14.5 -75v-172h-132v172q0 102 -57 102q-39 0 -59 -37t-20 -115q0 -136 73 -255h-144q-35 51 -53 113.5t-18 147.5q0 80 23 137t67 86.5t107 29.5q55 0 90.5 -22t53.5 -70h4q18 47 56.5 69.5t91.5 22.5
q63 0 107.5 -31t67.5 -88.5t23 -134.5q0 -84 -17.5 -145.5t-53.5 -114.5h-145q37 59 55.5 121z" />
    <glyph glyph-name="uni10DE" unicode="&#x10de;" horiz-adv-x="573" 
d="M152.5 13.5q-56.5 27.5 -86.5 75.5t-30 107q0 20 3.5 39t10.5 41h136q-9 -37 -9 -70q0 -31 13 -56.5t38 -41t60 -15.5q34 0 57.5 17t35 44.5t11.5 61.5q0 58 -26.5 92t-75.5 34h-41v108h47q34 0 54.5 15.5t20.5 44.5q0 31 -23 50t-63 32q-38 13 -64 29t-43 47.5t-17 81.5
h139q1 -21 13.5 -36.5t31 -26.5t47.5 -24q36 -15 62 -32t43 -44t17 -65q0 -46 -22.5 -75.5t-70.5 -47.5v-4q30 -11 56 -35.5t42 -63t16 -86.5q0 -64 -30.5 -115t-87.5 -80t-131 -29q-77 0 -133.5 27.5z" />
    <glyph glyph-name="uni10DF" unicode="&#x10df;" horiz-adv-x="588" 
d="M153.5 -187.5q-54.5 26.5 -83 74.5t-28.5 112q0 13 2.5 28t6.5 26h136q-4 -17 -4 -45q0 -52 26 -84t78 -32q54 0 79 39t25 97v379l-157 -22v-5q28 -17 46 -44t18 -53q0 -39 -22.5 -70.5t-61.5 -49.5t-85 -18h-91v104h69q27 0 45.5 15.5t18.5 41.5q0 27 -18 43t-46 16v99
l280 42h146v-474q0 -80 -30 -135t-85.5 -83t-132.5 -28t-131.5 26.5z" />
    <glyph glyph-name="uni10E0" unicode="&#x10e0;" horiz-adv-x="768" 
d="M569 121q18 62 18 136q0 78 -19.5 113t-59.5 35q-30 0 -44.5 -27t-14.5 -75v-170h-132v170q0 102 -57 102q-40 0 -59.5 -36t-19.5 -114q0 -136 73 -255h-144q-35 51 -53.5 127.5t-18.5 189.5q0 175 75.5 265.5t212.5 118.5l91 19q16 4 27 12t15 18h144q-6 -59 -41 -91.5
t-110 -48.5l-90 -18q-56 -11 -97.5 -26t-74 -43.5t-44.5 -74.5h3q22 33 52 48.5t64 15.5q44 0 71 -22.5t44 -66.5h4q16 41 56.5 65t90.5 24q63 0 107.5 -31.5t68 -88.5t23.5 -132q0 -84 -17.5 -145.5t-53.5 -114.5h-145q37 59 55 121z" />
    <glyph glyph-name="uni10E1" unicode="&#x10e1;" horiz-adv-x="583" 
d="M164 15q-55 29 -84.5 84t-29.5 132v519h142v-520q0 -62 26.5 -99.5t78.5 -37.5t78.5 35.5t26.5 94.5q0 30 -9.5 54.5t-26.5 48.5q-5 7 -24.5 34t-29.5 61.5t-10 78.5h139q0 -64 49 -128q26 -35 40.5 -71.5t14.5 -87.5q0 -68 -31.5 -119.5t-88 -79.5t-129.5 -28
q-77 0 -132 29z" />
    <glyph glyph-name="uni10E2" unicode="&#x10e2;" horiz-adv-x="707" 
d="M189.5 -169q-71.5 45 -111.5 127.5t-40 189.5q0 95 31.5 171.5t88.5 125t132 63.5h9q-5 20 -7 45.5t-2 59.5h127q0 -34 -2 -60t-7 -46h9q74 -14 131.5 -62.5t89 -125t31.5 -171.5q0 -108 -40.5 -190t-112.5 -127t-163 -45q-92 0 -163.5 45zM482.5 -37.5
q43.5 68.5 43.5 185.5q0 98 -27 163.5t-82 86.5l-12 7q6 -27 10.5 -66.5t4.5 -69.5v-136h-133v137q0 31 4.5 69.5t10.5 65.5l-12 -6q-56 -22 -82.5 -87.5t-26.5 -163.5q0 -76 19 -133.5t57.5 -89t95.5 -31.5q86 0 129.5 68.5z" />
    <glyph glyph-name="uni10E3" unicode="&#x10e3;" horiz-adv-x="594" 
d="M160.5 -185q-57.5 29 -88 77t-30.5 104q0 48 18 97h137q-14 -44 -14 -86q0 -31 13 -57.5t38 -42t60 -15.5q33 0 57.5 17t37.5 46.5t13 66.5v298q0 90 -67 90q-31 0 -47 -20.5t-16 -52.5v-112h-134v106q0 63 -75 63h-43v114h43q55 0 86.5 -17t51.5 -59h4q38 82 149 82
q103 0 146.5 -57.5t43.5 -163.5v-269q0 -70 -29.5 -124t-86 -84t-133.5 -30t-134.5 29z" />
    <glyph glyph-name="uni10E4" unicode="&#x10e4;" horiz-adv-x="822" 
d="M287.5 -167q-72.5 47 -76.5 140h142q13 -46 46.5 -64t89.5 -18q61 0 100.5 26.5t39.5 78.5q0 94 -74 94h-16v109h29q41 1 58.5 27t17.5 74q0 47 -20 78.5t-57 31.5q-35 0 -54 -24t-19 -65v-44q0 -70 -27 -122.5t-78 -81t-121 -28.5t-122 29t-80 81.5t-28 121.5t26.5 123
t76.5 84t118 30q59 0 102.5 -22.5t67.5 -66.5h4q21 44 61.5 66.5t94.5 22.5q59 0 103.5 -27t68 -74t23.5 -104q0 -62 -28 -105.5t-74 -60.5v-4q48 -22 68.5 -59t20.5 -93q0 -62 -33 -107t-98 -69.5t-158 -24.5q-122 0 -194.5 47zM343 183q25 37 25 95q0 59 -25 97t-75 38
q-51 0 -75.5 -37t-24.5 -98q0 -58 25 -95t75 -37t75 37z" />
    <glyph glyph-name="uni10E5" unicode="&#x10e5;" horiz-adv-x="580" 
d="M149 -187q-55 27 -83 76t-28 114q0 25 4.5 48t13.5 49h136q-7 -22 -10 -42t-3 -43q0 -56 25 -89t79 -33q55 0 80 36.5t25 94.5v237q0 64 -25.5 104t-74.5 40q-47 0 -68.5 -29t-21.5 -74q0 -18 5 -43h-140q-6 26 -6 56q0 55 20.5 100t64 72t110.5 27q46 0 81 -21t53 -53h2
v310h142v-720q0 -121 -64 -182.5t-183 -61.5q-79 0 -134 27z" />
    <glyph glyph-name="uni10E6" unicode="&#x10e6;" horiz-adv-x="768" 
d="M420.5 -152.5q-18.5 21.5 -56 34t-91.5 12.5h-169v97h94v4q-51 22 -87 61t-54.5 90.5t-18.5 110.5q0 82 23 139.5t67 87.5t107 30q55 0 90.5 -22t53.5 -70h4q20 46 58 69t89 23q98 0 149 -65.5t51 -188.5q0 -62 -10.5 -114.5t-31.5 -100.5h-145q23 47 33.5 98t10.5 111
q0 78 -19.5 115.5t-59.5 37.5q-30 0 -44.5 -28t-14.5 -76v-170h-133v170q0 50 -14.5 77t-43.5 27q-40 0 -59 -38t-19 -114q0 -73 25 -128.5t70 -89.5t105 -47q104 -23 158.5 -67.5t54.5 -122.5h-154q0 26 -18.5 47.5z" />
    <glyph glyph-name="uni10E7" unicode="&#x10e7;" horiz-adv-x="579" 
d="M157 -192q-54 22 -84 65.5t-30 105.5q0 22 8 51h135q-4 -17 -4 -42q0 -43 26.5 -69t75.5 -26q54 0 78.5 34t24.5 92v149h-2q-23 -35 -58 -52t-85 -17q-63 0 -108.5 27.5t-69.5 78.5t-24 118q0 55 12 101.5t29 75.5h134q-14 -33 -23.5 -75t-9.5 -81q0 -71 24.5 -105
t79.5 -34q56 0 81 39t25 118v138h137v-480q0 -119 -64 -176.5t-182 -57.5q-72 0 -126 22z" />
    <glyph glyph-name="uni10E8" unicode="&#x10e8;" horiz-adv-x="610" 
d="M161.5 18.5q-57.5 32.5 -86 91.5t-28.5 137q0 79 26.5 136t75 87t112.5 30q49 0 90 -18.5t66 -52.5h2v143q0 88 -67 88q-30 0 -46 -20t-16 -47v-31h-130v31q0 31 -19 45.5t-52 14.5q-24 0 -51 -3v105q40 5 73 5q90 0 120 -77h3q18 40 56 60.5t80 20.5q102 0 146 -52
t44 -142v-326q0 -77 -29 -135.5t-87 -90.5t-142 -32q-83 0 -140.5 32.5zM367.5 111q27.5 18 42 51.5t14.5 78.5q0 75 -31.5 114t-88.5 39q-56 0 -85.5 -39.5t-29.5 -113.5q0 -68 30 -108t84 -40q37 0 64.5 18z" />
    <glyph glyph-name="uni10E9" unicode="&#x10e9;" horiz-adv-x="589" 
d="M396.5 114.5q13.5 53.5 13.5 126.5q0 74 -28.5 115t-82.5 41q-55 0 -83 -40t-28 -111v-246h-138v557q0 67 26 113.5t74.5 70t113.5 23.5q102 0 158 -53.5t56 -153.5h-138q0 49 -18 74.5t-57 25.5q-34 0 -53 -25.5t-19 -75.5v-125h2q23 35 60 53.5t86 18.5
q63 0 110.5 -31.5t73.5 -89.5t26 -136q0 -77 -16 -137t-43 -109h-137q28 61 41.5 114.5z" />
    <glyph glyph-name="uni10EA" unicode="&#x10ea;" horiz-adv-x="637" 
d="M116.5 -120q-78.5 94 -78.5 297q0 87 21 177t51 146h134q-26 -57 -44.5 -146t-18.5 -172q0 -150 42.5 -219.5t118.5 -69.5q55 0 86.5 32.5t31.5 92.5q0 56 -29 87t-82 31h-40v107h54q34 0 54.5 17.5t20.5 46.5q0 19 -7.5 33t-19 24t-30.5 23q-28 20 -44.5 45t-16.5 68
h139q4 -21 16.5 -35.5t33.5 -30.5q22 -16 36.5 -31t24 -37.5t9.5 -54.5q0 -40 -22 -70.5t-68 -48.5v-4q29 -10 54.5 -33t42 -60.5t16.5 -87.5q0 -67 -34.5 -117.5t-95.5 -77t-138 -26.5q-139 0 -217.5 94z" />
    <glyph glyph-name="uni10EB" unicode="&#x10eb;" horiz-adv-x="600" 
d="M152.5 20q-57.5 34 -86 94.5t-28.5 138.5q0 80 26.5 139t75 90.5t112.5 31.5q50 0 91 -19.5t63 -53.5h2v309h142v-500q0 -78 -29 -137.5t-87 -93t-141 -33.5t-140.5 34zM356.5 112.5q27.5 19.5 42 54.5t14.5 80q0 77 -31 119.5t-87 42.5q-36 0 -62 -20t-39.5 -56.5
t-13.5 -85.5q0 -45 13 -80t38.5 -54.5t61.5 -19.5t63.5 19.5z" />
    <glyph glyph-name="uni10EC" unicode="&#x10ec;" horiz-adv-x="610" 
d="M166 18q-58 32 -87 90.5t-29 135.5v315q0 205 190 205q42 0 80 -20.5t56 -60.5h3q30 77 120 77q33 0 73 -5v-105q-27 3 -51 3q-33 0 -52 -14.5t-19 -45.5v-31h-130v31q0 27 -16 47t-46 20q-67 0 -67 -88v-143h2q25 34 66 52.5t90 18.5q64 0 112.5 -30t75 -87t26.5 -136
q0 -78 -28.5 -137t-86 -91.5t-140.5 -32.5q-84 0 -142 32zM391 133q30 40 30 108q0 74 -29.5 113.5t-85.5 39.5q-57 0 -88.5 -39t-31.5 -114q0 -45 14.5 -78.5t42 -51.5t64.5 -18q54 0 84 40z" />
    <glyph glyph-name="uni10ED" unicode="&#x10ed;" horiz-adv-x="637" 
d="M142.5 -187q-54.5 27 -82 74.5t-27.5 107.5q0 34 10 59h137q-6 -22 -6 -49q0 -49 25 -81t76 -32q54 0 78.5 39t24.5 103v169h-2q-17 -30 -55.5 -48t-88.5 -18q-53 0 -94.5 19.5t-65.5 59t-24 96.5q0 59 29 101.5t79 64.5t111 22h111v250h143v-250h101v-108h-102v-361
q0 -77 -28.5 -132t-83.5 -84t-133 -29t-132.5 27zM330 251.5q23 10.5 36.5 29t13.5 42.5v71h-100q-45 0 -72 -21t-27 -57q0 -37 26.5 -56t71.5 -19q28 0 51 10.5z" />
    <glyph glyph-name="uni10EE" unicode="&#x10ee;" horiz-adv-x="601" 
d="M166 20q-58 34 -87 94t-29 140v496h142v-309h2q23 35 64 54t91 19q64 0 112.5 -31.5t75 -90.5t26.5 -139q0 -78 -28.5 -138.5t-86 -94.5t-141.5 -34q-83 0 -141 34zM369 112.5q26 19.5 39 54.5t13 80q0 49 -13.5 85.5t-39.5 56.5t-62 20q-56 0 -87.5 -42.5t-31.5 -119.5
q0 -45 15 -80t42 -54.5t63 -19.5t62 19.5z" />
    <glyph glyph-name="uni10EF" unicode="&#x10ef;" horiz-adv-x="559" 
d="M149.5 -186.5q-55.5 27.5 -84.5 75.5t-29 108q0 16 3.5 32.5t9.5 28.5h134q-3 -11 -4.5 -25.5t-1.5 -26.5q0 -29 11.5 -55t35 -42t57.5 -16q37 0 59.5 18.5t32 46t9.5 58.5q0 52 -25.5 89.5t-85.5 37.5h-66v174h-171v101h171v96h133v-96h173v-101h-173v-79
q58 -11 100 -42t63.5 -77t21.5 -99q0 -59 -29.5 -113t-84.5 -87.5t-128 -33.5q-76 0 -131.5 27.5z" />
    <glyph glyph-name="uni10F0" unicode="&#x10f0;" horiz-adv-x="564" 
d="M145.5 9.5q-54.5 23.5 -82 66.5t-27.5 103q0 18 7 41h132q-4 -15 -4 -38q0 -26 13.5 -46.5t38.5 -31.5t57 -11q50 0 77 23.5t27 62.5q0 36 -26 59t-73 23h-48v99h68q66 0 66 42q0 21 -18 32.5t-48 11.5h-68v100h68q28 0 41.5 10.5t13.5 26.5q0 21 -21 32t-61 19
q-53 11 -87 37t-34 79h139q6 -17 28 -29t60 -21q48 -12 81 -38.5t33 -65.5q0 -38 -20.5 -61.5t-67.5 -35.5v-4q99 -17 99 -93q0 -38 -22.5 -59t-67.5 -30v-4q107 -34 107 -145q0 -56 -31 -96t-87 -61t-131 -21q-77 0 -131.5 23.5z" />
    <glyph glyph-name="uni10F1" unicode="&#x10f1;" horiz-adv-x="637" 
d="M115 87q-77 101 -77 306q0 65 11 134t28.5 127.5t36.5 95.5h133q-17 -37 -32.5 -95.5t-25.5 -126.5t-10 -130q0 -155 38.5 -229t120.5 -74q52 0 84.5 21t32.5 64q0 36 -25 58.5t-71 22.5h-46v99h66q33 0 49.5 10t16.5 35q0 24 -17.5 35.5t-48.5 11.5h-66v100h66
q56 0 56 31q0 18 -11 29.5t-35 26.5q-29 18 -46.5 43t-17.5 68h139q6 -21 17.5 -35t30.5 -27q20 -14 31.5 -25.5t20 -29.5t8.5 -44q0 -28 -21 -50.5t-67 -33.5v-4q43 -8 71 -31t28 -65q0 -73 -90 -92v-4q27 -9 51.5 -28t39.5 -47t15 -62q0 -57 -34.5 -99t-94.5 -64.5
t-134 -22.5q-144 0 -221 101z" />
    <glyph glyph-name="uni10F2" unicode="&#x10f2;" horiz-adv-x="562" 
d="M38 -3v106q29 0 60 2.5t75 8.5v3q-38 9 -69.5 35.5t-50 64.5t-18.5 81q0 56 28.5 105.5t84.5 80t133 30.5t133 -30.5t84.5 -80t28.5 -105.5q0 -43 -18.5 -81t-50 -64.5t-69.5 -35.5v-3q44 -6 75 -8.5t60 -2.5v-106q-136 0 -243 45q-107 -45 -243 -45zM358 198.5
q28 43.5 28 93.5q0 28 -11.5 54t-35 43t-58.5 17t-58.5 -17t-35 -43t-11.5 -54q0 -50 28 -93.5t77 -64.5q49 21 77 64.5z" />
    <glyph glyph-name="uni10F3" unicode="&#x10f3;" horiz-adv-x="568" 
d="M153 -187.5q-57 26.5 -87.5 74t-30.5 109.5q0 24 4 44.5t13 44.5h137q-13 -38 -13 -80q0 -50 29 -80t82 -30q33 0 56.5 16.5t35.5 44.5t12 61q0 34 -12.5 62.5t-35 45.5t-51.5 17h-53v109h50q71 0 71 84v58h-268v107h408v-156q0 -58 -24 -93.5t-66 -51.5v-4
q54 -21 88.5 -66.5t34.5 -116.5q0 -63 -30 -114.5t-86 -81.5t-130 -30q-77 0 -134 26.5z" />
    <glyph glyph-name="uni10F4" unicode="&#x10f4;" horiz-adv-x="569" 
d="M153 -187.5q-57 26.5 -87.5 74t-30.5 109.5q0 50 16 89h136q-11 -38 -11 -80q0 -50 29 -80t82 -30q51 0 77.5 33t26.5 89q0 35 -12 63.5t-35 45t-55 16.5h-40v109h43q35 0 55.5 17t20.5 50v75h-97q-57 0 -104 21t-76 69.5t-29 125.5h137q0 -61 32 -85t92 -24h186v-173
q0 -49 -21.5 -79.5t-67.5 -48.5v-4q30 -11 56 -35t42 -62t16 -86q0 -67 -30 -118t-86 -79.5t-131 -28.5q-77 0 -134 26.5z" />
    <glyph glyph-name="uni10F5" unicode="&#x10f5;" horiz-adv-x="627" 
d="M154.5 5.5q-53.5 19.5 -85 59.5t-31.5 98q0 84 60 127t170 43h107v96h-105q-110 0 -166 40t-56 125q0 86 62.5 128t165.5 42q68 0 121 -20.5t83 -61.5t30 -102v-49h102v-102h-102v-96h102v-102h-102v-55q0 -61 -30.5 -103.5t-83.5 -64.5t-121 -22q-67 0 -120.5 19.5z
M375 577q0 40 -27.5 61.5t-72.5 21.5t-69 -16t-24 -51q0 -34 22.5 -48t69.5 -14h101v46zM346.5 113.5q28.5 23.5 28.5 65.5v52h-103q-100 0 -100 -68q0 -36 28 -54.5t73 -18.5t73.5 23.5z" />
    <glyph glyph-name="uni10F6" unicode="&#x10f6;" horiz-adv-x="761" 
d="M223 -93h32q27 0 40 11.5t13 44.5v37q-131 5 -200.5 70t-69.5 186q0 82 34 138.5t95 85.5t141 32v68q0 60 16.5 97t52.5 54.5t96 17.5h64v-114h-32q-20 0 -31.5 -5t-17 -19t-5.5 -42v-57q83 -2 144 -33.5t93.5 -89t32.5 -134.5q0 -123 -69.5 -186.5t-201.5 -67.5v-39
q0 -88 -39.5 -128t-128.5 -40h-59v113zM545 141.5q32 33.5 32 113.5q0 74 -33.5 111t-95.5 37v-295q65 0 97 33.5zM215 365q-34 -37 -34 -109q0 -78 32.5 -112t97.5 -35v293q-62 0 -96 -37z" />
    <glyph glyph-name="uni10F7" unicode="&#x10f7;" horiz-adv-x="579" 
d="M161.5 -186.5q-57.5 27.5 -90.5 78t-33 116.5q0 64 25 107.5t61.5 69.5t89.5 50q43 19 66.5 32t39.5 32t16 44q0 30 -15 49.5t-44 19.5q-30 0 -45 -21t-15 -57h-137q0 53 24.5 94t69 63.5t101.5 22.5q56 0 101 -20t70.5 -57t25.5 -85q0 -57 -23.5 -94t-55.5 -57.5
t-89 -47.5q-40 -19 -66 -36.5t-42.5 -44.5t-16.5 -65q0 -29 12.5 -54.5t38 -41.5t60.5 -16q53 0 81.5 34t28.5 89q0 26 -2 43.5t-9 36.5h138q6 -14 10 -35.5t4 -38.5q0 -75 -33 -129t-89.5 -81.5t-128.5 -27.5q-71 0 -128.5 27.5z" />
    <glyph glyph-name="uni10F8" unicode="&#x10f8;" horiz-adv-x="577" 
d="M114 -156.5q-64 57.5 -64 176.5v480h137v-138q0 -79 25 -118t81 -39q55 0 79.5 34t24.5 105q0 39 -9.5 81t-23.5 75h134q17 -29 29 -75.5t12 -101.5q0 -67 -24 -118t-69.5 -78.5t-108.5 -27.5q-50 0 -85 17t-58 52h-2v-149q0 -58 24.5 -92t78.5 -34q49 0 75.5 26t26.5 69
q0 25 -4 42h135q8 -29 8 -51q0 -62 -30 -105.5t-84 -65.5t-126 -22q-118 0 -182 57.5z" />
    <glyph glyph-name="uni10F9" unicode="&#x10f9;" horiz-adv-x="573" 
d="M415 485.5q57 -28.5 90 -83.5t33 -130q0 -69 -31 -119t-81 -78.5t-109 -39.5q-36 -6 -56.5 -25.5t-20.5 -53.5q0 -30 15 -50t44 -20q30 0 45 21t15 57h137q0 -53 -24.5 -93.5t-69 -62.5t-101.5 -22q-55 0 -100.5 20.5t-71 56t-25.5 77.5q0 92 80 126v4q-45 11 -78.5 40
t-52 70.5t-18.5 91.5q0 75 33 130t90 83.5t128 28.5q72 0 129 -28.5zM204.5 371q-28.5 -38 -28.5 -99q0 -62 28 -99t83 -37q53 0 81.5 37.5t28.5 98.5q0 39 -12.5 70t-37.5 49t-61 18q-53 0 -81.5 -38z" />
    <glyph glyph-name="uni10FA" unicode="&#x10fa;" horiz-adv-x="546" 
d="M274 36.5q-14 12.5 -40 17t-72 4.5h-88v94h84v4q-57 17 -88.5 58t-31.5 100q0 58 28 103.5t81.5 71t127.5 25.5q118 0 177 -57t59 -159q0 -33 -10 -68h-133q7 32 7 59q0 54 -25 86t-75 32t-74.5 -29.5t-24.5 -77.5q0 -43 18 -70t45 -42t71 -31q40 -15 69 -33.5
t48.5 -48.5t21.5 -75h-154q-7 24 -21 36.5z" />
    <glyph glyph-name="uni10FD" unicode="&#x10fd;" horiz-adv-x="614" 
d="M108.5 50.5q-68.5 64.5 -70.5 189.5h152q2 -139 123 -139q61 0 86 25.5t25 69.5q0 27 -11.5 49t-42.5 42.5t-88 38.5q-116 36 -168.5 95.5t-52.5 133.5q0 66 30 113t84 71.5t125 24.5q81 0 137.5 -27.5t85.5 -78.5t29 -123h-147q-2 57 -26 85.5t-79 28.5q-44 0 -68 -24
t-24 -63t33 -69t114 -56q117 -37 169 -94.5t52 -138.5q0 -67 -30.5 -116t-90 -75.5t-146.5 -26.5q-132 0 -200.5 64.5z" />
    <glyph glyph-name="uni10FE" unicode="&#x10fe;" horiz-adv-x="562" 
d="M148 16.5q-56 30.5 -84.5 80t-28.5 105.5q0 43 18.5 81t50 64.5t69.5 35.5v3q-44 6 -75 8.5t-60 2.5v106q136 0 243 -45q107 45 243 45v-106q-29 0 -60 -2.5t-75 -8.5v-3q38 -9 69.5 -35.5t50 -64.5t18.5 -81q0 -56 -28.5 -105.5t-84.5 -80t-133 -30.5t-133 30.5z
M339.5 111q23.5 17 35 43t11.5 54q0 50 -28 93.5t-77 64.5q-49 -21 -77 -64.5t-28 -93.5q0 -28 11.5 -54t35 -43t58.5 -17t58.5 17z" />
    <glyph glyph-name="uni10FF" unicode="&#x10ff;" horiz-adv-x="586" 
d="M155 19.5q-58 33.5 -89 93t-31 137.5q0 77 31 137t89.5 93.5t137.5 33.5t137.5 -33.5t89.5 -93.5t31 -137t-31 -137t-89.5 -93.5t-137.5 -33.5q-80 0 -138 33.5zM357.5 116q26.5 21 39.5 56t13 78q0 68 -30 111.5t-88 43.5q-38 0 -64 -20.5t-39 -55.5t-13 -79
q0 -43 13 -78t39 -56t65 -21q38 0 64.5 21z" />
    <glyph glyph-name="uni10FF.case" horiz-adv-x="731" 
d="M190 31.5q-76 48.5 -118 133.5t-42 192q0 105 41.5 190.5t117.5 134.5t176 49t176.5 -48.5t118 -133.5t41.5 -192q0 -108 -42 -193t-118.5 -133t-175.5 -48t-175 48.5zM465.5 133.5q40.5 33.5 59.5 91.5t19 132t-19.5 132t-60 91.5t-100.5 33.5q-59 0 -98.5 -33.5
t-59 -91.5t-19.5 -132q0 -73 19 -131t59 -92t100 -34t100.5 33.5z" />
    <glyph glyph-name="uni10D0.case" horiz-adv-x="604" 
d="M158.5 14q-60.5 31 -94.5 86.5t-34 124.5q0 59 27 117h150q-21 -59 -21 -108q0 -38 13.5 -68t38.5 -47.5t60 -17.5q36 0 61 17t38 47t13 68q0 47 -14.5 84t-34.5 63t-56 65q-33 36 -54.5 68.5t-36 82t-14.5 118.5h156q0 -44 11 -79.5t28.5 -63.5t44.5 -60
q42 -50 66 -84.5t42 -85.5t18 -116q0 -69 -35 -124t-96.5 -86.5t-138.5 -31.5t-137.5 31z" />
    <glyph glyph-name="uni10D1.case" horiz-adv-x="622" 
d="M172 14q-62 31 -98.5 88.5t-36.5 133.5q0 68 28.5 121t78 85.5t111.5 42.5v18q0 19 -7.5 33t-19.5 23.5t-32 21.5q-21 12 -34.5 26t-22.5 40t-9 67h144q0 -24 12 -41.5t35 -32.5q26 -17 42.5 -31t28.5 -37t12 -55v-40q52 -14 93 -48t64.5 -83.5t23.5 -109.5
q0 -76 -36 -133.5t-99 -88.5t-140 -31q-76 0 -138 31zM373 117q27 16 42 46.5t15 72.5q0 41 -15 71t-42 46t-63 16q-34 0 -60.5 -16t-41.5 -46t-15 -71q0 -42 14.5 -72.5t41 -46.5t61.5 -16q36 0 63 16z" />
    <glyph glyph-name="uni10D2.case" horiz-adv-x="619" 
d="M173 11.5q-62 28.5 -99 83.5t-37 133q0 98 59 157t145 84q64 18 94.5 40.5t30.5 51.5q0 16 -8.5 30t-24 22t-35.5 8q-31 0 -50.5 -20.5t-19.5 -52.5h-150q0 51 29 93t79 66t110 24q62 0 110.5 -21t75.5 -58t27 -82t-25.5 -76t-68.5 -49v-5q50 -11 88 -41t58.5 -74.5
t20.5 -96.5q0 -78 -37 -133t-99 -83.5t-137 -28.5q-74 0 -136 28.5zM371 117q27 16 42 45t15 68q0 41 -15 71.5t-42 46.5t-62 16q-34 0 -60.5 -16t-41.5 -46.5t-15 -71.5q0 -39 15 -68t41.5 -45t60.5 -16q35 0 62 16z" />
    <glyph glyph-name="uni10D3.case" horiz-adv-x="904" 
d="M458 46.5q-23 19.5 -63 30t-91 10.5h-183v101h97v4q-51 20 -92 59t-65 93.5t-24 117.5q0 79 28.5 140t79 95t114.5 34q55 0 100.5 -25.5t67.5 -73.5h5q28 48 76.5 73.5t111.5 25.5q69 0 125.5 -33.5t89.5 -91.5t33 -128t-32.5 -128t-91.5 -91.5t-133 -33.5q-73 0 -131 34
t-90 92t-32 127v46q0 44 -21 67.5t-52 23.5q-43 0 -67.5 -41t-24.5 -115q0 -73 33 -129.5t87.5 -92t119.5 -49.5q104 -23 163 -67t60 -121h-174q-1 27 -24 46.5zM669.5 359q26.5 18 41 49.5t14.5 70.5q0 40 -15 71t-41 48t-60 17q-32 0 -57 -17t-39 -48t-14 -71t13.5 -71.5
t38.5 -49t58 -17.5q34 0 60.5 18z" />
    <glyph glyph-name="uni10D4.case" horiz-adv-x="614" 
d="M159 10.5q-59 27.5 -91.5 77t-32.5 113.5q0 57 18 101h150q-6 -24 -9 -42.5t-3 -44.5q0 -35 13.5 -61t37.5 -39.5t55 -13.5q50 0 77.5 31.5t27.5 86.5v280q0 50 -24 82t-71 32q-30 0 -51.5 -14t-33 -36.5t-11.5 -48.5q0 -27 5 -50h-153q-8 21 -8 57q0 57 31.5 105
t89 76.5t130.5 28.5q77 0 134.5 -30t88 -81t30.5 -114v-294q0 -68 -33 -120t-93 -80.5t-137 -28.5q-78 0 -137 27.5z" />
    <glyph glyph-name="uni10D5.case" horiz-adv-x="606" 
d="M162 10q-60 27 -93.5 75t-33.5 109q0 23 4.5 46.5t11.5 40.5h148q-10 -29 -10 -64q0 -54 30.5 -85t81.5 -31q31 0 56.5 13t40.5 38t15 59q0 31 -12 56.5t-35 40.5t-55 15h-37v109h35q43 0 65.5 25.5t22.5 64.5q0 25 -11.5 45.5t-32.5 33t-50 12.5t-50.5 -12.5t-32.5 -34
t-11 -47.5q0 -25 4 -38h-149q-7 21 -7 54q0 53 31.5 97.5t88 71.5t127.5 27q68 0 124 -25.5t88 -70.5t32 -100q0 -56 -26.5 -97.5t-68.5 -57.5v-4q32 -11 58 -36t42 -62t16 -84q0 -61 -35.5 -109t-97 -75t-136.5 -27q-78 0 -138 27z" />
    <glyph glyph-name="uni10D6.case" horiz-adv-x="673" 
d="M224.5 13.5q-62.5 30.5 -98.5 85t-36 124.5q0 43 17.5 84.5t52.5 66.5v4q-40 5 -73 27.5t-52.5 60t-19.5 83.5q0 55 28 96.5t76.5 63.5t108.5 22q61 0 110 -21t77 -58t28 -82q0 -33 -10 -60t-28 -42v-3q62 -3 115.5 -31t85.5 -79.5t32 -120.5q0 -74 -36.5 -131
t-99.5 -88.5t-139 -31.5t-138.5 30.5zM270 471q19 11 30 30.5t11 43.5q0 23 -10 42t-28.5 30t-42.5 11q-23 0 -42 -10.5t-29.5 -29.5t-10.5 -43q0 -37 21.5 -61t57.5 -24q24 0 43 11zM425.5 118q27.5 17 42.5 47t15 68q0 40 -14 69.5t-40.5 45.5t-62.5 16q-35 0 -62.5 -16
t-42.5 -45.5t-15 -68.5q0 -40 14.5 -70t41 -46.5t61.5 -16.5t62.5 17z" />
    <glyph glyph-name="uni10D7.case" horiz-adv-x="957" 
d="M730 140.5q18 84.5 18 171.5v165q0 74 -22.5 108t-62.5 34q-38 0 -61 -31.5t-23 -97.5v-229q0 -89 -34 -151.5t-93 -94.5t-133 -32t-134.5 32t-96 94.5t-35.5 151.5v192q0 87 33.5 150t91 95.5t127.5 32.5q64 0 116 -28t78 -78h4q14 33 41.5 57t62.5 36.5t71 12.5
q65 0 116.5 -31t81 -90t29.5 -140v-154q0 -95 -20 -180.5t-51 -135.5h-155q33 56 51 140.5zM400.5 142q26.5 41 26.5 121v187q0 80 -26 121.5t-82 41.5q-55 0 -82.5 -41.5t-27.5 -120.5v-188q0 -162 110 -162q55 0 81.5 41z" />
    <glyph glyph-name="uni10D8.case" horiz-adv-x="635" 
d="M411 142q15 88 15 175v141q0 72 -27.5 113.5t-80.5 41.5q-54 0 -81.5 -41.5t-27.5 -113.5v-141q0 -86 15.5 -174t38.5 -143h-151q-26 52 -42.5 142t-16.5 181v139q0 84 35 145t95 92.5t135 31.5q74 0 134.5 -31.5t95.5 -93t35 -145.5v-138q0 -91 -17 -180.5t-43 -142.5
h-151q24 54 39 142z" />
    <glyph glyph-name="uni10D9.case" horiz-adv-x="594" 
d="M158.5 12q-60.5 29 -94.5 78.5t-34 109.5q0 44 16 79h145q-6 -19 -8 -32.5t-2 -32.5q0 -32 14 -58t40 -40.5t59 -14.5t57.5 14.5t38.5 41.5t14 64q0 38 -13 68t-37 46.5t-57 16.5h-53v115h66q39 0 59 20t20 54q0 31 -19 50.5t-54 23.5v112q66 -3 115 -24.5t75 -59.5
t26 -89q0 -52 -25.5 -88.5t-67.5 -51.5v-4q57 -22 88.5 -73.5t31.5 -124.5q0 -64 -35 -116.5t-95.5 -82.5t-134.5 -30q-75 0 -135.5 29z" />
    <glyph glyph-name="uni10DA.case" horiz-adv-x="1097" 
d="M584 68q-51 20 -133 20h-321v102h98v4q-52 18 -95.5 55t-69.5 91t-26 121q0 82 27.5 143t76.5 94t112 33q52 0 95 -25t60 -69h4q9 29 30 50.5t48.5 32.5t56.5 11q31 0 59.5 -11t49.5 -32t29 -51h4q19 44 60 69t91 25q64 0 114 -31.5t78.5 -90.5t28.5 -138
q0 -121 -36 -213h-154q35 90 35 209q0 74 -20 111t-58 37q-30 0 -49.5 -25t-19.5 -67v-180h-141v181q0 43 -18.5 67t-50.5 24t-51 -25t-19 -66v-181h-141v178q0 45 -17.5 69.5t-49.5 24.5q-38 0 -58.5 -39.5t-20.5 -112.5q0 -78 35 -134t89.5 -86.5t114.5 -36.5l27 -3
q37 -3 83 -8.5t81 -12.5q95 -20 141.5 -63.5t50.5 -118.5h-171q-8 48 -59 68z" />
    <glyph glyph-name="uni10DB.case" horiz-adv-x="635" 
d="M166.5 16q-61.5 33 -95.5 90.5t-34 129.5q0 73 29 128.5t80 85.5t114 30q50 0 94.5 -19t67.5 -53h2v90q0 59 -30.5 87t-80.5 28q-38 0 -64.5 -20t-31.5 -52h-157q1 44 32 88t88 73t132 29q81 0 141.5 -27.5t93.5 -79t33 -122.5v-267q0 -72 -34 -129.5t-95.5 -90
t-142.5 -32.5q-80 0 -141.5 33zM370 117q27 16 42.5 45.5t15.5 68.5t-15 69t-42 46t-62 16q-34 0 -60.5 -16t-41 -46t-14.5 -69q0 -38 15 -67.5t41.5 -46t59.5 -16.5q34 0 61 16z" />
    <glyph glyph-name="uni10DC.case" horiz-adv-x="635" 
d="M184.5 15.5q-61.5 32.5 -95.5 90t-34 129.5v282q0 93 60.5 145t176.5 52h235v-120h-226q-47 0 -68.5 -20.5t-21.5 -63.5v-99h2q23 34 65.5 53.5t91.5 19.5q63 0 115 -31t82.5 -87.5t30.5 -129.5q0 -72 -34 -129.5t-95.5 -90.5t-141.5 -33q-81 0 -142.5 32.5zM385.5 117
q26.5 16 41.5 45.5t15 69.5t-14.5 70.5t-41 46.5t-60.5 16q-35 0 -62 -16t-42.5 -46t-15.5 -71q0 -40 15.5 -69.5t42.5 -45.5t62 -16q33 0 59.5 16z" />
    <glyph glyph-name="uni10DD.case" horiz-adv-x="873" 
d="M644 148q21 91 21 176v148q0 71 -22 106t-62 35q-33 0 -53.5 -28.5t-20.5 -81.5v-300h-141v300q0 53 -20 81.5t-55 28.5q-38 0 -60.5 -36t-22.5 -104v-149q0 -84 20.5 -176t52.5 -148h-154q-20 33 -37 85t-27 115t-10 126v148q0 77 28.5 135.5t78.5 90t111 31.5
q56 0 99.5 -24t63.5 -71h4q20 47 64 71t98 24q64 0 114 -31t78 -89t28 -137v-148q0 -63 -10 -126t-27 -115t-38 -85h-155q33 57 54 148z" />
    <glyph glyph-name="uni10DE.case" horiz-adv-x="596" 
d="M163 9q-61 26 -97 73t-36 108q0 39 14 73h151q-5 -16 -6.5 -29t-1.5 -32q0 -28 14.5 -51t39.5 -36.5t56 -13.5q30 0 54.5 14t38 37.5t13.5 52.5q0 32 -11.5 57.5t-35 40.5t-55.5 15h-45v116h63q33 0 50 12.5t17 34.5q0 17 -10 29t-26.5 20.5t-44.5 19.5q-65 26 -101 63
t-39 101h155q5 -26 25.5 -41.5t41.5 -24.5t27 -12q37 -16 61.5 -32t41 -43t16.5 -68q0 -42 -23.5 -72t-67.5 -44v-4q30 -9 56.5 -32.5t43.5 -60.5t17 -84q0 -63 -34.5 -111.5t-94.5 -75t-133 -26.5t-134 26z" />
    <glyph glyph-name="uni10DF.case" horiz-adv-x="627" 
d="M164.5 9.5q-59.5 26.5 -93.5 74.5t-34 112q0 14 2.5 31.5t7.5 29.5h152q-6 -22 -6 -52q0 -27 14 -51t38.5 -38.5t55.5 -14.5q33 0 57.5 15.5t38 44t13.5 66.5v385l-154 -21v-4q30 -15 44.5 -44t14.5 -58q0 -41 -22.5 -73.5t-64 -50.5t-97.5 -18h-85v112h59
q34 0 55.5 15.5t21.5 45.5q0 29 -22 45.5t-54 16.5v99l299 41h162v-503q0 -75 -35 -127.5t-95.5 -78.5t-136.5 -26t-135.5 26.5z" />
    <glyph glyph-name="uni10E0.case" horiz-adv-x="806" 
d="M597 115.5q17 57.5 17 126.5q0 65 -21 97t-56 32q-30 0 -48 -26t-18 -71v-147h-136v146q0 46 -17.5 72t-47.5 26q-34 0 -56 -30t-22 -97q0 -131 67 -244h-150q-35 54 -53.5 124t-18.5 179q0 172 82 255.5t217 108.5l84 16q22 4 35.5 11t18.5 20h155q-6 -59 -43 -94.5
t-118 -47.5l-86 -13q-92 -14 -153.5 -45t-75.5 -94h3q22 33 56.5 48.5t66.5 15.5q39 0 73 -22t52 -63h3q22 42 62.5 63.5t91.5 21.5q57 0 104.5 -28t75.5 -80t28 -123q0 -81 -19 -141.5t-53 -111.5h-150q33 58 50 115.5z" />
    <glyph glyph-name="uni10E1.case" horiz-adv-x="626" 
d="M186 11.5q-60 28.5 -93 82t-33 126.5v494h156v-483q0 -37 13 -67t37.5 -47t58.5 -17q33 0 57.5 14.5t37.5 39t13 54.5q0 26 -5.5 45.5t-14 34t-22.5 32.5q-16 23 -26 40t-17.5 44t-7.5 64h150q2 -32 12.5 -55t31.5 -55q17 -25 28.5 -46t19 -50.5t7.5 -68.5
q0 -63 -35 -110.5t-95.5 -73.5t-134.5 -26q-78 0 -138 28.5z" />
    <glyph glyph-name="uni10E2.case" horiz-adv-x="768" 
d="M207.5 26q-79.5 43 -125.5 125t-46 193q0 99 37.5 175t101 122.5t141.5 61.5h9q-3 8 -4.5 18t-1.5 20h128q0 -15 -5 -38h9q78 -14 141.5 -60.5t101 -123t37.5 -175.5q0 -112 -46.5 -193.5t-125.5 -124.5t-175 -43q-97 0 -176.5 43zM486.5 129q43.5 29 67.5 84t24 131
q0 62 -18.5 112t-49 83t-67.5 48l-4 -2q7 -31 11 -70.5t4 -75.5v-131h-142v133q0 81 16 144l-4 2q-63 -21 -99.5 -81.5t-36.5 -161.5q0 -75 24.5 -130.5t68.5 -84.5t103 -29t102.5 29z" />
    <glyph glyph-name="uni10E3.case" horiz-adv-x="642" 
d="M180.5 11q-62.5 28 -98.5 79t-36 116q0 43 17 91h151q-5 -17 -8.5 -38.5t-3.5 -40.5q0 -33 14 -59.5t40.5 -42t62.5 -15.5q33 0 59 14.5t41 42.5t15 68v295q0 43 -17 67.5t-51 24.5q-32 0 -49 -24t-17 -66v-95h-145v94q0 37 -19 57t-57 20h-47v125h52q55 0 89 -18t52 -60
h4q20 42 61 63.5t94 21.5q62 0 109 -24t72 -67.5t25 -101.5v-317q0 -70 -35 -124t-97 -84t-140 -30q-75 0 -137.5 28z" />
    <glyph glyph-name="uni10E4.case" horiz-adv-x="846" 
d="M271.5 32q-83.5 49 -89.5 151h154q19 -84 152 -84q37 0 71.5 11t57 35t22.5 60q0 27 -10 49t-28.5 35t-44.5 13h-20v109h41q40 0 61 26.5t21 73.5q0 52 -23.5 79t-62.5 27q-35 0 -57.5 -24t-22.5 -67v-31q0 -67 -28 -119t-80 -81t-120 -29q-71 0 -124 29t-82 81t-29 119
q0 68 28 121.5t80 84t121 30.5q122 0 174 -96h4q23 45 67.5 70.5t101.5 25.5q55 0 102 -25.5t74.5 -71.5t27.5 -104q0 -68 -28.5 -111.5t-81.5 -62.5v-4q43 -18 67.5 -61t24.5 -103q0 -62 -39 -108.5t-107.5 -71.5t-156.5 -25q-134 0 -217.5 49zM336.5 409q25.5 33 25.5 88
q0 56 -26 89.5t-71 33.5q-46 0 -72 -34t-26 -89t25.5 -88t71.5 -33q47 0 72.5 33z" />
    </font>
</defs>
</svg>
