<svg id="Layer_1" width="13" height="13" viewBox="0 0 16 16" xmlns="http://www.w3.org/2000/svg">
<path fill-rule="evenodd" clip-rule="evenodd" d="M14.4741 6.92099C15.07 6.92099 15.5531 7.40408 15.5531 8C15.5531 8.59592 15.07 9.07901 14.4741 9.07901L9.07885 9.07889L9.07901 14.4741C9.07901 15.0327 8.65442 15.4922 8.11032 15.5475L8 15.5531C7.40408 15.5531 6.92099 15.07 6.92099 14.4741L6.92115 9.07889L1.52595 9.07901C0.967273 9.07901 0.507766 8.65442 0.45251 8.11032L0.44694 8C0.44694 7.40408 0.930028 6.92099 1.52595 6.92099L6.92115 6.92119L6.92099 1.52595C6.92099 0.967274 7.34558 0.507767 7.88968 0.452511L8 0.44694C8.59592 0.44694 9.07901 0.930029 9.07901 1.52595L9.07885 6.92119L14.4741 6.92099Z"/>
</svg>
