<svg width="90" height="24" viewBox="0 0 90 24" fill="none" xmlns="http://www.w3.org/2000/svg">
<path d="M13.8246 11.0028C13.8014 8.38898 15.929 7.11733 16.0263 7.05813C14.8214 5.2715 12.9538 5.02738 12.2975 5.00792C10.7289 4.84004 9.20739 5.96247 8.40834 5.96247C7.59335 5.96247 6.36289 5.02414 5.03673 5.05172C3.33019 5.07848 1.73376 6.08331 0.858099 7.64367C-0.948853 10.8252 0.398768 15.5006 2.1301 18.0723C2.99606 19.3326 4.00809 20.7381 5.33258 20.6886C6.62844 20.6351 7.11249 19.8492 8.67629 19.8492C10.2257 19.8492 10.6803 20.6886 12.0311 20.657C13.4219 20.6351 14.2974 19.3918 15.1332 18.121C16.134 16.6782 16.5359 15.2557 16.5519 15.1827C16.5199 15.1714 13.8517 14.1349 13.8246 11.0028ZM11.2727 3.31618C11.9696 2.42975 12.4466 1.2238 12.3142 0C11.3053 0.045416 10.0438 0.709625 9.3173 1.57658C8.67456 2.34054 8.1004 3.59273 8.24872 4.7703C9.38196 4.85626 10.5454 4.18881 11.2727 3.31618Z" fill="white"/>
<path d="M33.2132 20.8538H31.3509L30.3308 17.6924H26.7848L25.8131 20.8538H24L27.5139 10.0908H29.6837L33.2132 20.8538ZM30.0233 16.366L29.1008 13.5556C29.0032 13.2684 28.8195 12.5923 28.5504 11.528H28.5177C28.4095 11.9858 28.2364 12.6619 27.9994 13.5556L27.0925 16.366H30.0233ZM42.2322 16.8779C42.2322 18.1978 41.8689 19.2411 41.1414 20.0071C40.4904 20.6888 39.681 21.0294 38.7157 21.0294C37.6735 21.0294 36.9239 20.6629 36.4688 19.9286V24.0007H34.7205V15.6438C34.7205 14.8147 34.6984 13.9648 34.6558 13.0929H36.1933L36.2909 14.3231H36.3237C36.9067 13.3962 37.7916 12.9327 38.979 12.9327C39.9073 12.9327 40.6822 13.2943 41.3022 14.0181C41.9213 14.7436 42.2322 15.6963 42.2322 16.8779ZM40.451 16.941C40.451 16.1856 40.2788 15.5629 39.9327 15.072C39.5547 14.5617 39.047 14.3062 38.4107 14.3062C37.9793 14.3062 37.5874 14.4484 37.2372 14.7291C36.8862 15.0121 36.6566 15.3817 36.5493 15.8395C36.4951 16.053 36.4681 16.2269 36.4681 16.3644V17.6592C36.4681 18.2229 36.6436 18.6993 36.9945 19.0892C37.3455 19.4774 37.8015 19.6722 38.3624 19.6722C39.0209 19.6722 39.5335 19.4207 39.9 18.9217C40.2673 18.4211 40.451 17.7611 40.451 16.941ZM51.283 16.8779C51.283 18.1978 50.9197 19.2411 50.1923 20.0071C49.5404 20.6888 48.7318 21.0294 47.7658 21.0294C46.7235 21.0294 45.974 20.6629 45.5189 19.9286V24.0007H43.7705V15.6438C43.7705 14.8147 43.7484 13.9648 43.7057 13.0929H45.2433L45.3409 14.3231H45.3737C45.9559 13.3962 46.8408 12.9327 48.029 12.9327C48.9564 12.9327 49.7314 13.2943 50.353 14.0181C50.9714 14.7436 51.283 15.6963 51.283 16.8779ZM49.501 16.941C49.501 16.1856 49.328 15.5629 48.9819 15.072C48.6039 14.5617 48.0979 14.3062 47.4615 14.3062C47.0302 14.3062 46.6382 14.4484 46.2864 14.7291C45.9354 15.0121 45.7067 15.3817 45.5992 15.8395C45.5459 16.053 45.5172 16.2269 45.5172 16.3644V17.6592C45.5172 18.2229 45.6935 18.6993 46.0429 19.0892C46.3938 19.4765 46.8498 19.6722 47.4123 19.6722C48.0716 19.6722 48.5841 19.4207 48.9499 18.9217C49.3173 18.4211 49.501 17.7611 49.501 16.941ZM61.4024 17.8347C61.4024 18.751 61.0776 19.4959 60.4323 20.0709C59.7221 20.6985 58.7307 21.0131 57.4596 21.0131C56.2853 21.0131 55.3438 20.7899 54.6337 20.3427L55.038 18.9055C55.8047 19.3536 56.6469 19.5768 57.5637 19.5768C58.223 19.5768 58.7356 19.4296 59.1013 19.1376C59.4678 18.8448 59.6532 18.4534 59.6532 17.9649C59.6532 17.5274 59.4998 17.161 59.1989 16.8626C58.8963 16.565 58.3961 16.2876 57.6933 16.0329C55.7826 15.33 54.8264 14.3021 54.8264 12.9499C54.8264 12.0667 55.1643 11.3437 55.8384 10.7783C56.5125 10.2138 57.4063 9.93164 58.5183 9.93164C59.5114 9.93164 60.3388 10.1023 60.9957 10.4428L60.557 11.8483C59.9386 11.5184 59.2407 11.3534 58.46 11.3534C57.8434 11.3534 57.3595 11.503 57.0135 11.8006C56.7223 12.0667 56.5747 12.3911 56.5747 12.776C56.5747 13.2006 56.7429 13.5533 57.0774 13.8299C57.3677 14.0846 57.8975 14.362 58.6634 14.6596C59.6032 15.0333 60.2936 15.4684 60.7357 15.9682C61.1809 16.4679 61.4024 17.0915 61.4024 17.8347ZM67.1977 14.387H65.2705V18.155C65.2705 19.1133 65.6101 19.5913 66.2907 19.5913C66.6031 19.5913 66.8623 19.5654 67.0673 19.5113L67.1156 20.8206C66.7713 20.9477 66.3177 21.0115 65.756 21.0115C65.0655 21.0115 64.5259 20.8037 64.1364 20.388C63.7485 19.9723 63.5534 19.2759 63.5534 18.2957V14.3837H62.4053V13.0897H63.5534V11.6687L65.2705 11.1576V13.0897H67.1977V14.387ZM75.8754 16.9095C75.8754 18.1023 75.5294 19.0817 74.8388 19.8477C74.1164 20.6362 73.1553 21.0293 71.9572 21.0293C70.8009 21.0293 69.8816 20.6516 69.1961 19.897C68.5105 19.1408 68.1677 18.1881 68.1677 17.0389C68.1677 15.8362 68.522 14.8512 69.2281 14.0853C69.9358 13.3186 70.8887 12.9353 72.0867 12.9353C73.2414 12.9353 74.1689 13.3137 74.8708 14.0691C75.5417 14.8019 75.8754 15.7481 75.8754 16.9095ZM74.0631 16.9491C74.0631 16.2381 73.9073 15.6283 73.5948 15.118C73.2283 14.5017 72.7034 14.1937 72.0236 14.1937C71.3233 14.1937 70.7862 14.5017 70.4204 15.118C70.1072 15.6283 69.9513 16.2487 69.9513 16.9814C69.9513 17.6932 70.1072 18.3045 70.4204 18.8133C70.7985 19.4296 71.3257 19.7377 72.0088 19.7377C72.6772 19.7377 73.2012 19.4231 73.5801 18.7979C73.9016 18.2755 74.0631 17.6616 74.0631 16.9491ZM81.5608 14.6094C81.3878 14.5778 81.2025 14.5616 81.0098 14.5616C80.3947 14.5616 79.9191 14.7897 79.5846 15.249C79.2943 15.6534 79.1482 16.1645 79.1482 16.7816V20.8537H77.3999V15.537C77.3999 14.6433 77.3827 13.8281 77.3491 13.0938H78.872L78.9359 14.5786H78.9843C79.1696 14.0683 79.4599 13.6566 79.8585 13.3484C80.248 13.0711 80.6686 12.9327 81.1222 12.9327C81.2836 12.9327 81.4297 12.9441 81.5592 12.9644L81.5608 14.6094ZM89.38 16.6062C89.38 16.9151 89.3594 17.1755 89.3159 17.3883H84.0709C84.0906 18.155 84.3449 18.7421 84.8319 19.1465C85.274 19.5073 85.8455 19.6884 86.5475 19.6884C87.324 19.6884 88.0325 19.5671 88.6697 19.322L88.9436 20.5182C88.199 20.8384 87.3199 20.9978 86.3055 20.9978C85.0854 20.9978 84.1275 20.6435 83.4305 19.9367C82.7351 19.229 82.3866 18.2779 82.3866 17.0866C82.3866 15.9171 82.7105 14.9426 83.3591 14.1654C84.0382 13.3356 84.9557 12.9206 86.1104 12.9206C87.2446 12.9206 88.1031 13.3355 88.6861 14.1654C89.1478 14.8229 89.38 15.6381 89.38 16.6062ZM87.7127 16.159C87.7251 15.647 87.6102 15.2062 87.3732 14.8334C87.0706 14.353 86.6049 14.1136 85.9808 14.1136C85.4092 14.1136 84.9435 14.3473 84.5892 14.8164C84.2981 15.1892 84.125 15.6373 84.0718 16.1573L87.7127 16.159Z" fill="white"/>
<path d="M29.3692 5.91194H28.4568L27.9578 4.34304H26.2223L25.7462 5.91194H24.8584L26.5784 0.569834H27.6401L29.3692 5.91194ZM27.8075 3.68477L27.3559 2.28983C27.3085 2.1469 27.2211 1.8145 27.0864 1.28364H27.0701C27.0145 1.51314 26.9353 1.84635 26.8161 2.28983L26.3726 3.68477H27.8075ZM33.6699 2.06033L32.2113 5.91194H31.379L29.9677 2.06033H30.8874L31.5456 4.09721C31.6567 4.43778 31.7514 4.76283 31.8225 5.07155H31.8462C31.91 4.79468 32.0046 4.46963 32.123 4.09721L32.7731 2.06033H33.6699ZM36.775 5.91194L36.7113 5.4684H36.6876C36.4262 5.82531 36.0456 5.99927 35.5622 5.99927C34.8728 5.99927 34.3812 5.51577 34.3812 4.86567C34.3812 3.91502 35.2053 3.42336 36.632 3.42336V3.3523C36.632 2.84512 36.3625 2.59113 35.8317 2.59113C35.451 2.59113 35.1179 2.68668 34.8255 2.87698L34.6515 2.31426C35.0084 2.09212 35.4519 1.98104 35.9753 1.98104C36.9815 1.98104 37.4895 2.51191 37.4895 3.57445V4.99308C37.4895 5.38183 37.5059 5.6832 37.5451 5.91269L36.775 5.91194ZM36.6558 3.99349C35.7044 3.99349 35.229 4.2238 35.229 4.77018C35.229 5.17445 35.4748 5.3721 35.8154 5.3721C36.2515 5.3721 36.6558 5.0397 36.6558 4.58806V3.99349ZM39.3959 1.42575C39.1108 1.42575 38.8887 1.2036 38.8887 0.910403C38.8887 0.617203 39.1183 0.403224 39.4122 0.403224C39.7054 0.403224 39.9431 0.617203 39.935 0.910403C39.935 1.21994 39.7136 1.42575 39.3959 1.42575ZM39.8402 5.91194H38.9842V2.06033H39.8402V5.91194ZM42.2168 5.91194H41.3609V0.292969H42.2168V5.91194ZM45.8544 5.91194L45.7906 5.4684H45.767C45.5057 5.82531 45.1251 5.99927 44.6416 5.99927C43.9523 5.99927 43.4606 5.51577 43.4606 4.86567C43.4606 3.91502 44.2846 3.42336 45.7114 3.42336V3.3523C45.7114 2.84512 45.4419 2.59113 44.911 2.59113C44.5305 2.59113 44.1972 2.68668 43.9049 2.87698L43.7302 2.31345C44.0871 2.0913 44.5305 1.98023 45.054 1.98023C46.0602 1.98023 46.5682 2.51109 46.5682 3.57363V4.99226C46.5682 5.38101 46.5854 5.68238 46.6229 5.91188H45.8544V5.91194ZM45.7352 3.99349C44.7837 3.99349 44.3084 4.2238 44.3084 4.77018C44.3084 5.17445 44.5541 5.3721 44.8947 5.3721C45.3308 5.3721 45.7352 5.0397 45.7352 4.58806V3.99349ZM50.0361 5.99933C49.4897 5.99933 49.0861 5.76902 48.8248 5.31738H48.8076L48.7586 5.91194H48.0293C48.053 5.60323 48.0612 5.25367 48.0612 4.8739V0.292969H48.9179V2.62386H48.9342C49.1882 2.19591 49.5991 1.98193 50.1626 1.98193C51.0904 1.98193 51.7405 2.77495 51.7405 3.93142C51.7405 5.12708 51.0185 5.99933 50.0361 5.99933ZM49.862 2.65408C49.3695 2.65408 48.9188 3.08204 48.9188 3.67661V4.35039C48.9188 4.88125 49.3238 5.31738 49.8474 5.31738C50.4885 5.31738 50.8699 4.79468 50.8699 3.96245C50.869 3.18576 50.4721 2.65408 49.862 2.65408ZM53.8615 5.91194H53.0064V0.292969H53.8615V5.91194ZM58.5209 4.19195H55.9515C55.9686 4.92127 56.4504 5.3329 57.1642 5.3329C57.5448 5.3329 57.8936 5.26919 58.2023 5.15077L58.3354 5.74534C57.9712 5.90378 57.5432 5.983 57.0442 5.983C55.8387 5.983 55.1257 5.22182 55.1257 4.04168C55.1257 2.86071 55.8559 1.97294 56.9478 1.97294C57.9304 1.97294 58.5494 2.70227 58.5494 3.80401C58.5527 3.95429 58.5453 4.08904 58.5209 4.19195ZM57.7359 3.58187C57.7359 2.9873 57.4345 2.56751 56.8874 2.56751C56.3956 2.56751 56.0086 2.99547 55.9514 3.58187H57.7359ZM63.7085 5.99933C62.5831 5.99933 61.8538 5.15894 61.8538 4.01799C61.8538 2.82886 62.5986 1.98111 63.7731 1.98111C64.8813 1.98111 65.6278 2.78149 65.6278 3.9551C65.6279 5.15894 64.8585 5.99933 63.7085 5.99933ZM63.7412 2.60671C63.123 2.60671 62.7269 3.18494 62.7269 3.99349C62.7269 4.78652 63.1312 5.36475 63.7331 5.36475C64.335 5.36475 64.7384 4.7465 64.7384 3.97716C64.7392 3.19311 64.3431 2.60671 63.7412 2.60671ZM70.2292 5.91194H69.3741V3.70029C69.3741 3.01915 69.1127 2.67777 68.5975 2.67777C68.0903 2.67777 67.7407 3.11389 67.7407 3.62107V5.91194H66.8856V3.16126C66.8856 2.82069 66.8766 2.45562 66.8538 2.05952H67.6068L67.6468 2.65408H67.6705C67.8991 2.24246 68.368 1.98029 68.8907 1.98029C69.6984 1.98029 70.2292 2.59855 70.2292 3.60473V5.91194H70.2292ZM75.8294 2.70227H74.8877V4.57254C74.8877 5.04868 75.0536 5.28634 75.3859 5.28634C75.537 5.28634 75.6644 5.27001 75.7665 5.24632L75.7902 5.89643C75.6236 5.9602 75.4006 5.99198 75.1254 5.99198C74.4508 5.99198 74.0481 5.61956 74.0481 4.64441V2.70227H73.4862V2.06033H74.0481V1.35469L74.8877 1.1007V2.05952H75.8294V2.70227ZM80.3622 5.91194H79.5054V3.71662C79.5054 3.02732 79.244 2.67858 78.7288 2.67858C78.2852 2.67858 77.8737 2.97995 77.8737 3.59003V5.91194H77.0169V0.292969H77.8737V2.60671H77.89C78.1595 2.18692 78.5483 1.98029 79.0473 1.98029C79.8632 1.98029 80.3622 2.61406 80.3622 3.62107V5.91194ZM84.7357 4.19195H82.1671C82.1835 4.92127 82.6653 5.3329 83.3792 5.3329C83.7606 5.3329 84.1084 5.26919 84.4172 5.15077L84.5512 5.74534C84.1868 5.90378 83.7581 5.983 83.2591 5.983C82.0537 5.983 81.3407 5.22182 81.3407 4.04168C81.3407 2.86071 82.0709 1.97294 83.1628 1.97294C84.1453 1.97294 84.7643 2.70227 84.7643 3.80401C84.7675 3.95429 84.7593 4.08904 84.7357 4.19195ZM83.9507 3.58187C83.9507 2.9873 83.6502 2.56751 83.103 2.56751C82.6105 2.56751 82.2234 2.99547 82.167 3.58187H83.9507Z" fill="white"/>
</svg>
