<svg id="Layer_1" width="16" height="14" viewBox="0 0 16 14" fill="none" xmlns="http://www.w3.org/2000/svg">
  <path fill-rule="evenodd" clip-rule="evenodd" d="M4.83234 7.08793C5.30124 7.55478 5.30291 8.31336 4.83606 8.78227C4.83482 8.78351 4.83358 8.78475 4.83234 8.78599L4.61704 8.99998L8.80882 9.00033C9.47196 9.00033 10.0095 9.5379 10.0095 10.201C10.0095 10.8642 9.47196 11.4017 8.80882 11.4017L4.61704 11.4016L4.83234 11.6161C5.30124 12.0829 5.30291 12.8415 4.83606 13.3104L4.83234 13.3141C4.36077 13.7836 3.59838 13.7836 3.12681 13.3141L0.852771 11.0501C0.383866 10.5832 0.382201 9.82463 0.849051 9.35573L0.852771 9.35201L3.12681 7.08793C3.59838 6.61842 4.36077 6.61842 4.83234 7.08793ZM12.8723 0.684162L15.1463 2.94824C15.6152 3.41509 15.6169 4.17367 15.15 4.64257L15.1463 4.64629L12.8723 6.91037C12.4007 7.37987 11.6383 7.37987 11.1667 6.91037C10.6978 6.44352 10.6962 5.68494 11.163 5.21603C11.1643 5.21479 11.1655 5.21355 11.1667 5.21231L11.3812 4.99748L7.19027 4.99797C6.52713 4.99797 5.98956 4.4604 5.98956 3.79726C5.98956 3.13413 6.52713 2.59656 7.19027 2.59656L11.3812 2.59582L11.1667 2.38222C10.6978 1.91537 10.6962 1.15679 11.163 0.687882L11.1667 0.684162C11.6383 0.214654 12.4007 0.214654 12.8723 0.684162Z" fill="#1A1D1F"/>
</svg>
