<svg width="16" height="17" viewBox="0 0 16 17" fill="none" xmlns="http://www.w3.org/2000/svg">
<path fill-rule="evenodd" clip-rule="evenodd" d="M10.5895 15.045C10.0738 15.857 9.13648 16.4 8.06577 16.4C7.00216 16.4 6.07021 15.8642 5.55236 15.0611C6.35559 15.1529 7.1729 15.2 8.0025 15.2C8.82724 15.2 9.63984 15.1534 10.4372 15.063L10.5895 15.045ZM8 0C8.6668 0 9.23833 0.407894 9.47869 0.987778C12.07 1.66103 13.9874 4.06566 13.9874 6.92751V7.89235C13.9874 8.62548 14.3659 9.30611 14.9921 9.66815C15.3158 9.85641 15.5917 10.1388 15.7739 10.5026C16.1984 11.3353 16.0038 12.3309 15.3688 12.9464C15.2432 13.0731 15.1017 13.1636 14.9425 13.2541C14.0829 13.6976 12.873 13.8877 12.0594 14.0506C10.6939 14.3113 9.33895 14.3982 7.99996 14.4C6.66097 14.3982 5.30783 14.3113 3.94054 14.0506C3.12688 13.8877 1.91878 13.6976 1.05737 13.2541C0.898181 13.1636 0.756676 13.0731 0.632859 12.9464C-0.00391304 12.3309 -0.198482 11.3353 0.226033 10.5026C0.40822 10.1388 0.685923 9.85641 1.00962 9.66815C1.63401 9.30611 2.01253 8.62548 2.01253 7.89235V6.92751C2.01253 4.06566 3.92996 1.66103 6.52295 0.987828C6.76167 0.407894 7.3332 0 8 0Z" fill="#1A1D1F"/>
</svg>
