<svg width="14" height="18" viewBox="0 0 14 18" fill="none" xmlns="http://www.w3.org/2000/svg">
<path fill-rule="evenodd" clip-rule="evenodd" d="M9.43745 14.5605C9.71359 14.5605 9.93745 14.7844 9.93745 15.0605V17.2933C9.93745 17.6836 9.62103 18 9.2307 18H3.83588C3.44555 18 3.12913 17.6836 3.12913 17.2933V15.0605C3.12913 14.7844 3.35299 14.5605 3.62913 14.5605H9.43745ZM5.79121 0.0486509C7.64656 -0.17993 9.51023 0.404074 10.9033 1.65061L10.9269 1.67417C12.3493 2.95678 13.1415 4.79604 13.0962 6.7108C13.051 8.62555 12.1727 10.4253 10.6913 11.6393C10.3753 11.9144 10.1619 12.2619 10.051 12.6817C9.93504 13.1205 9.53806 13.4263 9.08415 13.4263H3.91214C3.4683 13.4263 3.07757 13.1337 2.95259 12.7078C2.78041 12.121 2.58011 11.7334 2.35171 11.5451C0.660759 10.1624 -0.209408 8.01361 0.0430055 5.84397C0.373732 2.80836 2.7584 0.404146 5.79121 0.0486509ZM7.58163 3.9122H5.64986L5.01379 7.30458H6.00323L5.76765 10.4849L8.52396 5.67906H7.06335L7.58163 3.9122Z" fill="#EA4C38"/>
</svg>
