<svg width="40" height="40" viewBox="0 0 40 40" fill="none" xmlns="http://www.w3.org/2000/svg">
<rect width="40" height="40" rx="18" fill="#FEECEA"/>
<path d="M20.0174 21.5833H18.6195C18.35 21.5833 18.1143 21.8023 18.1143 22.0886V22.9476C18.1143 23.217 18.3332 23.4528 18.6195 23.4528H20.0174C20.2869 23.4528 20.5227 23.2339 20.5227 22.9476V22.0886C20.5227 21.8191 20.2869 21.5833 20.0174 21.5833Z" fill="#EA4C38"/>
<path d="M16.4139 21.5833H15.016C14.7465 21.5833 14.5107 21.8023 14.5107 22.0886V22.9476C14.5107 23.217 14.7297 23.4528 15.016 23.4528H16.4139C16.6834 23.4528 16.9192 23.2339 16.9192 22.9476V22.0886C16.9192 21.8191 16.6834 21.5833 16.4139 21.5833Z" fill="#EA4C38"/>
<path d="M20.0174 18.4323H18.6195C18.35 18.4323 18.1143 18.6512 18.1143 18.9375V19.7965C18.1143 20.066 18.3332 20.3018 18.6195 20.3018H20.0174C20.2869 20.3018 20.5227 20.0828 20.5227 19.7965V18.9375C20.5227 18.6681 20.2869 18.4323 20.0174 18.4323Z" fill="#EA4C38"/>
<path d="M16.4139 18.4323H15.016C14.7465 18.4323 14.5107 18.6512 14.5107 18.9375V19.7965C14.5107 20.066 14.7297 20.3018 15.016 20.3018H16.4139C16.6834 20.3018 16.9192 20.0828 16.9192 19.7965V18.9375C16.9192 18.6681 16.6834 18.4323 16.4139 18.4323Z" fill="#EA4C38"/>
<path d="M23.6219 18.4323H22.224C21.9545 18.4323 21.7188 18.6512 21.7188 18.9375V19.7965C21.7188 20.066 21.9377 20.3018 22.224 20.3018H23.6219C23.8914 20.3018 24.1272 20.0828 24.1272 19.7965V18.9375C24.1272 18.6681 23.8914 18.4323 23.6219 18.4323Z" fill="#EA4C38"/>
<path d="M26.6358 21.7347V15.0484C26.6358 14.6105 26.4674 14.2232 26.1979 13.92V13.9032H26.1811C25.8611 13.5495 25.4063 13.3305 24.9011 13.3305H23.6379V12.5726C23.6379 12.2526 23.3853 12 23.0653 12H22.2063C21.8863 12 21.6337 12.2526 21.6337 12.5726V13.3305H16.9853V12.5726C16.9853 12.2526 16.7326 12 16.4126 12H15.5537C15.2337 12 14.9811 12.2526 14.9811 12.5726V13.3305H13.7179C13.2126 13.3305 12.7579 13.5495 12.4379 13.9032V13.92C12.1684 14.2232 12 14.6105 12 15.0484V24.2274C12 25.1705 12.7747 25.9453 13.7179 25.9453H21.7853C22.3411 26.9895 23.4358 27.6968 24.6989 27.6968C26.5179 27.6968 28 26.2147 28 24.3958C28 23.3011 27.4611 22.3242 26.6358 21.7347ZM21.3979 24.3958C21.3979 24.5305 21.4147 24.6653 21.4316 24.8H13.7179C13.3979 24.8 13.1453 24.5474 13.1453 24.2274V17.2211H25.4737V21.1958C25.2211 21.1284 24.9684 21.0947 24.6989 21.0947C22.88 21.0947 21.3979 22.5768 21.3979 24.3958ZM26.0632 24.0589L24.6989 25.5242C24.6147 25.6084 24.4968 25.6589 24.3789 25.6589C24.2611 25.6589 24.1432 25.6084 24.0589 25.5242L23.2505 24.6484C23.0821 24.48 23.0989 24.2105 23.2674 24.0421C23.4358 23.8737 23.7053 23.8905 23.8737 24.0589L24.3789 24.5979L25.4232 23.4695C25.5916 23.3011 25.8611 23.2842 26.0295 23.4526C26.2147 23.6211 26.2316 23.8905 26.0632 24.0589Z" fill="#EA4C38"/>
</svg>
