<svg width="15" height="17" viewBox="0 0 15 17" fill="none" xmlns="http://www.w3.org/2000/svg">
<mask id="mask0" mask-type="alpha" maskUnits="userSpaceOnUse" x="0" y="0" width="15" height="17">
<path d="M13.3333 1.7H12.5V0.85C12.5 0.3825 12.125 0 11.6667 0C11.2083 0 10.8333 0.3825 10.8333 0.85V1.7H4.16667V0.85C4.16667 0.3825 3.79167 0 3.33333 0C2.875 0 2.5 0.3825 2.5 0.85V1.7H1.66667C0.741667 1.7 0.00833333 2.465 0.00833333 3.4L0 15.3C0 16.235 0.741667 17 1.66667 17H13.3333C14.25 17 15 16.235 15 15.3V3.4C15 2.465 14.25 1.7 13.3333 1.7ZM3 7.66667H3.66667C3.94281 7.66667 4.16667 7.89052 4.16667 8.16667V8.86667C4.16667 9.14281 3.94281 9.36667 3.66667 9.36667H3C2.72386 9.36667 2.5 9.14281 2.5 8.86667V8.16667C2.5 7.89052 2.72386 7.66667 3 7.66667ZM3 11.9H3.66667C3.94281 11.9 4.16667 12.1239 4.16667 12.4V13.1C4.16667 13.3761 3.94281 13.6 3.66667 13.6H3C2.72386 13.6 2.5 13.3761 2.5 13.1V12.4C2.5 12.1239 2.72386 11.9 3 11.9ZM7.16667 7.66667H7.83333C8.10948 7.66667 8.33333 7.89052 8.33333 8.16667V8.86667C8.33333 9.14281 8.10948 9.36667 7.83333 9.36667H7.16667C6.89052 9.36667 6.66667 9.14281 6.66667 8.86667V8.16667C6.66667 7.89052 6.89052 7.66667 7.16667 7.66667ZM7.16667 11.9H7.83333C8.10948 11.9 8.33333 12.1239 8.33333 12.4V13.1C8.33333 13.3761 8.10948 13.6 7.83333 13.6H7.16667C6.89052 13.6 6.66667 13.3761 6.66667 13.1V12.4C6.66667 12.1239 6.89052 11.9 7.16667 11.9ZM11.3333 7.66667H12C12.2761 7.66667 12.5 7.89052 12.5 8.16667V8.86667C12.5 9.14281 12.2761 9.36667 12 9.36667H11.3333C11.0572 9.36667 10.8333 9.14281 10.8333 8.86667V8.16667C10.8333 7.89052 11.0572 7.66667 11.3333 7.66667ZM11.3333 11.9H12C12.2761 11.9 12.5 12.1239 12.5 12.4V13.1C12.5 13.3761 12.2761 13.6 12 13.6H11.3333C11.0572 13.6 10.8333 13.3761 10.8333 13.1V12.4C10.8333 12.1239 11.0572 11.9 11.3333 11.9Z" fill="white"/>
</mask>
<g mask="url(#mask0)">
<path d="M13.3333 1.7H12.5V0.85C12.5 0.3825 12.125 0 11.6667 0C11.2083 0 10.8333 0.3825 10.8333 0.85V1.7H4.16667V0.85C4.16667 0.3825 3.79167 0 3.33333 0C2.875 0 2.5 0.3825 2.5 0.85V1.7H1.66667C0.741667 1.7 0.00833333 2.465 0.00833333 3.4L0 15.3C0 16.235 0.741667 17 1.66667 17H13.3333C14.25 17 15 16.235 15 15.3V3.4C15 2.465 14.25 1.7 13.3333 1.7ZM3 7.66667H3.66667C3.94281 7.66667 4.16667 7.89052 4.16667 8.16667V8.86667C4.16667 9.14281 3.94281 9.36667 3.66667 9.36667H3C2.72386 9.36667 2.5 9.14281 2.5 8.86667V8.16667C2.5 7.89052 2.72386 7.66667 3 7.66667ZM3 11.9H3.66667C3.94281 11.9 4.16667 12.1239 4.16667 12.4V13.1C4.16667 13.3761 3.94281 13.6 3.66667 13.6H3C2.72386 13.6 2.5 13.3761 2.5 13.1V12.4C2.5 12.1239 2.72386 11.9 3 11.9ZM7.16667 7.66667H7.83333C8.10948 7.66667 8.33333 7.89052 8.33333 8.16667V8.86667C8.33333 9.14281 8.10948 9.36667 7.83333 9.36667H7.16667C6.89052 9.36667 6.66667 9.14281 6.66667 8.86667V8.16667C6.66667 7.89052 6.89052 7.66667 7.16667 7.66667ZM7.16667 11.9H7.83333C8.10948 11.9 8.33333 12.1239 8.33333 12.4V13.1C8.33333 13.3761 8.10948 13.6 7.83333 13.6H7.16667C6.89052 13.6 6.66667 13.3761 6.66667 13.1V12.4C6.66667 12.1239 6.89052 11.9 7.16667 11.9ZM11.3333 7.66667H12C12.2761 7.66667 12.5 7.89052 12.5 8.16667V8.86667C12.5 9.14281 12.2761 9.36667 12 9.36667H11.3333C11.0572 9.36667 10.8333 9.14281 10.8333 8.86667V8.16667C10.8333 7.89052 11.0572 7.66667 11.3333 7.66667ZM11.3333 11.9H12C12.2761 11.9 12.5 12.1239 12.5 12.4V13.1C12.5 13.3761 12.2761 13.6 12 13.6H11.3333C11.0572 13.6 10.8333 13.3761 10.8333 13.1V12.4C10.8333 12.1239 11.0572 11.9 11.3333 11.9Z" fill="#EA4C38"/>
</g>
</svg>
