<svg width="20" height="17" viewBox="0 0 20 17" fill="none" xmlns="http://www.w3.org/2000/svg">
<path fill-rule="evenodd" clip-rule="evenodd" d="M5.22802 2.51257L5.90228 1.13403C6.24256 0.4389 6.93802 0 7.69872 0H12.3266C13.0872 0 13.7828 0.4389 14.1232 1.13426L14.7973 2.51257H17.9918C19.1009 2.51257 20 3.43124 20 4.56449V14.6147C20 15.748 19.1009 16.6667 17.9918 16.6667H2.0082C0.8991 16.6667 0 15.748 0 14.6147V4.56449C0 3.43124 0.8991 2.51257 2.0082 2.51257H5.22802ZM10.0001 5.98828C8.25724 5.98828 6.84437 7.43192 6.84437 9.21275C6.84437 10.9936 8.25724 12.4372 10.0001 12.4372C11.743 12.4372 13.1558 10.9936 13.1558 9.21275C13.1558 7.43192 11.743 5.98828 10.0001 5.98828Z" fill="#EA4C38"/>
</svg>
