<svg id="Layer_1" width="52" height="30" viewBox="0 0 52 30" fill="none" xmlns="http://www.w3.org/2000/svg">
  <path d="M4.31293 0H47.4422C49.8241 0 51.7551 2.10355 51.7551 4.69841V25.3016C51.7551 27.8965 49.8241 30 47.4422 30H4.31293C1.93096 30 0 27.8965 0 25.3016V4.69841C0 2.10355 1.93096 0 4.31293 0Z" fill="#EA4C38"/>
  <g style="mix-blend-mode:screen" opacity="0.15">
    <path fill-rule="evenodd" clip-rule="evenodd" d="M-33.7519 -12.4954C5.64693 -4.80847 7.56389 13.4822 41.7511 20.4762C64.0348 25.035 61.509 34.9934 34.1739 50.3515C32.9795 51.0226 31.5662 51.0487 30.3515 50.4223L-47.4375 10.3025C-47.9622 10.0319 -48.4313 9.6487 -48.8168 9.17586C-64.7223 -10.3344 -59.7007 -17.5582 -33.7519 -12.4954Z" fill="#0D71A0"/>
  </g>
  <rect x="5.48914" y="15.0781" width="29.5041" height="4.11685" rx="2.05843" fill="white"/>
  <rect opacity="0.6" x="5.48914" y="23.9961" width="4.11685" height="4.11685" rx="2.05843" fill="white"/>
  <rect opacity="0.6" x="12.3506" y="23.9961" width="4.11685" height="4.11685" rx="2.05843" fill="white"/>
  <rect x="5.48914" y="4.09766" width="15.0951" height="4.11685" rx="2.05843" fill="white" fill-opacity="0.6"/>
</svg>
