<svg id="Layer_1" width="20" height="18" viewBox="0 0 20 18" fill="none" xmlns="http://www.w3.org/2000/svg">
<path fill-rule="evenodd" clip-rule="evenodd" d="M18.2931 6.5C19.2344 6.5 20 7.2403 20 8.15009V16.3503C20 17.2601 19.2344 18.0004 18.2931 18H5.20652C4.26562 18 3.5 17.2597 3.5 16.3499V8.15009C3.5 7.2403 4.26562 6.5 5.20652 6.5H18.2931ZM18.5621 15.9091H16.2821C16.0572 15.9091 15.875 16.1899 15.875 16.5367C15.875 16.8828 16.0572 17.1636 16.2821 17.1636H18.5621C18.787 17.1636 18.9692 16.8822 18.9688 16.5367C18.9688 16.1899 18.787 15.9091 18.5621 15.9091ZM16.5005 11.7273H5.96829C5.74386 11.7273 5.5625 12.0082 5.5625 12.3545C5.5625 12.7008 5.74427 12.9818 5.9687 12.9818H16.5005C16.7249 12.9818 16.9062 12.7008 16.9062 12.3545C16.9062 12.0082 16.7249 11.7273 16.5005 11.7273ZM13.3734 0.146443C14.2496 -0.238555 15.2775 0.16186 15.6625 1.03936L17.4883 5.20018H4.80839C3.38714 5.20018 2.2309 6.35642 2.2309 7.77767V12.5993L0.146737 7.84808C-0.0395128 7.42475 -0.0486794 6.95309 0.120487 6.51934C0.289236 6.08642 0.615485 5.74517 1.03882 5.55934L13.3734 0.146443ZM12.3746 8.59091H10.0946C9.86965 8.59091 9.6875 8.8716 9.6875 9.21818C9.6875 9.56477 9.86965 9.84545 10.0946 9.84545H12.3746C12.5995 9.84545 12.7812 9.56477 12.7812 9.21818C12.7812 8.8716 12.5995 8.59091 12.3746 8.59091ZM8.24953 8.59091H5.96922C5.74427 8.59091 5.5625 8.8716 5.5625 9.21818C5.5625 9.56477 5.74427 9.84545 5.96922 9.84545H8.24953C8.47448 9.84545 8.65625 9.56477 8.65625 9.21818C8.65625 8.8716 8.47448 8.59091 8.24953 8.59091Z" fill="#EA4C38"/>
</svg>
