<svg width="22" height="18" viewBox="0 0 22 18" fill="none" xmlns="http://www.w3.org/2000/svg">
<path d="M14.2628 14.4277H7.7373V15.7314H14.2628V14.4277Z" fill="#EA4C38"/>
<path d="M21.2556 3.68596H15.2179V0.733326C15.2179 0.328279 14.8973 0 14.5016 0H7.4984C7.1028 0 6.78217 0.328279 6.78217 0.733326V3.68568H0.74439C0.333263 3.68572 0 4.02694 0 4.44789V13.654H22V4.44813C22 4.02722 21.6667 3.68596 21.2556 3.68596ZM9.16959 2.44442H12.8302V3.68572H9.16959V2.44442Z" fill="#EA4C38"/>
<path d="M14.9791 14.4285V15.7322C14.9791 16.1372 14.6585 16.4655 14.2629 16.4655H7.73714C7.34154 16.4655 7.02092 16.1372 7.02092 15.7322V14.4285C7.02092 14.4146 7.02423 14.4016 7.02497 14.3877H0V17.2382C0 17.6591 0.333263 18.0003 0.74439 18.0003H21.2556C21.6667 18.0003 22 17.6591 22 17.2382V14.3877H14.9751C14.9758 14.4014 14.9791 14.4146 14.9791 14.4285Z" fill="#EA4C38"/>
</svg>
