<svg width="20" height="22" viewBox="0 0 20 22" fill="none" xmlns="http://www.w3.org/2000/svg">
  <path fill-rule="evenodd" clip-rule="evenodd" d="M0.0633781 7.169C0.197938 6.92786 0.502502 6.84146 0.743642 6.97602L8.08902 11.0749C9.30555 11.7537 10.7876 11.7507 12.0014 11.0669L19.2546 6.98097C19.3295 6.93877 19.414 6.9166 19.5 6.9166C19.7761 6.9166 20 7.14046 20 7.4166V15.2595C20 15.9724 19.6205 16.6315 19.0039 16.9893L12.0456 21.0273C10.8092 21.7448 9.28385 21.7479 8.04448 21.0355L1.00327 16.9879C0.382624 16.6312 0 15.9699 0 15.254V7.41264C0 7.32735 0.0218176 7.24347 0.0633781 7.169ZM5.40643 3.39357L5.54515 3.46097L13.7204 7.96587C13.803 8.01136 13.871 8.07927 13.9166 8.16175C14.0354 8.37653 13.9795 8.64079 13.7959 8.79074L13.7211 8.8413L11.496 10.0723C10.6517 10.5393 9.63857 10.57 8.77221 10.1644L8.58893 10.0708L0.900256 5.80744C0.846125 5.77738 0.801825 5.73232 0.772726 5.67766C0.701383 5.54367 0.734726 5.38184 0.844155 5.28593L0.905077 5.2439L4.08978 3.46514C4.49649 3.23797 4.98276 3.21398 5.40643 3.39357ZM10.042 0.5C10.4115 0.5 10.7994 0.599655 11.2057 0.798966L11.4104 0.906926L19.179 5.23319L19.2293 5.26817C19.2605 5.2944 19.2867 5.32621 19.3066 5.36214C19.3835 5.5009 19.3515 5.67057 19.2389 5.77269L19.176 5.81766L16.3388 7.39008C15.9321 7.61545 15.4469 7.63823 15.0243 7.45836L14.886 7.3909L6.7145 2.87404C6.63267 2.82881 6.56516 2.76154 6.51964 2.67986C6.40014 2.46546 6.45525 2.20102 6.63838 2.05049L6.71297 1.9997L8.67366 0.906926C9.15493 0.635642 9.61106 0.5 10.042 0.5Z" fill="#056596"/>
</svg>
