<svg id="Layer_1" width="35" height="35" viewBox="0 0 15 21" xmlns="http://www.w3.org/2000/svg">
  <path fill-rule="evenodd" clip-rule="evenodd" d="M10.4861 16.8655C10.7929 16.8655 11.0416 17.1191 11.0416 17.4319V19.9609C11.0416 20.403 10.69 20.7614 10.2563 20.7614H4.26208C3.82839 20.7614 3.47681 20.403 3.47681 19.9609V17.4319C3.47681 17.1191 3.72554 16.8655 4.03237 16.8655H10.4861ZM6.43467 0.428153C8.49618 0.169242 10.5669 0.830736 12.1148 2.24267L12.141 2.26935C13.7214 3.72216 14.6016 5.80545 14.5514 7.97427C14.5011 10.1431 13.5253 12.1817 11.8792 13.5567C11.5281 13.8683 11.291 14.2619 11.1678 14.7374C11.0389 15.2345 10.5978 15.5808 10.0935 15.5808H4.34682C3.85367 15.5808 3.41953 15.2494 3.28066 14.767C3.08934 14.1024 2.86679 13.6634 2.61301 13.45C0.734176 11.8838 -0.232676 9.44995 0.0477839 6.99243C0.415257 3.55404 3.06489 0.830817 6.43467 0.428153ZM8.42403 4.80434H6.27762L5.57087 8.64684H6.67026L6.4085 12.2492L9.47106 6.80564H7.84817L8.42403 4.80434Z"/>
</svg>
