<svg width="18" height="23" viewBox="0 0 18 23" fill="none" xmlns="http://www.w3.org/2000/svg">
  <path fill-rule="evenodd" clip-rule="evenodd" d="M0.000616735 16.1315C0.877221 11.2629 2.69012 10.7835 6.01905 7.62525C8.26286 5.49784 14.2377 7.41965 10.67 12.8424C9.71372 14.2955 9.3597 17.1905 9.6079 21.5273H9.60787C9.62365 21.803 9.41296 22.0393 9.13728 22.0551C9.0648 22.0592 8.99228 22.0475 8.92477 22.0208C7.10137 21.2993 6.15205 20.5389 6.07682 19.7394C5.99208 18.839 6.27671 17.6364 6.93071 16.1315C6.30801 17.1192 5.91864 18.0524 5.76258 18.9311C5.5285 20.2493 3.09232 18.5043 3.24488 17.7112C3.39576 16.9268 3.96577 15.7716 4.95491 14.2457C3.91908 15.2638 3.27843 16.1833 3.03294 17.0039C2.66471 18.2349 -0.0468883 16.8963 0.000616735 16.1315ZM13.0594 7.45718L12.2237 8.19046C11.8184 7.10856 10.7809 6.46551 9.65685 6.28388L10.8866 5.20481C11.264 4.87368 11.8283 4.87368 12.2057 5.20481L13.0594 5.95388C13.4745 6.31814 13.5157 6.94996 13.1515 7.36509C13.1228 7.39775 13.092 7.42852 13.0594 7.45718ZM17.7194 1.24337C18.0477 1.53143 18.0803 2.03108 17.7922 2.35937C17.7706 2.38407 17.7474 2.4074 17.7228 2.42922L13.9285 5.79708L12.5814 4.61506L16.3757 1.24719C16.7586 0.907347 17.3346 0.905706 17.7194 1.24337Z" fill="#056596"/>
</svg>
