<svg width="22" height="21" viewBox="0 0 22 21" fill="none" xmlns="http://www.w3.org/2000/svg">
  <path fill-rule="evenodd" clip-rule="evenodd" d="M12.9143 1.58575L20.9212 8.2205C21.6016 8.78431 21.6961 9.79296 21.1323 10.4734C20.8284 10.8402 20.3767 11.0525 19.9003 11.0525H19.8953L19.895 18.7888L20.0042 18.7895C20.5565 18.7895 21.0042 19.2372 21.0042 19.7895V20.0001C21.0042 20.5524 20.5565 21.0001 20.0042 21.0001H16.4464C15.8941 21.0001 15.4464 20.5524 15.4464 20.0001V19.7895C15.4464 19.2372 15.8941 18.7895 16.4464 18.7895L16.583 18.7888L16.5568 11.8499C16.5527 10.7943 15.6959 9.94068 14.6402 9.94068C13.5858 9.94068 12.731 10.7955 12.731 11.8499L12.731 18.7888L12.7791 18.7895C13.3314 18.7895 13.7791 19.2372 13.7791 19.7895V20.0001C13.7791 20.5524 13.3314 21.0001 12.7791 21.0001H9.22126C8.66898 21.0001 8.22126 20.5524 8.22126 20.0001V19.7895C8.22126 19.2372 8.66898 18.7895 9.22126 18.7895L9.31 18.7888L9.31013 11.8722C9.31013 10.8055 8.44534 9.94068 7.37857 9.94068C6.3118 9.94068 5.44702 10.8055 5.44702 11.8722L5.447 18.7888L5.55392 18.7895C6.10621 18.7895 6.55392 19.2372 6.55392 19.7895V20.0001C6.55392 20.5524 6.10621 21.0001 5.55392 21.0001H1.99612C1.44383 21.0001 0.996117 20.5524 0.996117 20.0001V19.7895C0.996117 19.2372 1.44383 18.7895 1.99612 18.7895L2.117 18.7888L2.11749 11.0525H2.1C1.21634 11.0525 0.5 10.3362 0.5 9.4525C0.5 8.9761 0.712297 8.52447 1.07913 8.2205L9.08604 1.58575C10.1963 0.665752 11.804 0.665752 12.9143 1.58575Z" fill="#056596"/>
</svg>
