<svg width="20" height="22" viewBox="0 0 20 22" fill="none" xmlns="http://www.w3.org/2000/svg">
  <path fill-rule="evenodd" clip-rule="evenodd" d="M1.5398 17C1.56327 17.0429 1.58675 17.0643 1.6337 17.0858L6 20.1302L4.56804 21.824C4.40372 22.017 4.09855 22.0598 3.88727 21.9098L0.178261 19.3155C-0.0330114 19.1654 -0.0564861 18.8867 0.107837 18.6938L1.5398 17ZM18.5772 13.04C18.9611 12.9351 19.4128 13.04 19.6838 13.3126C19.8871 13.5224 20 13.795 20 14.0676C19.9548 14.3613 19.8193 14.6129 19.5709 14.7807L13.0665 19.4156C12.4341 19.856 11.6662 20.0657 10.8984 19.9818L6.49435 19.5624L2 16.3746L6.40402 13.4804C6.87829 13.1658 7.4655 12.9981 8.0527 13.019L13.2923 13.2288C13.5408 13.2288 13.7892 13.3336 13.9473 13.5014C14.128 13.6692 14.2183 13.8999 14.1957 14.1306C14.1731 14.529 13.857 14.8436 13.4504 14.9275L13.2472 14.9695C12.1179 15.2002 10.9435 15.326 9.79172 15.347L8.79799 15.3679C8.48181 15.3679 8.25596 15.5986 8.25596 15.8922C8.25596 16.1859 8.50439 16.3956 8.82058 16.3956L9.8143 16.3746C11.0339 16.3327 12.2535 16.2068 13.4504 15.9761L13.6537 15.9342C14.5571 15.7664 15.2346 15.0533 15.2798 14.1935V13.9628L18.5772 13.04ZM13.9693 0.230428C14.2588 -0.0768095 14.7654 -0.0768095 15.0307 0.230428C15.682 0.963072 16.9846 2.00295 19.3728 2.38109C19.7346 2.42836 20 2.71196 20 3.06647V6.30428C20 8.52585 18.5044 10.3456 17.057 11.551L15.5373 12C15.489 11.9527 15.4408 11.9291 15.4167 11.8818C14.9825 11.4092 14.4035 11.1492 13.7763 11.1256L11.364 11.031C10.1338 9.84934 9 8.24224 9 6.30428V3.06647C9 2.7356 9.26535 2.42836 9.62719 2.38109C12.0154 2.00295 13.318 0.963072 13.9693 0.230428ZM14.4759 3.49188C14.0658 3.49188 13.7281 3.82275 13.7281 4.22452V5.66617H12.2566C11.8465 5.66617 11.5088 5.97341 11.5088 6.39882C11.5088 6.80059 11.8465 7.13146 12.2566 7.13146H13.7281V8.57312C13.7281 8.97489 14.0658 9.30576 14.4759 9.30576C14.886 9.30576 15.2237 8.97489 15.2237 8.57312V7.13146H16.6952C17.1294 7.13146 17.4671 6.80059 17.4671 6.39882C17.4671 5.99705 17.1053 5.66617 16.6952 5.66617H15.2237V4.22452C15.2237 3.82275 14.886 3.49188 14.4759 3.49188Z" fill="#056596"/>
</svg>
