<svg width="16" height="18" viewBox="0 0 16 18" fill="none" xmlns="http://www.w3.org/2000/svg">
  <path fill-rule="evenodd" clip-rule="evenodd" d="M9.19337 0.337367C9.0273 0.672353 8.74731 0.991386 8.27227 1.40199L8.08483 1.56047C7.92677 1.69146 7.31532 2.17979 7.18697 2.2849L6.96029 2.47459C4.96373 4.18276 4.14741 5.93082 4.72086 8.68124L4.74546 8.79321L4.72296 8.77195C4.44196 8.48868 4.21077 8.154 4.02411 7.77397C3.79876 7.31516 3.65247 6.81757 3.57159 6.31774L3.52753 5.98825C3.51241 5.84215 3.50683 5.72585 3.50716 5.64769C3.51161 5.11312 2.86737 4.84018 2.48644 5.21525C2.22947 5.46826 1.87067 5.9393 1.51951 6.63081C0.944887 7.76238 0.601562 9.11456 0.601562 10.6816C0.601562 14.7255 3.92719 18 8.02494 18C12.1227 18 15.4483 14.7255 15.4483 10.6816C15.4483 9.41162 15.1863 8.58193 14.5869 7.56934L14.1978 6.94311C13.5868 5.96062 13.4418 5.3359 13.7271 4.09776C13.8576 3.53142 13.1871 3.12901 12.7487 3.5106C12.1754 4.00963 11.7387 4.61382 11.4243 5.29687L11.2861 5.62035C11.2008 5.83625 11.129 6.05234 11.0693 6.26687L11.0285 6.42612L10.8954 6.12075C10.7998 5.89366 10.7071 5.65705 10.6196 5.41254C10.0071 3.70248 9.84906 2.1147 10.2985 0.797531C10.5404 0.08872 9.526 -0.333655 9.19337 0.337367Z" fill="#056596"/>
</svg>
