<svg width="20" height="16" viewBox="0 0 20 16" fill="none" xmlns="http://www.w3.org/2000/svg">
  <path fill-rule="evenodd" clip-rule="evenodd" d="M9.98686 11.6078C10.5354 11.6078 11.0037 11.8042 11.3918 12.197C11.7798 12.5898 11.9739 13.0638 11.9739 13.6189C11.9739 14.1741 11.7798 14.6481 11.3918 15.0409C11.0037 15.4337 10.5354 15.6301 9.98686 15.6301C9.43836 15.6301 8.97006 15.4337 8.58197 15.0409C8.19387 14.6481 7.99983 14.1741 7.99983 13.6189C7.99983 13.0638 8.19387 12.5898 8.58197 12.197C8.97006 11.8042 9.43836 11.6078 9.98686 11.6078ZM10.0024 6.13907C11.0132 6.13907 11.9924 6.3309 12.9401 6.71456C13.9035 7.1142 14.7643 7.68169 15.5224 8.41703C15.6645 8.54492 15.7672 8.69678 15.8304 8.87262C15.9093 9.06445 15.9488 9.24829 15.9488 9.42413C15.933 9.63194 15.8857 9.81578 15.8067 9.97563C15.7277 10.1515 15.6093 10.3033 15.4513 10.4312L14.4326 11.2945C14.1799 11.5183 13.8877 11.6222 13.556 11.6062C13.2244 11.6062 12.9322 11.4863 12.6795 11.2465C11.9213 10.5431 11.029 10.1914 10.0024 10.1914C8.95996 10.1914 8.0597 10.5431 7.30159 11.2465C7.04888 11.4703 6.76459 11.5902 6.44871 11.6062C6.11703 11.6222 5.81695 11.5183 5.54845 11.2945L4.52973 10.4312C4.38759 10.3033 4.27703 10.1515 4.19806 9.97563C4.10329 9.81578 4.05591 9.63194 4.05591 9.42413C4.04012 9.24829 4.0717 9.06445 4.15068 8.87262C4.21385 8.69678 4.31651 8.54492 4.45866 8.41703C5.21677 7.68169 6.08545 7.1142 7.06468 6.71456C7.99652 6.3309 8.97576 6.13907 10.0024 6.13907ZM10.0024 0.300049C11.8187 0.300049 13.5639 0.667719 15.2381 1.40306C16.9123 2.1384 18.3732 3.16948 19.6209 4.49629C19.7473 4.64016 19.8421 4.80002 19.9052 4.97586C19.9684 5.1517 20 5.32754 20 5.50339C19.9842 5.69521 19.9368 5.87106 19.8579 6.03091C19.7789 6.20676 19.6683 6.35063 19.5262 6.46253L18.5075 7.32575C18.239 7.54955 17.931 7.65346 17.5835 7.63747C17.236 7.62149 16.9439 7.48561 16.7069 7.22984C15.8383 6.30267 14.8196 5.58331 13.6508 5.07177C12.482 4.57622 11.2659 4.32844 10.0024 4.32844C8.72305 4.32844 7.49901 4.57622 6.33025 5.07177C5.17729 5.58331 4.16647 6.30267 3.2978 7.22984C3.04509 7.48561 2.74501 7.62149 2.39754 7.63747C2.05007 7.65346 1.74208 7.54955 1.47358 7.32575C0.794441 6.73428 0.423281 6.41457 0.360104 6.36661C0.138988 6.11084 0.0205323 5.83109 0.0047382 5.52736C-0.0110558 5.33554 0.0126353 5.1517 0.0758115 4.97586C0.138988 4.80002 0.233752 4.64016 0.360104 4.49629C1.60783 3.16948 3.06878 2.1384 4.74295 1.40306C6.41712 0.667719 8.17026 0.300049 10.0024 0.300049Z" fill="#056596"/>
</svg>
