<svg id="Layer_1" width="35" height="35" viewBox="0 0 25 20" xmlns="http://www.w3.org/2000/svg">
  <path fill-rule="evenodd" clip-rule="evenodd" d="M22.2222 0H2.22222C1 0 0 1 0 2.22222V15.5556C0 16.7778 1 17.7778 2.22222 17.7778H7.77778V18.8889C7.77778 19.5 8.27778 20 8.88889 20H15.5556C16.1667 20 16.6667 19.5 16.6667 18.8889V17.7778H22.2222C23.4444 17.7778 24.4333 16.7778 24.4333 15.5556L24.4444 2.22222C24.4444 1 23.4444 0 22.2222 0ZM21.1111 15.5556H3.33333C2.72222 15.5556 2.22222 15.0556 2.22222 14.4444V3.33333C2.22222 2.72222 2.72222 2.22222 3.33333 2.22222H21.1111C21.7222 2.22222 22.2222 2.72222 22.2222 3.33333V14.4444C22.2222 15.0556 21.7222 15.5556 21.1111 15.5556Z"/>
</svg>
