<svg id="Layer_1" width="22" height="22" viewBox="0 0 25 18" xmlns="http://www.w3.org/2000/svg">
  <path fill-rule="evenodd" clip-rule="evenodd" d="M6.91224 20.5153H7.3869V2.66564C7.3869 2.56442 7.44623 2.46319 7.5649 2.46319H10.2942V0.269939C10.2942 0.134969 10.3832 0 10.5019 0H13.4981C13.6168 0 13.7058 0.134969 13.7058 0.269939V2.46319H16.4351C16.5241 2.46319 16.6131 2.56442 16.6131 2.66564V20.5153H17.0878V9.81902C17.0878 9.68405 17.1471 9.58282 17.2658 9.58282H23.822C23.911 9.58282 24 9.68405 24 9.81902V21.7975C24 21.9325 23.911 22 23.822 22C15.9308 22 8.06922 22 0.177998 22C0.0889988 22 0 21.9325 0 21.7975V9.81902C0 9.68405 0.0889988 9.58282 0.177998 9.58282H6.73424C6.82324 9.58282 6.91224 9.68405 6.91224 9.81902V20.5153ZM8.30655 19.4356H15.6934C15.7528 19.4356 15.7824 19.4693 15.7824 19.5368V20.0429C15.7824 20.0767 15.7528 20.1442 15.6934 20.1442H8.30655C8.24722 20.1442 8.21755 20.0767 8.21755 20.0429V19.5368C8.21755 19.4693 8.24722 19.4356 8.30655 19.4356ZM21.2707 17.2423H22.487C22.5464 17.2423 22.6057 17.3436 22.6057 17.411V18.7945C22.6057 18.862 22.5464 18.9294 22.487 18.9294H21.2707C21.1817 18.9294 21.1224 18.862 21.1224 18.7945V17.411C21.1224 17.3436 21.1817 17.2423 21.2707 17.2423ZM21.2707 14.1043H22.487C22.5464 14.1043 22.6057 14.1718 22.6057 14.273V15.6564C22.6057 15.7239 22.5464 15.7914 22.487 15.7914H21.2707C21.1817 15.7914 21.1224 15.7239 21.1224 15.6564V14.273C21.1224 14.1718 21.1817 14.1043 21.2707 14.1043ZM18.6007 17.2423H19.8171C19.8764 17.2423 19.9357 17.3436 19.9357 17.411V18.7945C19.9357 18.862 19.8764 18.9294 19.8171 18.9294H18.6007C18.5117 18.9294 18.4524 18.862 18.4524 18.7945V17.411C18.4524 17.3436 18.5117 17.2423 18.6007 17.2423ZM18.6007 14.1043H19.8171C19.8764 14.1043 19.9357 14.1718 19.9357 14.273V15.6564C19.9357 15.7239 19.8764 15.7914 19.8171 15.7914H18.6007C18.5117 15.7914 18.4524 15.7239 18.4524 15.6564V14.273C18.4524 14.1718 18.5117 14.1043 18.6007 14.1043ZM21.2707 10.9663H22.487C22.5464 10.9663 22.6057 11.0337 22.6057 11.135V12.5184C22.6057 12.5859 22.5464 12.6534 22.487 12.6534H21.2707C21.1817 12.6534 21.1224 12.5859 21.1224 12.5184V11.135C21.1224 11.0337 21.1817 10.9663 21.2707 10.9663ZM18.6007 10.9663H19.8171C19.8764 10.9663 19.9357 11.0337 19.9357 11.135V12.5184C19.9357 12.5859 19.8764 12.6534 19.8171 12.6534H18.6007C18.5117 12.6534 18.4524 12.5859 18.4524 12.5184V11.135C18.4524 11.0337 18.5117 10.9663 18.6007 10.9663ZM1.51298 10.9663H2.7293C2.78863 10.9663 2.84796 11.0337 2.84796 11.135V12.5184C2.84796 12.5859 2.78863 12.6534 2.7293 12.6534H1.51298C1.45365 12.6534 1.39431 12.5859 1.39431 12.5184V11.135C1.39431 11.0337 1.45365 10.9663 1.51298 10.9663ZM4.18294 10.9663H5.39926C5.45859 10.9663 5.51792 11.0337 5.51792 11.135V12.5184C5.51792 12.5859 5.45859 12.6534 5.39926 12.6534H4.18294C4.09394 12.6534 4.03461 12.5859 4.03461 12.5184V11.135C4.03461 11.0337 4.09394 10.9663 4.18294 10.9663ZM1.51298 14.1043H2.7293C2.78863 14.1043 2.84796 14.1718 2.84796 14.273V15.6564C2.84796 15.7239 2.78863 15.7914 2.7293 15.7914H1.51298C1.45365 15.7914 1.39431 15.7239 1.39431 15.6564V14.273C1.39431 14.1718 1.45365 14.1043 1.51298 14.1043ZM1.51298 17.2423H2.7293C2.78863 17.2423 2.84796 17.3436 2.84796 17.411V18.7945C2.84796 18.862 2.78863 18.9294 2.7293 18.9294H1.51298C1.45365 18.9294 1.39431 18.862 1.39431 18.7945V17.411C1.39431 17.3436 1.45365 17.2423 1.51298 17.2423ZM4.18294 14.1043H5.39926C5.45859 14.1043 5.51792 14.1718 5.51792 14.273V15.6564C5.51792 15.7239 5.45859 15.7914 5.39926 15.7914H4.18294C4.09394 15.7914 4.03461 15.7239 4.03461 15.6564V14.273C4.03461 14.1718 4.09394 14.1043 4.18294 14.1043ZM4.18294 17.2423H5.39926C5.45859 17.2423 5.51792 17.3436 5.51792 17.411V18.7945C5.51792 18.862 5.45859 18.9294 5.39926 18.9294H4.18294C4.09394 18.9294 4.03461 18.862 4.03461 18.7945V17.411C4.03461 17.3436 4.09394 17.2423 4.18294 17.2423ZM14.0618 16.1288H15.2781C15.3671 16.1288 15.4265 16.2301 15.4265 16.2975V17.681C15.4265 17.7485 15.3671 17.816 15.2781 17.816H14.0618C14.0025 17.816 13.9431 17.7485 13.9431 17.681V16.2975C13.9431 16.2301 14.0025 16.1288 14.0618 16.1288ZM14.0618 13.092H15.2781C15.3671 13.092 15.4265 13.1595 15.4265 13.227V14.6104C15.4265 14.7117 15.3671 14.7791 15.2781 14.7791H14.0618C14.0025 14.7791 13.9431 14.7117 13.9431 14.6104V13.227C13.9431 13.1595 14.0025 13.092 14.0618 13.092ZM14.0618 10.0215H15.2781C15.3671 10.0215 15.4265 10.089 15.4265 10.1564V11.5399C15.4265 11.6411 15.3671 11.7086 15.2781 11.7086H14.0618C14.0025 11.7086 13.9431 11.6411 13.9431 11.5399V10.1564C13.9431 10.089 14.0025 10.0215 14.0618 10.0215ZM14.0618 6.95092H15.2781C15.3671 6.95092 15.4265 7.0184 15.4265 7.08589V8.46933C15.4265 8.57055 15.3671 8.63804 15.2781 8.63804H14.0618C14.0025 8.63804 13.9431 8.57055 13.9431 8.46933V7.08589C13.9431 7.0184 14.0025 6.95092 14.0618 6.95092ZM11.3918 16.1288H12.6082C12.6675 16.1288 12.7268 16.2301 12.7268 16.2975V17.681C12.7268 17.7485 12.6675 17.816 12.6082 17.816H11.3918C11.3028 17.816 11.2435 17.7485 11.2435 17.681V16.2975C11.2435 16.2301 11.3028 16.1288 11.3918 16.1288ZM11.3918 13.092H12.6082C12.6675 13.092 12.7268 13.1595 12.7268 13.227V14.6104C12.7268 14.7117 12.6675 14.7791 12.6082 14.7791H11.3918C11.3028 14.7791 11.2435 14.7117 11.2435 14.6104V13.227C11.2435 13.1595 11.3028 13.092 11.3918 13.092ZM11.3918 10.0215H12.6082C12.6675 10.0215 12.7268 10.089 12.7268 10.1564V11.5399C12.7268 11.6411 12.6675 11.7086 12.6082 11.7086H11.3918C11.3028 11.7086 11.2435 11.6411 11.2435 11.5399V10.1564C11.2435 10.089 11.3028 10.0215 11.3918 10.0215ZM11.3918 6.95092H12.6082C12.6675 6.95092 12.7268 7.0184 12.7268 7.08589V8.46933C12.7268 8.57055 12.6675 8.63804 12.6082 8.63804H11.3918C11.3028 8.63804 11.2435 8.57055 11.2435 8.46933V7.08589C11.2435 7.0184 11.3028 6.95092 11.3918 6.95092ZM8.72188 16.1288H9.90853C9.99753 16.1288 10.0569 16.2301 10.0569 16.2975V17.681C10.0569 17.7485 9.99753 17.816 9.90853 17.816H8.72188C8.63288 17.816 8.57355 17.7485 8.57355 17.681V16.2975C8.57355 16.2301 8.63288 16.1288 8.72188 16.1288ZM8.72188 13.092H9.90853C9.99753 13.092 10.0569 13.1595 10.0569 13.227V14.6104C10.0569 14.7117 9.99753 14.7791 9.90853 14.7791H8.72188C8.63288 14.7791 8.57355 14.7117 8.57355 14.6104V13.227C8.57355 13.1595 8.63288 13.092 8.72188 13.092ZM8.72188 10.0215H9.90853C9.99753 10.0215 10.0569 10.089 10.0569 10.1564V11.5399C10.0569 11.6411 9.99753 11.7086 9.90853 11.7086H8.72188C8.63288 11.7086 8.57355 11.6411 8.57355 11.5399V10.1564C8.57355 10.089 8.63288 10.0215 8.72188 10.0215ZM8.72188 6.95092H9.90853C9.99753 6.95092 10.0569 7.0184 10.0569 7.08589V8.46933C10.0569 8.57055 9.99753 8.63804 9.90853 8.63804H8.72188C8.63288 8.63804 8.57355 8.57055 8.57355 8.46933V7.08589C8.57355 7.0184 8.63288 6.95092 8.72188 6.95092ZM14.0618 3.88037H15.2781C15.3671 3.88037 15.4265 3.94785 15.4265 4.04908V5.39877C15.4265 5.5 15.3671 5.56748 15.2781 5.56748H14.0618C14.0025 5.56748 13.9431 5.5 13.9431 5.39877V4.04908C13.9431 3.94785 14.0025 3.88037 14.0618 3.88037ZM11.3918 3.88037H12.6082C12.6675 3.88037 12.7268 3.94785 12.7268 4.04908V5.39877C12.7268 5.5 12.6675 5.56748 12.6082 5.56748H11.3918C11.3028 5.56748 11.2435 5.5 11.2435 5.39877V4.04908C11.2435 3.94785 11.3028 3.88037 11.3918 3.88037ZM8.72188 3.88037H9.90853C9.99753 3.88037 10.0569 3.94785 10.0569 4.04908V5.39877C10.0569 5.5 9.99753 5.56748 9.90853 5.56748H8.72188C8.63288 5.56748 8.57355 5.5 8.57355 5.39877V4.04908C8.57355 3.94785 8.63288 3.88037 8.72188 3.88037Z" fill="#056596"/>
</svg>
