<svg id="Layer_1" width="35" height="35" viewBox="0 0 14 20" xmlns="http://www.w3.org/2000/svg">
  <path fill-rule="evenodd" clip-rule="evenodd" d="M7.437 0.247244C7.56517 0.382132 7.67824 0.503995 7.77621 0.612834C10.5142 3.65458 13.3333 8.16537 13.3333 12.3063C13.1416 21.6647 0.388319 21.3629 0.00476338 12.407C-0.171366 6.95439 4.5861 5.23633 6.10647 0.549107C6.24174 0.132084 6.68946 -0.0963246 7.10648 0.0389436C7.23229 0.0797518 7.34591 0.151349 7.43702 0.247229L7.437 0.247244ZM11.0215 12.1136C11.0215 11.2247 12.2222 11.2247 12.2222 12.1136C12.2222 15.1136 10.0209 17.8914 7.31938 18.1136C6.51892 18.1136 6.41886 16.8914 7.21932 16.7803C9.32054 16.5581 11.0215 14.4469 11.0215 12.1136Z"/>
</svg>
