<svg id="Layer_1" width="35" height="35" viewBox="0 0 20 24" xmlns="http://www.w3.org/2000/svg">
  <path fill-rule="evenodd" clip-rule="evenodd" d="M0.000675155 16.5745C0.960316 11.2446 2.94494 10.7199 6.5892 7.26245C9.04556 4.93352 15.5864 7.03737 11.6807 12.9738C10.6338 14.5645 10.2463 17.7337 10.518 22.4814H10.518C10.5352 22.7832 10.3046 23.0418 10.0028 23.0591C9.92346 23.0636 9.84407 23.0509 9.77016 23.0216C7.77404 22.2318 6.7348 21.3993 6.65244 20.5241C6.55968 19.5384 6.87127 18.2219 7.58721 16.5745C6.90554 17.6557 6.47928 18.6773 6.30844 19.6393C6.05218 21.0823 3.38524 19.172 3.55225 18.3037C3.71742 17.4451 4.34142 16.1805 5.42426 14.51C4.29032 15.6246 3.58897 16.6311 3.32024 17.5295C2.91713 18.8771 -0.0513298 17.4117 0.000675155 16.5745ZM14.2964 7.07845L13.3816 7.88119C12.9379 6.69681 11.8021 5.99285 10.5716 5.79401L11.9178 4.61273C12.3309 4.25023 12.9488 4.25023 13.3619 4.61273L14.2964 5.43275C14.7508 5.83152 14.796 6.52319 14.3972 6.97764C14.3658 7.0134 14.3322 7.04707 14.2964 7.07845ZM19.3979 0.276042C19.7572 0.591393 19.7929 1.13837 19.4776 1.49776C19.4539 1.5248 19.4285 1.55034 19.4016 1.57422L15.2479 5.2611L13.7732 3.96712L17.9269 0.280232C18.346 -0.0918081 18.9766 -0.0936042 19.3979 0.276042Z"/>
</svg>
