<svg id="Layer_1"  width="35" height="35" viewBox="0 0 17 20" xmlns="http://www.w3.org/2000/svg">
  <path fill-rule="evenodd" clip-rule="evenodd" d="M9.54645 0.374852C9.36194 0.747059 9.05083 1.10154 8.52301 1.55777L8.31474 1.73385C8.13912 1.8794 7.45973 2.42198 7.31712 2.53878L7.06525 2.74954C4.84685 4.64751 3.93983 6.5898 4.577 9.64582L4.60433 9.77023L4.57933 9.74661C4.26711 9.43186 4.01023 9.06 3.80283 8.63775C3.55245 8.12796 3.3899 7.57508 3.30003 7.01972L3.25107 6.65362C3.23427 6.49128 3.22808 6.36206 3.22844 6.27521C3.23338 5.68124 2.51757 5.37797 2.09431 5.79472C1.80879 6.07585 1.41012 6.59923 1.01995 7.36757C0.381472 8.62487 0 10.1273 0 11.8684C0 16.3617 3.69514 20 8.2482 20C12.8013 20 16.4964 16.3617 16.4964 11.8684C16.4964 10.4574 16.2053 9.53548 15.5393 8.41038L15.1069 7.71456C14.4281 6.62291 14.2669 5.92878 14.584 4.55307C14.729 3.9238 13.9839 3.47668 13.4968 3.90066C12.8598 4.45514 12.3746 5.12647 12.0253 5.88541L11.8717 6.24483C11.777 6.48472 11.6972 6.72482 11.6309 6.96319L11.5855 7.14014L11.4376 6.80083C11.3313 6.54851 11.2284 6.28561 11.1311 6.01393C10.4506 4.11387 10.275 2.34967 10.7744 0.886145C11.0432 0.0985778 9.91605 -0.370728 9.54645 0.374852Z"/>
</svg>
