<svg width="20" height="20" viewBox="0 0 20 20" fill="none" xmlns="http://www.w3.org/2000/svg">
  <path fill-rule="evenodd" clip-rule="evenodd" d="M19.9936 7.63597L19.056 18.3725L19.0565 18.3725C18.9708 19.3532 18.1065 20.0788 17.1259 19.9931L17.1254 19.9931L6.58042 19.0684L6.58047 19.0679C5.60013 18.982 4.87495 18.1176 4.96059 17.1371L5.0297 16.34L13.6498 15.5845L13.6497 15.5837C15.2836 15.4405 16.4923 13.9999 16.3495 12.3657L15.7485 5.47459L18.3733 5.70463L18.3733 5.70512C19.3536 5.79104 20.0788 6.65541 19.9931 7.63592L19.9936 7.63597ZM14.101 1.62916L15.0283 12.3626C15.1129 13.3425 14.3879 14.2059 13.4082 14.2917L2.86521 15.2158C1.88467 15.3017 1.02014 14.5764 0.934213 13.5957L0.934026 13.5935L0.00672105 2.86008C-0.0779408 1.88013 0.647052 1.0168 1.62675 0.930938L12.1698 0.00691233C13.1503 -0.0790249 14.0149 0.646314 14.1008 1.627L14.101 1.62916ZM3.79696 5.52419C4.44995 5.46695 4.93299 4.89027 4.87587 4.23613C4.81874 3.58198 4.24307 3.09809 3.59008 3.15532C2.93709 3.21255 2.45404 3.78923 2.51117 4.44338C2.5683 5.09752 3.14397 5.58142 3.79696 5.52419ZM7.62835 8.78306C8.28134 8.72583 8.76438 8.14915 8.70725 7.495C8.65012 6.84086 8.07446 6.35696 7.42146 6.41419C6.76847 6.47143 6.28543 7.04811 6.34256 7.70225C6.39969 8.3564 6.97536 8.84029 7.62835 8.78306ZM11.4597 12.0419C12.1127 11.9847 12.5958 11.408 12.5386 10.7539C12.4815 10.0997 11.9058 9.61584 11.2528 9.67307C10.5999 9.7303 10.1168 10.307 10.1739 10.9611C10.2311 11.6153 10.8067 12.0992 11.4597 12.0419Z" fill="#056596"/>
</svg>
