<svg xmlns="http://www.w3.org/2000/svg" id="Layer_1" viewBox="2 2 20 20"><defs><style>.cls-1{}</style></defs><defs><style>.cls-1{}</style></defs><title></title><path class="cls-1" d="M6.78,3.38A2,2,0,0,0,5.39,4,1.73,1.73,0,0,0,4.9,5.07V19a1.69,1.69,0,0,0,1.74,1.62H19.1V3.38Zm10,2.22h1.33v.31H13l.62-1.12H9L8.16,5.91H6.85a.91.91,0,0,1-.94-.71.7.7,0,0,1,.22-.59.9.9,0,0,1,.65-.27H18.09v.31H16.76a.48.48,0,1,0,0,.95Zm-5.09.76,0,6.21-1.34-2L9,12.57V6.5l.41-.76H12Zm-4.23.51H8v6.87a.62.62,0,0,0,.49.6l.18,0H8.7l.13,0,.06,0L9,14.24l0,0a.45.45,0,0,0,.13-.15l1.13-1.71,1.13,1.72a.68.68,0,0,0,.67.28h.06a.64.64,0,0,0,.49-.6V6.87h5.43V19.66H7.44Zm4.66,7.28ZM6.43,6.85V19.63A.67.67,0,0,1,5.91,19V6.72A1.53,1.53,0,0,0,6.43,6.85Z"/></svg>
