<svg id="Layer_1" width="35" height="35" viewBox="0 0 23 18" xmlns="http://www.w3.org/2000/svg">
  <path fill-rule="evenodd" clip-rule="evenodd" d="M11.2898 12.783C11.9098 12.783 12.4392 13.005 12.878 13.449C13.3167 13.8931 13.536 14.4289 13.536 15.0565C13.536 15.6841 13.3167 16.2199 12.878 16.6639C12.4392 17.108 11.9098 17.33 11.2898 17.33C10.6697 17.33 10.1403 17.108 9.70159 16.6639C9.26287 16.2199 9.04351 15.6841 9.04351 15.0565C9.04351 14.4289 9.26287 13.8931 9.70159 13.449C10.1403 13.005 10.6697 12.783 11.2898 12.783ZM11.3073 6.6008C12.45 6.6008 13.557 6.81765 14.6283 7.25136C15.7174 7.70314 16.6905 8.34467 17.5475 9.17594C17.7082 9.32051 17.8242 9.49219 17.8956 9.69097C17.9849 9.90783 18.0296 10.1156 18.0296 10.3144C18.0117 10.5494 17.9581 10.7572 17.8689 10.9379C17.7796 11.1367 17.6457 11.3083 17.4671 11.4529L16.3155 12.4288C16.0298 12.6818 15.6995 12.7992 15.3246 12.7812C14.9496 12.7812 14.6193 12.6456 14.3337 12.3745C13.4766 11.5794 12.4679 11.1818 11.3073 11.1818C10.1289 11.1818 9.11119 11.5794 8.25417 12.3745C7.9685 12.6275 7.64712 12.7631 7.29002 12.7812C6.91508 12.7992 6.57584 12.6818 6.27231 12.4288L5.12069 11.4529C4.96 11.3083 4.83502 11.1367 4.74575 10.9379C4.63862 10.7572 4.58506 10.5494 4.58506 10.3144C4.5672 10.1156 4.60291 9.90783 4.69218 9.69097C4.7636 9.49219 4.87966 9.32051 5.04035 9.17594C5.89737 8.34467 6.87937 7.70314 7.98635 7.25136C9.03977 6.81765 10.1468 6.6008 11.3073 6.6008ZM11.3073 0C13.3606 0 15.3335 0.415638 17.2261 1.24691C19.1187 2.07819 20.7702 3.24378 22.1807 4.74369C22.3236 4.90633 22.4307 5.08705 22.5021 5.28583C22.5735 5.48461 22.6093 5.68339 22.6093 5.88218C22.5914 6.09903 22.5378 6.29782 22.4486 6.47853C22.3593 6.67731 22.2343 6.83995 22.0736 6.96645L20.922 7.9423C20.6185 8.19529 20.2703 8.31276 19.8775 8.29468C19.4847 8.27661 19.1544 8.12301 18.8866 7.83387C17.9046 6.78574 16.753 5.97253 15.4317 5.39426C14.1105 4.83405 12.7357 4.55394 11.3073 4.55394C9.86108 4.55394 8.47735 4.83405 7.15612 5.39426C5.85273 5.97253 4.71004 6.78574 3.72804 7.83387C3.44236 8.12301 3.10313 8.27661 2.71033 8.29468C2.31752 8.31276 1.96936 8.19529 1.66583 7.9423C0.898085 7.27366 0.478503 6.91224 0.407085 6.85802C0.157121 6.56888 0.0232109 6.25264 0.00535636 5.90929C-0.0124982 5.69243 0.0142838 5.48461 0.0857021 5.28583C0.15712 5.08705 0.264248 4.90633 0.407085 4.74369C1.8176 3.24378 3.46914 2.07819 5.36173 1.24691C7.25432 0.415638 9.23617 0 11.3073 0Z"/>
</svg>
