<svg width="20" height="20" viewBox="0 0 20 20" fill="none" xmlns="http://www.w3.org/2000/svg">
  <path fill-rule="evenodd" clip-rule="evenodd" d="M9.99 0C15.52 0 20 4.48 20 10C20 15.52 15.52 20 9.99 20C4.47 20 0 15.52 0 10C0 4.48 4.47 0 9.99 0ZM10.7021 5.33594H6.6083V16H8.38174V12.2188H10.6864C11.4208 12.2188 12.0497 12.0703 12.5731 11.7734C13.0966 11.4766 13.5002 11.069 13.7841 10.5508C14.0679 10.0326 14.2099 9.44271 14.2099 8.78125C14.2099 8.11979 14.0692 7.52995 13.788 7.01172C13.5067 6.49349 13.1044 6.08464 12.581 5.78516C12.0575 5.48568 11.4312 5.33594 10.7021 5.33594ZM10.4364 6.80469C11.0562 6.80469 11.538 6.97656 11.8817 7.32031C12.2255 7.66406 12.3974 8.15104 12.3974 8.78125C12.3974 9.20312 12.3192 9.5612 12.163 9.85547C12.0067 10.1497 11.7828 10.375 11.4911 10.5312C11.1994 10.6875 10.8479 10.7656 10.4364 10.7656H8.37393V6.80469H10.4364Z" fill="#056596"/>
</svg>
