<svg width="12" height="18" viewBox="0 0 12 18" fill="none" xmlns="http://www.w3.org/2000/svg">
  <path fill-rule="evenodd" clip-rule="evenodd" d="M6.6933 0.222519C6.80865 0.343919 6.91042 0.453596 6.99859 0.551551C9.46278 3.28912 12 7.34883 12 11.0757C11.8274 19.4983 0.349487 19.2266 0.00428705 11.1663C-0.154229 6.25895 4.12749 4.71269 5.49582 0.494197C5.61756 0.118875 6.02051 -0.0866921 6.39583 0.0350492C6.50906 0.0717767 6.61132 0.136214 6.69331 0.222506L6.6933 0.222519ZM9.91937 10.9022C9.91937 10.1022 11 10.1022 11 10.9022C11 13.6022 9.01885 16.1022 6.58744 16.3022C5.86703 16.3022 5.77697 15.2022 6.49739 15.1022C8.38849 14.9022 9.91937 13.0022 9.91937 10.9022Z" fill="#056596"/>
</svg>
