<svg width="12" height="9" viewBox="0 0 12 9" fill="none" xmlns="http://www.w3.org/2000/svg">
<path fill-rule="evenodd" clip-rule="evenodd" d="M11.0184 1.27713L11.0393 1.29798C11.4395 1.71016 11.4395 2.36583 11.0393 2.77801L5.29104 8.69811C5.1132 8.88126 4.88238 8.98188 4.64635 8.99924L4.52812 9.00098C4.29168 8.99058 4.05799 8.8968 3.87483 8.71897C3.86778 8.71212 3.86083 8.70516 3.85398 8.69811L0.979847 5.73806C0.579634 5.32588 0.579634 4.67021 0.979847 4.25803C1.36516 3.8612 1.99922 3.85186 2.39606 4.23718C2.40311 4.24403 2.41006 4.25098 2.41691 4.25803L4.57169 6.47714L9.60224 1.29798C9.98756 0.90115 10.6216 0.891812 11.0184 1.27713Z" fill="#E9A33F"/>
</svg>
