<svg id="Layer_1" width="23" height="14" viewBox="0 0 23 14" fill="none" xmlns="http://www.w3.org/2000/svg">
  <path fill-rule="evenodd" clip-rule="evenodd" d="M15.9021 11.6667C14.948 11.6667 14.0594 11.3773 13.3158 10.8873C14.0641 9.77667 14.499 8.43733 14.499 7C14.499 5.56267 14.0641 4.228 13.3158 3.11267C14.0594 2.62267 14.948 2.33333 15.9021 2.33333C18.479 2.33333 20.5789 4.42867 20.5789 7C20.5789 9.57133 18.479 11.6667 15.9021 11.6667ZM15.8125 0C14.1929 0 12.7027 0.527334 11.5 1.40933C10.2973 0.527334 8.80708 0 7.1875 0C3.22 0 0 3.136 0 7C0 10.8687 3.22 14 7.1875 14C8.80708 14 10.2973 13.4727 11.5 12.5907C12.7027 13.4727 14.1929 14 15.8125 14C19.7848 14 23 10.8687 23 7C23 3.136 19.7848 0 15.8125 0Z" fill="#1A1D1F" fill-opacity="0.4"/>
</svg>
