<svg width="30" height="30" viewBox="0 0 30 30" fill="none" xmlns="http://www.w3.org/2000/svg">
<path fill-rule="evenodd" clip-rule="evenodd" d="M14.985 0C23.28 0 30 6.72 30 15C30 23.28 23.28 30 14.985 30C6.705 30 0 23.28 0 15C0 6.72 6.705 0 14.985 0ZM14.67 7.5H14.58C13.98 7.5 13.5 7.98 13.5 8.58V15.66C13.5 16.185 13.77 16.68 14.235 16.95L20.46 20.685C20.97 20.985 21.63 20.835 21.93 20.325C22.245 19.815 22.08 19.14 21.555 18.84L15.75 15.39V8.58C15.75 7.98 15.27 7.5 14.67 7.5Z" fill="#2A6492"/>
</svg>
