<svg width="18" height="18" viewBox="0 0 18 18" fill="none" xmlns="http://www.w3.org/2000/svg">
<path fill-rule="evenodd" clip-rule="evenodd" d="M8.99175 0.75C13.554 0.75 17.25 4.446 17.25 9C17.25 13.554 13.554 17.25 8.99175 17.25C4.43775 17.25 0.75 13.554 0.75 9C0.75 4.446 4.43775 0.75 8.99175 0.75ZM8.8185 4.875H8.769C8.439 4.875 8.175 5.139 8.175 5.469V9.363C8.175 9.65175 8.3235 9.924 8.57925 10.0725L12.003 12.1268C12.2835 12.2918 12.6465 12.2092 12.8115 11.9288C12.9848 11.6482 12.894 11.277 12.6053 11.112L9.4125 9.2145V5.469C9.4125 5.139 9.1485 4.875 8.8185 4.875Z" fill="#EA4C38"/>
</svg>
