<svg id="Layer_1" width="14" height="14" viewBox="0 0 14 14" fill="none" xmlns="http://www.w3.org/2000/svg">
<path fill-rule="evenodd" clip-rule="evenodd" d="M0.366117 0.366117C0.854272 -0.122039 1.64573 -0.122039 2.13388 0.366117L6.553 4.785L10.9727 0.366117C11.4283 -0.0894952 12.1481 -0.119869 12.639 0.274994L12.7405 0.366117C13.2286 0.854272 13.2286 1.64573 12.7405 2.13388L8.32 6.553L12.7405 10.9727C13.1961 11.4283 13.2265 12.1481 12.8316 12.639L12.7405 12.7405C12.2523 13.2286 11.4609 13.2286 10.9727 12.7405L6.553 8.32L2.13388 12.7405C1.67827 13.1961 0.958451 13.2265 0.467612 12.8316L0.366117 12.7405C-0.122039 12.2523 -0.122039 11.4609 0.366117 10.9727L4.785 6.553L0.366117 2.13388C-0.0894952 1.67827 -0.119869 0.958451 0.274994 0.467612L0.366117 0.366117Z" fill="white"/>
</svg>
