<svg width="10" height="10" viewBox="0 0 10 10" fill="none" xmlns="http://www.w3.org/2000/svg">
<path fill-rule="evenodd" clip-rule="evenodd" d="M0.703971 0.70275C1.0368 0.369917 1.57643 0.369917 1.90927 0.70275L4.9223 3.71562L7.93575 0.70275C8.24639 0.392106 8.73718 0.371396 9.07184 0.640621L9.14104 0.70275C9.47387 1.03558 9.47387 1.57521 9.14104 1.90805L6.12707 4.92108L9.14104 7.93452C9.45168 8.24517 9.47239 8.73595 9.20317 9.07062L9.14104 9.13982C8.80821 9.47265 8.26858 9.47265 7.93575 9.13982L4.9223 6.12585L1.90927 9.13982C1.59862 9.45046 1.10784 9.47117 0.773172 9.20195L0.703971 9.13982C0.371137 8.80699 0.371137 8.26736 0.703971 7.93452L3.71685 4.92108L0.703971 1.90805C0.393326 1.5974 0.372617 1.10661 0.641842 0.771951L0.703971 0.70275Z" fill="#AFB0B1"/>
</svg>
