<svg width="22" height="22" viewBox="0 0 22 22" fill="none" xmlns="http://www.w3.org/2000/svg">
<path fill-rule="evenodd" clip-rule="evenodd" d="M13.7502 0.916992H3.66683C2.6585 0.916992 1.8335 1.74199 1.8335 2.75033V14.667C1.8335 15.1712 2.246 15.5837 2.75016 15.5837C3.25433 15.5837 3.66683 15.1712 3.66683 14.667V3.66699C3.66683 3.16283 4.07933 2.75033 4.5835 2.75033H13.7502C14.2543 2.75033 14.6668 2.33783 14.6668 1.83366C14.6668 1.32949 14.2543 0.916992 13.7502 0.916992ZM14.291 5.12449L18.7185 9.55199C19.0577 9.89116 19.2502 10.3587 19.2502 10.8445V19.2503C19.2502 20.2587 18.4252 21.0837 17.4168 21.0837H7.32433C6.316 21.0837 5.50016 20.2587 5.50016 19.2503L5.50933 6.41699C5.50933 5.40866 6.32516 4.58366 7.3335 4.58366H12.9893C13.4752 4.58366 13.9427 4.77616 14.291 5.12449ZM13.7502 11.0003H17.8752L12.8335 5.95866V10.0837C12.8335 10.5878 13.246 11.0003 13.7502 11.0003Z" fill="#1A1D1F"/>
</svg>
