<svg  id="Layer_1" width="19" height="22" viewBox="0 0 19 22" xmlns="http://www.w3.org/2000/svg">
  <path fill-rule="evenodd" clip-rule="evenodd" d="M12.7502 0.916016H2.66683C1.6585 0.916016 0.833496 1.74102 0.833496 2.74935V14.666C0.833496 15.1702 1.246 15.5827 1.75016 15.5827C2.25433 15.5827 2.66683 15.1702 2.66683 14.666V3.66602C2.66683 3.16185 3.07933 2.74935 3.5835 2.74935H12.7502C13.2543 2.74935 13.6668 2.33685 13.6668 1.83268C13.6668 1.32852 13.2543 0.916016 12.7502 0.916016ZM13.291 5.12352L17.7185 9.55101C18.0577 9.89018 18.2502 10.3577 18.2502 10.8435V19.2493C18.2502 20.2577 17.4252 21.0827 16.4168 21.0827H6.32433C5.316 21.0827 4.50016 20.2577 4.50016 19.2493L4.50933 6.41602C4.50933 5.40768 5.32516 4.58268 6.3335 4.58268H11.9893C12.4752 4.58268 12.9427 4.77518 13.291 5.12352ZM12.7502 10.9993H16.8752L11.8335 5.95768V10.0827C11.8335 10.5868 12.246 10.9993 12.7502 10.9993Z"/>
</svg>
