<svg  id="Layer_1" width="10" height="13" viewBox="0 0 10 13" fill="none" xmlns="http://www.w3.org/2000/svg">
  <path fill-rule="evenodd" clip-rule="evenodd" d="M0.694445 11.4451C0.694445 12.209 1.31944 12.834 2.08333 12.834H7.63889C8.40278 12.834 9.02778 12.209 9.02778 11.4451V4.50065C9.02778 3.73676 8.40278 3.11176 7.63889 3.11176H2.08333C1.31944 3.11176 0.694445 3.73676 0.694445 4.50065V11.4451ZM9.02778 1.02843H7.29167L6.79861 0.535373C6.67361 0.410373 6.49306 0.333984 6.3125 0.333984H3.40972C3.22917 0.333984 3.04861 0.410373 2.92361 0.535373L2.43056 1.02843H0.694445C0.3125 1.02843 0 1.34093 0 1.72287C0 2.10482 0.3125 2.41732 0.694445 2.41732H9.02778C9.40972 2.41732 9.72222 2.10482 9.72222 1.72287C9.72222 1.34093 9.40972 1.02843 9.02778 1.02843Z" fill="#1A1D1F"/>
</svg>
