<svg width="19" height="18" viewBox="0 0 19 18" fill="none" xmlns="http://www.w3.org/2000/svg">
  <path fill-rule="evenodd" clip-rule="evenodd" d="M8.48537 3.27433L8.48571 3.29486C8.47346 3.4344 8.46721 3.57566 8.46721 3.71838C8.46721 6.35873 10.6076 8.49916 13.248 8.49916C14.9194 8.49916 16.3904 7.64146 17.245 6.3422C17.8653 7.09771 18.1883 7.88651 18.3755 8.89199L18.4202 9.15177L18.4681 9.50084L18.4841 10.7757L18.4361 11.0793C18.2285 12.3541 17.5894 13.5531 16.6149 14.5396C16.6042 14.5599 16.5936 14.5666 16.5877 14.5734L16.5829 14.5852L15.5445 18H12.0298L11.7423 16.9224L8.27549 16.9073L7.97195 18H4.47324L3.72237 15.511C3.72237 15.4806 3.67445 15.4503 3.65847 15.4351C2.49223 14.9342 1.4538 14.3575 0.559155 13.7049C0.246738 13.4755 0.0479275 13.1383 0.00760436 12.7677L0 12.6273V8.36256L1.23014 8.34739L2.60406 6.58685L2.58809 6.54132L2.3804 6.13153L2.16473 5.73693L1.94905 5.34233L1.90113 5.28162C1.8532 5.20573 1.80527 5.09949 1.75734 4.99325C1.69344 4.84148 1.58161 4.58347 1.70942 4.27993C1.80527 4.05878 1.98329 3.88223 2.20322 3.77896L2.3165 3.73356L2.41235 3.68803H2.57211C2.62537 3.67791 2.66442 3.67454 2.70347 3.67341L2.76382 3.67285H3.05139C3.61054 3.67285 4.13775 3.76391 4.60105 3.91568C4.60105 3.93086 4.92056 4.0371 5.1602 4.15852C5.1602 4.15852 5.31996 4.2344 5.4957 4.34064C6.4223 3.76391 6.93352 3.47466 7.97195 3.27735C8.08351 3.25616 8.25923 3.25617 8.48537 3.27433ZM5.17618 8.78752C4.71288 8.78752 4.32946 9.15177 4.32946 9.59191C4.32946 10.032 4.71288 10.3963 5.17618 10.3963C5.63948 10.3963 6.0229 10.032 6.0229 9.59191C6.0229 9.15177 5.63948 8.78752 5.17618 8.78752ZM13.065 0.00379584C15.2465 -0.0917012 16.9822 1.62725 16.9663 3.7441C16.9344 5.8132 15.3261 7.42073 13.272 7.43665C11.1702 7.45257 9.4982 5.78137 9.53005 3.66452C9.56189 1.64316 11.1702 0.0833767 13.065 0.00379584ZM13.7046 1.06239H12.8845V1.71145C12.6795 1.74561 12.5118 1.79685 12.3813 1.86517C12.2508 1.93349 12.139 2.01889 12.0458 2.12137C11.9712 2.20677 11.8967 2.32634 11.8594 2.4459C11.8221 2.56546 11.8035 2.68502 11.8035 2.82167C11.8035 2.99247 11.8221 3.14619 11.8967 3.26575C11.9526 3.38532 12.0458 3.4878 12.1576 3.5732C12.2695 3.6586 12.3999 3.72692 12.5304 3.77816C12.6795 3.8294 12.81 3.88064 12.9591 3.93188C13.1082 3.98313 13.2387 4.03437 13.3505 4.06853C13.4623 4.11977 13.5555 4.15393 13.6301 4.20517C13.7046 4.25641 13.7605 4.30765 13.7978 4.35889C13.8351 4.42721 13.8537 4.47845 13.8351 4.56386C13.8351 4.68342 13.7792 4.76882 13.686 4.83714C13.5928 4.90546 13.4064 4.93962 13.1455 4.93962C12.9032 4.93962 12.6795 4.90546 12.4745 4.85422C12.2695 4.80298 12.0831 4.73466 11.934 4.66634L11.6544 5.34955C11.7476 5.40079 11.8967 5.45203 12.1017 5.52035C12.3067 5.58867 12.5677 5.63991 12.8845 5.657V6.37437H13.7046V5.63991C13.9283 5.60575 14.096 5.55451 14.2451 5.48619C14.3942 5.41787 14.5061 5.33247 14.5993 5.22999C14.6925 5.12751 14.7484 5.02502 14.7857 4.90546C14.8229 4.7859 14.8416 4.66634 14.8416 4.54678C14.8416 4.37597 14.8229 4.22225 14.7484 4.08561C14.6738 3.94897 14.5806 3.84648 14.4688 3.744C14.3383 3.6586 14.2079 3.55612 14.0401 3.4878C13.8724 3.41948 13.686 3.35115 13.4996 3.28283C13.3878 3.23159 13.2759 3.19743 13.1827 3.16327C13.0896 3.12911 13.015 3.09495 12.9591 3.06079C12.9032 3.02663 12.8659 2.99247 12.8286 2.94123C12.81 2.88999 12.7913 2.83875 12.7913 2.77042C12.7913 2.66794 12.8286 2.58254 12.9218 2.51422C13.015 2.4459 13.1641 2.41174 13.3691 2.41174C13.5742 2.41174 13.7792 2.4459 13.9656 2.48006C14.1519 2.51422 14.3197 2.56546 14.4688 2.6167L14.6738 1.89933C14.5806 1.86517 14.4502 1.81393 14.2824 1.77977C14.1333 1.74561 13.9283 1.71145 13.7046 1.69437V1.06239Z" fill="#EA4C38"/>
</svg>
