<svg width="20" height="20" viewBox="0 0 20 20" fill="none" xmlns="http://www.w3.org/2000/svg">
  <path fill-rule="evenodd" clip-rule="evenodd" d="M14 0H6C2.68629 0 0 2.68629 0 6V14C0 17.3137 2.68629 20 6 20H14C17.3137 20 20 17.3137 20 14V6C20 2.68629 17.3137 0 14 0ZM10.8207 14.4499C10.8207 14.87 10.4532 15.2105 10 15.2105C9.54676 15.2105 9.17933 14.87 9.17933 14.4499V14.1456C7.96321 13.8095 7.12915 12.7736 7.12766 11.5974C7.12766 11.1773 7.49509 10.8367 7.94833 10.8367C8.40157 10.8367 8.769 11.1773 8.769 11.5974C8.769 12.2275 9.32014 12.7384 10 12.7384C10.6155 12.7384 11.231 12.4341 11.231 11.7495C11.231 11.0649 11.231 11.0269 9.83587 10.7607C7.45593 10.2662 7.12766 8.97311 7.12766 8.25048C7.13232 7.10841 7.98041 6.11795 9.17933 5.8544V5.55013C9.17933 5.27838 9.33575 5.02726 9.58967 4.89138C9.84358 4.7555 10.1564 4.7555 10.4103 4.89138C10.6643 5.02726 10.8207 5.27838 10.8207 5.55013V5.8544C11.8762 6.14805 12.6574 6.97557 12.8313 7.98425C12.9305 8.26645 12.8435 8.57636 12.6086 8.77801C12.3736 8.97967 12.0336 9.03624 11.7376 8.92291C11.4417 8.80958 11.2439 8.54704 11.231 8.25048C11.1299 7.6955 10.6072 7.29179 10 7.29965C9.3845 7.29965 8.769 7.60392 8.769 8.28851C8.769 8.97311 8.769 8.97311 10.1641 9.27737C12.503 9.7718 12.8723 11.0269 12.8723 11.7495C12.8677 12.8916 12.0196 13.8821 10.8207 14.1456V14.4499Z" fill="#EA4C38"/>
</svg>
