<svg id="Layer_1" width="22" height="6" viewBox="0 0 22 6" fill="none" xmlns="http://www.w3.org/2000/svg">
<path fill-rule="evenodd" clip-rule="evenodd" d="M3 0C4.65685 0 6 1.34315 6 3C6 4.65685 4.65685 6 3 6C1.34315 6 0 4.65685 0 3C0 1.34315 1.34315 0 3 0ZM11 0C12.6569 0 14 1.34315 14 3C14 4.65685 12.6569 6 11 6C9.34315 6 8 4.65685 8 3C8 1.34315 9.34315 0 11 0ZM19 0C20.6569 0 22 1.34315 22 3C22 4.65685 20.6569 6 19 6C17.3431 6 16 4.65685 16 3C16 1.34315 17.3431 0 19 0Z" fill="#1A1D1F"/>
</svg>
