<svg width="14" height="14" viewBox="0 0 14 14" fill="none" xmlns="http://www.w3.org/2000/svg">
<path d="M12.8763 7.76562C12.2561 7.76562 11.7533 8.26823 11.7533 8.88818V11.7548H2.24586V8.88818C2.24586 8.26823 1.74309 7.76562 1.12293 7.76562C0.502774 7.76562 0 8.26823 0 8.88818V12.8773C0 13.4973 0.502774 13.9999 1.12293 13.9999H12.8763C13.4964 13.9999 13.9992 13.4973 13.9992 12.8773V8.88818C13.9992 8.26819 13.4964 7.76562 12.8763 7.76562Z" fill="#EA4C38"/>
<path d="M9.3768 4.05192L8.12331 5.30499V1.12255C8.12331 0.502603 7.62054 0 7.00038 0C6.38022 0 5.87745 0.502603 5.87745 1.12255V5.30499L4.62396 4.05192C4.40473 3.83276 4.11733 3.72312 3.82993 3.72312C3.54254 3.72312 3.25518 3.83276 3.03591 4.05192C2.59741 4.49035 2.59741 5.20107 3.03591 5.63943L6.20636 8.8088C6.64486 9.24723 7.3559 9.24723 7.7944 8.8088L10.9649 5.63943C11.4034 5.20107 11.4034 4.49035 10.9649 4.05192C10.5263 3.61349 9.81531 3.61349 9.3768 4.05192Z" fill="#EA4C38"/>
</svg>
