<svg width="12" height="14" viewBox="0 0 12 14" fill="none" xmlns="http://www.w3.org/2000/svg">
<mask id="path-1-inside-1" fill="white">
<path d="M10.7457 3.6354C9.9778 2.82202 8.99464 2.37399 7.97726 2.37399C6.3098 2.37399 4.86601 3.55315 4.18652 5.25766H8.81819C9.21981 5.25766 9.54544 5.58557 9.54544 5.99001C9.54544 6.39445 9.21981 6.72235 8.81819 6.72235H3.81694C3.78834 6.96178 3.77272 7.20601 3.77272 7.45473C3.77272 7.73526 3.79234 8.01026 3.82892 8.27864H8.81819C9.21981 8.27864 9.54544 8.60654 9.54544 9.01098C9.54544 9.41542 9.21981 9.74336 8.81819 9.74336H4.22521C4.91927 11.398 6.33999 12.5355 7.97726 12.5355C8.99464 12.5355 9.9778 12.0874 10.7457 11.2741C11.0222 10.9811 11.4822 10.9691 11.7738 11.2477C12.0649 11.5265 12.0765 11.99 11.8001 12.2831C10.755 13.3903 9.39738 14 7.97744 14C5.55289 14 3.48038 12.2268 2.67613 9.74314H0.727256C0.325628 9.74314 0 9.41524 0 9.0108C0 8.60636 0.325628 8.27846 0.727256 8.27846H2.3645C2.33503 8.00821 2.31818 7.73375 2.31818 7.45455C2.31818 7.20674 2.33104 6.96284 2.35456 6.72217H0.727256C0.325628 6.72217 0 6.39426 0 5.98983C0 5.58539 0.325628 5.25748 0.727256 5.25748H2.64726C3.42958 2.72586 5.52303 0.909091 7.97726 0.909091C9.39735 0.909091 10.7546 1.51895 11.7997 2.62591C12.0763 2.91912 12.0649 3.38261 11.7736 3.66133C11.4826 3.94008 11.0222 3.92843 10.7457 3.6354Z"/>
</mask>
<path d="M10.7457 3.6354C9.9778 2.82202 8.99464 2.37399 7.97726 2.37399C6.3098 2.37399 4.86601 3.55315 4.18652 5.25766H8.81819C9.21981 5.25766 9.54544 5.58557 9.54544 5.99001C9.54544 6.39445 9.21981 6.72235 8.81819 6.72235H3.81694C3.78834 6.96178 3.77272 7.20601 3.77272 7.45473C3.77272 7.73526 3.79234 8.01026 3.82892 8.27864H8.81819C9.21981 8.27864 9.54544 8.60654 9.54544 9.01098C9.54544 9.41542 9.21981 9.74336 8.81819 9.74336H4.22521C4.91927 11.398 6.33999 12.5355 7.97726 12.5355C8.99464 12.5355 9.9778 12.0874 10.7457 11.2741C11.0222 10.9811 11.4822 10.9691 11.7738 11.2477C12.0649 11.5265 12.0765 11.99 11.8001 12.2831C10.755 13.3903 9.39738 14 7.97744 14C5.55289 14 3.48038 12.2268 2.67613 9.74314H0.727256C0.325628 9.74314 0 9.41524 0 9.0108C0 8.60636 0.325628 8.27846 0.727256 8.27846H2.3645C2.33503 8.00821 2.31818 7.73375 2.31818 7.45455C2.31818 7.20674 2.33104 6.96284 2.35456 6.72217H0.727256C0.325628 6.72217 0 6.39426 0 5.98983C0 5.58539 0.325628 5.25748 0.727256 5.25748H2.64726C3.42958 2.72586 5.52303 0.909091 7.97726 0.909091C9.39735 0.909091 10.7546 1.51895 11.7997 2.62591C12.0763 2.91912 12.0649 3.38261 11.7736 3.66133C11.4826 3.94008 11.0222 3.92843 10.7457 3.6354Z" fill="#056596"/>
<path d="M10.7457 3.6354L13.6543 0.889467L13.6552 0.890461L10.7457 3.6354ZM4.18652 5.25766V9.25766H-1.71419L0.470875 3.77644L4.18652 5.25766ZM3.81694 6.72235L-0.15483 6.24795L0.266276 2.72235H3.81694V6.72235ZM3.82892 8.27864V12.2786H0.337251L-0.134413 8.81897L3.82892 8.27864ZM4.22521 9.74336L0.536588 11.2906L-1.79036 5.74336H4.22521V9.74336ZM10.7457 11.2741L13.6549 14.0194L13.6541 14.0202L10.7457 11.2741ZM11.7738 11.2477L14.5373 8.35589L14.5399 8.35834L11.7738 11.2477ZM11.8001 12.2831L14.7101 15.0275L14.7088 15.0289L11.8001 12.2831ZM2.67613 9.74314V5.74314H5.58534L6.48158 8.51086L2.67613 9.74314ZM2.3645 8.27846L6.34093 7.84486L6.82438 12.2785H2.3645V8.27846ZM2.35456 6.72217V2.72217H6.76454L6.33559 7.11125L2.35456 6.72217ZM2.64726 5.25748L6.46895 6.43845L5.59782 9.25748H2.64726V5.25748ZM11.7997 2.62591L14.7082 -0.120091L14.7093 -0.118921L11.7997 2.62591ZM11.7736 3.66133L9.00658 0.772792L9.00852 0.770932L11.7736 3.66133ZM7.83712 6.38134C7.78663 6.32785 7.76718 6.32627 7.79648 6.33962C7.81068 6.34609 7.83427 6.35502 7.86679 6.36222C7.89955 6.36947 7.93707 6.37399 7.97726 6.37399V-1.62601C10.2115 -1.62601 12.2143 -0.635849 13.6543 0.889467L7.83712 6.38134ZM7.97726 6.37399C8.03724 6.37399 8.09277 6.36254 8.1338 6.34774C8.17227 6.33387 8.18077 6.32349 8.16397 6.33652C8.1243 6.36731 8.00324 6.48532 7.90216 6.73888L0.470875 3.77644C1.59608 0.953867 4.27807 -1.62601 7.97726 -1.62601V6.37399ZM4.18652 1.25766H8.81819V9.25766H4.18652V1.25766ZM8.81819 1.25766C11.4552 1.25766 13.5454 3.40277 13.5454 5.99001H5.54544C5.54544 7.76837 6.98443 9.25766 8.81819 9.25766V1.25766ZM13.5454 5.99001C13.5454 8.57725 11.4552 10.7224 8.81819 10.7224V2.72235C6.98443 2.72235 5.54544 4.21164 5.54544 5.99001H13.5454ZM8.81819 10.7224H3.81694V2.72235H8.81819V10.7224ZM7.78871 7.19675C7.77779 7.28819 7.77272 7.37381 7.77272 7.45473H-0.227279C-0.227279 7.03822 -0.201103 6.63536 -0.15483 6.24795L7.78871 7.19675ZM7.77272 7.45473C7.77272 7.5485 7.77926 7.64293 7.79226 7.73831L-0.134413 8.81897C-0.194586 8.37759 -0.227279 7.92202 -0.227279 7.45473H7.77272ZM3.82892 4.27864H8.81819V12.2786H3.82892V4.27864ZM8.81819 4.27864C11.4552 4.27864 13.5454 6.42374 13.5454 9.01098H5.54544C5.54544 10.7893 6.98443 12.2786 8.81819 12.2786V4.27864ZM13.5454 9.01098C13.5454 11.598 11.4554 13.7434 8.81819 13.7434V5.74336C6.98422 5.74336 5.54544 7.23283 5.54544 9.01098H13.5454ZM8.81819 13.7434H4.22521V5.74336H8.81819V13.7434ZM7.91383 8.19607C8.0155 8.43847 8.13212 8.54808 8.1672 8.57473C8.18181 8.58583 8.17167 8.57496 8.13271 8.56117C8.09132 8.54651 8.03628 8.53546 7.97726 8.53546V16.5355C4.34537 16.5355 1.69096 14.0426 0.536588 11.2906L7.91383 8.19607ZM7.97726 8.53546C7.93705 8.53546 7.89952 8.53999 7.86677 8.54723C7.83425 8.55443 7.81068 8.56336 7.7965 8.56982C7.76725 8.58314 7.78675 8.58153 7.83727 8.52801L13.6541 14.0202C12.2142 15.5452 10.2115 16.5355 7.97726 16.5355V8.53546ZM7.83647 8.52887C9.63599 6.62185 12.6417 6.54431 14.5373 8.35589L9.01021 14.1396C10.3228 15.3939 12.4083 15.3404 13.6549 14.0194L7.83647 8.52887ZM14.5399 8.35834C16.4201 10.1584 16.4925 13.1375 14.7101 15.0275L8.88997 9.53882C7.66045 10.8426 7.70977 12.8946 9.00765 14.1371L14.5399 8.35834ZM14.7088 15.0289C12.9689 16.872 10.584 18 7.97744 18V10C8.21079 10 8.54096 9.90854 8.89132 9.53739L14.7088 15.0289ZM7.97744 18C3.45957 18 0.0896841 14.7399 -1.12932 10.9754L6.48158 8.51086C6.87107 9.71365 7.64621 10 7.97744 10V18ZM2.67613 13.7431H0.727256V5.74314H2.67613V13.7431ZM0.727256 13.7431C-1.90976 13.7431 -4 11.598 -4 9.0108H4C4 7.23244 2.56102 5.74314 0.727256 5.74314V13.7431ZM-4 9.0108C-4 6.42356 -1.90975 4.27846 0.727256 4.27846V12.2785C2.56101 12.2785 4 10.7892 4 9.0108H-4ZM0.727256 4.27846H2.3645V12.2785H0.727256V4.27846ZM-1.61193 8.71205C-1.65523 8.31499 -1.68182 7.89492 -1.68182 7.45455H6.31818C6.31818 7.57258 6.32529 7.70142 6.34093 7.84486L-1.61193 8.71205ZM-1.68182 7.45455C-1.68182 7.06802 -1.66175 6.69401 -1.62648 6.33309L6.33559 7.11125C6.32382 7.23167 6.31818 7.34546 6.31818 7.45455H-1.68182ZM2.35456 10.7222H0.727256V2.72217H2.35456V10.7222ZM0.727256 10.7222C-1.90976 10.7222 -4 8.57706 -4 5.98983H4C4 4.21146 2.56101 2.72217 0.727256 2.72217V10.7222ZM-4 5.98983C-4 3.40259 -1.90976 1.25748 0.727256 1.25748V9.25748C2.56101 9.25748 4 7.76819 4 5.98983H-4ZM0.727256 1.25748H2.64726V9.25748H0.727256V1.25748ZM-1.17443 4.07651C0.00894497 0.247052 3.40268 -3.09091 7.97726 -3.09091V4.90909C7.64339 4.90909 6.85021 5.20466 6.46895 6.43845L-1.17443 4.07651ZM7.97726 -3.09091C10.5844 -3.09091 12.9688 -1.96247 14.7082 -0.120091L8.89118 5.37191C8.54041 5.00038 8.21034 4.90909 7.97726 4.90909V-3.09091ZM14.7093 -0.118921C16.491 1.7697 16.422 4.75 14.5387 6.55172L9.00852 0.770932C7.70785 2.01521 7.66163 4.06854 8.89007 5.37074L14.7093 -0.118921ZM14.5406 6.54986C12.646 8.36475 9.63707 8.28921 7.83618 6.38034L13.6552 0.890461C12.4072 -0.432343 10.3192 -0.484593 9.00658 0.772792L14.5406 6.54986Z" fill="#056596" mask="url(#path-1-inside-1)"/>
</svg>
