<svg id="Layer_1" width="14" height="16" viewBox="0 0 14 16" xmlns="http://www.w3.org/2000/svg">
  <path fill-rule="evenodd" clip-rule="evenodd" d="M12.9125 6.56211C13.4228 6.56211 13.8426 6.91359 13.8931 7.36399L13.8982 7.45532V11.177C13.8982 12.4471 12.8011 13.485 11.4188 13.5551L11.2696 13.5589H6.25644L7.03805 14.2671C7.39733 14.5927 7.42128 15.107 7.10991 15.4578L7.03805 15.5303C6.67877 15.8558 6.11114 15.8775 5.72407 15.5954L5.64404 15.5303L3.17975 13.2973L3.15654 13.2755C3.14122 13.2607 3.12645 13.2453 3.11226 13.2296L3.17975 13.2973C3.14331 13.2642 3.11032 13.2293 3.08078 13.1927C3.06821 13.1771 3.05587 13.1607 3.04414 13.144C3.0367 13.1335 3.03008 13.1236 3.02369 13.1136C3.01519 13.1002 3.00661 13.086 2.99846 13.0716C2.98983 13.0563 2.98201 13.0414 2.97468 13.0263C2.96726 13.0111 2.96026 12.9955 2.95373 12.9798C2.94889 12.968 2.94435 12.9563 2.94009 12.9445C2.93378 12.9273 2.928 12.9095 2.92282 12.8915C2.88814 12.7702 2.88186 12.6441 2.90392 12.5214C2.9069 12.5043 2.91043 12.4877 2.91445 12.4713C2.91602 12.4652 2.91769 12.4587 2.91944 12.4523C2.92583 12.4284 2.93319 12.4054 2.94152 12.3828C2.94553 12.372 2.94982 12.361 2.95436 12.3501C2.96277 12.3299 2.97198 12.31 2.98195 12.2905C2.98585 12.2828 2.98993 12.2751 2.99414 12.2674C3.00513 12.2476 3.01672 12.2284 3.02904 12.2096C3.03573 12.1993 3.04303 12.1886 3.0506 12.1781C3.06058 12.1644 3.07066 12.1512 3.08111 12.1383C3.08954 12.1278 3.09857 12.1171 3.1079 12.1066L3.17975 12.0341L5.64404 9.80107C6.02898 9.45226 6.6531 9.45226 7.03805 9.80107C7.39733 10.1266 7.42128 10.641 7.10991 10.9917L7.03805 11.0643L6.25561 11.7725H11.2696C11.6046 11.7725 11.8811 11.5453 11.9216 11.2517L11.9268 11.177V7.45532C11.9268 6.96202 12.3681 6.56211 12.9125 6.56211ZM8.60087 0.803923L8.68091 0.869035L11.1452 3.10205C11.1689 3.12355 11.1915 3.14615 11.2127 3.16976L11.1452 3.10205C11.1816 3.13507 11.2146 3.17003 11.2442 3.20657C11.2552 3.22036 11.2662 3.23476 11.2767 3.24947C11.2855 3.26171 11.2935 3.27363 11.3013 3.28567C11.3098 3.29906 11.3183 3.31329 11.3265 3.32774C11.3351 3.34298 11.3429 3.35791 11.3503 3.37299C11.3577 3.38822 11.3647 3.40376 11.3712 3.41951C11.3761 3.43129 11.3806 3.44299 11.3849 3.45477C11.3912 3.47201 11.3969 3.4898 11.4021 3.50781C11.4145 3.55129 11.4232 3.59492 11.4284 3.63883C11.4322 3.67234 11.4339 3.7028 11.4339 3.73364L11.4288 3.82496L11.4275 3.83544C11.4261 3.84691 11.4244 3.85835 11.4225 3.86977C11.4192 3.88958 11.4152 3.90891 11.4105 3.92801C11.4089 3.93408 11.4073 3.94057 11.4055 3.94704C11.3991 3.97092 11.3918 3.99394 11.3834 4.01656C11.3794 4.02734 11.3751 4.03832 11.3706 4.04923C11.3622 4.06945 11.353 4.08932 11.343 4.10881C11.3391 4.11651 11.335 4.12422 11.3308 4.13188C11.3198 4.15172 11.3082 4.17093 11.2959 4.1897C11.2892 4.20005 11.2819 4.21067 11.2743 4.22118C11.2644 4.23489 11.2543 4.24808 11.2438 4.261C11.2354 4.27154 11.2264 4.2822 11.217 4.2927L11.1452 4.36523L8.68091 6.59824C8.29596 6.94705 7.67184 6.94705 7.2869 6.59824C6.92761 6.27267 6.90366 5.75832 7.21504 5.40758L7.2869 5.33505L8.06769 4.62684H3.05533C2.72032 4.62684 2.44386 4.854 2.40331 5.14761L2.39819 5.22231V8.94399C2.39819 9.43729 1.95687 9.8372 1.41247 9.8372C0.902102 9.8372 0.482325 9.48572 0.431847 9.03532L0.426758 8.94399V5.22231C0.426758 3.9522 1.52385 2.91427 2.90617 2.8442L3.05533 2.84043H8.06851L7.2869 2.13222C6.92761 1.80665 6.90366 1.2923 7.21504 0.94156L7.2869 0.869035C7.64618 0.543472 8.21381 0.521768 8.60087 0.803923Z"/>
</svg>
