<svg width="20" height="20" viewBox="0 0 20 20" fill="none" xmlns="http://www.w3.org/2000/svg">
<path fill-rule="evenodd" clip-rule="evenodd" d="M10.0007 5.41771C12.3007 5.41771 14.1673 7.28437 14.1673 9.58437C14.1673 10.0094 14.084 10.4177 13.9673 10.801L16.5173 13.351C17.6757 12.326 18.5923 11.0427 19.1673 9.57604C17.7256 5.92604 14.1673 3.33437 10.0007 3.33437C8.94232 3.33437 7.92565 3.50104 6.96732 3.80937L8.77565 5.61771C9.16732 5.50104 9.57565 5.41771 10.0007 5.41771ZM2.25898 2.63437C1.93398 2.95937 1.93398 3.48438 2.25898 3.80937L3.90065 5.45104C2.55065 6.52604 1.47565 7.94271 0.833984 9.58437C2.27565 13.2427 5.83398 15.8344 10.0007 15.8344C11.2673 15.8344 12.4757 15.5844 13.5923 15.151L15.859 17.4177C16.184 17.7427 16.709 17.7427 17.034 17.4177C17.359 17.0927 17.359 16.5677 17.034 16.2427L3.44232 2.63437C3.11732 2.30938 2.58398 2.30938 2.25898 2.63437ZM10.0007 13.751C7.70065 13.751 5.83398 11.8844 5.83398 9.58437C5.83398 8.94271 5.98398 8.33437 6.24232 7.80104L7.55065 9.10938C7.52565 9.25938 7.50065 9.41771 7.50065 9.58437C7.50065 10.9677 8.61732 12.0844 10.0007 12.0844C10.1673 12.0844 10.3173 12.0594 10.4757 12.026L11.784 13.3344C11.2423 13.601 10.6423 13.751 10.0007 13.751ZM12.4757 9.30937C12.3507 8.14271 11.434 7.23437 10.2757 7.10937L12.4757 9.30937Z" fill="#AFB0B1"/>
</svg>
