<svg width="15" height="16" viewBox="0 0 15 16" fill="none" xmlns="http://www.w3.org/2000/svg">
  <path d="M13.575 7.58465L7.62983 13.5298C6.9015 14.2581 5.91368 14.6673 4.88366 14.6673C3.85365 14.6673 2.86583 14.2581 2.1375 13.5298C1.40917 12.8015 1 11.8137 1 10.7837C1 9.75364 1.40917 8.76582 2.1375 8.03749L8.08267 2.09232C8.56822 1.60676 9.22677 1.33398 9.91345 1.33398C10.6001 1.33398 11.2587 1.60676 11.7442 2.09232C12.2298 2.57787 12.5026 3.23642 12.5026 3.92309C12.5026 4.60977 12.2298 5.26832 11.7442 5.75387L5.79258 11.699C5.54981 11.9418 5.22053 12.0782 4.8772 12.0782C4.53386 12.0782 4.20458 11.9418 3.96181 11.699C3.71903 11.4563 3.58264 11.127 3.58264 10.7837C3.58264 10.4403 3.71903 10.111 3.96181 9.86827L9.45414 4.3824" stroke="#056596" stroke-width="1.5" stroke-linecap="round" stroke-linejoin="round"/>
</svg>
