<svg width="10" height="13" viewBox="0 0 10 13" fill="none" xmlns="http://www.w3.org/2000/svg">
<path d="M9.84512 10.7757C9.55182 10.3208 8.94307 10.1747 8.50588 10.4836C7.25519 11.3767 5.57838 10.5173 5.42342 10.4724C4.84788 10.3208 4.10632 10.3488 3.3869 10.4499C3.49204 10.2084 3.58059 9.96128 3.6636 9.69729C3.88496 8.98957 4.00118 8.27061 4.01224 7.59098H6.07091C6.60771 7.59098 7.03936 7.15287 7.03936 6.60803C7.03936 6.0632 6.60771 5.62509 6.07091 5.62509H3.71341C3.71341 5.61947 3.70787 5.60824 3.70787 5.60262C3.24855 4.34446 3.51972 2.16513 4.87002 1.97416C6.67412 1.72702 7.00616 3.6255 7.01169 3.68729C7.05596 4.18718 7.47102 4.57475 7.97462 4.57475C8.90987 4.57475 8.94861 3.67044 8.932 3.46823C8.92094 3.37836 8.45608 -0.193936 4.86449 0.00826948C1.5496 0.199241 1.38911 4.55789 1.67688 5.62509H0.985126C0.448324 5.62509 0.0166695 6.0632 0.0166695 6.60803C0.0166695 7.15287 0.448324 7.59098 0.985126 7.59098H2.07533C2.03659 9.05135 1.31163 10.6634 0.464927 11.2138C0.0554081 11.4834 -0.138283 12.0395 0.110749 12.4664C0.487063 13.1011 1.18989 13.0112 1.2895 12.9719C2.3631 12.6068 4.2004 12.1799 4.93089 12.3765C5.07478 12.4158 7.43781 13.6347 9.55735 12.1294C10.0001 11.8204 10.1384 11.2307 9.84512 10.7757Z" fill="#FBECED"/>
</svg>
