<svg width="11" height="12" viewBox="0 0 11 12" fill="none" xmlns="http://www.w3.org/2000/svg">
<g clip-path="url(#clip0)">
<path fill-rule="evenodd" clip-rule="evenodd" d="M8.95884 10.2454C8.95884 9.82172 8.57983 9.47829 8.1123 9.47829H5.29772C3.40664 9.47829 2.18123 8.14598 2.18123 6.12733C2.18123 4.72773 2.5897 3.75878 3.63357 3.22048V5.87095C3.63357 6.0943 3.83338 6.27536 4.07987 6.27536C4.32635 6.27536 4.52616 6.0943 4.52616 5.87095V2.97824C4.67745 2.95132 4.84386 2.93786 5.01027 2.93786C5.17669 2.93786 5.3431 2.95132 5.50952 2.97824V5.87095C5.50952 6.0943 5.70933 6.27536 5.95581 6.27536C6.20229 6.27536 6.4021 6.0943 6.4021 5.87095V3.22048C7.26179 3.64054 7.69507 4.34508 7.83382 5.40998C7.89812 5.90351 8.35979 6.27537 8.90821 6.27536H9.11626C9.59509 6.27533 9.98325 5.92359 9.98325 5.4897C9.98325 5.44975 9.97989 5.40985 9.97319 5.37035C9.65785 3.51128 8.36332 2.07261 6.4021 1.61901V0.54308C6.4021 0.319732 6.20229 0.138672 5.95581 0.138672C5.70933 0.138672 5.50952 0.319732 5.50952 0.54308V1.47098L5.04053 1.45752C4.85899 1.45752 4.69257 1.45752 4.52616 1.47098V0.54308C4.52616 0.319732 4.32635 0.138672 4.07987 0.138672C3.83338 0.138672 3.63357 0.319732 3.63357 0.54308V1.61901C1.43993 2.14386 0.0480957 3.92027 0.0480957 5.87163C0.0480957 7.36543 0.744011 8.83232 1.99968 9.47829V9.53212H1.40956C0.958433 9.53212 0.592725 9.8635 0.592725 10.2723C0.592725 10.6811 0.958433 11.0125 1.40956 11.0125H8.1123C8.57983 11.0125 8.95884 10.669 8.95884 10.2454Z" fill="#2A6492"/>
</g>
<defs>
<clipPath id="clip0">
<rect width="11" height="11.7799" fill="white"/>
</clipPath>
</defs>
</svg>
