<svg width="95" height="24" viewBox="0 0 95 24" fill="none" xmlns="http://www.w3.org/2000/svg">
<path d="M-0.000488281 0.0878906V23.9145L12.0126 12.0013L-0.000488281 0.0878906Z" fill="white"/>
<path d="M15.239 8.80005L10.3898 6.00003L-0.000488281 0V0.0866399L12.0126 12.0001L15.239 8.80005Z" fill="white"/>
<path d="M-0.000488281 23.9132V23.9998L10.3898 17.9996L15.2388 15.1996L12.0126 12L-0.000488281 23.9132Z" fill="white"/>
<path d="M15.2392 8.80078L12.0127 12.0008L15.2389 15.2004L20.7808 12.0006L15.2392 8.80078Z" fill="white"/>
<path d="M75.63 16.6571C75.1787 16.6571 74.7671 16.5738 74.3943 16.4075C74.0215 16.2409 73.7082 15.9848 73.4552 15.6395H73.3796C73.43 16.0441 73.4552 16.4277 73.4552 16.79V19.6413H72.4064V9.60138H73.2597L73.4048 10.5498H73.4552C73.7252 10.1702 74.0393 9.89663 74.3974 9.72797C74.7555 9.55932 75.1665 9.47499 75.6297 9.47499C76.5486 9.47499 77.2578 9.78917 77.7569 10.4171C78.2563 11.045 78.5061 11.9261 78.5061 13.0596C78.5061 14.1977 78.2521 15.0816 77.7447 15.7122C77.237 16.3422 76.5322 16.6571 75.63 16.6571ZM75.4782 10.3664C74.7702 10.3664 74.2582 10.5626 73.9422 10.9544C73.6262 11.3464 73.4638 11.9703 73.4552 12.826V13.0596C73.4552 14.0335 73.6175 14.73 73.9422 15.1495C74.2668 15.5691 74.7874 15.7783 75.5034 15.7783C76.1022 15.7783 76.5711 15.5362 76.9105 15.0515C77.2494 14.567 77.4191 13.8989 77.4191 13.047C77.4191 12.1834 77.2494 11.5201 76.9105 11.0587C76.5713 10.5969 76.0936 10.3664 75.4782 10.3664ZM80.9359 16.5305H79.8867V6.69305H80.9359V16.5305ZM86.9689 16.5305L86.7601 15.5442H86.7097C86.364 15.9787 86.0196 16.2729 85.676 16.4262C85.3327 16.5803 84.9037 16.6571 84.3899 16.6571C83.7029 16.6571 83.1647 16.48 82.7746 16.1261C82.3846 15.7722 82.1899 15.2687 82.1899 14.6151C82.1899 13.2161 83.3089 12.4826 85.5465 12.4149L86.7227 12.3768V11.947C86.7227 11.4032 86.6056 11.0015 86.3715 10.7426C86.1379 10.4831 85.7633 10.3536 85.2496 10.3536C84.672 10.3536 84.0187 10.5307 83.29 10.8846L82.9674 10.0817C83.3091 9.89621 83.6827 9.75091 84.0898 9.64554C84.4965 9.54018 84.9039 9.48742 85.3129 9.48742C86.1388 9.48742 86.7509 9.67058 87.1493 10.0373C87.5474 10.4041 87.7465 10.992 87.7465 11.8015V16.5303H86.9689V16.5305H86.9689ZM84.5984 15.7911C85.2513 15.7911 85.7643 15.6119 86.1375 15.2538C86.5101 14.8957 86.6971 14.3939 86.6971 13.7487V13.1229L85.6472 13.1669C84.8129 13.1969 84.2118 13.3261 83.8426 13.5563C83.474 13.786 83.2896 14.1432 83.2896 14.628C83.2896 15.0071 83.4042 15.2961 83.6342 15.4937C83.864 15.692 84.1851 15.7911 84.5984 15.7911ZM88.3556 9.60138H89.4805L90.9977 13.5529C91.3306 14.4551 91.5373 15.1062 91.6176 15.5068H91.6681C91.7229 15.2914 91.8379 14.924 92.0125 14.403C92.1874 13.8823 92.7597 12.2822 93.7286 9.60138H94.8543L91.8766 17.4917C91.5818 18.2715 91.2372 18.8247 90.8428 19.1519C90.4489 19.4783 89.9651 19.6413 89.3926 19.6413C89.0722 19.6413 88.7561 19.6056 88.4439 19.5341V18.6933C88.6756 18.7438 88.935 18.7692 89.2216 18.7692C89.9424 18.7692 90.4561 18.3646 90.7641 17.5552L91.1495 16.5691L88.3556 9.60138ZM56.1915 10.2453C56.5246 10.521 57.2201 11.1001 57.2201 12.2023C57.2201 13.2741 56.6114 13.7824 56.0027 14.26C55.8143 14.4482 55.5969 14.6517 55.5969 14.9709C55.5969 15.2891 55.8141 15.4632 55.9741 15.5938L56.496 15.9988C57.1335 16.5353 57.7126 17.0284 57.7126 18.0288C57.7126 19.391 56.3938 20.7674 53.9018 20.7674C51.8003 20.7674 50.7864 19.7677 50.7864 18.6946C50.7864 18.173 51.046 17.4343 51.9022 16.9264C52.8 16.3757 54.0181 16.304 54.6699 16.2594C54.4664 15.9989 54.2351 15.7234 54.2351 15.2748C54.2351 15.0288 54.3078 14.8837 54.38 14.7089C54.2199 14.7236 54.0608 14.7382 53.9157 14.7382C52.3802 14.7382 51.5107 13.5931 51.5107 12.4632C51.5107 11.7964 51.8154 11.0568 52.4378 10.5212C53.2641 9.84008 54.2494 9.72377 55.0326 9.72377H58.0171L57.0896 10.2455H56.1915V10.2453H56.1915ZM55.1623 16.6806C55.0465 16.6655 54.9737 16.6655 54.8295 16.6655C54.6991 16.6655 53.9155 16.6951 53.3076 16.8985C52.9889 17.0135 52.0612 17.3613 52.0612 18.3909C52.0612 19.4195 53.0616 20.1597 54.6123 20.1597C56.0025 20.1597 56.7424 19.4916 56.7424 18.5938C56.7424 17.8532 56.2641 17.4635 55.1623 16.6806ZM55.5828 13.9264C55.9157 13.5927 55.9443 13.1294 55.9443 12.8683C55.9443 11.825 55.3215 10.2018 54.119 10.2018C53.7418 10.2018 53.3364 10.39 53.1045 10.6802C52.8585 10.9845 52.7853 11.3754 52.7853 11.7527C52.7853 12.7236 53.3505 14.3325 54.5973 14.3325C54.9596 14.3325 55.3501 14.1586 55.5828 13.9264ZM47.0685 16.4487C44.7685 16.4487 43.5387 14.6543 43.5387 13.0333C43.5387 11.1375 45.0864 9.51768 47.2864 9.51768C49.4121 9.51768 50.7433 11.1811 50.7433 12.9324C50.7435 14.6391 49.4274 16.4487 47.0685 16.4487ZM48.8768 15.2767C49.2246 14.8132 49.3114 14.2347 49.3114 13.6699C49.3114 12.3961 48.7037 9.96562 46.9096 9.96562C46.4323 9.96562 45.955 10.154 45.6079 10.4585C45.0435 10.9643 44.9418 11.6013 44.9418 12.2241C44.9418 13.6556 45.6507 16.0136 47.4018 16.0136C47.9659 16.0136 48.5447 15.7391 48.8768 15.2767ZM39.2268 16.4487C36.9264 16.4487 35.6963 14.6543 35.6963 13.0333C35.6963 11.1375 37.2447 9.51768 39.444 9.51768C41.5704 9.51768 42.9013 11.1811 42.9013 12.9324C42.9016 14.6391 41.5853 16.4487 39.2268 16.4487ZM41.0355 15.2767C41.3826 14.8132 41.4697 14.2347 41.4697 13.6699C41.4697 12.3961 40.8616 9.96562 39.0674 9.96562C38.5904 9.96562 38.1127 10.154 37.7657 10.4585C37.2014 10.9643 37.1002 11.6013 37.1002 12.2241C37.1002 13.6556 37.8088 16.0136 39.5601 16.0136C40.1244 16.0136 40.7029 15.7391 41.0355 15.2767ZM34.5912 16.2218L32.5109 16.7019C31.6669 16.8331 30.9108 16.9485 30.1112 16.9485C26.096 16.9485 24.5693 13.9952 24.5693 11.682C24.5693 8.86012 26.7363 6.24219 30.4459 6.24219C31.2317 6.24219 31.9874 6.35827 32.6709 6.54753C33.7617 6.8531 34.2708 7.23098 34.591 7.44949L33.3833 8.59871L32.8744 8.71458L33.238 8.1325C32.7437 7.65282 31.841 6.7656 30.1253 6.7656C27.8269 6.7656 26.0956 8.51207 26.0956 11.0576C26.0956 13.7919 28.0742 16.3669 31.2445 16.3669C32.1764 16.3669 32.6554 16.178 33.0921 16.0031V13.6615L30.8961 13.7778L32.0593 13.1515H35.1432L34.7653 13.5151C34.6627 13.6028 34.6486 13.6323 34.6196 13.7475C34.6045 13.8787 34.5908 14.301 34.5908 14.4463V16.2218H34.5912V16.2218Z" fill="white"/>
<path d="M60.7888 15.8025C60.3085 15.7588 60.208 15.6719 60.208 15.1039V6.87017C60.211 6.83883 60.2129 6.80666 60.2158 6.77636C60.2745 6.26746 60.4198 6.18018 60.8712 5.91797H58.7905L57.6992 6.4418H58.8113V6.44832L58.8105 6.44307V15.4244C58.8105 15.7148 58.753 15.759 58.4181 16.1949H60.993L61.5312 15.8757C61.2842 15.8456 61.0365 15.8315 60.7888 15.8025ZM66.7076 15.9362C66.5493 16.0231 66.3904 16.1247 66.232 16.1964C65.7545 16.413 65.2636 16.471 64.8294 16.471C64.3682 16.471 63.6454 16.4411 62.908 15.9072C61.8832 15.1842 61.4353 13.9419 61.4353 12.8586C61.4353 10.6197 63.2553 9.52173 64.7431 9.52173C65.2633 9.52173 65.7985 9.65148 66.2318 9.92656C66.9534 10.4024 67.1412 11.0236 67.2417 11.3561L63.8479 12.7291L62.7354 12.8157C63.096 14.6505 64.3382 15.7188 65.711 15.7188C66.4475 15.7188 66.9822 15.4593 67.4732 15.2141L66.7076 15.9362ZM65.3502 11.6303C65.6242 11.5296 65.7686 11.4425 65.7686 11.2404C65.7686 10.663 65.1189 9.99804 64.3382 9.99804C63.7597 9.99804 62.6771 10.4462 62.6771 12.0061C62.6771 12.2517 62.7061 12.5117 62.7211 12.7726L65.3502 11.6303ZM68.1019 9.62056V10.5738H67.986V9.62056H67.6706V9.52171H68.4171V9.62056H68.1019ZM69.4013 10.5738V9.61173H69.396L69.1025 10.5738H69.0119L68.7158 9.61173H68.712V10.5738H68.6069V9.52173H68.7871L69.055 10.3721H69.0588L69.3226 9.52173H69.5054V10.5738H69.4013Z" fill="white"/>
<path d="M27.4569 3.40925H26.7341C26.7341 3.30979 26.6655 3.02821 26.5284 2.5643H25.4849C25.3434 3.02064 25.2725 3.3022 25.2725 3.40925H24.5928C24.5928 3.35056 24.7686 2.86858 25.1201 1.9635C25.4716 1.05841 25.6474 0.559791 25.6474 0.468122H26.5013C26.5013 0.55392 26.6605 1.04516 26.979 1.94205C27.2976 2.83894 27.4569 3.32787 27.4569 3.40925ZM26.4134 2.13279C26.1559 1.35574 26.0272 0.935599 26.0272 0.872284H25.991C25.991 0.930973 25.8577 1.35112 25.5913 2.13279H26.4134ZM30.3695 3.40925H29.8117C29.8117 3.34743 29.6046 3.02148 29.1906 2.43119C28.757 1.80915 28.5099 1.38394 28.4498 1.15495H28.4137C28.4513 1.48467 28.4702 1.78286 28.4702 2.04953C28.4702 2.42153 28.4807 2.87492 28.5018 3.40948H27.9461C27.9685 2.94264 27.9799 2.42994 27.9799 1.8712C27.9799 1.32152 27.9685 0.853813 27.9461 0.46835H28.6168C28.6168 0.54826 28.8026 0.866851 29.1746 1.42391C29.5705 2.01567 29.798 2.41712 29.8567 2.62804H29.8905C29.8544 2.2922 29.8363 1.99105 29.8363 1.72442C29.8363 1.31647 29.8258 0.897554 29.8048 0.46835H30.3695C30.3483 0.841827 30.338 1.30951 30.338 1.8712C30.3377 2.43708 30.3482 2.94977 30.3695 3.40925ZM33.643 1.83692C33.643 2.26464 33.506 2.63813 33.232 2.95735C32.9578 3.27679 32.5738 3.43619 32.08 3.43619C31.8571 3.43619 31.5499 3.42713 31.1584 3.40904C31.1779 2.9542 31.1878 2.44128 31.1878 1.87078C31.1878 1.32276 31.1779 0.855075 31.1584 0.467912H31.5537C31.6184 0.467912 31.7147 0.465598 31.8428 0.461182C31.9706 0.456766 32.0543 0.454453 32.0934 0.454453C32.637 0.454453 33.031 0.590091 33.2759 0.861156C33.5207 1.13222 33.643 1.45733 33.643 1.83692ZM33.0265 1.93404C33.0265 1.64489 32.9422 1.40138 32.7736 1.20307C32.605 1.00519 32.3474 0.906158 32.0011 0.906158C31.9363 0.906158 31.8476 0.912887 31.7345 0.926556C31.7494 1.22789 31.757 1.54248 31.757 1.87076C31.757 2.23078 31.7645 2.58765 31.7795 2.94157C31.8761 2.96104 31.9744 2.9709 32.073 2.97101C32.3968 2.97101 32.6365 2.87029 32.7923 2.66924C32.9481 2.4682 33.0265 2.22319 33.0265 1.93404ZM36.6618 3.40925H35.9931C35.8184 2.87617 35.6845 2.54706 35.5911 2.42215C35.4978 2.29702 35.3472 2.23457 35.1395 2.23457C35.052 2.23457 34.9685 2.23541 34.8889 2.23688C34.8889 2.62404 34.8956 3.01475 34.9092 3.40925H34.2814C34.3009 2.95439 34.3108 2.44149 34.3108 1.87097C34.3108 1.32297 34.301 0.855268 34.2814 0.468122H34.6721C34.7173 0.468122 34.8117 0.465809 34.9555 0.461393C35.0993 0.456977 35.2322 0.454646 35.3542 0.454646C36.0453 0.454646 36.391 0.691013 36.391 1.16398C36.391 1.53892 36.1937 1.80011 35.7993 1.94794V1.9818C35.9513 2.02386 36.0846 2.14267 36.199 2.3374C36.3131 2.53234 36.4675 2.88962 36.6618 3.40925ZM35.8148 1.33093C35.8148 1.03126 35.622 0.881344 35.2366 0.881344C35.0951 0.881344 34.97 0.891858 34.8617 0.912888C34.8783 1.14631 34.8865 1.4506 34.8865 1.82555C34.9694 1.82871 35.0394 1.82997 35.0966 1.82997C35.5753 1.83018 35.8148 1.66384 35.8148 1.33093ZM39.8993 1.88441C39.8993 2.34665 39.7578 2.73 39.4746 3.03429C39.1914 3.33839 38.8413 3.49062 38.4244 3.49062C38.0268 3.49062 37.6939 3.35099 37.4261 3.07151C37.158 2.79224 37.024 2.43708 37.024 2.00659C37.024 1.54437 37.1655 1.16101 37.4488 0.856722C37.7318 0.552642 38.0819 0.400391 38.499 0.400391C38.8966 0.400391 39.2293 0.539603 39.4973 0.818239C39.7654 1.09689 39.8993 1.45207 39.8993 1.88441ZM39.2761 1.94983C39.2761 1.63503 39.1956 1.37973 39.0346 1.18395C38.8733 0.988172 38.6746 0.890386 38.4383 0.890386C38.2183 0.890386 38.0316 0.989013 37.8781 1.18627C37.7246 1.38352 37.6475 1.63273 37.6475 1.93406C37.6475 2.24718 37.7284 2.50206 37.8903 2.6987C38.0522 2.89532 38.2505 2.99353 38.4856 2.99353C38.7053 2.99353 38.8922 2.89448 39.0457 2.69637C39.1992 2.49848 39.2761 2.24948 39.2761 1.94983ZM41.1765 3.40925H40.5373C40.5568 2.94241 40.5667 2.42972 40.5667 1.87097C40.5667 1.32127 40.5569 0.853585 40.5373 0.468122H41.1765C41.1569 0.847697 41.147 1.31517 41.147 1.87097C41.147 2.43855 41.1569 2.95145 41.1765 3.40925ZM44.4502 1.83692C44.4502 2.26464 44.3132 2.63813 44.0392 2.95735C43.765 3.27679 43.3811 3.43619 42.8872 3.43619C42.6643 3.43619 42.3571 3.42713 41.9656 3.40904C41.9851 2.9542 41.995 2.44128 41.995 1.87078C41.995 1.32276 41.9852 0.855075 41.9656 0.467912H42.3609C42.4256 0.467912 42.5219 0.465598 42.65 0.461182C42.7778 0.456766 42.8615 0.454453 42.9006 0.454453C43.4442 0.454453 43.8382 0.590091 44.0831 0.861156C44.3279 1.13222 44.4502 1.45733 44.4502 1.83692ZM43.8338 1.93404C43.8338 1.64489 43.7494 1.40138 43.5808 1.20307C43.4122 1.00519 43.1546 0.906158 42.8083 0.906158C42.7435 0.906158 42.6548 0.912887 42.5417 0.926556C42.5566 1.22789 42.5642 1.54248 42.5642 1.87076C42.5642 2.23078 42.5718 2.58765 42.5867 2.94157C42.6833 2.96104 42.7816 2.9709 42.8802 2.97101C43.204 2.97101 43.4437 2.87029 43.5995 2.66924C43.7553 2.4682 43.8338 2.22319 43.8338 1.93404ZM48.7934 3.40925H48.0705C48.0705 3.30979 48.002 3.02821 47.8647 2.5643H46.8211C46.6796 3.02064 46.6088 3.3022 46.6088 3.40925H45.9292C45.9292 3.35056 46.105 2.86858 46.4566 1.9635C46.8081 1.05841 46.9839 0.559791 46.9839 0.468122H47.8378C47.8378 0.55392 47.9971 1.04516 48.3155 1.94205C48.6338 2.83894 48.7934 3.32787 48.7934 3.40925ZM47.7499 2.13279C47.4923 1.35574 47.3634 0.935599 47.3634 0.872284H47.3272C47.3272 0.930973 47.1941 1.35112 46.9278 2.13279H47.7499ZM51.428 1.23821C51.428 1.59823 51.2942 1.86403 51.027 2.03563C50.7597 2.20723 50.4319 2.29322 50.0434 2.29322C49.9725 2.29322 49.9223 2.29175 49.892 2.28881C49.892 2.57207 49.9002 2.94535 49.9168 3.40925H49.282C49.3015 2.97416 49.3114 2.46124 49.3114 1.87097C49.3114 1.32884 49.3016 0.861156 49.282 0.468122H49.675C49.7307 0.468122 49.8375 0.465809 49.9956 0.461393C50.1538 0.456977 50.2907 0.454646 50.4067 0.454646C50.6927 0.454646 50.9345 0.519415 51.1317 0.648955C51.3289 0.778511 51.428 0.974713 51.428 1.23821ZM50.8453 1.36249C50.8453 1.04031 50.6315 0.87903 50.2038 0.87903C50.0968 0.87903 49.9839 0.890369 49.8651 0.912888C49.8817 1.19762 49.8899 1.51979 49.8899 1.87981C49.9275 1.88296 49.9713 1.88422 50.0209 1.88422C50.5705 1.88442 50.8453 1.71052 50.8453 1.36249ZM54.137 1.23821C54.137 1.59823 54.0032 1.86403 53.7362 2.03563C53.469 2.20723 53.141 2.29322 52.7524 2.29322C52.6815 2.29322 52.6313 2.29175 52.601 2.28881C52.601 2.57207 52.6092 2.94535 52.6258 3.40925H51.9911C52.0106 2.97416 52.0205 2.46124 52.0205 1.87097C52.0205 1.32884 52.0106 0.861156 51.9911 0.468122H52.384C52.4398 0.468122 52.5466 0.465809 52.7047 0.461393C52.8628 0.456977 52.9997 0.454646 53.1157 0.454646C53.4017 0.454646 53.6435 0.519415 53.8407 0.648955C54.0379 0.778511 54.137 0.974713 54.137 1.23821ZM53.5543 1.36249C53.5543 1.04031 53.3405 0.87903 52.9129 0.87903C52.8058 0.87903 52.6929 0.890369 52.5741 0.912888C52.5907 1.19762 52.5989 1.51979 52.5989 1.87981C52.6366 1.88296 52.6803 1.88422 52.7299 1.88422C53.2795 1.88442 53.5543 1.71052 53.5543 1.36249ZM58.5661 1.88441C58.5661 2.34665 58.4246 2.73 58.1414 3.03429C57.8582 3.33858 57.5081 3.49062 57.0911 3.49062C56.6936 3.49062 56.3607 3.35099 56.0928 3.07151C55.8249 2.79224 55.6908 2.43708 55.6908 2.00659C55.6908 1.54437 55.8323 1.16101 56.1155 0.856722C56.3988 0.552431 56.7489 0.400391 57.1658 0.400391C57.5634 0.400391 57.8962 0.539603 58.1641 0.818239C58.432 1.09689 58.5661 1.45207 58.5661 1.88441ZM57.9427 1.94983C57.9427 1.63503 57.8621 1.37973 57.7011 1.18395C57.5401 0.988172 57.3411 0.890386 57.1048 0.890386C56.8849 0.890386 56.6982 0.989013 56.5447 1.18627C56.3912 1.38352 56.3142 1.63273 56.3142 1.93406C56.3142 2.24718 56.3952 2.50206 56.5571 2.6987C56.719 2.89532 56.9173 2.99353 57.1521 2.99353C57.3721 2.99353 57.5588 2.89448 57.7122 2.69638C57.866 2.49848 57.9427 2.24948 57.9427 1.94983ZM61.6275 3.40925H61.0697C61.0697 3.34743 60.8628 3.02148 60.4486 2.43119C60.015 1.80915 59.768 1.38394 59.7078 1.15495H59.6717C59.7093 1.48467 59.7283 1.78286 59.7283 2.04953C59.7283 2.42153 59.7388 2.87492 59.7598 3.40948H59.2041C59.2266 2.94264 59.2379 2.42994 59.2379 1.8712C59.2379 1.32152 59.2266 0.853813 59.2041 0.46835H59.8748C59.8748 0.54826 60.0609 0.866851 60.4326 1.42391C60.8288 2.01567 61.056 2.41712 61.1147 2.62804H61.1486C61.1124 2.2922 61.0943 1.99105 61.0943 1.72442C61.0943 1.31647 61.0838 0.897554 61.0628 0.46835H61.6275C61.6063 0.841827 61.596 1.30951 61.596 1.8712C61.596 2.43708 61.6065 2.94977 61.6275 3.40925Z" fill="white"/>
</svg>
