<svg width="16" height="13" viewBox="0 0 16 13" fill="none" xmlns="http://www.w3.org/2000/svg">
<path fill-rule="evenodd" clip-rule="evenodd" d="M15.5081 0.424481C15.5187 0.434755 15.5292 0.445185 15.5394 0.455766C16.1397 1.07403 16.1397 2.05754 15.5394 2.6758L6.91703 11.556C6.66417 11.8164 6.33989 11.9655 6.00524 12.0026L5.86136 12.0116C5.47693 12.0172 5.09035 11.8762 4.79272 11.5872C4.78214 11.577 4.77171 11.5665 4.76144 11.556L0.450239 7.11588C-0.15008 6.49761 -0.15008 5.51411 0.450239 4.89584C1.02821 4.30059 1.9793 4.28658 2.57455 4.86456L2.60584 4.89584L5.839 8.225L13.3838 0.455766C13.9618 -0.139486 14.9129 -0.153493 15.5081 0.424481Z" fill="#429366"/>
</svg>
