<svg width="16" height="17" viewBox="0 0 16 17" fill="none" xmlns="http://www.w3.org/2000/svg">
  <path d="M5.998 0.388113C6.27332 0.140747 6.63038 0.00390625 7.0005 0.00390625C7.37062 0.00390625 7.72768 0.140747 8.003 0.388113L13.503 5.32911C13.6595 5.46985 13.7846 5.64195 13.8703 5.83422C13.9559 6.0265 14.0001 6.23464 14 6.44511V7.39911C13.6184 7.17884 13.1929 7.04531 12.7539 7.008C12.3148 6.9707 11.8729 7.03053 11.4596 7.18326C11.0463 7.33599 10.6717 7.57786 10.3624 7.89169C10.0531 8.20552 9.8167 8.58362 9.67 8.99911H5.5C5.36739 8.99911 5.24021 9.05179 5.14645 9.14556C5.05268 9.23933 5 9.3665 5 9.49911V13.4991C5 13.8969 4.84196 14.2785 4.56066 14.5598C4.27936 14.8411 3.89782 14.9991 3.5 14.9991H1.5C1.10218 14.9991 0.720644 14.8411 0.43934 14.5598C0.158035 14.2785 0 13.8969 0 13.4991V6.44511C0 6.01911 0.18 5.61411 0.498 5.32911L5.998 0.388113ZM14.5 9.99911C14.5 10.5295 14.2893 11.0383 13.9142 11.4133C13.5391 11.7884 13.0304 11.9991 12.5 11.9991C11.9696 11.9991 11.4609 11.7884 11.0858 11.4133C10.7107 11.0383 10.5 10.5295 10.5 9.99911C10.5 9.46868 10.7107 8.95997 11.0858 8.5849C11.4609 8.20983 11.9696 7.99911 12.5 7.99911C13.0304 7.99911 13.5391 8.20983 13.9142 8.5849C14.2893 8.95997 14.5 9.46868 14.5 9.99911ZM16 14.4991C16 15.7441 15 16.9991 12.5 16.9991C10 16.9991 9 15.7491 9 14.4991C9 14.1013 9.15804 13.7198 9.43934 13.4385C9.72064 13.1571 10.1022 12.9991 10.5 12.9991H14.5C14.8978 12.9991 15.2794 13.1571 15.5607 13.4385C15.842 13.7198 16 14.1013 16 14.4991Z" fill="#D95743"/>
</svg>
