<svg width="22" height="22" viewBox="0 0 22 22" fill="none" xmlns="http://www.w3.org/2000/svg">
<path fill-rule="evenodd" clip-rule="evenodd" d="M14.4354 1.38151L20.5465 7.29305C21.4765 8.19269 22 9.41963 22 10.6999V19.6058C22 20.9281 20.9056 22 19.5556 22H2.44444C1.09441 22 0 20.9281 0 19.6058V10.6999C0 9.41963 0.52345 8.19269 1.45346 7.29305L7.56457 1.38151C9.46877 -0.460503 12.5312 -0.460503 14.4354 1.38151ZM14.6667 13.9197C13.1479 13.9197 11.9167 15.1256 11.9167 16.6131C11.9167 18.1007 13.1479 19.3066 14.6667 19.3066C16.1854 19.3066 17.4167 18.1007 17.4167 16.6131C17.4167 15.1256 16.1854 13.9197 14.6667 13.9197ZM16.142 7.98558C15.6647 7.51809 14.8908 7.51809 14.4135 7.98558L5.85798 16.3652L5.75631 16.478C5.3835 16.9476 5.41739 17.6266 5.85798 18.0581C6.33529 18.5256 7.10916 18.5256 7.58646 18.0581L16.142 9.67852L16.2437 9.56574C16.6165 9.09614 16.5826 8.41711 16.142 7.98558ZM14.6667 15.7153C15.1729 15.7153 15.5833 16.1173 15.5833 16.6131C15.5833 17.109 15.1729 17.5109 14.6667 17.5109C14.1604 17.5109 13.75 17.109 13.75 16.6131C13.75 16.1173 14.1604 15.7153 14.6667 15.7153ZM7.33333 6.73715C5.81455 6.73715 4.58333 7.94305 4.58333 9.43059C4.58333 10.9181 5.81455 12.124 7.33333 12.124C8.85212 12.124 10.0833 10.9181 10.0833 9.43059C10.0833 7.94305 8.85212 6.73715 7.33333 6.73715ZM7.33333 8.53278C7.83959 8.53278 8.25 8.93474 8.25 9.43059C8.25 9.92644 7.83959 10.3284 7.33333 10.3284C6.82707 10.3284 6.41667 9.92644 6.41667 9.43059C6.41667 8.93474 6.82707 8.53278 7.33333 8.53278Z" fill="white"/>
</svg>
