<svg width="18" height="18" viewBox="0 0 18 18" fill="none" xmlns="http://www.w3.org/2000/svg">
<path fill-rule="evenodd" clip-rule="evenodd" d="M1.18919 5.87157L6.1892 1.11224C7.74718 -0.370747 10.2528 -0.370747 11.8108 1.11224L16.8108 5.87157C17.5717 6.59586 18 7.58366 18 8.61438V15.7845C18 16.849 17.1046 17.712 16 17.712H14.2727C13.1682 17.712 12.2727 16.849 12.2727 15.7845V11.9294C12.2727 10.8649 11.3773 10.0019 10.2727 10.0019H7.72727C6.6227 10.0019 5.72727 10.8649 5.72727 11.9294V15.7845C5.72727 16.849 4.83184 17.712 3.72727 17.712H2C0.89543 17.712 0 16.849 0 15.7845V8.61438C0 7.58366 0.428277 6.59586 1.18919 5.87157Z" fill="white"/>
</svg>
