<svg width="30" height="18" viewBox="0 0 30 18" fill="none" xmlns="http://www.w3.org/2000/svg">
  <rect width="30" height="18" rx="4" fill="#FBECED"/>
  <rect x="13.2002" y="6.20703" width="6.6" height="1.86207" rx="0.931034" fill="#D95743"/>
  <rect x="13" y="3" width="14" height="2" rx="1" fill="#D95743"/>
  <rect x="13" y="10" width="14" height="2" rx="1" fill="#D95743"/>
  <rect x="13" y="14" width="14" height="2" rx="1" fill="#D95743"/>
  <path fill-rule="evenodd" clip-rule="evenodd" d="M6.70001 7.34255C7.99839 7.34255 9.05002 6.25466 9.05002 4.91151C9.05002 3.56836 7.99839 2.48047 6.70001 2.48047C5.40163 2.48047 4.35001 3.56836 4.35001 4.91151C4.35001 6.25466 5.40163 7.34255 6.70001 7.34255ZM6.70001 8.55807C5.13138 8.55807 2 9.37247 2 10.9891V11.5969C2 11.9311 2.26438 12.2046 2.5875 12.2046H10.8125C11.1356 12.2046 11.4 11.9311 11.4 11.5969V10.9891C11.4 9.37247 8.26864 8.55807 6.70001 8.55807Z" fill="#D95743"/>
</svg>

