<svg width="20" height="16" viewBox="0 0 20 16" fill="none" xmlns="http://www.w3.org/2000/svg">
<path fill-rule="evenodd" clip-rule="evenodd" d="M17.1795 0C18.7373 0 20 1.2539 20 2.80067V13.1993C20 13.2663 19.9977 13.3327 19.993 13.3985L15.3144 7.8C14.7911 7.1744 14.0164 6.83284 13.2147 6.8784C12.4142 6.92396 11.6818 7.34998 11.2281 8.02838L6.04111 15.7456C5.98732 15.8256 5.94904 15.9116 5.92559 16H2.82052C1.26278 16 0 14.7461 0 13.1993V2.80067C0 1.2539 1.26278 0 2.82052 0H17.1795ZM14.0369 8.88396L19.2407 15.111C18.726 15.658 17.9929 16 17.1795 16H7.88727L12.6123 8.97011C12.7775 8.7232 13.034 8.57398 13.3088 8.55832C13.5824 8.54282 13.8503 8.66088 14.0369 8.88396ZM5.9918 7.07537C5.36572 7.07537 4.85819 6.57141 4.85819 5.94974C4.85819 5.32827 5.36542 4.82442 5.99122 4.82412L6.11532 4.83072C6.68328 4.89183 7.1254 5.36952 7.1254 5.94974C7.1254 6.57141 6.61787 7.07537 5.9918 7.07537Z" fill="#1A1D1F"/>
</svg>
