<svg width="18" height="18" viewBox="0 0 18 18" fill="none" xmlns="http://www.w3.org/2000/svg">
<path fill-rule="evenodd" clip-rule="evenodd" d="M8.991 0C13.968 0 18 4.032 18 9C18 13.968 13.968 18 8.991 18C4.023 18 0 13.968 0 9C0 4.032 4.023 0 8.991 0ZM9.00295 8.16995C8.49861 8.16995 8.08596 8.5826 8.08596 9.08694V12.7549C8.08596 13.2593 8.49861 13.6719 9.00295 13.6719C9.5073 13.6719 9.91995 13.2593 9.91995 12.7549V9.08694C9.91995 8.5826 9.5073 8.16995 9.00295 8.16995ZM9.00295 4.50197C8.49651 4.50197 8.08596 4.91252 8.08596 5.41896C8.08596 5.92541 8.49651 6.33596 9.00295 6.33596C9.5094 6.33596 9.91995 5.92541 9.91995 5.41896C9.91995 4.91252 9.5094 4.50197 9.00295 4.50197Z" fill="#056596"/>
</svg>
