<svg width="16" height="21" viewBox="0 0 16 21" fill="none" xmlns="http://www.w3.org/2000/svg">
<path fill-rule="evenodd" clip-rule="evenodd" d="M14 6.85714H13V4.89796C13 2.19429 10.76 0 8 0C5.24 0 3 2.19429 3 4.89796V6.85714H2C0.9 6.85714 0 7.73878 0 8.81633V18.6122C0 19.6898 0.9 20.5714 2 20.5714H14C15.1 20.5714 16 19.6898 16 18.6122V8.81633C16 7.73878 15.1 6.85714 14 6.85714ZM8 15.6735C6.9 15.6735 6 14.7918 6 13.7143C6 12.6367 6.9 11.7551 8 11.7551C9.1 11.7551 10 12.6367 10 13.7143C10 14.7918 9.1 15.6735 8 15.6735ZM5 6.85714V4.89796C5 3.27184 6.34 1.95918 8 1.95918C9.66 1.95918 11 3.27184 11 4.89796V6.85714H5Z" fill="#1A1D1F"/>
</svg>
