<svg width="31" height="22" viewBox="0 0 31 22" fill="none" xmlns="http://www.w3.org/2000/svg">
<path fill-rule="evenodd" clip-rule="evenodd" d="M27.8351 0H3.60206C1.93604 0 0.572937 1.2375 0.572937 2.75V19.25C0.572937 20.7625 1.93604 22 3.60206 22H27.8351C29.5011 22 30.8642 20.7625 30.8642 19.25V2.75C30.8642 1.2375 29.5011 0 27.8351 0ZM27.2292 5.84375L17.324 11.4675C16.3395 12.0312 15.0976 12.0312 14.1131 11.4675L4.20789 5.84375C3.82925 5.62375 3.60206 5.2525 3.60206 4.85375C3.60206 3.9325 4.70769 3.3825 5.57099 3.86375L15.7186 9.625L25.8661 3.86375C26.7294 3.3825 27.8351 3.9325 27.8351 4.85375C27.8351 5.2525 27.6079 5.62375 27.2292 5.84375Z" fill="#2A6492"/>
</svg>
