<svg width="44" height="44" viewBox="0 0 44 44" fill="none" xmlns="http://www.w3.org/2000/svg">
<path d="M44 22C44 9.84974 34.1503 0 22 0C9.84974 0 0 9.84974 0 22C0 34.1503 9.84974 44 22 44C34.1503 44 44 34.1503 44 22Z" fill="#EA4C38" fill-opacity="0.1"/>
<path d="M30.8 21.9992C30.8 17.1391 26.8601 13.1992 22 13.1992C17.1398 13.1992 13.2 17.1391 13.2 21.9992C13.2 26.8593 17.1398 30.7992 22 30.7992C26.8601 30.7992 30.8 26.8593 30.8 21.9992Z" fill="#EA4C38"/>
<path d="M26.8 21.9992C26.8 19.3483 24.6509 17.1992 22 17.1992C19.349 17.1992 17.2 19.3483 17.2 21.9992C17.2 24.6502 19.349 26.7992 22 26.7992C24.6509 26.7992 26.8 24.6502 26.8 21.9992Z" fill="#EA4C38"/>
</svg>
