<svg width="40" height="50" viewBox="0 0 40 50" fill="none" xmlns="http://www.w3.org/2000/svg">
<path fill-rule="evenodd" clip-rule="evenodd" d="M33.6167 5.52469C33.7808 5.68382 33.9421 5.84581 34.1006 6.01059C41.9665 14.1903 41.9665 27.1571 34.1006 35.3369L20 50L5.89942 35.3369C-1.96647 27.1571 -1.96647 14.1903 5.89942 6.01059C13.4197 -1.80975 25.8292 -2.0273 33.6167 5.52469ZM20 12.7932C15.87 12.7932 12.522 16.1553 12.522 20.3027C12.522 24.45 15.87 27.8121 20 27.8121C24.13 27.8121 27.478 24.45 27.478 20.3027C27.478 16.1553 24.13 12.7932 20 12.7932Z" fill="#EA4C38"/>
<rect x="6" y="7" width="28" height="27.712" rx="8" fill="#EA4C38"/>
<path fill-rule="evenodd" clip-rule="evenodd" d="M12.1892 17.8716L17.1892 13.1122C18.7472 11.6293 21.2528 11.6293 22.8108 13.1122L27.8108 17.8716C28.5717 18.5959 29 19.5837 29 20.6144V27.7845C29 28.849 28.1046 29.712 27 29.712H25.2727C24.1682 29.712 23.2727 28.849 23.2727 27.7845V23.9294C23.2727 22.8649 22.3773 22.0019 21.2727 22.0019H18.7273C17.6227 22.0019 16.7273 22.8649 16.7273 23.9294V27.7845C16.7273 28.849 15.8318 29.712 14.7273 29.712H13C11.8954 29.712 11 28.849 11 27.7845V20.6144C11 19.5837 11.4283 18.5959 12.1892 17.8716Z" fill="white"/>
</svg>
