<svg width="22" height="15" viewBox="0 0 22 15" fill="none" xmlns="http://www.w3.org/2000/svg">
<path fill-rule="evenodd" clip-rule="evenodd" d="M14.8097 12.6157C13.9378 12.6157 13.1257 12.3219 12.446 11.8244C13.1299 10.6966 13.5274 9.33667 13.5274 7.87722C13.5274 6.41778 13.1299 5.06258 12.446 3.93008C13.1257 3.43255 13.9378 3.13876 14.8097 3.13876C17.1649 3.13876 19.084 5.26633 19.084 7.87722C19.084 10.4881 17.1649 12.6157 14.8097 12.6157ZM14.7279 0.769531C13.2477 0.769531 11.8857 1.30498 10.7865 2.20055C9.68735 1.30498 8.32541 0.769531 6.84522 0.769531C3.21922 0.769531 0.276367 3.95378 0.276367 7.87722C0.276367 11.8054 3.21922 14.9849 6.84522 14.9849C8.32541 14.9849 9.68735 14.4495 10.7865 13.5539C11.8857 14.4495 13.2477 14.9849 14.7279 14.9849C18.3582 14.9849 21.2967 11.8054 21.2967 7.87722C21.2967 3.95378 18.3582 0.769531 14.7279 0.769531Z" fill="#1A1D1F"/>
</svg>
