<svg width="40" height="40" viewBox="0 0 40 40" fill="none" xmlns="http://www.w3.org/2000/svg">
<rect width="40" height="40" rx="18" fill="#FEECEA"/>
<path d="M13.4815 15.963C14.2997 15.963 14.963 15.2997 14.963 14.4815C14.963 13.6633 14.2997 13 13.4815 13C12.6633 13 12 13.6633 12 14.4815C12 15.2997 12.6633 15.963 13.4815 15.963Z" fill="#EA4C38"/>
<path d="M13.4815 21.2963C14.2997 21.2963 14.963 20.633 14.963 19.8148C14.963 18.9966 14.2997 18.3333 13.4815 18.3333C12.6633 18.3333 12 18.9966 12 19.8148C12 20.633 12.6633 21.2963 13.4815 21.2963Z" fill="#EA4C38"/>
<path d="M13.4815 26.6296C14.2997 26.6296 14.963 25.9663 14.963 25.1481C14.963 24.3299 14.2997 23.6667 13.4815 23.6667C12.6633 23.6667 12 24.3299 12 25.1481C12 25.9663 12.6633 26.6296 13.4815 26.6296Z" fill="#EA4C38"/>
<path d="M17.9851 15.963H26.4591C26.8678 15.963 27.2597 15.8069 27.5486 15.529C27.8376 15.2512 27.9999 14.8744 27.9999 14.4815C27.9999 14.0886 27.8376 13.7117 27.5486 13.4339C27.2597 13.1561 26.8678 13 26.4591 13H17.9851C17.5764 13 17.1846 13.1561 16.8956 13.4339C16.6067 13.7117 16.4443 14.0886 16.4443 14.4815C16.4443 14.8744 16.6067 15.2512 16.8956 15.529C17.1846 15.8069 17.5764 15.963 17.9851 15.963Z" fill="#EA4C38"/>
<path d="M26.4591 18.3333H17.9851C17.5764 18.3333 17.1846 18.4894 16.8956 18.7673C16.6067 19.0451 16.4443 19.4219 16.4443 19.8148C16.4443 20.2077 16.6067 20.5846 16.8956 20.8624C17.1846 21.1402 17.5764 21.2963 17.9851 21.2963H26.4591C26.8678 21.2963 27.2597 21.1402 27.5486 20.8624C27.8376 20.5846 27.9999 20.2077 27.9999 19.8148C27.9999 19.4219 27.8376 19.0451 27.5486 18.7673C27.2597 18.4894 26.8678 18.3333 26.4591 18.3333Z" fill="#EA4C38"/>
<path d="M22.4591 23.6667H17.9851C17.5764 23.6667 17.1846 23.8227 16.8956 24.1006C16.6067 24.3784 16.4443 24.7552 16.4443 25.1481C16.4443 25.5411 16.6067 25.9179 16.8956 26.1957C17.1846 26.4735 17.5764 26.6296 17.9851 26.6296H22.4591C22.8678 26.6296 23.2597 26.4735 23.5486 26.1957C23.8376 25.9179 23.9999 25.5411 23.9999 25.1481C23.9999 24.7552 23.8376 24.3784 23.5486 24.1006C23.2597 23.8227 22.8678 23.6667 22.4591 23.6667Z" fill="#EA4C38"/>
</svg>
