<svg id="Layer_1" width="20" height="20" viewBox="0 0 18 22" xmlns="http://www.w3.org/2000/svg">
  <path fill-rule="evenodd" clip-rule="evenodd" d="M15.0347 0.916016H3.27083C2.80868 0.916016 2.43056 1.29414 2.43056 1.75629C2.43056 2.21845 2.80868 2.59657 3.27083 2.59657H15.0347C15.4969 2.59657 15.875 2.21845 15.875 1.75629C15.875 1.29414 15.4969 0.916016 15.0347 0.916016ZM3.27083 21.0827H15.0347C15.4969 21.0827 15.875 20.7046 15.875 20.2424C15.875 19.7803 15.4969 19.4021 15.0347 19.4021H3.27083C2.80868 19.4021 2.43056 19.7803 2.43056 20.2424C2.43056 20.7046 2.80868 21.0827 3.27083 21.0827ZM15.875 4.27713H2.43056C1.50625 4.27713 0.75 5.03338 0.75 5.95768V16.041C0.75 16.9653 1.50625 17.7216 2.43056 17.7216H15.875C16.7993 17.7216 17.5556 16.9653 17.5556 16.041V5.95768C17.5556 5.03338 16.7993 4.27713 15.875 4.27713ZM9.15278 6.58789C10.1947 6.58789 11.0434 7.43657 11.0434 8.47852C11.0434 9.52046 10.1947 10.3691 9.15278 10.3691C8.11083 10.3691 7.26215 9.52046 7.26215 8.47852C7.26215 7.43657 8.11083 6.58789 9.15278 6.58789ZM13.3542 15.2007H4.95139V13.9403C4.95139 12.5371 7.74951 11.8396 9.15278 11.8396C10.556 11.8396 13.3542 12.5371 13.3542 13.9403V15.2007Z"/>
</svg>
