<svg width="16" height="20" viewBox="0 0 16 20" fill="none" xmlns="http://www.w3.org/2000/svg">
<path fill-rule="evenodd" clip-rule="evenodd" d="M13.4153 0H4.84383C3.90097 0 3.12955 0.818182 3.12955 1.81818V3.63636C3.12955 4.13636 3.51526 4.54545 3.98669 4.54545C4.45812 4.54545 4.84383 4.13636 4.84383 3.63636V3.6H13.4153V16.5H4.84383V16.3636C4.84383 15.8636 4.45812 15.4545 3.98669 15.4545C3.51526 15.4545 3.12955 15.8636 3.12955 16.3636V18.1818C3.12955 19.1818 3.90097 20 4.84383 20H13.4153C14.3581 20 15.1295 19.1818 15.1295 18.1818V1.81818C15.1295 0.818182 14.3581 0 13.4153 0ZM1.39318 9.59091C1.075 9.27273 0.556818 9.27273 0.238636 9.59091C-0.0795455 9.90909 -0.0795455 10.4273 0.238636 10.7455L2.48409 12.9909C2.83864 13.3455 3.41136 13.3455 3.76591 12.9909L9.08409 7.67273C9.40227 7.35455 9.40227 6.83636 9.08409 6.51818C8.76591 6.2 8.24773 6.2 7.92955 6.51818L3.13864 11.3364L1.39318 9.59091Z" fill="#EA4C38"/>
</svg>
