<svg width="18" height="20" viewBox="0 0 18 20" fill="none" xmlns="http://www.w3.org/2000/svg">
<path fill-rule="evenodd" clip-rule="evenodd" d="M0 4V17.7658C0 18.2243 0.371737 18.5961 0.830298 18.5961C0.985064 18.5961 1.13675 18.5528 1.26824 18.4712L1.9675 18.0371C2.31178 17.8233 2.75101 17.8385 3.07973 18.0755L4.13118 18.8335C4.48274 19.0869 4.95755 19.085 5.30711 18.8288L6.27822 18.1171C6.63012 17.8592 7.10861 17.8592 7.46051 18.1171L8.42676 18.8253C8.77866 19.0832 9.25715 19.0832 9.60905 18.8253L10.5753 18.1171C10.9272 17.8592 11.4057 17.8592 11.7576 18.1171L12.7238 18.8253C13.0757 19.0832 13.5542 19.0832 13.9061 18.8253L14.9188 18.0831C15.2479 17.8419 15.6906 17.8248 16.0374 18.0401L16.7318 18.4712C17.1214 18.713 17.6332 18.5933 17.8751 18.2037C17.9567 18.0722 18 17.9205 18 17.7658V4C18 1.79086 16.2091 0 14 0H4C1.79086 0 0 1.79086 0 4ZM9.69828 10.6621H3.96883C3.5733 10.6621 3.25265 10.1847 3.25265 9.59587C3.25265 9.00702 3.5733 8.52966 3.96883 8.52966H9.69828C10.0938 8.52966 10.4145 9.00702 10.4145 9.59587C10.4145 10.1847 10.0938 10.6621 9.69828 10.6621ZM3.25265 5.33104C3.25265 4.74219 3.5733 4.26483 3.96883 4.26483H8.26591C8.66145 4.26483 8.9821 4.74219 8.9821 5.33104C8.9821 5.91989 8.66145 6.39724 8.26591 6.39724H3.96883C3.5733 6.39724 3.25265 5.91989 3.25265 5.33104ZM3.25265 13.8607C3.25265 13.2718 3.5733 12.7945 3.96883 12.7945H8.26591C8.66145 12.7945 8.9821 13.2718 8.9821 13.8607C8.9821 14.4495 8.66145 14.9269 8.26591 14.9269H3.96883C3.5733 14.9269 3.25265 14.4495 3.25265 13.8607ZM13.9954 10.6621H12.563C12.1675 10.6621 11.8468 10.1847 11.8468 9.59587C11.8468 9.00702 12.1675 8.52966 12.563 8.52966H13.9954C14.3909 8.52966 14.7115 9.00702 14.7115 9.59587C14.7115 10.1847 14.3909 10.6621 13.9954 10.6621ZM13.9954 6.39724H12.563C12.1675 6.39724 11.8468 5.91989 11.8468 5.33104C11.8468 4.74219 12.1675 4.26483 12.563 4.26483H13.9954C14.3909 4.26483 14.7115 4.74219 14.7115 5.33104C14.7115 5.91989 14.3909 6.39724 13.9954 6.39724ZM13.9954 14.9269H12.563C12.1675 14.9269 11.8468 14.4495 11.8468 13.8607C11.8468 13.2718 12.1675 12.7945 12.563 12.7945H13.9954C14.3909 12.7945 14.7115 13.2718 14.7115 13.8607C14.7115 14.4495 14.3909 14.9269 13.9954 14.9269Z" fill="#E9A33F"/>
</svg>
