<svg width="40" height="40" viewBox="0 0 40 40" fill="none" xmlns="http://www.w3.org/2000/svg">
<rect width="40" height="40" rx="18" fill="#FEECEA"/>
<path d="M23.7333 13.0677L13.333 26.9348H15.9997L26.4 13.0677H23.7333Z" fill="#EA4C38"/>
<path d="M18.4002 16.2668V15.2001C18.4002 14.3514 18.063 13.5374 17.4629 12.9373C16.8627 12.3372 16.0488 12 15.2001 12C14.3514 12 13.5374 12.3372 12.9373 12.9373C12.3372 13.5374 12 14.3514 12 15.2001V16.2668C12 17.1155 12.3372 17.9294 12.9373 18.5296C13.5374 19.1297 14.3514 19.4668 15.2001 19.4668C16.0488 19.4668 16.8627 19.1297 17.4629 18.5296C18.063 17.9294 18.4002 17.1155 18.4002 16.2668ZM14.1334 16.2668V15.2001C14.1334 14.9172 14.2458 14.6459 14.4458 14.4458C14.6459 14.2458 14.9172 14.1334 15.2001 14.1334C15.483 14.1334 15.7543 14.2458 15.9543 14.4458C16.1544 14.6459 16.2668 14.9172 16.2668 15.2001V16.2668C16.2668 16.5497 16.1544 16.821 15.9543 17.021C15.7543 17.2211 15.483 17.3335 15.2001 17.3335C14.9172 17.3335 14.6459 17.2211 14.4458 17.021C14.2458 16.821 14.1334 16.5497 14.1334 16.2668Z" fill="#EA4C38"/>
<path d="M24.7997 20.5341C23.951 20.5341 23.137 20.8712 22.5369 21.4713C21.9368 22.0715 21.5996 22.8854 21.5996 23.7341V24.8008C21.5996 25.6495 21.9368 26.4635 22.5369 27.0636C23.137 27.6638 23.951 28.0009 24.7997 28.0009C25.6484 28.0009 26.4624 27.6638 27.0625 27.0636C27.6626 26.4635 27.9998 25.6495 27.9998 24.8008V23.7341C27.9998 22.8854 27.6626 22.0715 27.0625 21.4713C26.4624 20.8712 25.6484 20.5341 24.7997 20.5341ZM25.8664 24.8008C25.8664 25.0837 25.754 25.3551 25.554 25.5551C25.3539 25.7551 25.0826 25.8675 24.7997 25.8675C24.5168 25.8675 24.2455 25.7551 24.0454 25.5551C23.8454 25.3551 23.733 25.0837 23.733 24.8008V23.7341C23.733 23.4512 23.8454 23.1799 24.0454 22.9799C24.2455 22.7798 24.5168 22.6674 24.7997 22.6674C25.0826 22.6674 25.3539 22.7798 25.554 22.9799C25.754 23.1799 25.8664 23.4512 25.8664 23.7341V24.8008Z" fill="#EA4C38"/>
</svg>
