<svg id="Layer_1" width="16" height="16" viewBox="0 0 16 16" xmlns="http://www.w3.org/2000/svg">
  <path fill-rule="evenodd" clip-rule="evenodd" d="M12.5 9C14.433 9 16 10.567 16 12.5C16 14.433 14.433 16 12.5 16C10.567 16 9 14.433 9 12.5C9 10.567 10.567 9 12.5 9ZM15.0607 0.93934C15.6098 1.48851 15.6442 2.35758 15.1636 2.94674L15.0607 3.06066L3.06066 15.0607C2.47487 15.6464 1.52513 15.6464 0.93934 15.0607C0.390165 14.5115 0.355842 13.6424 0.83637 13.0533L0.93934 12.9393L12.9393 0.93934C13.5251 0.353553 14.4749 0.353553 15.0607 0.93934ZM12.5 11C11.6716 11 11 11.6716 11 12.5C11 13.3284 11.6716 14 12.5 14C13.3284 14 14 13.3284 14 12.5C14 11.6716 13.3284 11 12.5 11ZM3.5 0C5.433 0 7 1.567 7 3.5C7 5.433 5.433 7 3.5 7C1.567 7 0 5.433 0 3.5C0 1.567 1.567 0 3.5 0ZM3.5 2C2.67157 2 2 2.67157 2 3.5C2 4.32843 2.67157 5 3.5 5C4.32843 5 5 4.32843 5 3.5C5 2.67157 4.32843 2 3.5 2Z"/>
</svg>
