<svg width="30" height="30" viewBox="0 0 30 30" fill="none" xmlns="http://www.w3.org/2000/svg">
<path fill-rule="evenodd" clip-rule="evenodd" d="M27.0605 20.458L22.8186 19.9736C21.7999 19.8567 20.7979 20.2074 20.0798 20.9256L17.007 23.9984C12.2808 21.5936 8.40636 17.7358 6.00153 12.9929L9.09107 9.90332C9.80918 9.1852 10.1599 8.18318 10.043 7.16446L9.55867 2.95597C9.35827 1.26923 7.93876 0 6.23534 0H3.3462C1.45908 0 -0.110736 1.56983 0.0061653 3.45698C0.891275 17.7191 12.2975 29.1087 26.5428 29.9939C28.4299 30.1108 29.9999 28.5409 29.9999 26.6538V23.7646C30.0164 22.0779 28.7472 20.6584 27.0605 20.458Z" fill="#2A6492"/>
</svg>
