<svg width="14" height="14" viewBox="0 0 14 14" fill="none" xmlns="http://www.w3.org/2000/svg">
<path fill-rule="evenodd" clip-rule="evenodd" d="M12.6282 9.54705L10.6487 9.32103C10.1733 9.26648 9.70567 9.43014 9.37056 9.76526L7.93657 11.1993C5.73103 10.077 3.92295 8.2767 2.8007 6.06335L4.24248 4.62155C4.5776 4.28643 4.74126 3.81882 4.68671 3.34341L4.4607 1.37945C4.36718 0.592306 3.70474 0 2.90981 0H1.56155C0.68089 0 -0.0516911 0.73259 0.0028629 1.61326C0.415914 8.26891 5.73882 13.5841 12.3866 13.9971C13.2673 14.0517 13.9999 13.3191 13.9999 12.4384V11.0902C14.0076 10.303 13.4153 9.64057 12.6282 9.54705Z" fill="#EA4C38"/>
</svg>
