<svg width="20" height="20" viewBox="0 0 20 20" fill="none" xmlns="http://www.w3.org/2000/svg">
  <path d="M9.99967 0C4.47707 0 0 4.4774 0 9.9998C0 15.5222 4.47707 20 9.99967 20C15.5223 20 19.9999 15.5225 19.9999 9.9998C19.9999 4.47713 15.5223 0 9.99967 0ZM14.7999 8.90653L8.2286 15.4773L8.22893 15.4777C8.22667 15.4799 8.22447 15.4815 8.2222 15.4837L8.18193 15.524L8.17987 15.5217C7.80913 15.867 7.3288 16.0393 6.83153 16.0393C6.23847 16.0393 5.62327 15.7974 5.14727 15.3213C4.724 14.8984 4.4702 14.352 4.43267 13.7828C4.39547 13.2198 4.57373 12.7004 4.93167 12.3072L4.92807 12.3036L11.4221 5.8096C11.9705 5.261 12.9027 5.3014 13.5005 5.89913C13.7808 6.1794 13.9494 6.54287 13.9745 6.9222C14.0011 7.32193 13.8607 7.70653 13.5894 7.97747L8.303 13.2644L7.56933 12.5309L12.8561 7.2438C12.9335 7.16633 12.9441 7.0636 12.9393 6.99133C12.9308 6.8648 12.8679 6.73407 12.7667 6.63287C12.5767 6.44287 12.2968 6.40207 12.1555 6.54347L5.7252 12.9737L5.7254 12.9739C5.53987 13.1592 5.4484 13.4222 5.4678 13.7144C5.48887 14.0324 5.63553 14.3426 5.88087 14.5879C6.36793 15.0749 7.0902 15.1455 7.49287 14.7463L14.0667 8.173C14.3729 7.8666 14.5244 7.43593 14.4929 6.9606C14.4597 6.45933 14.2301 5.97227 13.8468 5.58893C13.0735 4.81587 11.9146 4.71713 11.2627 5.36867L5.82413 10.8071L5.09047 10.0736L10.5291 4.635C11.5852 3.57907 13.4026 3.6776 14.5803 4.85513C15.1417 5.4162 15.4781 6.13947 15.5281 6.8918C15.5795 7.66993 15.321 8.3854 14.7999 8.90653Z" fill="#EA4C38"/>
</svg>
