<svg width="20" height="19" viewBox="0 0 20 19" fill="none" xmlns="http://www.w3.org/2000/svg">
<path fill-rule="evenodd" clip-rule="evenodd" d="M10.2656 0.517767C10.956 0.517767 11.5156 1.07741 11.5156 1.76777L11.5158 8.01718L17.7656 8.01777C18.41 8.01777 18.9404 8.50528 19.0083 9.13157L19.0156 9.26777C19.0156 9.95812 18.456 10.5178 17.7656 10.5178L11.5151 10.5168L11.5156 16.7678C11.5156 17.4121 11.0281 17.9426 10.4018 18.0104L10.2656 18.0178C9.57527 18.0178 9.01563 17.4581 9.01563 16.7678L9.01617 10.5168L2.76563 10.5178C2.12129 10.5178 1.59083 10.0303 1.52296 9.40397L1.51563 9.26777C1.51563 8.57741 2.07527 8.01777 2.76563 8.01777L9.01546 8.01718L9.01563 1.76777C9.01563 1.12343 9.50314 0.592967 10.1294 0.525102L10.2656 0.517767Z" fill="#1A1D1F"/>
</svg>
