<svg  id="Layer_1" width="18" height="18" viewBox="0 0 18 18" xmlns="http://www.w3.org/2000/svg">
  <path d="M16.4274 6.30165C17.0149 4.98615 16.7697 3.38914 15.6902 2.30971C14.6108 1.23028 13.0138 0.985122 11.6983 1.5725L10.1258 0L0 10.1258L1.57253 11.6983C0.985086 13.0138 1.23031 14.6108 2.30975 15.6903C3.38918 16.7697 4.98615 17.0148 6.30168 16.4275L7.87421 18L18 7.87425L16.4274 6.30165ZM6.9297 9.94421C6.43929 10.4346 5.64415 10.4346 5.15373 9.94421C4.66332 9.4538 4.66332 8.65866 5.15373 8.16824C5.64415 7.67783 6.43929 7.67783 6.9297 8.16824C7.42015 8.65866 7.42015 9.4538 6.9297 9.94421ZM8.86227 13.2423L7.97035 4.88218L9.13762 4.75763L10.0295 13.1178L8.86227 13.2423ZM12.8533 9.83881C12.3629 10.3292 11.5678 10.3292 11.0773 9.83881C10.5869 9.34839 10.5869 8.55325 11.0773 8.06284C11.5678 7.57242 12.3629 7.57242 12.8533 8.06284C13.3437 8.55325 13.3437 9.34839 12.8533 9.83881Z"/>
</svg>
