<svg width="40" height="40" viewBox="0 0 40 40" fill="none" xmlns="http://www.w3.org/2000/svg">
<rect width="40" height="40" rx="18" fill="#FEECEA"/>
<path d="M20.3946 12C19.2816 12 18.3761 12.9054 18.3761 14.0185C18.3761 15.1316 19.2816 16.037 20.3946 16.037C21.5077 16.037 22.4134 15.1316 22.4134 14.0185C22.4134 12.9054 21.5077 12 20.3946 12ZM23.4818 15.7637C23.0409 15.7637 22.1023 16.315 21.3806 17.126C21.0557 17.0805 20.725 17.0576 20.3946 17.0576C18.8362 17.0576 17.3681 17.558 16.2605 18.4664C15.2558 19.2903 14.6528 20.361 14.5319 21.518C14.0809 21.3689 13.7547 20.9437 13.7547 20.4435C13.7547 20.2351 13.5856 20.0662 13.3772 20.0662C13.1689 20.0662 13 20.2351 13 20.4435C13 21.3595 13.6564 22.125 14.5235 22.2946C14.6248 23.4972 15.2569 24.6301 16.2996 25.4701L15.9753 27.3082C15.9579 27.4068 15.9805 27.5083 16.0378 27.5902C16.0953 27.6722 16.183 27.7277 16.2815 27.7451L17.6936 27.9944C17.7921 28.0116 17.8936 27.9888 17.9755 27.9315C18.0575 27.874 18.1135 27.7866 18.1307 27.6879L18.3332 26.539C18.9903 26.7436 19.6817 26.8473 20.3946 26.8473C21.1076 26.8473 21.7992 26.7438 22.4564 26.539L22.6587 27.6879C22.6761 27.7866 22.7321 27.874 22.8141 27.9315C22.878 27.9761 22.9537 27.9998 23.0305 27.9998C23.0524 27.9998 23.0742 27.9982 23.0961 27.9944L24.5079 27.7451C24.7132 27.709 24.8502 27.5134 24.814 27.3082L24.49 25.4701C25.1004 24.9784 25.5762 24.3822 25.8826 23.7258H26.9164C27.3927 23.7258 27.7803 23.3384 27.7803 22.8623V21.0427C27.7803 20.5665 27.393 20.1792 26.9168 20.1792H25.8826C25.5736 19.5171 25.0922 18.9157 24.4742 18.4219C24.4618 17.6863 24.4089 17.1281 24.3136 16.7188C24.1658 16.0851 23.886 15.7637 23.4818 15.7637ZM20.3946 18.477C20.9027 18.477 21.3995 18.5527 21.8708 18.7025C22.0693 18.7656 22.1792 18.9776 22.1161 19.1761C22.0651 19.3368 21.9164 19.4396 21.7565 19.4396C21.7187 19.4396 21.6803 19.434 21.6423 19.4218C21.2449 19.2957 20.825 19.2317 20.3946 19.2317C19.9641 19.2317 19.5445 19.2957 19.1473 19.4218C18.9486 19.4851 18.7362 19.3752 18.6732 19.1765C18.6101 18.9779 18.72 18.7656 18.9185 18.7025C19.3898 18.5527 19.8866 18.477 20.3946 18.477ZM23.4748 19.826C23.8246 19.826 24.1573 20.0955 24.1573 20.4747C24.1573 20.8539 23.8246 21.1229 23.4748 21.1229C23.125 21.1229 22.7926 20.8539 22.7926 20.4747C22.7926 20.0955 23.125 19.826 23.4748 19.826ZM23.4748 20.3684C23.462 20.3684 23.4027 20.395 23.4027 20.4747C23.4027 20.5543 23.462 20.5804 23.4748 20.5804C23.4876 20.5804 23.547 20.5543 23.547 20.4747C23.547 20.395 23.4876 20.3684 23.4748 20.3684Z" fill="#EA4C38"/>
</svg>
