<svg width="18" height="22" viewBox="0 0 18 22" fill="none" xmlns="http://www.w3.org/2000/svg">
<path fill-rule="evenodd" clip-rule="evenodd" d="M16.0008 8.80078C16.6221 8.80078 17.1331 9.27298 17.1946 9.87809L17.2008 10.0008V15.0008C17.2008 16.7072 15.8652 18.1016 14.1824 18.1957L14.0008 18.2008H7.89778L8.84931 19.1523C9.2867 19.5896 9.31586 20.2807 8.93679 20.7519L8.84931 20.8493C8.41192 21.2867 7.72089 21.3159 7.24969 20.9368L7.15225 20.8493L4.15225 17.8493L4.124 17.8201C4.10534 17.8001 4.08736 17.7795 4.07009 17.7583L4.15225 17.8493C4.10789 17.8049 4.06773 17.758 4.03176 17.7089C4.01646 17.6878 4.00144 17.6659 3.98716 17.6434C3.9781 17.6293 3.97004 17.616 3.96227 17.6026C3.95191 17.5846 3.94148 17.5655 3.93155 17.5461C3.92105 17.5256 3.91153 17.5056 3.90259 17.4853C3.89357 17.4648 3.88504 17.444 3.87709 17.4228C3.8712 17.407 3.86568 17.3913 3.86049 17.3754C3.85281 17.3523 3.84577 17.3284 3.83947 17.3042C3.79725 17.1412 3.78961 16.9718 3.81646 16.8069C3.82009 16.784 3.82438 16.7617 3.82928 16.7396C3.83119 16.7315 3.83322 16.7228 3.83535 16.7141C3.84313 16.682 3.85209 16.6511 3.86223 16.6207C3.86711 16.6062 3.87234 16.5915 3.87787 16.5768C3.8881 16.5496 3.89932 16.5229 3.91145 16.4967C3.9162 16.4864 3.92117 16.476 3.9263 16.4657C3.93967 16.4391 3.95378 16.4133 3.96878 16.3881C3.97692 16.3742 3.98581 16.3599 3.99502 16.3458C4.00718 16.3274 4.01944 16.3096 4.03216 16.2923C4.04243 16.2781 4.05342 16.2638 4.06478 16.2497L4.15225 16.1523L7.15225 13.1523C7.62088 12.6836 8.38068 12.6836 8.84931 13.1523C9.2867 13.5896 9.31586 14.2807 8.93679 14.7519L8.84931 14.8493L7.89678 15.8008H14.0008C14.4086 15.8008 14.7452 15.4956 14.7945 15.1011L14.8008 15.0008V10.0008C14.8008 9.33804 15.338 8.80078 16.0008 8.80078ZM10.7519 1.06478L10.8493 1.15225L13.8493 4.15225C13.8782 4.18115 13.9056 4.21151 13.9315 4.24322L13.8493 4.15225C13.8937 4.19662 13.9338 4.24359 13.9698 4.29268C13.9833 4.31121 13.9966 4.33056 14.0094 4.35031C14.0201 4.36676 14.0299 4.38277 14.0393 4.39895C14.0497 4.41694 14.0601 4.43605 14.07 4.45547C14.0805 4.47594 14.09 4.496 14.099 4.51626C14.108 4.53673 14.1165 4.5576 14.1245 4.57876C14.1304 4.59458 14.1359 4.61031 14.1411 4.62613C14.1488 4.64929 14.1558 4.67319 14.1621 4.69738C14.1772 4.75581 14.1878 4.81442 14.194 4.87341C14.1987 4.91843 14.2008 4.95936 14.2008 5.00078L14.1946 5.12347L14.193 5.13756C14.1913 5.15296 14.1892 5.16834 14.1868 5.18368C14.1829 5.21028 14.178 5.23626 14.1723 5.26193C14.1704 5.27007 14.1683 5.27879 14.1662 5.28748C14.1584 5.31956 14.1495 5.35049 14.1393 5.38088C14.1345 5.39536 14.1292 5.41011 14.1237 5.42478C14.1135 5.45194 14.1022 5.47864 14.0901 5.50482C14.0854 5.51516 14.0804 5.52552 14.0753 5.53582C14.0619 5.56247 14.0478 5.58828 14.0328 5.6135C14.0246 5.6274 14.0158 5.64167 14.0065 5.65579C13.9944 5.67421 13.9821 5.69192 13.9694 5.70929C13.9591 5.72345 13.9481 5.73776 13.9368 5.75187L13.8493 5.84931L10.8493 8.84931C10.3807 9.31794 9.62088 9.31794 9.15225 8.84931C8.71487 8.41192 8.68571 7.72089 9.06478 7.24969L9.15225 7.15225L10.1028 6.20078H4.00078C3.59294 6.20078 3.25638 6.50597 3.20701 6.90043L3.20078 7.00078V12.0008C3.20078 12.6635 2.66352 13.2008 2.00078 13.2008C1.37946 13.2008 0.868429 12.7286 0.806977 12.1235L0.800781 12.0008V7.00078C0.800781 5.29441 2.13637 3.89999 3.81919 3.80585L4.00078 3.80078H10.1038L9.15225 2.84931C8.71487 2.41192 8.68571 1.72089 9.06478 1.24969L9.15225 1.15225C9.58964 0.714866 10.2807 0.685707 10.7519 1.06478Z" fill="#1A1D1F"/>
</svg>
