<svg width="16" height="15" viewBox="0 0 16 15" fill="none" xmlns="http://www.w3.org/2000/svg">
<path fill-rule="evenodd" clip-rule="evenodd" d="M11.9391 0.388119L12.0693 0.506931L15.4979 3.96847L15.5177 3.98882C15.5413 4.01345 15.5642 4.03879 15.5864 4.0648L15.4979 3.96847C15.5419 4.01291 15.583 4.05917 15.6213 4.107C15.6416 4.13259 15.6613 4.15875 15.6803 4.18547C15.6913 4.20078 15.7019 4.21625 15.7122 4.23185C15.767 4.31489 15.8149 4.40281 15.8552 4.49493C15.8613 4.50888 15.8671 4.52283 15.8728 4.53683C15.8863 4.57012 15.8989 4.60427 15.9105 4.63891C15.9154 4.65396 15.9201 4.66859 15.9245 4.68327C15.9342 4.71475 15.9431 4.74721 15.9511 4.78004C15.9552 4.79764 15.9591 4.81494 15.9627 4.83229C15.9699 4.8658 15.9761 4.90023 15.9812 4.935C15.9837 4.95272 15.986 4.97039 15.9881 4.98808C15.9915 5.01615 15.994 5.04427 15.996 5.07257C15.9977 5.0979 15.9988 5.12367 15.9995 5.14945C15.9998 5.16351 16 5.17789 16 5.19231L15.9995 5.23483C15.9989 5.25785 15.9979 5.28086 15.9965 5.30385L16 5.19231C16 5.25366 15.9968 5.31427 15.9907 5.37398C15.9877 5.40158 15.9841 5.42959 15.9799 5.45752C15.9764 5.48107 15.9724 5.50411 15.968 5.52698C15.9628 5.55268 15.9572 5.57838 15.9511 5.60396C15.946 5.62539 15.9404 5.64683 15.9344 5.6681C15.9265 5.69551 15.918 5.7231 15.9088 5.7505C15.8439 5.94312 15.7465 6.12 15.6232 6.275C15.6208 6.2782 15.6182 6.28145 15.6156 6.2847L15.601 6.3024C15.5745 6.33442 15.5468 6.36545 15.5181 6.39544L15.4979 6.41615L12.0693 9.87768C11.3999 10.5536 10.3144 10.5536 9.64496 9.87768C9.01733 9.24402 8.97811 8.24126 9.52728 7.56146L9.64496 7.43001L10.146 6.923L4 6.92308C3.71947 6.92308 3.48616 7.12716 3.43778 7.3963L3.42857 7.5V13.2692C3.42857 14.2251 2.66106 15 1.71429 15C0.823204 15 0.0909158 14.3136 0.00784752 13.4359L0 13.2692V7.5C0 5.34397 1.67346 3.58255 3.78053 3.46751L4 3.46154L10.146 3.461L9.64496 2.95461C9.01733 2.32094 8.97811 1.31818 9.52728 0.63838L9.64496 0.506931C10.2726 -0.126733 11.2658 -0.166337 11.9391 0.388119Z" fill="#1A1D1F"/>
</svg>
