<svg width="17" height="19" viewBox="0 0 17 19" fill="none" xmlns="http://www.w3.org/2000/svg">
<path fill-rule="evenodd" clip-rule="evenodd" d="M15.2 7.24919C15.8213 7.24919 16.3324 7.67707 16.3938 8.22539L16.4 8.33657V12.8673C16.4 14.4135 15.0644 15.6771 13.3816 15.7624L13.2 15.767H7.097L8.04853 16.6292C8.48592 17.0255 8.51507 17.6517 8.13601 18.0787L8.04853 18.167C7.61114 18.5633 6.92011 18.5897 6.44891 18.2462L6.35147 18.167L3.35147 15.4485L3.32322 15.422C3.30456 15.4039 3.28658 15.3853 3.26931 15.3661L3.35147 15.4485C3.30711 15.4083 3.26694 15.3657 3.23098 15.3213C3.21568 15.3022 3.20066 15.2823 3.18638 15.2619C3.17732 15.2491 3.16926 15.2371 3.16148 15.225C3.15113 15.2087 3.14069 15.1913 3.13077 15.1737C3.12027 15.1552 3.11075 15.137 3.10181 15.1187C3.09279 15.1001 3.08426 15.0812 3.07631 15.062C3.07042 15.0477 3.0649 15.0334 3.05971 15.0191C3.05203 14.9981 3.04499 14.9765 3.03869 14.9545C2.99647 14.8068 2.98883 14.6533 3.01568 14.5039C3.01931 14.4832 3.0236 14.463 3.0285 14.443C3.03041 14.4356 3.03244 14.4277 3.03457 14.4198C3.04235 14.3907 3.05131 14.3627 3.06145 14.3352C3.06633 14.3221 3.07156 14.3087 3.07709 14.2954C3.08732 14.2708 3.09854 14.2466 3.11067 14.2229C3.11541 14.2135 3.12039 14.2041 3.12551 14.1948C3.13889 14.1706 3.153 14.1472 3.168 14.1244C3.17614 14.1118 3.18503 14.0989 3.19424 14.0861C3.2064 14.0694 3.21866 14.0533 3.23138 14.0376C3.24165 14.0248 3.25264 14.0118 3.26399 13.999L3.35147 13.9107L6.35147 11.1923C6.8201 10.7676 7.5799 10.7676 8.04853 11.1923C8.48592 11.5886 8.51507 12.2148 8.13601 12.6418L8.04853 12.7301L7.096 13.5922H13.2C13.6078 13.5922 13.9444 13.3157 13.9938 12.9582L14 12.8673V8.33657C14 7.73603 14.5373 7.24919 15.2 7.24919ZM9.95109 0.239218L10.0485 0.318486L13.0485 3.03693C13.0774 3.06312 13.1049 3.09063 13.1307 3.11936L13.0485 3.03693C13.0929 3.07713 13.1331 3.1197 13.169 3.16418C13.1825 3.18097 13.1958 3.1985 13.2086 3.2164C13.2193 3.23131 13.2291 3.24582 13.2385 3.26048C13.2489 3.27678 13.2593 3.2941 13.2692 3.3117C13.2797 3.33024 13.2893 3.34842 13.2982 3.36678C13.3072 3.38533 13.3157 3.40424 13.3237 3.42341C13.3296 3.43775 13.3351 3.452 13.3403 3.46634C13.348 3.48733 13.355 3.50898 13.3613 3.5309C13.3764 3.58384 13.387 3.63695 13.3933 3.69041C13.3979 3.7312 13.4 3.76829 13.4 3.80583L13.3938 3.917L13.3922 3.92977C13.3905 3.94372 13.3884 3.95766 13.3861 3.97156C13.3821 3.99567 13.3772 4.0192 13.3715 4.04246C13.3696 4.04984 13.3676 4.05774 13.3654 4.06562C13.3577 4.09469 13.3487 4.12272 13.3386 4.15025C13.3337 4.16337 13.3284 4.17674 13.3229 4.19003C13.3127 4.21465 13.3015 4.23884 13.2893 4.26256C13.2846 4.27193 13.2796 4.28132 13.2745 4.29065C13.2611 4.3148 13.247 4.33819 13.232 4.36104C13.2239 4.37363 13.215 4.38657 13.2058 4.39936C13.1936 4.41605 13.1813 4.4321 13.1686 4.44784C13.1583 4.46067 13.1474 4.47364 13.136 4.48643L13.0485 4.57472L10.0485 7.29316C9.5799 7.71781 8.8201 7.71781 8.35147 7.29316C7.91408 6.89683 7.88493 6.27065 8.26399 5.84367L8.35147 5.75538L9.302 4.8932H3.2C2.79216 4.8932 2.4556 5.16975 2.40623 5.52719L2.4 5.61812V10.1489C2.4 10.7494 1.86274 11.2362 1.2 11.2362C0.57868 11.2362 0.0676474 10.8084 0.00619543 10.26L0 10.1489V5.61812C0 4.0719 1.33559 2.80834 3.01841 2.72304L3.2 2.71845H9.303L8.35147 1.85627C7.91408 1.45993 7.88493 0.83376 8.26399 0.406777L8.35147 0.318486C8.78886 -0.0778521 9.47989 -0.104275 9.95109 0.239218Z" fill="white"/>
</svg>
