<svg width="12" height="15" viewBox="0 0 12 15" fill="none" xmlns="http://www.w3.org/2000/svg">
<path d="M7.80567 8.38866C10.1185 8.38866 12 6.50707 12 4.19433C12 1.88159 10.1184 0 7.80567 0H3.59249C2.93806 0 2.40754 0.530519 2.40754 1.18495V6.01882H1.18495C0.53052 6.01882 0 6.54934 0 7.20377C0 7.8582 0.53052 8.38872 1.18495 8.38872H2.40754V9.6301H1.18495C0.53052 9.6301 0 10.1606 0 10.815C0 11.4695 0.53052 12 1.18495 12H2.40754V13.2226C2.40754 13.877 2.93806 14.4075 3.59249 14.4075C4.24692 14.4075 4.77744 13.877 4.77744 13.2226V12H7.20377C7.8582 12 8.38872 11.4695 8.38872 10.815C8.38872 10.1606 7.8582 9.6301 7.20377 9.6301H4.77744V8.38872H7.80567V8.38866ZM9.6301 4.19428C9.6301 5.2003 8.81164 6.0187 7.80567 6.0187H4.77744V2.36979H7.80567C8.81164 2.36985 9.6301 3.18831 9.6301 4.19428Z" fill="#056596"/>
</svg>
