<svg width="21" height="19" viewBox="0 0 21 19" fill="none" xmlns="http://www.w3.org/2000/svg">
<path fill-rule="evenodd" clip-rule="evenodd" d="M18.5372 6.76758C19.4785 6.76758 20.2441 7.50788 20.2441 8.41767V16.6179C20.2441 17.5277 19.4785 18.268 18.5372 18.2676H5.45066C4.50976 18.2676 3.74414 17.5273 3.74414 16.6175V8.41767C3.74414 7.50788 4.50976 6.76758 5.45066 6.76758H18.5372ZM18.8062 16.1767H16.5262C16.3013 16.1767 16.1191 16.4575 16.1191 16.8043C16.1191 17.1504 16.3013 17.4312 16.5262 17.4312H18.8062C19.0311 17.4312 19.2133 17.1497 19.2129 16.8043C19.2129 16.4575 19.0311 16.1767 18.8062 16.1767ZM16.7446 11.9949H6.21243C5.988 11.9949 5.80664 12.2758 5.80664 12.6221C5.80664 12.9684 5.98841 13.2494 6.21284 13.2494H16.7446C16.969 13.2494 17.1504 12.9684 17.1504 12.6221C17.1504 12.2758 16.969 11.9949 16.7446 11.9949ZM13.6175 0.414021C14.4937 0.0290228 15.5217 0.429438 15.9067 1.30693L17.7325 5.46775H5.05253C3.63128 5.46775 2.47504 6.624 2.47504 8.04524V12.8669L0.390877 8.11566C0.204628 7.69233 0.195461 7.22066 0.364627 6.78692C0.533377 6.354 0.859625 6.01275 1.28296 5.82692L13.6175 0.414021ZM12.6187 8.85849H10.3387C10.1138 8.85849 9.93164 9.13918 9.93164 9.48576C9.93164 9.83234 10.1138 10.113 10.3387 10.113H12.6187C12.8436 10.113 13.0254 9.83234 13.0254 9.48576C13.0254 9.13918 12.8436 8.85849 12.6187 8.85849ZM8.49368 8.85849H6.21336C5.98841 8.85849 5.80664 9.13918 5.80664 9.48576C5.80664 9.83234 5.98841 10.113 6.21336 10.113H8.49368C8.71862 10.113 8.90039 9.83234 8.90039 9.48576C8.90039 9.13918 8.71862 8.85849 8.49368 8.85849Z" fill="#FFFFFF"/>
</svg>
