<svg id="Layer_1" width="15" height="17" viewBox="0 0 15 17" xmlns="http://www.w3.org/2000/svg">
  <path fill-rule="evenodd" clip-rule="evenodd" d="M0 3.57476V15.8771C0 16.2869 0.309781 16.6191 0.691915 16.6191C0.820887 16.6191 0.947291 16.5805 1.05686 16.5075L1.63958 16.1195C1.92648 15.9285 2.29251 15.9421 2.56644 16.1538L3.44265 16.8313C3.73562 17.0578 4.13129 17.0561 4.42259 16.8271L5.23185 16.191C5.5251 15.9606 5.92384 15.9606 6.21709 16.191L7.0223 16.8239C7.31555 17.0544 7.71429 17.0544 8.00754 16.8239L8.81275 16.191C9.106 15.9606 9.50474 15.9606 9.79799 16.191L10.6032 16.8239C10.8965 17.0544 11.2952 17.0544 11.5884 16.8239L12.4323 16.1607C12.7066 15.9451 13.0755 15.9299 13.3645 16.1222L13.9431 16.5075C14.2678 16.7236 14.6944 16.6166 14.8959 16.2685C14.964 16.1509 15 16.0154 15 15.8771V3.57476C15 1.60047 13.5076 0 11.6667 0H3.33333C1.49238 0 0 1.60047 0 3.57476ZM8.0819 9.52858H3.30736C2.97775 9.52858 2.71054 9.10197 2.71054 8.57572C2.71054 8.04947 2.97775 7.62287 3.30736 7.62287H8.0819C8.41151 7.62287 8.67871 8.04947 8.67871 8.57572C8.67871 9.10197 8.41151 9.52858 8.0819 9.52858ZM2.71054 4.76429C2.71054 4.23804 2.97775 3.81143 3.30736 3.81143H6.88826C7.21788 3.81143 7.48508 4.23804 7.48508 4.76429C7.48508 5.29054 7.21788 5.71715 6.88826 5.71715H3.30736C2.97775 5.71715 2.71054 5.29054 2.71054 4.76429ZM2.71054 12.3872C2.71054 11.8609 2.97775 11.4343 3.30736 11.4343H6.88826C7.21788 11.4343 7.48508 11.8609 7.48508 12.3872C7.48508 12.9134 7.21788 13.34 6.88826 13.34H3.30736C2.97775 13.34 2.71054 12.9134 2.71054 12.3872ZM11.6628 9.52858H10.4692C10.1396 9.52858 9.87235 9.10197 9.87235 8.57572C9.87235 8.04947 10.1396 7.62287 10.4692 7.62287H11.6628C11.9924 7.62287 12.2596 8.04947 12.2596 8.57572C12.2596 9.10197 11.9924 9.52858 11.6628 9.52858ZM11.6628 5.71715H10.4692C10.1396 5.71715 9.87235 5.29054 9.87235 4.76429C9.87235 4.23804 10.1396 3.81143 10.4692 3.81143H11.6628C11.9924 3.81143 12.2596 4.23804 12.2596 4.76429C12.2596 5.29054 11.9924 5.71715 11.6628 5.71715ZM11.6628 13.34H10.4692C10.1396 13.34 9.87235 12.9134 9.87235 12.3872C9.87235 11.8609 10.1396 11.4343 10.4692 11.4343H11.6628C11.9924 11.4343 12.2596 11.8609 12.2596 12.3872C12.2596 12.9134 11.9924 13.34 11.6628 13.34Z"/>
</svg>
