<svg width="18" height="16" viewBox="0 0 18 16" fill="none" xmlns="http://www.w3.org/2000/svg">
<path fill-rule="evenodd" clip-rule="evenodd" d="M5.19881 8.10708C5.76149 8.6673 5.76349 9.5776 5.20327 10.1403C5.20179 10.1418 5.2003 10.1433 5.19881 10.1447L4.94045 10.4015L9.97059 10.402C10.7663 10.402 11.4114 11.047 11.4114 11.8428C11.4114 12.6386 10.7663 13.2837 9.97059 13.2837L4.94045 13.2835L5.19881 13.5409C5.76149 14.1011 5.76349 15.0114 5.20327 15.5741L5.19881 15.5785C4.63292 16.1419 3.71806 16.1419 3.15217 15.5785L0.423326 12.8616C-0.139361 12.3014 -0.141359 11.3911 0.418862 10.8284L0.423326 10.824L3.15217 8.10708C3.71806 7.54367 4.63292 7.54367 5.19881 8.10708ZM14.8467 0.422556L17.5756 3.13945C18.1383 3.69967 18.1403 4.60996 17.58 5.17265L17.5756 5.17711L14.8467 7.894C14.2808 8.45741 13.366 8.45741 12.8001 7.894C12.2374 7.33378 12.2354 6.42349 12.7956 5.8608C12.7971 5.85931 12.7986 5.85782 12.8001 5.85634L13.0575 5.59854L8.02832 5.59913C7.23256 5.59913 6.58747 4.95404 6.58747 4.15828C6.58747 3.36252 7.23256 2.71743 8.02832 2.71743L13.0575 2.71654L12.8001 2.46022C12.2374 1.9 12.2354 0.989707 12.7956 0.427021L12.8001 0.422556C13.366 -0.140852 14.2808 -0.140852 14.8467 0.422556Z" fill="#2A6492"/>
</svg>
