<svg width="45" height="44" viewBox="0 0 45 44" fill="none" xmlns="http://www.w3.org/2000/svg">
<path d="M30.4878 0H14.2276C6.36993 0 0 6.26801 0 14V30C0 37.732 6.36993 44 14.2276 44H30.4878C38.3455 44 44.7154 37.732 44.7154 30V14C44.7154 6.26801 38.3455 0 30.4878 0Z" fill="#ECF4F0"/>
<rect x="11.1777" y="11" width="22.3577" height="22" rx="8" fill="#429366"/>
<path fill-rule="evenodd" clip-rule="evenodd" d="M16.7676 18.3584V27.4559C16.7676 27.7589 16.9984 28.0046 17.2832 28.0046C17.3793 28.0046 17.4736 27.976 17.5552 27.9221L17.9895 27.6352C18.2033 27.4939 18.4761 27.5039 18.6802 27.6605L19.3332 28.1615C19.5516 28.329 19.8465 28.3278 20.0635 28.1584L20.6667 27.6881C20.8852 27.5176 21.1824 27.5176 21.4009 27.6881L22.001 28.1561C22.2195 28.3265 22.5167 28.3265 22.7353 28.1561L23.3353 27.6881C23.5539 27.5176 23.8511 27.5176 24.0696 27.6881L24.6697 28.1561C24.8882 28.3265 25.1854 28.3265 25.4039 28.1561L26.0328 27.6656C26.2373 27.5062 26.5122 27.4949 26.7275 27.6372L27.1588 27.9221C27.4008 28.0819 27.7187 28.0028 27.8689 27.7453C27.9196 27.6584 27.9464 27.5582 27.9464 27.4559V18.3584C27.9464 16.8984 26.8342 15.7148 25.4622 15.7148H19.2518C17.8798 15.7148 16.7676 16.8984 16.7676 18.3584ZM22.7907 22.7612H19.2324C18.9868 22.7612 18.7876 22.4457 18.7876 22.0566C18.7876 21.6674 18.9868 21.3519 19.2324 21.3519H22.7907C23.0363 21.3519 23.2355 21.6674 23.2355 22.0566C23.2355 22.4457 23.0363 22.7612 22.7907 22.7612ZM18.7876 19.238C18.7876 18.8489 18.9868 18.5334 19.2324 18.5334H21.9011C22.1468 18.5334 22.3459 18.8489 22.3459 19.238C22.3459 19.6272 22.1468 19.9427 21.9011 19.9427H19.2324C18.9868 19.9427 18.7876 19.6272 18.7876 19.238ZM18.7876 24.8751C18.7876 24.4859 18.9868 24.1705 19.2324 24.1705H21.9011C22.1468 24.1705 22.3459 24.4859 22.3459 24.8751C22.3459 25.2643 22.1468 25.5797 21.9011 25.5797H19.2324C18.9868 25.5797 18.7876 25.2643 18.7876 24.8751ZM25.4594 22.7612H24.5698C24.3242 22.7612 24.125 22.4457 24.125 22.0566C24.125 21.6674 24.3242 21.3519 24.5698 21.3519H25.4594C25.705 21.3519 25.9041 21.6674 25.9041 22.0566C25.9041 22.4457 25.705 22.7612 25.4594 22.7612ZM25.4594 19.9427H24.5698C24.3242 19.9427 24.125 19.6272 24.125 19.238C24.125 18.8489 24.3242 18.5334 24.5698 18.5334H25.4594C25.705 18.5334 25.9041 18.8489 25.9041 19.238C25.9041 19.6272 25.705 19.9427 25.4594 19.9427ZM25.4594 25.5797H24.5698C24.3242 25.5797 24.125 25.2643 24.125 24.8751C24.125 24.4859 24.3242 24.1705 24.5698 24.1705H25.4594C25.705 24.1705 25.9041 24.4859 25.9041 24.8751C25.9041 25.2643 25.705 25.5797 25.4594 25.5797Z" fill="white"/>
</svg>
