<svg width="45" height="44" viewBox="0 0 45 44" fill="none" xmlns="http://www.w3.org/2000/svg">
<path d="M30.4878 0H14.2276C6.36993 0 0 6.26801 0 14V30C0 37.732 6.36993 44 14.2276 44H30.4878C38.3455 44 44.7154 37.732 44.7154 30V14C44.7154 6.26801 38.3455 0 30.4878 0Z" fill="#ECEDED"/>
<rect x="11.1787" y="11" width="22.3577" height="22" rx="8" fill="#AFB0B1"/>
<path fill-rule="evenodd" clip-rule="evenodd" d="M16.7681 18.3584V27.4559C16.7681 27.7589 16.9989 28.0046 17.2837 28.0046C17.3798 28.0046 17.474 27.976 17.5557 27.9221L17.99 27.6352C18.2038 27.4939 18.4766 27.5039 18.6807 27.6605L19.3337 28.1615C19.5521 28.329 19.8469 28.3278 20.064 28.1584L20.6671 27.6881C20.8857 27.5176 21.1829 27.5176 21.4014 27.6881L22.0015 28.1561C22.22 28.3265 22.5172 28.3265 22.7357 28.1561L23.3358 27.6881C23.5544 27.5176 23.8515 27.5176 24.0701 27.6881L24.6702 28.1561C24.8887 28.3265 25.1859 28.3265 25.4044 28.1561L26.0333 27.6656C26.2377 27.5062 26.5127 27.4949 26.728 27.6372L27.1593 27.9221C27.4012 28.0819 27.7192 28.0028 27.8694 27.7453C27.9201 27.6584 27.9469 27.5582 27.9469 27.4559V18.3584C27.9469 16.8984 26.8347 15.7148 25.4627 15.7148H19.2523C17.8803 15.7148 16.7681 16.8984 16.7681 18.3584ZM22.7912 22.7612H19.2329C18.9873 22.7612 18.7881 22.4457 18.7881 22.0566C18.7881 21.6674 18.9873 21.3519 19.2329 21.3519H22.7912C23.0368 21.3519 23.2359 21.6674 23.2359 22.0566C23.2359 22.4457 23.0368 22.7612 22.7912 22.7612ZM18.7881 19.238C18.7881 18.8489 18.9873 18.5334 19.2329 18.5334H21.9016C22.1472 18.5334 22.3464 18.8489 22.3464 19.238C22.3464 19.6272 22.1472 19.9427 21.9016 19.9427H19.2329C18.9873 19.9427 18.7881 19.6272 18.7881 19.238ZM18.7881 24.8751C18.7881 24.4859 18.9873 24.1705 19.2329 24.1705H21.9016C22.1472 24.1705 22.3464 24.4859 22.3464 24.8751C22.3464 25.2643 22.1472 25.5797 21.9016 25.5797H19.2329C18.9873 25.5797 18.7881 25.2643 18.7881 24.8751ZM25.4599 22.7612H24.5703C24.3246 22.7612 24.1255 22.4457 24.1255 22.0566C24.1255 21.6674 24.3246 21.3519 24.5703 21.3519H25.4599C25.7055 21.3519 25.9046 21.6674 25.9046 22.0566C25.9046 22.4457 25.7055 22.7612 25.4599 22.7612ZM25.4599 19.9427H24.5703C24.3246 19.9427 24.1255 19.6272 24.1255 19.238C24.1255 18.8489 24.3246 18.5334 24.5703 18.5334H25.4599C25.7055 18.5334 25.9046 18.8489 25.9046 19.238C25.9046 19.6272 25.7055 19.9427 25.4599 19.9427ZM25.4599 25.5797H24.5703C24.3246 25.5797 24.1255 25.2643 24.1255 24.8751C24.1255 24.4859 24.3246 24.1705 24.5703 24.1705H25.4599C25.7055 24.1705 25.9046 24.4859 25.9046 24.8751C25.9046 25.2643 25.7055 25.5797 25.4599 25.5797Z" fill="white"/>
</svg>
