<svg width="22" height="16" viewBox="0 0 22 16" fill="none" xmlns="http://www.w3.org/2000/svg">
  <path d="M20.166 4.44531H4.58262C3.73265 4.44531 3.00707 4.99915 2.80477 5.79644C2.80387 5.79948 2.80254 5.80294 2.80164 5.80598L0.118313 14.5916C0.0892229 14.6875 0.0941214 14.7904 0.132622 14.8833C0.413724 15.5621 1.08065 16.0009 1.8326 16.0009H17.416C18.2369 16.0009 18.9508 15.474 19.1751 14.7114C19.1791 14.7019 19.1827 14.6923 19.1858 14.6823L21.909 6.77257C21.9179 6.74741 21.9238 6.72136 21.9278 6.69532C21.9756 6.53082 21.9993 6.37586 21.9993 6.22307C21.9993 5.24261 21.1771 4.44531 20.166 4.44531Z" fill="#056596"/>
  <path d="M0.392521 9.22487C0.414908 9.22833 0.436822 9.22966 0.458779 9.22966C0.658843 9.22966 0.839699 9.1025 0.897879 8.91154L1.91929 5.5669C1.92063 5.56169 1.922 5.5569 1.92333 5.55169C2.23666 4.37635 3.33014 3.5556 4.58337 3.5556H18.7076C18.8567 3.5556 18.9963 3.48526 19.0823 3.36722C19.1678 3.2496 19.1892 3.09855 19.1395 2.96226C18.8799 2.25393 18.1875 1.7778 17.4167 1.7778H8.89814L7.19906 0.130209C7.11312 0.0468752 6.99676 0 6.87499 0H1.83336C0.822211 0 0 0.797295 0 1.7778V8.7852C0 9.00612 0.167407 9.19316 0.392521 9.22487Z" fill="#056596"/>
  <path fill-rule="evenodd" clip-rule="evenodd" d="M14.237 9.4605C14.535 9.4605 14.7765 9.70204 14.7765 10C14.7765 10.298 14.535 10.5395 14.237 10.5395L11.5394 10.5394L11.5395 13.237C11.5395 13.5164 11.3272 13.7461 11.0552 13.7737L11 13.7765C10.702 13.7765 10.4605 13.535 10.4605 13.237L10.4606 10.5394L7.76297 10.5395C7.48364 10.5395 7.25388 10.3272 7.22626 10.0552L7.22347 10C7.22347 9.70204 7.46501 9.4605 7.76297 9.4605L10.4606 9.4606L10.4605 6.76297C10.4605 6.48364 10.6728 6.25388 10.9448 6.22626L11 6.22347C11.298 6.22347 11.5395 6.46501 11.5395 6.76297L11.5394 9.4606L14.237 9.4605Z" fill="white"/>
</svg>
