<svg width="7" height="13" viewBox="0 0 7 13" fill="none" xmlns="http://www.w3.org/2000/svg">
<path fill-rule="evenodd" clip-rule="evenodd" d="M3.71429 0.127129C4.00159 0.296635 4.17857 0.609894 4.17857 0.948905C4.17857 1.17447 4.32774 1.36983 4.53409 1.46094C5.44284 1.86221 6.1248 2.66727 6.38245 3.64547C6.44135 3.86911 6.50971 4.09712 6.49805 4.3281C6.48579 4.57083 6.38243 4.80447 6.20157 4.9756C5.93573 5.22716 5.55097 5.29773 5.21611 5.15635C4.88124 5.01498 4.65743 4.68747 4.64286 4.31752C4.52841 3.62519 3.93702 3.12158 3.25 3.13139C2.55357 3.13139 1.85714 3.51095 1.85714 4.36496C1.85714 5.21898 1.85714 5.21898 3.43571 5.59854C6.08214 6.21533 6.5 7.78102 6.5 8.68248C6.49521 9.97672 5.70288 11.1149 4.54084 11.5589C4.33279 11.6385 4.17857 11.8284 4.17857 12.0511C4.17857 12.5752 3.76284 13 3.25 13C2.73716 13 2.32143 12.5752 2.32143 12.0511C2.32143 11.8256 2.17209 11.6304 1.96563 11.5398C0.785319 11.0215 0.00153376 9.82978 0 8.4927C0 7.96864 0.415735 7.5438 0.928571 7.5438C1.44141 7.5438 1.85714 7.96864 1.85714 8.4927C1.85714 9.2788 2.48075 9.91606 3.25 9.91606C3.94643 9.91606 4.64286 9.5365 4.64286 8.68248C4.64286 7.82847 4.64286 7.78102 3.06429 7.44891C0.371428 6.83212 0 5.21898 0 4.31752C0.00478673 3.02328 0.797123 1.88512 1.95916 1.44105C2.16721 1.36155 2.32143 1.17162 2.32143 0.948905C2.32143 0.609894 2.49841 0.296635 2.78571 0.127129C3.07302 -0.0423764 3.42699 -0.0423764 3.71429 0.127129Z" fill="#2A6492"/>
</svg>
