<svg width="7" height="13" viewBox="0 0 7 13" fill="none" xmlns="http://www.w3.org/2000/svg">
<path fill-rule="evenodd" clip-rule="evenodd" d="M3.71429 0.127129C4.00159 0.296635 4.17857 0.609894 4.17857 0.948905V1.32847C5.37289 1.69478 6.25682 2.7271 6.45357 3.9854C6.56581 4.33744 6.46742 4.72404 6.20157 4.9756C5.93573 5.22716 5.55097 5.29773 5.21611 5.15635C4.88124 5.01498 4.65743 4.68747 4.64286 4.31752C4.52841 3.62519 3.93702 3.12158 3.25 3.13139C2.55357 3.13139 1.85714 3.51095 1.85714 4.36496C1.85714 5.21898 1.85714 5.21898 3.43571 5.59854C6.08214 6.21533 6.5 7.78102 6.5 8.68248C6.49473 10.1072 5.53513 11.3428 4.17857 11.6715V12.0511C4.17857 12.5752 3.76284 13 3.25 13C2.73716 13 2.32143 12.5752 2.32143 12.0511V11.6715C0.945415 11.2523 0.00168314 9.96001 0 8.4927C0 7.96864 0.415735 7.5438 0.928571 7.5438C1.44141 7.5438 1.85714 7.96864 1.85714 8.4927C1.85714 9.2788 2.48075 9.91606 3.25 9.91606C3.94643 9.91606 4.64286 9.5365 4.64286 8.68248C4.64286 7.82847 4.64286 7.78102 3.06429 7.44891C0.371428 6.83212 0 5.21898 0 4.31752C0.00526926 2.89281 0.964873 1.65724 2.32143 1.32847V0.948905C2.32143 0.609894 2.49841 0.296635 2.78571 0.127129C3.07302 -0.0423764 3.42699 -0.0423764 3.71429 0.127129Z" fill="#EDF7F3"/>
</svg>
