<svg width="42" height="14" viewBox="0 0 42 14" fill="none" xmlns="http://www.w3.org/2000/svg">
<path d="M16.5447 0.351562L14.4521 13.3823H17.7989L19.8931 0.351562H16.5447Z" fill="white"/>
<path d="M11.9456 0.354307L8.623 9.25339L8.26875 7.9097C7.61349 6.29069 5.75327 3.96553 3.56934 2.50019L6.60747 13.3823L10.197 13.3759L15.5395 0.351562L11.9456 0.354307Z" fill="white"/>
<path d="M26.8081 3.10856C27.9244 3.09006 28.7335 3.34725 29.3619 3.6137L29.6699 3.76635L30.1315 0.905737C29.4558 0.638364 28.3965 0.351562 27.0748 0.351562C23.7031 0.351562 21.3266 2.14176 21.3081 4.70725C21.2862 6.60291 23.001 7.6613 24.2964 8.29319C25.6259 8.94081 26.0718 9.35251 26.0656 9.93074C26.0551 10.8143 25.0055 11.2195 24.0252 11.2195C22.6588 11.2195 21.933 11.0206 20.8123 10.5284L20.3726 10.3175L19.8926 13.2715C20.6912 13.6407 22.1647 13.958 23.6943 13.9746C27.2811 13.9746 29.612 12.2057 29.6366 9.46445C29.6515 7.96476 28.7414 6.82033 26.7694 5.88128C25.5759 5.26882 24.8457 4.86175 24.8528 4.24374C24.8528 3.69511 25.4724 3.10856 26.8081 3.10856Z" fill="white"/>
<path d="M38.9591 0.351562H36.3833C35.5833 0.351562 34.9882 0.5837 34.6367 1.43365L29.6865 13.3823H33.1875C33.1875 13.3823 33.7586 11.7756 33.8881 11.4238C34.2714 11.4238 37.6729 11.4293 38.1574 11.4293C38.2569 11.8844 38.5638 13.3823 38.5638 13.3823H41.6567L38.9591 0.351562ZM34.8476 8.75512C35.122 8.00661 36.1758 5.11129 36.1758 5.11129C36.1578 5.14694 36.4476 4.3573 36.62 3.86653L36.8446 4.99066C36.8446 4.99066 37.4834 8.10349 37.6172 8.75512H34.8476Z" fill="white"/>
<path d="M7.75374 1.27166C7.53713 0.581785 6.90935 0.376173 6.13013 0.351562H0.35261L0.304688 0.577022C4.80076 1.48045 7.77578 3.65724 9.01027 6.27464L7.75374 1.27166Z" fill="white"/>
</svg>
