<svg width="20" height="16" viewBox="0 0 20 16" fill="none" xmlns="http://www.w3.org/2000/svg">
<path fill-rule="evenodd" clip-rule="evenodd" d="M9.98686 11.3077C10.5354 11.3077 11.0037 11.5041 11.3918 11.8969C11.7798 12.2897 11.9739 12.7637 11.9739 13.3189C11.9739 13.874 11.7798 14.348 11.3918 14.7408C11.0037 15.1336 10.5354 15.33 9.98686 15.33C9.43836 15.33 8.97006 15.1336 8.58197 14.7408C8.19387 14.348 7.99983 13.874 7.99983 13.3189C7.99983 12.7637 8.19387 12.2897 8.58197 11.8969C8.97006 11.5041 9.43836 11.3077 9.98686 11.3077ZM10.0024 5.83902C11.0132 5.83902 11.9924 6.03085 12.9401 6.41451C13.9035 6.81415 14.7643 7.38164 15.5224 8.11698C15.6645 8.24487 15.7672 8.39673 15.8304 8.57257C15.9093 8.7644 15.9488 8.94824 15.9488 9.12408C15.933 9.33189 15.8857 9.51573 15.8067 9.67558C15.7277 9.85143 15.6093 10.0033 15.4513 10.1312L14.4326 10.9944C14.1799 11.2182 13.8877 11.3221 13.556 11.3061C13.2244 11.3061 12.9322 11.1862 12.6795 10.9464C11.9213 10.2431 11.029 9.89139 10.0024 9.89139C8.95996 9.89139 8.0597 10.2431 7.30159 10.9464C7.04888 11.1702 6.76459 11.2901 6.44871 11.3061C6.11703 11.3221 5.81695 11.2182 5.54845 10.9944L4.52973 10.1312C4.38759 10.0033 4.27703 9.85143 4.19806 9.67558C4.10329 9.51573 4.05591 9.33189 4.05591 9.12408C4.04012 8.94824 4.0717 8.7644 4.15068 8.57257C4.21385 8.39673 4.31651 8.24487 4.45866 8.11698C5.21677 7.38164 6.08545 6.81415 7.06468 6.41451C7.99652 6.03085 8.97576 5.83902 10.0024 5.83902ZM10.0024 0C11.8187 0 13.5639 0.367671 15.2381 1.10301C16.9123 1.83835 18.3732 2.86943 19.6209 4.19624C19.7473 4.34011 19.8421 4.49997 19.9052 4.67581C19.9684 4.85165 20 5.02749 20 5.20334C19.9842 5.39516 19.9368 5.57101 19.8579 5.73086C19.7789 5.90671 19.6683 6.05058 19.5262 6.16248L18.5075 7.0257C18.239 7.2495 17.931 7.35341 17.5835 7.33742C17.236 7.32144 16.9439 7.18556 16.7069 6.92979C15.8383 6.00262 14.8196 5.28327 13.6508 4.77172C12.482 4.27617 11.2659 4.02839 10.0024 4.02839C8.72305 4.02839 7.49901 4.27617 6.33025 4.77172C5.17729 5.28327 4.16647 6.00262 3.2978 6.92979C3.04509 7.18556 2.74501 7.32144 2.39754 7.33742C2.05007 7.35341 1.74208 7.2495 1.47358 7.0257C0.794441 6.43423 0.423281 6.11452 0.360104 6.06656C0.138988 5.81079 0.0205323 5.53104 0.0047382 5.22732C-0.0110558 5.03549 0.0126353 4.85165 0.0758115 4.67581C0.138988 4.49997 0.233752 4.34011 0.360104 4.19624C1.60783 2.86943 3.06878 1.83835 4.74295 1.10301C6.41712 0.367671 8.17026 0 10.0024 0Z" fill="#EA4C38"/>
</svg>
