<?xml version="1.0" standalone="no"?>
<!DOCTYPE svg PUBLIC "-//W3C//DTD SVG 1.1//EN" "http://www.w3.org/Graphics/SVG/1.1/DTD/svg11.dtd" >
<svg xmlns="http://www.w3.org/2000/svg" xmlns:xlink="http://www.w3.org/1999/xlink" version="1.1">
<metadata>
Created by FontForge 20170924 at Thu Oct  7 15:41:23 2021
 By www-data
Copyright \(c\) 2015 Monotype Imaging Inc. All rights reserved.
</metadata>
<defs>
<font id="Helvetica-mt-svan-Medium" horiz-adv-x="556" >
  <font-face 
    font-family="Helvetica-mt-svan Medium"
    font-weight="400"
    font-stretch="normal"
    units-per-em="1000"
    panose-1="2 11 6 4 2 2 2 2 2 4"
    ascent="765"
    descent="-235"
    x-height="517"
    cap-height="714"
    bbox="-165 -223 1066 1041"
    underline-thickness="50"
    underline-position="-100"
    unicode-range="U+0020-FEFF"
  />
<missing-glyph horiz-adv-x="512" 
d="M512 0h-512v718h512v-718zM462 667h-412v-617h412v617zM383 478c0 -54 -21 -82 -64 -121c-22 -20 -36 -35 -41 -46c-5 -12 -7 -37 -7 -77h-46l-2 19c0 39 6 67 16 86c11 19 27 37 47 56c22 20 46 45 46 79c0 46 -36 85 -76 85c-44 0 -74 -31 -82 -95l-50 8
c9 90 57 137 135 137c71 0 124 -53 124 -131zM278 184v-67h-56v67h56z" />
    <glyph glyph-name=".notdef" horiz-adv-x="512" 
d="M512 0h-512v718h512v-718zM462 667h-412v-617h412v617zM383 478c0 -54 -21 -82 -64 -121c-22 -20 -36 -35 -41 -46c-5 -12 -7 -37 -7 -77h-46l-2 19c0 39 6 67 16 86c11 19 27 37 47 56c22 20 46 45 46 79c0 46 -36 85 -76 85c-44 0 -74 -31 -82 -95l-50 8
c9 90 57 137 135 137c71 0 124 -53 124 -131zM278 184v-67h-56v67h56z" />
    <glyph glyph-name="NULL" horiz-adv-x="0" 
 />
    <glyph glyph-name="CR" horiz-adv-x="278" 
 />
    <glyph glyph-name="space" unicode=" " horiz-adv-x="278" 
 />
    <glyph glyph-name="exclam" unicode="!" horiz-adv-x="278" 
d="M202 508l-33 -309h-59l-33 309v206h125v-206zM206 0h-134v125h134v-125z" />
    <glyph glyph-name="quotedbl" unicode="&#x22;" horiz-adv-x="444" 
d="M185 432h-102v282h102v-282zM361 432h-102v282h102v-282z" />
    <glyph glyph-name="numbersign" unicode="#" 
d="M247 490h111l29 210h81l-30 -210h86v-75h-96l-18 -130h85v-75h-95l-30 -210h-80l29 210h-110l-30 -210h-80l29 210h-94v75h105l18 130h-94v75h104l29 210h81zM219 285h111l18 130h-111z" />
    <glyph glyph-name="dollar" unicode="$" 
d="M302 809v-78c136 -1 219 -77 219 -195h-114c-4 72 -37 105 -103 105h-2v-211c88 -23 150 -52 185 -87s52 -80 52 -135c0 -134 -86 -217 -237 -225v-78h-43v78c-153 6 -242 91 -242 226v8h114v-2c0 -91 43 -139 128 -142v242c-161 41 -227 107 -227 220
c0 117 96 195 227 196v78h43zM146 543c0 -52 36 -84 113 -102v200h-3c-68 0 -110 -30 -110 -98zM302 306v-233c78 5 123 43 123 118c0 61 -37 94 -123 115z" />
    <glyph glyph-name="percent" unicode="%" horiz-adv-x="1000" 
d="M338 -24h-78l389 748h76zM249 714c106 0 167 -79 167 -199c0 -124 -60 -199 -167 -199s-167 72 -167 199c0 121 63 199 167 199zM172 515c0 -87 27 -134 76 -134c50 0 78 49 78 134c0 84 -26 134 -78 134c-50 0 -76 -44 -76 -134zM751 384c107 0 167 -80 167 -199
c0 -125 -60 -199 -167 -199s-167 75 -167 199c0 119 60 199 167 199zM674 185c0 -87 27 -134 76 -134c50 0 78 49 78 134c0 84 -26 134 -78 134c-49 0 -76 -41 -76 -134z" />
    <glyph glyph-name="ampersand" unicode="&#x26;" horiz-adv-x="648" 
d="M299 731c101 0 178 -64 178 -171c0 -72 -43 -134 -128 -181l110 -134c13 37 18 61 22 96h100c-10 -82 -30 -134 -56 -175l137 -166h-140l-64 79h-1c-53 -64 -116 -93 -200 -93c-134 0 -225 83 -225 212c0 84 55 150 164 207c-61 78 -72 113 -72 156c0 97 73 170 175 170z
M226 567c0 -30 5 -48 65 -119c60 38 84 71 84 116c0 48 -29 82 -74 82c-42 0 -75 -33 -75 -79zM146 196c0 -73 44 -120 115 -120c59 0 98 23 135 80l-140 174c-49 -27 -80 -49 -92 -68s-18 -41 -18 -66z" />
    <glyph glyph-name="quotesingle" unicode="'" horiz-adv-x="278" 
d="M190 432h-102v282h102v-282z" />
    <glyph glyph-name="parenleft" unicode="(" horiz-adv-x="278" 
d="M193 731h93c-81 -145 -123 -295 -123 -461c0 -171 40 -321 123 -461h-93c-108 176 -144 302 -144 461c0 152 47 311 144 461z" />
    <glyph glyph-name="parenright" unicode=")" horiz-adv-x="278" 
d="M-8 731h93c99 -156 144 -299 144 -461c0 -159 -50 -318 -144 -461h-93c84 150 123 299 123 460c0 167 -39 319 -123 462z" />
    <glyph glyph-name="asterisk" unicode="*" horiz-adv-x="370" 
d="M219 594l109 43l24 -65l-114 -38l70 -94l-53 -39l-71 98l-68 -98l-56 39l70 94l-111 38l22 65l110 -43v120h68v-120z" />
    <glyph glyph-name="plus" unicode="+" horiz-adv-x="600" 
d="M351 304h201v-102h-201v-202h-102v202h-201v102h201v202h102v-202z" />
    <glyph glyph-name="comma" unicode="," horiz-adv-x="278" 
d="M208 135v-131c0 -80 -45 -142 -135 -162v61c39 11 65 44 65 97h-69v135h139z" />
    <glyph glyph-name="hyphen" unicode="-" horiz-adv-x="389" 
d="M340 218h-291v108h291v-108z" />
    <glyph glyph-name="period" unicode="." horiz-adv-x="278" 
d="M208 0h-139v135h139v-135z" />
    <glyph glyph-name="slash" unicode="/" horiz-adv-x="352" 
d="M87 -17h-109l287 748h109z" />
    <glyph glyph-name="zero" unicode="0" 
d="M278 714c161 0 242 -133 242 -364c0 -230 -83 -364 -242 -364s-242 133 -242 364c0 230 82 364 242 364zM150 350c0 -183 44 -269 128 -269c85 0 128 85 128 269c0 183 -45 269 -129 269s-127 -91 -127 -269z" />
    <glyph glyph-name="one" unicode="1" 
d="M350 0h-125v494h-172v90c118 0 191 44 204 116h93v-700z" />
    <glyph glyph-name="two" unicode="2" 
d="M293 714c139 0 225 -90 225 -215c0 -48 -15 -92 -43 -133c-29 -40 -82 -84 -158 -132c-100 -63 -129 -94 -141 -132h341v-102h-478c0 108 51 196 160 269c36 24 72 49 106 74c68 50 99 100 99 153c0 78 -44 123 -118 123c-77 0 -116 -53 -120 -175h-114
c3 170 96 270 241 270z" />
    <glyph glyph-name="three" unicode="3" 
d="M276 714c115 0 221 -66 221 -187c0 -74 -32 -125 -99 -150v-2c81 -18 127 -85 127 -175c0 -136 -120 -214 -248 -214c-150 0 -240 82 -246 244h114v-9c0 -81 48 -140 132 -140c78 0 134 48 134 125c0 82 -48 119 -166 119h-17v85h11c89 0 144 38 144 110
c0 62 -48 99 -109 99c-69 0 -116 -59 -116 -134v-9h-114c7 147 102 238 232 238z" />
    <glyph glyph-name="four" unicode="4" 
d="M432 256h90v-90h-90v-166h-108v166h-300v113l300 421h108v-444zM112 256h212v308h-2z" />
    <glyph glyph-name="five" unicode="5" 
d="M485 598h-277l-36 -178l2 -2c32 35 83 53 130 53c131 0 218 -95 218 -234c0 -114 -70 -251 -242 -251c-141 0 -240 80 -245 213h114c7 -76 55 -118 129 -118c85 0 130 55 130 153c0 84 -48 147 -133 147c-60 0 -99 -25 -113 -64h-114l75 383h362v-102z" />
    <glyph glyph-name="six" unicode="6" 
d="M298 714c110 0 207 -79 211 -191h-114c-5 58 -43 96 -102 96c-124 0 -138 -148 -145 -240l2 -2c31 55 89 83 151 83c137 0 221 -103 221 -235c0 -139 -96 -239 -233 -239c-218 0 -255 184 -255 365c0 166 66 363 264 363zM159 227c0 -76 44 -146 126 -146s123 72 123 146
c0 76 -42 143 -124 143c-81 0 -125 -68 -125 -143z" />
    <glyph glyph-name="seven" unicode="7" 
d="M514 700v-95c-157 -175 -243 -368 -261 -604v-1h-125c16 212 117 425 270 598h-363v102h479z" />
    <glyph glyph-name="eight" unicode="8" 
d="M278 714c136 0 218 -69 218 -191c0 -66 -32 -118 -99 -144v-2c80 -21 128 -84 128 -171c0 -135 -105 -220 -247 -220c-145 0 -247 88 -247 220c0 85 48 150 128 171v2c-64 24 -99 74 -99 144c0 122 82 191 218 191zM168 517c0 -63 43 -103 110 -103c70 0 110 44 110 103
c0 65 -46 107 -111 107c-62 0 -109 -41 -109 -107zM145 206c0 -78 52 -130 133 -130c79 0 133 52 133 130c0 74 -56 123 -134 123c-76 0 -132 -48 -132 -123z" />
    <glyph glyph-name="nine" unicode="9" 
d="M275 714c213 0 247 -191 247 -365c0 -166 -66 -363 -264 -363c-111 0 -205 77 -211 191h114c5 -57 44 -96 102 -96c123 0 138 148 145 240l-2 2c-30 -54 -90 -84 -151 -84c-139 0 -221 102 -221 236c0 144 98 239 241 239zM148 476c0 -74 40 -147 122 -147
c84 0 127 70 127 147s-46 143 -128 143c-81 0 -121 -69 -121 -143z" />
    <glyph glyph-name="colon" unicode=":" horiz-adv-x="278" 
d="M208 371h-139v135h139v-135zM208 0h-139v135h139v-135z" />
    <glyph glyph-name="semicolon" unicode=";" horiz-adv-x="278" 
d="M208 371h-139v135h139v-135zM208 135v-135c0 -74 -45 -138 -135 -158v61c39 11 65 43 65 97h-69v135h139z" />
    <glyph glyph-name="less" unicode="&#x3c;" horiz-adv-x="600" 
d="M180 253l374 -159v-102l-508 225v72l508 225v-102z" />
    <glyph glyph-name="equal" unicode="=" horiz-adv-x="600" 
d="M552 303h-504v102h504v-102zM552 101h-504v102h504v-102z" />
    <glyph glyph-name="greater" unicode="&#x3e;" horiz-adv-x="600" 
d="M554 289v-72l-508 -225v102l374 159l-374 159v102z" />
    <glyph glyph-name="question" unicode="?" 
d="M289 731c127 0 218 -80 218 -202c0 -71 -20 -111 -91 -169c-70 -56 -85 -94 -85 -166h-108v4c0 54 6 96 20 125c13 30 34 56 65 80c63 50 74 76 74 122c0 69 -52 111 -98 111c-76 0 -120 -50 -120 -149h-115c1 149 95 244 240 244zM342 0h-134v125h134v-125z" />
    <glyph glyph-name="at" unicode="@" horiz-adv-x="800" 
d="M416 731c161 0 335 -107 335 -294c0 -207 -162 -297 -236 -297c-35 0 -57 24 -59 58h-2c-32 -35 -73 -57 -112 -57c-84 0 -146 73 -146 157c0 123 85 259 219 259c50 0 88 -24 112 -72l18 57h70l-72 -263c-4 -14 -9 -27 -9 -46c0 -16 8 -23 19 -23c33 0 63 21 90 64
c26 44 40 94 40 152c0 155 -126 240 -267 240c-157 0 -287 -120 -287 -300c0 -179 110 -318 296 -318c88 0 169 36 225 99h70c-65 -104 -175 -164 -299 -164c-208 0 -372 161 -372 387c0 199 165 361 367 361zM281 307c0 -54 32 -91 80 -91c82 0 137 106 137 178
c0 46 -36 88 -80 88c-83 0 -137 -101 -137 -175z" />
    <glyph glyph-name="A" unicode="A" horiz-adv-x="667" 
d="M675 0h-134l-67 189h-285l-67 -189h-129l274 714h133zM223 284h218l-107 307h-3z" />
    <glyph glyph-name="B" unicode="B" horiz-adv-x="704" 
d="M76 714h351c123 0 208 -60 208 -177c0 -72 -35 -121 -102 -152v-2c86 -19 134 -87 134 -184c0 -128 -100 -199 -258 -199h-333v714zM201 415h206c57 0 103 35 103 100c0 66 -33 97 -101 97h-208v-197zM201 102h224c71 0 117 41 117 113c0 73 -48 110 -117 110h-224v-223z
" />
    <glyph glyph-name="C" unicode="C" horiz-adv-x="722" 
d="M380 731c165 0 287 -93 303 -244h-125c-25 95 -84 142 -178 142c-136 0 -217 -113 -217 -272c0 -158 80 -272 217 -272c102 0 169 72 182 187h122c-13 -171 -128 -289 -304 -289c-101 0 -183 36 -247 106c-63 71 -95 161 -95 268c0 204 127 374 342 374z" />
    <glyph glyph-name="D" unicode="D" horiz-adv-x="722" 
d="M76 714h301c189 0 310 -134 310 -357c0 -227 -121 -357 -312 -357h-299v714zM201 102h128c161 0 233 79 233 255c0 145 -47 255 -232 255h-129v-510z" />
    <glyph glyph-name="E" unicode="E" horiz-adv-x="630" 
d="M590 606h-389v-187h360v-102h-360v-209h396v-108h-521v714h514v-108z" />
    <glyph glyph-name="F" unicode="F" horiz-adv-x="593" 
d="M569 606h-368v-187h323v-102h-323v-317h-125v714h493v-108z" />
    <glyph glyph-name="G" unicode="G" horiz-adv-x="759" 
d="M385 731c153 0 286 -81 306 -244h-122c-14 95 -99 142 -184 142c-152 0 -217 -138 -217 -272c0 -140 64 -272 221 -272c124 0 193 74 196 196h-190v95h304v-376h-80l-19 84c-61 -70 -122 -101 -215 -101c-213 0 -342 171 -342 374s129 374 342 374z" />
    <glyph glyph-name="H" unicode="H" horiz-adv-x="722" 
d="M198 430h325v284h125v-714h-125v322h-325v-322h-125v714h125v-284z" />
    <glyph glyph-name="I" unicode="I" horiz-adv-x="278" 
d="M201 0h-125v714h125v-714z" />
    <glyph glyph-name="J" unicode="J" horiz-adv-x="537" 
d="M461 714v-490c0 -174 -79 -241 -234 -241c-135 0 -214 75 -214 232v35h125v-45c0 -88 35 -120 98 -120c71 0 100 36 100 133v496h125z" />
    <glyph glyph-name="K" unicode="K" horiz-adv-x="685" 
d="M201 389l318 325h154l-285 -285l305 -429h-156l-234 341l-102 -101v-240h-125v714h125v-325z" />
    <glyph glyph-name="L" unicode="L" horiz-adv-x="574" 
d="M201 108h363v-108h-488v714h125v-606z" />
    <glyph glyph-name="M" unicode="M" horiz-adv-x="889" 
d="M447 155h2l192 559h174v-714h-119v551h-2l-198 -551h-103l-198 551h-2v-551h-119v714h176z" />
    <glyph glyph-name="N" unicode="N" horiz-adv-x="722" 
d="M529 188h2v526h119v-714h-132l-325 525h-3v-525h-119v714h132z" />
    <glyph glyph-name="O" unicode="O" horiz-adv-x="760" 
d="M380 731c213 0 342 -171 342 -374c0 -205 -130 -374 -342 -374c-214 0 -342 170 -342 374c0 203 129 374 342 374zM163 357c0 -135 64 -272 217 -272c154 0 217 136 217 272s-64 272 -218 272s-216 -137 -216 -272z" />
    <glyph glyph-name="P" unicode="P" horiz-adv-x="667" 
d="M76 714h320c153 0 238 -84 238 -221c0 -139 -87 -219 -238 -219h-195v-274h-125v714zM201 376h186c66 0 122 40 122 118c0 80 -43 118 -119 118h-189v-236z" />
    <glyph glyph-name="Q" unicode="Q" horiz-adv-x="760" 
d="M380 731c212 0 342 -172 342 -374c0 -95 -29 -207 -101 -274l92 -80l-61 -68l-104 91c-50 -30 -110 -43 -168 -43c-214 0 -342 170 -342 374s130 374 342 374zM163 357c0 -137 65 -272 217 -272c28 0 55 5 80 17l-72 63l60 69l86 -75h2c45 55 61 128 61 198
c0 136 -64 272 -218 272s-216 -137 -216 -272z" />
    <glyph glyph-name="R" unicode="R" horiz-adv-x="704" 
d="M76 714h346c143 0 231 -67 231 -193c0 -90 -41 -153 -118 -180v-2c69 -9 106 -66 106 -153c0 -95 14 -157 39 -186h-134c-13 18 -19 50 -19 106c0 78 -12 128 -35 152s-57 36 -103 36h-188v-294h-125v714zM201 389h208c75 0 119 37 119 114c0 74 -36 109 -120 109h-207
v-223z" />
    <glyph glyph-name="S" unicode="S" horiz-adv-x="648" 
d="M321 731c155 0 273 -84 274 -228h-125v1c-8 84 -58 125 -154 125c-75 0 -131 -33 -131 -93c0 -47 30 -78 91 -94l191 -50c61 -16 148 -74 148 -185c0 -141 -116 -224 -284 -224c-179 0 -295 91 -298 255h125c1 -102 72 -153 181 -153c96 0 151 45 151 108
c0 45 -22 76 -59 88c-40 13 -71 22 -204 56c-113 28 -167 91 -167 184c0 145 131 210 261 210z" />
    <glyph glyph-name="T" unicode="T" horiz-adv-x="593" 
d="M586 606h-227v-606h-125v606h-226v108h578v-108z" />
    <glyph glyph-name="U" unicode="U" horiz-adv-x="722" 
d="M193 714v-422c0 -124 30 -201 168 -201c136 0 168 74 168 198v425h125v-462c0 -179 -122 -269 -293 -269c-170 0 -293 91 -293 269v462h125z" />
    <glyph glyph-name="V" unicode="V" horiz-adv-x="611" 
d="M304 149h2l183 565h127l-244 -714h-139l-238 714h130z" />
    <glyph glyph-name="W" unicode="W" horiz-adv-x="944" 
d="M262 168h2l144 546h128l140 -546h2l133 546h127l-197 -714h-127l-143 546h-2l-146 -546h-129l-188 714h127z" />
    <glyph glyph-name="X" unicode="X" horiz-adv-x="648" 
d="M325 462l169 252h140l-236 -344l253 -370h-152l-178 273l-181 -273h-143l253 370l-236 344h149z" />
    <glyph glyph-name="Y" unicode="Y" horiz-adv-x="648" 
d="M328 394l186 320h140l-267 -434v-280h-125v280l-268 434h145z" />
    <glyph glyph-name="Z" unicode="Z" horiz-adv-x="630" 
d="M598 619l-416 -511h426v-108h-585v102l416 504h-384v108h543v-95z" />
    <glyph glyph-name="bracketleft" unicode="[" horiz-adv-x="296" 
d="M295 641h-115v-742h115v-90h-223v922h223v-90z" />
    <glyph glyph-name="backslash" unicode="\" horiz-adv-x="352" 
d="M374 -17h-109l-287 748h109z" />
    <glyph glyph-name="bracketright" unicode="]" horiz-adv-x="296" 
d="M224 -191h-223v90h115v742h-115v90h223v-922z" />
    <glyph glyph-name="asciicircum" unicode="^" horiz-adv-x="600" 
d="M516 335h-102l-114 247l-114 -247h-102l180 365h72z" />
    <glyph glyph-name="underscore" unicode="_" horiz-adv-x="500" 
d="M500 -125h-500v50h500v-50z" />
    <glyph glyph-name="grave" unicode="`" horiz-adv-x="241" 
d="M196 589h-83l-142 143h134z" />
    <glyph glyph-name="a" unicode="a" 
d="M286 531c125 0 207 -59 207 -147v-272c0 -27 6 -36 31 -36c6 0 16 0 24 2v-79c-29 -8 -59 -13 -72 -13c-50 0 -80 20 -88 63c-41 -41 -116 -63 -179 -63c-102 0 -177 56 -177 151c0 97 57 135 134 151c39 8 82 13 130 19c69 8 90 24 90 64c0 45 -36 70 -107 70
c-70 0 -109 -30 -114 -82h-114c8 113 90 172 235 172zM146 147c0 -43 36 -71 98 -71c78 0 135 39 135 95v88c-31 -19 -46 -19 -125 -29c-75 -9 -108 -36 -108 -83z" />
    <glyph glyph-name="b" unicode="b" horiz-adv-x="611" 
d="M177 714v-264h2c33 50 94 81 154 81c161 0 242 -119 242 -275c0 -139 -69 -270 -223 -270c-71 0 -142 18 -179 85h-2v-71h-108v714h114zM173 258c0 -89 44 -182 145 -182c103 0 143 92 143 182c0 87 -45 183 -144 183c-106 0 -144 -90 -144 -183z" />
    <glyph glyph-name="c" unicode="c" 
d="M290 531c134 0 222 -69 233 -187h-114c-9 62 -52 97 -118 97c-88 0 -142 -63 -142 -188c0 -100 48 -177 137 -177c65 0 111 40 123 118h114c-22 -136 -106 -208 -237 -208c-151 0 -251 102 -251 267s92 278 255 278z" />
    <glyph glyph-name="d" unicode="d" horiz-adv-x="611" 
d="M547 0h-108v70h-2c-31 -57 -90 -84 -160 -84c-148 0 -242 105 -242 276s96 269 224 269c74 0 141 -31 172 -81h2v264h114v-714zM149 253c0 -100 54 -177 143 -177c91 0 145 80 145 183c0 112 -53 182 -144 182s-144 -78 -144 -188z" />
    <glyph glyph-name="e" unicode="e" 
d="M285 531c146 0 246 -120 246 -263c0 -13 -1 -26 -2 -39h-380c0 -85 49 -153 139 -153c63 0 105 26 126 86h108c-23 -111 -121 -176 -234 -176c-163 0 -253 114 -253 271c0 149 96 274 250 274zM149 304h266c-6 72 -53 137 -131 137c-80 0 -131 -61 -135 -137z" />
    <glyph glyph-name="f" unicode="f" horiz-adv-x="315" 
d="M94 432h-85v85h85v47c0 106 47 150 144 150c34 0 61 -2 79 -7v-89c-12 4 -34 6 -52 6c-40 0 -57 -20 -57 -49v-58h97v-85h-97v-432h-114v432z" />
    <glyph glyph-name="g" unicode="g" horiz-adv-x="593" 
d="M269 531c70 0 126 -29 153 -85h2v71h114v-495c0 -144 -84 -227 -253 -227c-130 0 -223 58 -232 161h114c10 -50 44 -76 124 -76c89 0 133 46 133 129v82h-2c-34 -58 -90 -91 -155 -91c-146 0 -232 101 -232 271c0 149 96 260 234 260zM149 261c0 -98 52 -171 136 -171
c86 0 139 71 139 180c0 103 -52 171 -139 171c-86 0 -136 -73 -136 -180z" />
    <glyph glyph-name="h" unicode="h" horiz-adv-x="574" 
d="M174 449h2c33 52 91 82 156 82c119 0 182 -69 182 -172v-359h-114v320c0 66 -20 121 -101 121c-79 0 -125 -65 -125 -133v-308h-114v714h114v-265z" />
    <glyph glyph-name="i" unicode="i" horiz-adv-x="241" 
d="M177 606h-114v108h114v-108zM177 0h-114v517h114v-517z" />
    <glyph glyph-name="j" unicode="j" horiz-adv-x="241" 
d="M177 606h-114v108h114v-108zM177 517v-565c0 -106 -47 -157 -149 -157c-19 0 -32 0 -50 4v90c16 -3 29 -4 39 -4c32 0 46 13 46 70v562h114z" />
    <glyph glyph-name="k" unicode="k" horiz-adv-x="537" 
d="M177 308l206 209h140l-198 -190l217 -327h-139l-158 251l-68 -66v-185h-114v714h114v-406z" />
    <glyph glyph-name="l" unicode="l" horiz-adv-x="241" 
d="M177 0h-114v714h114v-714z" />
    <glyph glyph-name="m" unicode="m" horiz-adv-x="870" 
d="M330 531c60 0 122 -26 145 -86c40 57 93 86 163 86c113 0 172 -57 172 -170v-361h-114v312c0 73 -7 129 -94 129c-83 0 -110 -60 -110 -134v-307h-114v336c0 64 -20 105 -90 105c-72 0 -114 -65 -114 -131v-310h-114v517h108v-72h3c40 59 87 86 159 86z" />
    <glyph glyph-name="n" unicode="n" horiz-adv-x="574" 
d="M332 531c119 0 182 -68 182 -172v-359h-114v323c0 66 -23 118 -101 118c-80 0 -125 -66 -125 -133v-308h-114v517h108v-76l2 -2c37 60 96 92 162 92z" />
    <glyph glyph-name="o" unicode="o" horiz-adv-x="593" 
d="M297 531c162 0 261 -114 261 -272c0 -161 -99 -273 -261 -273s-261 111 -261 273c0 158 99 272 261 272zM150 259c0 -89 46 -183 147 -183s147 93 147 183c0 92 -45 182 -148 182c-99 0 -146 -91 -146 -182z" />
    <glyph glyph-name="p" unicode="p" horiz-adv-x="611" 
d="M333 531c162 0 242 -124 242 -275c0 -136 -68 -270 -223 -270c-65 0 -138 23 -173 81h-2v-258h-114v708h108v-70h2c33 60 94 84 160 84zM173 258c0 -89 44 -182 145 -182c103 0 143 92 143 182c0 86 -43 183 -144 183c-106 0 -144 -90 -144 -183z" />
    <glyph glyph-name="q" unicode="q" horiz-adv-x="611" 
d="M277 531c77 0 132 -31 160 -84h2v70h108v-708h-114v258h-2c-37 -54 -100 -81 -173 -81c-136 0 -223 112 -223 270c0 165 90 275 242 275zM149 258c0 -106 51 -182 143 -182c94 0 145 68 145 182c0 116 -51 183 -145 183c-86 0 -143 -82 -143 -183z" />
    <glyph glyph-name="r" unicode="r" horiz-adv-x="352" 
d="M320 531c22 0 26 0 43 -3v-110c-17 3 -33 5 -49 5c-85 0 -140 -74 -140 -173v-250h-114v517h107v-100h2c16 66 93 114 151 114z" />
    <glyph glyph-name="s" unicode="s" horiz-adv-x="519" 
d="M259 531c123 0 205 -56 216 -159h-119c-9 47 -43 69 -105 69c-56 0 -94 -19 -94 -53c0 -36 31 -56 131 -75c159 -29 204 -79 204 -159c0 -108 -99 -168 -231 -168c-136 0 -226 61 -229 180h114c7 -61 46 -90 117 -90c70 0 115 20 115 65c0 36 -23 63 -167 88
c-86 15 -168 53 -168 154c0 97 95 148 216 148z" />
    <glyph glyph-name="t" unicode="t" horiz-adv-x="333" 
d="M208 517h103v-85h-103v-282c0 -54 13 -65 57 -65c21 0 42 2 46 4v-88c-45 -5 -58 -6 -74 -6c-109 0 -143 35 -143 139v298h-86v85h86v155h114v-155z" />
    <glyph glyph-name="u" unicode="u" horiz-adv-x="574" 
d="M174 517v-321c0 -77 29 -120 99 -120c85 0 127 51 127 137v304h114v-517h-112v72h-2c-30 -53 -89 -86 -148 -86c-132 0 -192 67 -192 198v333h114z" />
    <glyph glyph-name="v" unicode="v" horiz-adv-x="519" 
d="M264 120h2l126 397h118l-185 -517h-128l-188 517h124z" />
    <glyph glyph-name="w" unicode="w" horiz-adv-x="778" 
d="M235 131h2l97 386h115l93 -386h2l105 386h116l-162 -517h-117l-96 384h-2l-95 -384h-120l-160 517h121z" />
    <glyph glyph-name="x" unicode="x" horiz-adv-x="537" 
d="M266 358l113 159h132l-176 -239l198 -278h-137l-131 191l-127 -191h-134l195 272l-179 245h138z" />
    <glyph glyph-name="y" unicode="y" horiz-adv-x="519" 
d="M263 131h2l131 386h119l-199 -540c-21 -59 -41 -98 -57 -120c-31 -45 -71 -62 -129 -62c-24 0 -50 2 -78 6v96c17 -2 31 -7 54 -7c37 0 60 16 71 47l22 65l-196 515h125z" />
    <glyph glyph-name="z" unicode="z" horiz-adv-x="500" 
d="M462 437l-296 -347h311v-90h-455v80l286 347h-266v90h420v-80z" />
    <glyph glyph-name="braceleft" unicode="{" horiz-adv-x="296" 
d="M309 641h-57c-32 0 -54 -18 -54 -67v-200c0 -49 -35 -94 -103 -103v-2c67 -5 103 -47 103 -108v-195c0 -49 21 -67 56 -67h55v-90h-89c-69 0 -130 65 -130 132v205c0 45 -42 77 -94 79v90c56 2 94 32 94 71v214c0 65 61 131 131 131h88v-90z" />
    <glyph glyph-name="bar" unicode="|" horiz-adv-x="222" 
d="M162 -214h-102v1000h102v-1000z" />
    <glyph glyph-name="braceright" unicode="}" horiz-adv-x="296" 
d="M-13 731h88c67 0 131 -63 131 -133v-204c0 -43 36 -77 94 -79v-90c-43 -1 -94 -20 -94 -76v-206c0 -65 -59 -134 -131 -134h-88v90h55c39 0 56 22 56 68v200c0 50 31 89 104 102v2c-71 7 -104 47 -104 108v194c0 48 -19 68 -58 68h-53v90z" />
    <glyph glyph-name="asciitilde" unicode="~" horiz-adv-x="600" 
d="M194 338c33 0 67 -11 118 -36s70 -32 93 -32c40 0 68 24 90 68l36 -84c-26 -54 -69 -86 -125 -86c-40 0 -70 10 -135 43c-32 17 -57 25 -76 25c-38 0 -66 -21 -90 -68l-36 84c29 57 71 86 125 86z" />
    <glyph glyph-name="Agrave" unicode="&#xc0;" horiz-adv-x="667" 
d="M392 783h-83l-142 143h134zM675 0h-134l-67 189h-285l-67 -189h-129l274 714h133zM223 284h218l-107 307h-3z" />
    <glyph glyph-name="Aacute" unicode="&#xc1;" horiz-adv-x="667" 
d="M359 783h-83l90 143h135zM675 0h-134l-67 189h-285l-67 -189h-129l274 714h133zM223 284h218l-107 307h-3z" />
    <glyph glyph-name="Acircumflex" unicode="&#xc2;" horiz-adv-x="667" 
d="M498 783h-93l-71 90l-70 -90h-92l107 143h111zM675 0h-134l-67 189h-285l-67 -189h-129l274 714h133zM223 284h218l-107 307h-3z" />
    <glyph glyph-name="Atilde" unicode="&#xc3;" horiz-adv-x="667" 
d="M455 914h56c-9 -74 -50 -115 -110 -115c-23 0 -45 7 -73 19s-52 18 -70 18c-24 0 -38 -14 -43 -41h-57c12 64 50 113 105 113c32 0 52 -8 75 -18c23 -9 42 -20 67 -20c24 0 41 11 50 44zM675 0h-134l-67 189h-285l-67 -189h-129l274 714h133zM223 284h218l-107 307h-3z
" />
    <glyph glyph-name="Adieresis" unicode="&#xc4;" horiz-adv-x="667" 
d="M305 796h-114v108h114v-108zM477 796h-114v108h114v-108zM675 0h-134l-67 189h-285l-67 -189h-129l274 714h133zM223 284h218l-107 307h-3z" />
    <glyph glyph-name="Aring" unicode="&#xc5;" horiz-adv-x="667" 
d="M334 957c59 0 104 -43 104 -103c0 -58 -45 -103 -104 -103c-58 0 -104 43 -104 103c0 61 48 103 104 103zM274 854c0 -34 26 -61 60 -61c35 0 60 27 60 61s-24 61 -60 61c-34 0 -60 -26 -60 -61zM675 0h-134l-67 189h-285l-67 -189h-129l274 714h133zM223 284h218
l-107 307h-3z" />
    <glyph glyph-name="AE" unicode="&#xc6;" horiz-adv-x="963" 
d="M924 606h-348v-187h326v-102h-326v-209h354v-108h-473v183h-239l-86 -183h-139l355 714h576v-108zM457 278v328h-36l-157 -328h193z" />
    <glyph glyph-name="Ccedilla" unicode="&#xc7;" horiz-adv-x="722" 
d="M380 731c165 0 287 -93 303 -244h-125c-25 95 -84 142 -178 142c-136 0 -217 -113 -217 -272c0 -158 80 -272 217 -272c105 0 169 72 182 187h122c-13 -171 -126 -284 -298 -289l-32 -42l1 -1c14 4 25 4 33 4c47 0 85 -31 85 -75c0 -61 -53 -92 -121 -92
c-41 0 -74 7 -103 23l18 40c24 -10 41 -16 68 -16c40 0 58 15 58 41c0 21 -19 38 -46 38c-14 0 -28 -3 -39 -10l-22 19l55 74c-188 22 -303 174 -303 371c0 200 127 374 342 374z" />
    <glyph glyph-name="Eth" unicode="&#xd0;" horiz-adv-x="722" 
d="M76 714h301c189 0 310 -134 310 -357c0 -230 -123 -357 -310 -357h-301v330h-73v78h73v306zM396 330h-195v-228h129c149 0 232 67 232 255c0 160 -56 255 -233 255h-128v-204h195v-78z" />
    <glyph glyph-name="Egrave" unicode="&#xc8;" horiz-adv-x="630" 
d="M378 783h-83l-142 143h134zM590 606h-389v-187h360v-102h-360v-209h396v-108h-521v714h514v-108z" />
    <glyph glyph-name="Eacute" unicode="&#xc9;" horiz-adv-x="630" 
d="M365 783h-83l90 143h135zM590 606h-389v-187h360v-102h-360v-209h396v-108h-521v714h514v-108z" />
    <glyph glyph-name="Ecircumflex" unicode="&#xca;" horiz-adv-x="630" 
d="M494 783h-93l-71 90l-70 -90h-92l107 143h111zM590 606h-389v-187h360v-102h-360v-209h396v-108h-521v714h514v-108z" />
    <glyph glyph-name="Edieresis" unicode="&#xcb;" horiz-adv-x="630" 
d="M301 796h-114v108h114v-108zM473 796h-114v108h114v-108zM590 606h-389v-187h360v-102h-360v-209h396v-108h-521v714h514v-108z" />
    <glyph glyph-name="Gbreve" unicode="&#x11e;" horiz-adv-x="759" 
d="M226 925h58c9 -47 44 -76 107 -76c54 0 90 27 101 76h57c-10 -90 -68 -141 -166 -141c-94 0 -149 51 -157 141zM385 731c153 0 286 -81 306 -244h-122c-14 95 -99 142 -184 142c-152 0 -217 -138 -217 -272c0 -140 64 -272 221 -272c124 0 193 74 196 196h-190v95h304
v-376h-80l-19 84c-61 -70 -122 -101 -215 -101c-213 0 -342 171 -342 374s129 374 342 374z" />
    <glyph glyph-name="Igrave" unicode="&#xcc;" horiz-adv-x="278" 
d="M197 783h-83l-142 143h134zM201 0h-125v714h125v-714z" />
    <glyph glyph-name="Iacute" unicode="&#xcd;" horiz-adv-x="278" 
d="M164 783h-83l90 143h135zM201 0h-125v714h125v-714z" />
    <glyph glyph-name="Icircumflex" unicode="&#xce;" horiz-adv-x="278" 
d="M303 783h-93l-71 90l-70 -90h-92l107 143h111zM201 0h-125v714h125v-714z" />
    <glyph glyph-name="Idieresis" unicode="&#xcf;" horiz-adv-x="278" 
d="M110 796h-114v108h114v-108zM282 796h-114v108h114v-108zM201 0h-125v714h125v-714z" />
    <glyph glyph-name="Idotaccent" unicode="&#x130;" horiz-adv-x="278" 
d="M196 796h-114v108h114v-108zM201 0h-125v714h125v-714z" />
    <glyph glyph-name="Lslash" unicode="&#x141;" horiz-adv-x="574" 
d="M201 408l200 142v-93l-200 -142v-207h363v-108h-488v227l-76 -54v90l75 53h1v398h125v-306z" />
    <glyph glyph-name="Ntilde" unicode="&#xd1;" horiz-adv-x="722" 
d="M480 914h56c-9 -74 -50 -115 -110 -115c-23 0 -45 7 -73 19s-52 18 -70 18c-24 0 -38 -14 -43 -41h-57c12 64 50 113 105 113c32 0 52 -8 75 -18c23 -9 42 -20 67 -20c24 0 41 11 50 44zM529 188h2v526h119v-714h-132l-325 525h-3v-525h-119v714h132z" />
    <glyph glyph-name="Ograve" unicode="&#xd2;" horiz-adv-x="760" 
d="M429 783h-83l-142 143h134zM380 731c213 0 342 -171 342 -374c0 -205 -130 -374 -342 -374c-214 0 -342 170 -342 374c0 203 129 374 342 374zM163 357c0 -135 64 -272 217 -272c154 0 217 136 217 272s-64 272 -218 272s-216 -137 -216 -272z" />
    <glyph glyph-name="Oacute" unicode="&#xd3;" horiz-adv-x="760" 
d="M416 783h-83l90 143h135zM380 731c213 0 342 -171 342 -374c0 -205 -130 -374 -342 -374c-214 0 -342 170 -342 374c0 203 129 374 342 374zM163 357c0 -135 64 -272 217 -272c154 0 217 136 217 272s-64 272 -218 272s-216 -137 -216 -272z" />
    <glyph glyph-name="Ocircumflex" unicode="&#xd4;" horiz-adv-x="760" 
d="M545 783h-93l-71 90l-70 -90h-92l107 143h111zM380 731c213 0 342 -171 342 -374c0 -205 -130 -374 -342 -374c-214 0 -342 170 -342 374c0 203 129 374 342 374zM163 357c0 -135 64 -272 217 -272c154 0 217 136 217 272s-64 272 -218 272s-216 -137 -216 -272z" />
    <glyph glyph-name="Otilde" unicode="&#xd5;" horiz-adv-x="760" 
d="M502 914h56c-9 -74 -50 -115 -110 -115c-23 0 -45 7 -73 19s-52 18 -70 18c-24 0 -38 -14 -43 -41h-57c12 64 50 113 105 113c32 0 52 -8 75 -18c23 -9 42 -20 67 -20c24 0 41 11 50 44zM380 731c213 0 342 -171 342 -374c0 -205 -130 -374 -342 -374
c-214 0 -342 170 -342 374c0 203 129 374 342 374zM163 357c0 -135 64 -272 217 -272c154 0 217 136 217 272s-64 272 -218 272s-216 -137 -216 -272z" />
    <glyph glyph-name="Odieresis" unicode="&#xd6;" horiz-adv-x="760" 
d="M352 796h-114v108h114v-108zM524 796h-114v108h114v-108zM380 731c213 0 342 -171 342 -374c0 -205 -130 -374 -342 -374c-214 0 -342 170 -342 374c0 203 129 374 342 374zM163 357c0 -135 64 -272 217 -272c154 0 217 136 217 272s-64 272 -218 272
s-216 -137 -216 -272z" />
    <glyph glyph-name="Oslash" unicode="&#xd8;" horiz-adv-x="760" 
d="M720 698l-79 -89c54 -70 81 -158 81 -252c0 -220 -143 -374 -342 -374c-87 0 -162 28 -222 82l-76 -85l-42 36l79 90c-55 72 -81 159 -81 251c0 224 147 374 342 374c89 0 163 -27 222 -81l75 84zM163 357c0 -66 13 -118 36 -161l329 370c-33 40 -84 63 -149 63
c-132 0 -216 -109 -216 -272zM560 518l-328 -370c40 -44 90 -63 148 -63c153 0 217 133 217 272c0 69 -15 126 -37 161z" />
    <glyph glyph-name="OE" unicode="&#x152;" horiz-adv-x="1093" 
d="M377 731c81 0 136 -23 180 -74v57h488v-108h-374v-187h343v-102h-343v-209h381v-108h-495v64c-47 -55 -115 -81 -188 -81c-193 0 -328 153 -328 371c0 198 121 377 336 377zM166 356c0 -155 81 -271 215 -271c71 0 164 40 171 132v271c0 79 -65 141 -172 141
c-132 0 -214 -117 -214 -273z" />
    <glyph glyph-name="Scaron" unicode="&#x160;" horiz-adv-x="648" 
d="M329 837l71 89h93l-108 -143h-111l-107 143h92zM321 731c155 0 273 -84 274 -228h-125v1c-8 84 -58 125 -154 125c-75 0 -131 -33 -131 -93c0 -47 30 -78 91 -94l191 -50c61 -16 148 -74 148 -185c0 -141 -116 -224 -284 -224c-179 0 -295 91 -298 255h125
c1 -102 72 -153 181 -153c96 0 151 45 151 108c0 45 -22 76 -59 88c-40 13 -71 22 -204 56c-113 28 -167 91 -167 184c0 145 131 210 261 210z" />
    <glyph glyph-name="Scedilla" unicode="&#x15e;" horiz-adv-x="648" 
d="M321 731c155 0 271 -84 274 -228h-125v1c-8 84 -58 125 -154 125c-75 0 -131 -33 -131 -93c0 -47 30 -78 91 -94c169 -44 135 -33 201 -54c85 -27 138 -98 138 -181c0 -130 -98 -219 -278 -224l-32 -42l1 -1c14 3 23 4 32 4c45 0 86 -28 86 -75c0 -60 -54 -92 -121 -92
c-42 0 -77 8 -103 23l18 40c27 -11 42 -16 68 -16c39 0 58 14 58 41c0 22 -20 38 -46 38c-14 0 -28 -3 -39 -10l-22 19l54 73c-160 15 -255 102 -258 253h125c1 -102 72 -153 181 -153c96 0 151 45 151 108c0 46 -22 76 -65 91c-80 28 -114 30 -208 56
c-98 27 -157 86 -157 181c0 144 133 210 261 210z" />
    <glyph glyph-name="Thorn" unicode="&#xde;" horiz-adv-x="667" 
d="M201 606h195c148 0 238 -82 238 -221c0 -138 -87 -219 -238 -219h-195v-166h-125v714h125v-108zM201 268h186c66 0 122 40 122 118c0 80 -43 118 -119 118h-189v-236z" />
    <glyph glyph-name="Ugrave" unicode="&#xd9;" horiz-adv-x="722" 
d="M409 783h-83l-142 143h134zM193 714v-422c0 -124 30 -201 168 -201c136 0 168 74 168 198v425h125v-462c0 -179 -122 -269 -293 -269c-170 0 -293 91 -293 269v462h125z" />
    <glyph glyph-name="Uacute" unicode="&#xda;" horiz-adv-x="722" 
d="M396 783h-83l90 143h135zM193 714v-422c0 -124 30 -201 168 -201c136 0 168 74 168 198v425h125v-462c0 -179 -122 -269 -293 -269c-170 0 -293 91 -293 269v462h125z" />
    <glyph glyph-name="Ucircumflex" unicode="&#xdb;" horiz-adv-x="722" 
d="M525 783h-93l-71 90l-70 -90h-92l107 143h111zM193 714v-422c0 -124 30 -201 168 -201c136 0 168 74 168 198v425h125v-462c0 -179 -122 -269 -293 -269c-170 0 -293 91 -293 269v462h125z" />
    <glyph glyph-name="Udieresis" unicode="&#xdc;" horiz-adv-x="722" 
d="M332 796h-114v108h114v-108zM504 796h-114v108h114v-108zM193 714v-422c0 -124 30 -201 168 -201c136 0 168 74 168 198v425h125v-462c0 -179 -122 -269 -293 -269c-170 0 -293 91 -293 269v462h125z" />
    <glyph glyph-name="Yacute" unicode="&#xdd;" horiz-adv-x="648" 
d="M365 783h-83l90 143h135zM328 394l186 320h140l-267 -434v-280h-125v280l-268 434h145z" />
    <glyph glyph-name="Ydieresis" unicode="&#x178;" horiz-adv-x="648" 
d="M301 796h-114v108h114v-108zM473 796h-114v108h114v-108zM328 394l186 320h140l-267 -434v-280h-125v280l-268 434h145z" />
    <glyph glyph-name="Zcaron" unicode="&#x17d;" horiz-adv-x="630" 
d="M323 837l71 89h93l-108 -143h-111l-107 143h92zM598 619l-416 -511h426v-108h-585v102l416 504h-384v108h543v-95z" />
    <glyph glyph-name="agrave" unicode="&#xe0;" 
d="M337 589h-83l-142 143h134zM286 531c125 0 207 -59 207 -147v-272c0 -27 6 -36 31 -36c6 0 16 0 24 2v-79c-29 -8 -59 -13 -72 -13c-50 0 -80 20 -88 63c-41 -41 -116 -63 -179 -63c-102 0 -177 56 -177 151c0 97 57 135 134 151c39 8 82 13 130 19c69 8 90 24 90 64
c0 45 -36 70 -107 70c-70 0 -109 -30 -114 -82h-114c8 113 90 172 235 172zM146 147c0 -43 36 -71 98 -71c78 0 135 39 135 95v88c-31 -19 -46 -19 -125 -29c-75 -9 -108 -36 -108 -83z" />
    <glyph glyph-name="aacute" unicode="&#xe1;" 
d="M314 589h-83l90 143h135zM286 531c125 0 207 -59 207 -147v-272c0 -27 6 -36 31 -36c6 0 16 0 24 2v-79c-29 -8 -59 -13 -72 -13c-50 0 -80 20 -88 63c-41 -41 -116 -63 -179 -63c-102 0 -177 56 -177 151c0 97 57 135 134 151c39 8 82 13 130 19c69 8 90 24 90 64
c0 45 -36 70 -107 70c-70 0 -109 -30 -114 -82h-114c8 113 90 172 235 172zM146 147c0 -43 36 -71 98 -71c78 0 135 39 135 95v88c-31 -19 -46 -19 -125 -29c-75 -9 -108 -36 -108 -83z" />
    <glyph glyph-name="acircumflex" unicode="&#xe2;" 
d="M448 589h-93l-71 90l-70 -90h-92l107 143h111zM286 531c125 0 207 -59 207 -147v-272c0 -27 6 -36 31 -36c6 0 16 0 24 2v-79c-29 -8 -59 -13 -72 -13c-50 0 -80 20 -88 63c-41 -41 -116 -63 -179 -63c-102 0 -177 56 -177 151c0 97 57 135 134 151c39 8 82 13 130 19
c69 8 90 24 90 64c0 45 -36 70 -107 70c-70 0 -109 -30 -114 -82h-114c8 113 90 172 235 172zM146 147c0 -43 36 -71 98 -71c78 0 135 39 135 95v88c-31 -19 -46 -19 -125 -29c-75 -9 -108 -36 -108 -83z" />
    <glyph glyph-name="atilde" unicode="&#xe3;" 
d="M405 720h56c-10 -73 -50 -115 -110 -115c-23 0 -45 6 -73 18s-45 19 -70 19c-24 0 -38 -14 -43 -41h-57c12 64 50 113 105 113c29 0 52 -8 75 -18c23 -9 42 -20 67 -20c24 0 41 11 50 44zM286 531c125 0 207 -59 207 -147v-272c0 -27 6 -36 31 -36c6 0 16 0 24 2v-79
c-29 -8 -59 -13 -72 -13c-50 0 -80 20 -88 63c-41 -41 -116 -63 -179 -63c-102 0 -177 56 -177 151c0 97 57 135 134 151c39 8 82 13 130 19c69 8 90 24 90 64c0 45 -36 70 -107 70c-70 0 -109 -30 -114 -82h-114c8 113 90 172 235 172zM146 147c0 -43 36 -71 98 -71
c78 0 135 39 135 95v88c-31 -19 -46 -19 -125 -29c-75 -9 -108 -36 -108 -83z" />
    <glyph glyph-name="adieresis" unicode="&#xe4;" 
d="M255 602h-114v108h114v-108zM427 602h-114v108h114v-108zM286 531c125 0 207 -59 207 -147v-272c0 -27 6 -36 31 -36c6 0 16 0 24 2v-79c-29 -8 -59 -13 -72 -13c-50 0 -80 20 -88 63c-41 -41 -116 -63 -179 -63c-102 0 -177 56 -177 151c0 97 57 135 134 151
c39 8 82 13 130 19c69 8 90 24 90 64c0 45 -36 70 -107 70c-70 0 -109 -30 -114 -82h-114c8 113 90 172 235 172zM146 147c0 -43 36 -71 98 -71c78 0 135 39 135 95v88c-31 -19 -46 -19 -125 -29c-75 -9 -108 -36 -108 -83z" />
    <glyph glyph-name="aring" unicode="&#xe5;" 
d="M283 777c61 0 104 -45 104 -103s-44 -103 -104 -103c-59 0 -104 44 -104 103c0 55 41 103 104 103zM223 674c0 -35 28 -61 60 -61c34 0 60 24 60 61c0 34 -23 61 -60 61c-35 0 -60 -27 -60 -61zM286 531c125 0 207 -59 207 -147v-272c0 -27 6 -36 31 -36c6 0 16 0 24 2
v-79c-29 -8 -59 -13 -72 -13c-50 0 -80 20 -88 63c-41 -41 -116 -63 -179 -63c-102 0 -177 56 -177 151c0 97 57 135 134 151c39 8 82 13 130 19c69 8 90 24 90 64c0 45 -36 70 -107 70c-70 0 -109 -30 -114 -82h-114c8 113 90 172 235 172zM146 147c0 -43 36 -71 98 -71
c78 0 135 39 135 95v88c-31 -19 -46 -19 -125 -29c-75 -9 -108 -36 -108 -83z" />
    <glyph glyph-name="ae" unicode="&#xe6;" horiz-adv-x="889" 
d="M283 531c93 0 144 -25 175 -70c35 45 91 70 164 70c154 0 241 -102 241 -267v-21c0 -7 -1 -12 -1 -14h-375c0 -92 51 -153 135 -153c57 0 101 27 122 87h114c-30 -112 -120 -177 -234 -177c-87 0 -155 31 -190 95c-42 -64 -121 -95 -214 -95c-114 0 -188 57 -188 152
c0 124 101 144 155 154l117 17c66 10 75 30 76 58c2 59 -42 74 -101 74c-70 0 -109 -30 -114 -82h-114c8 113 91 172 232 172zM487 304h261c0 88 -51 137 -131 137c-73 0 -123 -52 -130 -137zM146 143c0 -44 40 -67 104 -67c71 0 129 44 129 102v79c-7 -10 -38 -19 -86 -23
c-60 -5 -147 -10 -147 -91z" />
    <glyph glyph-name="ccedilla" unicode="&#xe7;" 
d="M290 531c130 0 222 -69 233 -187h-114c-9 62 -52 97 -118 97c-88 0 -142 -66 -142 -188c0 -100 48 -177 137 -177c65 0 111 40 123 118h114c-20 -125 -94 -197 -211 -207h-1l-35 -46l1 -1c14 4 26 4 33 4c46 0 85 -31 85 -75c0 -60 -53 -92 -122 -92c-39 0 -74 7 -102 23
l18 40c27 -11 42 -16 68 -16c39 0 58 15 58 41c0 23 -21 38 -46 38c-14 0 -28 -3 -39 -10l-22 19l56 75c-154 9 -229 129 -229 266c0 165 92 278 255 278z" />
    <glyph glyph-name="eth" unicode="&#xf0;" horiz-adv-x="593" 
d="M170 666l69 61c36 -12 73 -29 106 -50l105 50l39 -45l-93 -45c100 -84 153 -202 153 -331c0 -203 -93 -320 -265 -320c-145 0 -242 104 -242 266c0 138 91 254 233 254c60 0 101 -18 141 -61h2c-21 51 -52 95 -114 148l-110 -52l-40 45l94 44h2c-21 14 -63 32 -80 36z
M156 245c0 -99 50 -169 135 -169c86 0 145 79 145 169c0 96 -49 171 -138 171c-91 0 -142 -63 -142 -171z" />
    <glyph glyph-name="egrave" unicode="&#xe8;" 
d="M342 589h-83l-142 143h134zM285 531c146 0 246 -120 246 -263c0 -13 -1 -26 -2 -39h-380c0 -85 49 -153 139 -153c63 0 105 26 126 86h108c-23 -111 -121 -176 -234 -176c-163 0 -253 114 -253 271c0 149 96 274 250 274zM149 304h266c-6 72 -53 137 -131 137
c-80 0 -131 -61 -135 -137z" />
    <glyph glyph-name="eacute" unicode="&#xe9;" 
d="M319 589h-83l90 143h135zM285 531c146 0 246 -120 246 -263c0 -13 -1 -26 -2 -39h-380c0 -85 49 -153 139 -153c63 0 105 26 126 86h108c-23 -111 -121 -176 -234 -176c-163 0 -253 114 -253 271c0 149 96 274 250 274zM149 304h266c-6 72 -53 137 -131 137
c-80 0 -131 -61 -135 -137z" />
    <glyph glyph-name="ecircumflex" unicode="&#xea;" 
d="M453 589h-93l-71 90l-70 -90h-92l107 143h111zM285 531c146 0 246 -120 246 -263c0 -13 -1 -26 -2 -39h-380c0 -85 49 -153 139 -153c63 0 105 26 126 86h108c-23 -111 -121 -176 -234 -176c-163 0 -253 114 -253 271c0 149 96 274 250 274zM149 304h266
c-6 72 -53 137 -131 137c-80 0 -131 -61 -135 -137z" />
    <glyph glyph-name="edieresis" unicode="&#xeb;" 
d="M260 602h-114v108h114v-108zM432 602h-114v108h114v-108zM285 531c146 0 246 -120 246 -263c0 -13 -1 -26 -2 -39h-380c0 -85 49 -153 139 -153c63 0 105 26 126 86h108c-23 -111 -121 -176 -234 -176c-163 0 -253 114 -253 271c0 149 96 274 250 274zM149 304h266
c-6 72 -53 137 -131 137c-80 0 -131 -61 -135 -137z" />
    <glyph glyph-name="gbreve" unicode="&#x11f;" horiz-adv-x="593" 
d="M138 731h58c10 -51 48 -76 107 -76c50 0 90 24 101 76h57c-10 -91 -71 -141 -166 -141c-92 0 -149 50 -157 141zM269 531c70 0 126 -29 153 -85h2v71h114v-495c0 -144 -84 -227 -253 -227c-130 0 -223 58 -232 161h114c10 -50 44 -76 124 -76c89 0 133 46 133 129v82h-2
c-34 -58 -90 -91 -155 -91c-146 0 -232 101 -232 271c0 149 96 260 234 260zM149 261c0 -98 52 -171 136 -171c86 0 139 71 139 180c0 103 -52 171 -139 171c-86 0 -136 -73 -136 -180z" />
    <glyph glyph-name="igrave" unicode="&#xec;" horiz-adv-x="241" 
d="M184 589h-83l-142 143h134zM177 0h-114v517h114v-517z" />
    <glyph glyph-name="iacute" unicode="&#xed;" horiz-adv-x="241" 
d="M141 589h-83l90 143h135zM177 0h-114v517h114v-517z" />
    <glyph glyph-name="icircumflex" unicode="&#xee;" horiz-adv-x="241" 
d="M285 589h-93l-71 90l-70 -90h-92l107 143h111zM177 0h-114v517h114v-517z" />
    <glyph glyph-name="idieresis" unicode="&#xef;" horiz-adv-x="241" 
d="M92 602h-114v108h114v-108zM264 602h-114v108h114v-108zM177 0h-114v517h114v-517z" />
    <glyph glyph-name="lslash" unicode="&#x142;" horiz-adv-x="241" 
d="M177 479l68 54v-72l-68 -54v-407h-114v319l-68 -53v71l68 53v324h114v-235z" />
    <glyph glyph-name="ntilde" unicode="&#xf1;" horiz-adv-x="574" 
d="M409 720h56c-10 -73 -50 -115 -110 -115c-23 0 -45 6 -73 18s-45 19 -70 19c-24 0 -38 -14 -43 -41h-57c12 64 50 113 105 113c29 0 52 -8 75 -18c23 -9 42 -20 67 -20c24 0 41 11 50 44zM332 531c119 0 182 -68 182 -172v-359h-114v323c0 66 -23 118 -101 118
c-80 0 -125 -66 -125 -133v-308h-114v517h108v-76l2 -2c37 60 96 92 162 92z" />
    <glyph glyph-name="ograve" unicode="&#xf2;" horiz-adv-x="593" 
d="M352 589h-83l-142 143h134zM297 531c162 0 261 -114 261 -272c0 -161 -99 -273 -261 -273s-261 111 -261 273c0 158 99 272 261 272zM150 259c0 -89 46 -183 147 -183s147 93 147 183c0 92 -45 182 -148 182c-99 0 -146 -91 -146 -182z" />
    <glyph glyph-name="oacute" unicode="&#xf3;" horiz-adv-x="593" 
d="M329 589h-83l90 143h135zM297 531c162 0 261 -114 261 -272c0 -161 -99 -273 -261 -273s-261 111 -261 273c0 158 99 272 261 272zM150 259c0 -89 46 -183 147 -183s147 93 147 183c0 92 -45 182 -148 182c-99 0 -146 -91 -146 -182z" />
    <glyph glyph-name="ocircumflex" unicode="&#xf4;" horiz-adv-x="593" 
d="M463 589h-93l-71 90l-70 -90h-92l107 143h111zM297 531c162 0 261 -114 261 -272c0 -161 -99 -273 -261 -273s-261 111 -261 273c0 158 99 272 261 272zM150 259c0 -89 46 -183 147 -183s147 93 147 183c0 92 -45 182 -148 182c-99 0 -146 -91 -146 -182z" />
    <glyph glyph-name="otilde" unicode="&#xf5;" horiz-adv-x="593" 
d="M420 720h56c-10 -73 -50 -115 -110 -115c-23 0 -45 6 -73 18s-45 19 -70 19c-24 0 -38 -14 -43 -41h-57c12 64 50 113 105 113c29 0 52 -8 75 -18c23 -9 42 -20 67 -20c24 0 41 11 50 44zM297 531c162 0 261 -114 261 -272c0 -161 -99 -273 -261 -273s-261 111 -261 273
c0 158 99 272 261 272zM150 259c0 -89 46 -183 147 -183s147 93 147 183c0 92 -45 182 -148 182c-99 0 -146 -91 -146 -182z" />
    <glyph glyph-name="odieresis" unicode="&#xf6;" horiz-adv-x="593" 
d="M270 602h-114v108h114v-108zM442 602h-114v108h114v-108zM297 531c162 0 261 -114 261 -272c0 -161 -99 -273 -261 -273s-261 111 -261 273c0 158 99 272 261 272zM150 259c0 -89 46 -183 147 -183s147 93 147 183c0 92 -45 182 -148 182c-99 0 -146 -91 -146 -182z" />
    <glyph glyph-name="oslash" unicode="&#xf8;" horiz-adv-x="593" 
d="M562 517l-65 -71c41 -50 61 -112 61 -187c0 -166 -102 -273 -261 -273c-70 0 -129 21 -169 56l-64 -70l-32 28l65 71h1c-42 51 -62 112 -62 188c0 165 103 272 261 272c66 0 123 -17 170 -55l63 69zM150 259c0 -33 6 -71 23 -104l223 244c-22 26 -55 42 -100 42
c-88 0 -146 -79 -146 -182zM421 362l-223 -244c24 -27 56 -42 99 -42c90 0 147 77 147 183c0 43 -10 77 -23 103z" />
    <glyph glyph-name="oe" unicode="&#x153;" horiz-adv-x="907" 
d="M282 531c90 0 150 -32 181 -87c35 55 100 87 182 87c155 0 238 -108 238 -302h-378c0 -92 51 -153 135 -153c59 0 110 30 123 88h114c-28 -115 -114 -178 -235 -178c-92 0 -152 30 -185 95c-37 -66 -94 -95 -184 -95c-148 0 -238 113 -238 274c0 147 89 271 247 271z
M149 262c0 -116 44 -186 132 -186s132 70 132 186c0 97 -43 179 -133 179c-84 0 -131 -79 -131 -179zM505 304h264c-6 92 -52 137 -135 137c-66 0 -122 -50 -129 -137z" />
    <glyph glyph-name="scaron" unicode="&#x161;" horiz-adv-x="519" 
d="M264 643l71 89h93l-108 -143h-111l-107 143h92zM259 531c123 0 205 -56 216 -159h-119c-9 47 -43 69 -105 69c-56 0 -94 -19 -94 -53c0 -36 31 -56 131 -75c159 -29 204 -79 204 -159c0 -108 -99 -168 -231 -168c-136 0 -226 61 -229 180h114c7 -61 46 -90 117 -90
c70 0 115 20 115 65c0 36 -23 63 -167 88c-86 15 -168 53 -168 154c0 97 95 148 216 148z" />
    <glyph glyph-name="scedilla" unicode="&#x15f;" horiz-adv-x="519" 
d="M259 531c126 0 203 -56 216 -159h-119c-9 47 -43 69 -105 69c-56 0 -94 -19 -94 -53c0 -39 31 -56 131 -75c159 -29 204 -77 204 -159c0 -96 -80 -159 -213 -167l-35 -46l1 -1c14 3 23 4 32 4c45 0 86 -28 86 -75c0 -60 -54 -92 -121 -92c-42 0 -77 8 -103 23l18 40
c24 -10 41 -16 68 -16c39 0 58 14 58 41c0 21 -19 38 -46 38c-14 0 -28 -3 -39 -10l-22 19l56 75h-1c-122 10 -196 71 -199 179h114c7 -61 46 -90 117 -90c70 0 115 20 115 65c0 39 -25 62 -135 83c-90 18 -200 37 -200 159c0 95 92 148 216 148z" />
    <glyph glyph-name="germandbls" unicode="&#xdf;" horiz-adv-x="574" 
d="M282 731c119 0 213 -73 213 -180c0 -70 -33 -128 -102 -151v-2c82 -9 134 -87 134 -171c0 -142 -92 -241 -230 -241c-17 0 -34 1 -55 3v90c12 -3 13 -3 33 -3c100 0 138 51 138 155c0 81 -63 124 -165 124h-5v75c101 0 138 50 138 110c0 67 -34 101 -101 101
c-66 0 -103 -49 -103 -126v-515h-114v527c0 122 88 204 219 204z" />
    <glyph glyph-name="thorn" unicode="&#xfe;" horiz-adv-x="611" 
d="M177 450h2c33 50 96 81 154 81c153 0 242 -114 242 -275c0 -136 -69 -270 -223 -270c-72 0 -143 29 -173 81h-2v-258h-114v905h114v-264zM173 258c0 -107 56 -182 145 -182c92 0 143 76 143 182c0 100 -56 183 -144 183c-90 0 -144 -67 -144 -183z" />
    <glyph glyph-name="ugrave" unicode="&#xf9;" horiz-adv-x="574" 
d="M343 589h-83l-142 143h134zM174 517v-321c0 -77 29 -120 99 -120c85 0 127 51 127 137v304h114v-517h-112v72h-2c-30 -53 -89 -86 -148 -86c-132 0 -192 67 -192 198v333h114z" />
    <glyph glyph-name="uacute" unicode="&#xfa;" horiz-adv-x="574" 
d="M320 589h-83l90 143h135zM174 517v-321c0 -77 29 -120 99 -120c85 0 127 51 127 137v304h114v-517h-112v72h-2c-30 -53 -89 -86 -148 -86c-132 0 -192 67 -192 198v333h114z" />
    <glyph glyph-name="ucircumflex" unicode="&#xfb;" horiz-adv-x="574" 
d="M454 589h-93l-71 90l-70 -90h-92l107 143h111zM174 517v-321c0 -77 29 -120 99 -120c85 0 127 51 127 137v304h114v-517h-112v72h-2c-30 -53 -89 -86 -148 -86c-132 0 -192 67 -192 198v333h114z" />
    <glyph glyph-name="udieresis" unicode="&#xfc;" horiz-adv-x="574" 
d="M261 602h-114v108h114v-108zM433 602h-114v108h114v-108zM174 517v-321c0 -77 29 -120 99 -120c85 0 127 51 127 137v304h114v-517h-112v72h-2c-30 -53 -89 -86 -148 -86c-132 0 -192 67 -192 198v333h114z" />
    <glyph glyph-name="yacute" unicode="&#xfd;" horiz-adv-x="519" 
d="M296 589h-83l90 143h135zM263 131h2l131 386h119l-199 -540c-21 -59 -41 -98 -57 -120c-31 -45 -71 -62 -129 -62c-24 0 -50 2 -78 6v96c17 -2 31 -7 54 -7c37 0 60 16 71 47l22 65l-196 515h125z" />
    <glyph glyph-name="ydieresis" unicode="&#xff;" horiz-adv-x="519" 
d="M237 602h-114v108h114v-108zM409 602h-114v108h114v-108zM263 131h2l131 386h119l-199 -540c-21 -59 -41 -98 -57 -120c-31 -45 -71 -62 -129 -62c-24 0 -50 2 -78 6v96c17 -2 31 -7 54 -7c37 0 60 16 71 47l22 65l-196 515h125z" />
    <glyph glyph-name="zcaron" unicode="&#x17e;" horiz-adv-x="500" 
d="M251 643l71 89h93l-108 -143h-111l-107 143h92zM462 437l-296 -347h311v-90h-455v80l286 347h-266v90h420v-80z" />
    <glyph glyph-name="fi" unicode="&#xfb01;" 
d="M94 432h-85v85h85v47c0 106 47 150 144 150c34 0 61 -2 79 -7v-89c-12 4 -34 6 -52 6c-40 0 -57 -20 -57 -49v-58h97v-85h-97v-432h-114v432zM492 606h-114v108h114v-108zM492 0h-114v517h114v-517z" />
    <glyph glyph-name="fl" unicode="&#xfb02;" 
d="M94 432h-85v85h85v47c0 106 47 150 144 150c34 0 61 -2 79 -7v-89c-12 4 -34 6 -52 6c-40 0 -57 -20 -57 -49v-58h97v-85h-97v-432h-114v432zM492 0h-114v714h114v-714z" />
    <glyph glyph-name="grave.cap" horiz-adv-x="241" 
d="M196 783h-83l-142 143h134z" />
    <glyph glyph-name="acute" unicode="&#xb4;" horiz-adv-x="241" 
d="M128 589h-83l90 143h135z" />
    <glyph glyph-name="acute.cap" horiz-adv-x="241" 
d="M128 783h-83l90 143h135z" />
    <glyph glyph-name="circumflex" unicode="&#x2c6;" horiz-adv-x="241" 
d="M284 589h-93l-71 90l-70 -90h-92l107 143h111z" />
    <glyph glyph-name="circumflex.cap" horiz-adv-x="241" 
d="M284 783h-93l-71 90l-70 -90h-92l107 143h111z" />
    <glyph glyph-name="caron" unicode="&#x2c7;" horiz-adv-x="241" 
d="M119 643l71 89h93l-108 -143h-111l-107 143h92z" />
    <glyph glyph-name="caron.cap" horiz-adv-x="241" 
d="M119 837l71 89h93l-108 -143h-111l-107 143h92z" />
    <glyph glyph-name="caron.alt" horiz-adv-x="241" 
d="M146 571h-76l32 143h125z" />
    <glyph glyph-name="tilde" unicode="&#x2dc;" horiz-adv-x="241" 
d="M241 720h56c-10 -73 -50 -115 -110 -115c-23 0 -45 6 -73 18s-45 19 -70 19c-24 0 -38 -14 -43 -41h-57c12 64 50 113 105 113c29 0 52 -8 75 -18c23 -9 42 -20 67 -20c24 0 41 11 50 44z" />
    <glyph glyph-name="tilde.cap" horiz-adv-x="241" 
d="M241 914h56c-9 -74 -50 -115 -110 -115c-23 0 -45 7 -73 19s-52 18 -70 18c-24 0 -38 -14 -43 -41h-57c12 64 50 113 105 113c32 0 52 -8 75 -18c23 -9 42 -20 67 -20c24 0 41 11 50 44z" />
    <glyph glyph-name="dieresis" unicode="&#xa8;" horiz-adv-x="241" 
d="M91 602h-114v108h114v-108zM263 602h-114v108h114v-108z" />
    <glyph glyph-name="dieresis.cap" horiz-adv-x="241" 
d="M91 796h-114v108h114v-108zM263 796h-114v108h114v-108z" />
    <glyph glyph-name="macron" unicode="&#xaf;" horiz-adv-x="241" 
d="M265 624h-288v65h288v-65z" />
    <glyph glyph-name="macron.cap" horiz-adv-x="241" 
d="M265 818h-288v65h288v-65z" />
    <glyph glyph-name="breve" unicode="&#x2d8;" horiz-adv-x="241" 
d="M-41 731h58c10 -51 48 -76 107 -76c50 0 90 24 101 76h57c-10 -91 -71 -141 -166 -141c-92 0 -149 50 -157 141z" />
    <glyph glyph-name="breve.cap" horiz-adv-x="241" 
d="M-41 925h58c9 -47 44 -76 107 -76c54 0 90 27 101 76h57c-10 -90 -68 -141 -166 -141c-94 0 -149 51 -157 141z" />
    <glyph glyph-name="ring" unicode="&#x2da;" horiz-adv-x="241" 
d="M121 777c61 0 104 -45 104 -103s-44 -103 -104 -103c-59 0 -104 44 -104 103c0 55 41 103 104 103zM61 674c0 -35 28 -61 60 -61c34 0 60 24 60 61c0 34 -23 61 -60 61c-35 0 -60 -27 -60 -61z" />
    <glyph glyph-name="ring.cap" horiz-adv-x="241" 
d="M121 957c59 0 104 -43 104 -103c0 -58 -45 -103 -104 -103c-58 0 -104 43 -104 103c0 61 48 103 104 103zM61 854c0 -34 26 -61 60 -61c35 0 60 27 60 61s-24 61 -60 61c-34 0 -60 -26 -60 -61z" />
    <glyph glyph-name="hungarumlaut" unicode="&#x2dd;" horiz-adv-x="241" 
d="M47 589h-82l90 143h136zM246 589h-82l90 143h136z" />
    <glyph glyph-name="hungarumlaut.cap" horiz-adv-x="241" 
d="M47 783h-82l90 143h136zM246 783h-82l90 143h136z" />
    <glyph glyph-name="dotaccent" unicode="&#x2d9;" horiz-adv-x="241" 
d="M178 602h-114v108h114v-108z" />
    <glyph glyph-name="dotaccent.cap" horiz-adv-x="241" 
d="M178 796h-114v108h114v-108z" />
    <glyph glyph-name="cedilla" unicode="&#xb8;" horiz-adv-x="241" 
d="M160 0l-46 -59l1 -1c13 3 23 4 32 4c48 0 86 -31 86 -75c0 -63 -57 -92 -122 -92c-39 0 -74 7 -102 23l18 40c27 -11 42 -16 68 -16c39 0 58 15 58 41c0 23 -20 38 -46 38c-14 0 -28 -3 -39 -10l-22 19l66 88h48z" />
    <glyph glyph-name="ogonek" unicode="&#x2db;" horiz-adv-x="241" 
d="M162 0h54c-62 -50 -94 -82 -94 -128c0 -26 16 -45 40 -45c22 0 36 10 51 34l41 -9c-13 -50 -53 -75 -105 -75c-58 0 -101 33 -101 86c0 47 35 89 114 137z" />
    <glyph glyph-name="ellipsis" unicode="&#x2026;" horiz-adv-x="1000" 
d="M236 0h-139v135h139v-135zM569 0h-139v135h139v-135zM902 0h-139v135h139v-135z" />
    <glyph glyph-name="exclamdown" unicode="&#xa1;" horiz-adv-x="278" 
d="M206 406h-134v125h134v-125zM169 332l33 -311v-204h-125v204l33 311h59z" />
    <glyph glyph-name="questiondown" unicode="&#xbf;" 
d="M344 406h-134v125h134v-125zM225 332h108c0 -109 -20 -158 -84 -208c-65 -51 -75 -77 -75 -123c0 -64 50 -106 98 -106c75 0 121 49 121 144h114c0 -144 -97 -239 -240 -239c-126 0 -218 79 -218 197c0 67 16 110 88 166c71 55 88 93 88 169z" />
    <glyph glyph-name="quoteleft" unicode="&#x2018;" horiz-adv-x="278" 
d="M202 714v-58c-40 -14 -61 -46 -61 -89h61v-135h-125v138c0 65 48 120 125 144z" />
    <glyph glyph-name="quoteright" unicode="&#x2019;" horiz-adv-x="278" 
d="M202 714v-138c0 -70 -46 -132 -125 -144v58c44 7 61 38 61 89h-61v135h125z" />
    <glyph glyph-name="quotedblleft" unicode="&#x201c;" horiz-adv-x="444" 
d="M185 714v-58c-40 -14 -61 -46 -61 -89h61v-135h-125v138c0 65 48 120 125 144zM384 714v-58c-41 -15 -61 -46 -61 -89h61v-135h-125v138c0 62 47 121 125 144z" />
    <glyph glyph-name="quotedblright" unicode="&#x201d;" horiz-adv-x="444" 
d="M185 714v-137c0 -62 -43 -122 -124 -145h-1v58c41 15 61 46 61 89h-61v135h125zM384 714v-138c0 -64 -48 -122 -124 -144h-1v58c39 14 61 44 61 89h-61v135h125z" />
    <glyph glyph-name="quotesinglbase" unicode="&#x201a;" horiz-adv-x="278" 
d="M202 135v-138c0 -61 -47 -124 -125 -144v58c41 14 61 46 61 89h-61v135h125z" />
    <glyph glyph-name="quotedblbase" unicode="&#x201e;" horiz-adv-x="444" 
d="M185 135v-138c0 -62 -47 -124 -125 -144v58c41 15 61 46 61 89h-61v135h125zM384 135v-138c0 -62 -47 -122 -124 -144h-1v58c39 14 61 43 61 89h-61v135h125z" />
    <glyph glyph-name="guilsinglleft" unicode="&#x2039;" horiz-adv-x="259" 
d="M205 348l-95 -76l95 -76v-103l-155 123v112l155 123v-103z" />
    <glyph glyph-name="guilsinglright" unicode="&#x203a;" horiz-adv-x="259" 
d="M209 328v-112l-155 -123v103l95 76l-95 76v103z" />
    <glyph glyph-name="endash" unicode="&#x2013;" horiz-adv-x="500" 
d="M500 218h-500v108h500v-108z" />
    <glyph glyph-name="emdash" unicode="&#x2014;" horiz-adv-x="1000" 
d="M870 218h-740v108h740v-108z" />
    <glyph glyph-name="bullet" unicode="&#x2022;" horiz-adv-x="500" 
d="M250 535c98 0 179 -77 179 -178c0 -95 -76 -179 -179 -179c-50 0 -93 18 -127 53c-34 36 -51 78 -51 126c0 97 78 178 178 178z" />
    <glyph glyph-name="periodcentered" unicode="&#xb7;" horiz-adv-x="278" 
d="M139 376c42 0 75 -37 75 -74c0 -39 -33 -76 -75 -76c-41 0 -75 36 -75 76c0 37 33 74 75 74z" />
    <glyph glyph-name="dagger" unicode="&#x2020;" 
d="M335 517h191v-95h-191v-582h-114v582h-191v95h191v197h114v-197z" />
    <glyph glyph-name="daggerdbl" unicode="&#x2021;" 
d="M335 517h191v-95h-191v-290h191v-95h-191v-197h-114v197h-191v95h191v290h-191v95h191v197h114v-197z" />
    <glyph glyph-name="section" unicode="&#xa7;" 
d="M284 731c113 0 200 -73 200 -189h-107c-3 59 -41 99 -94 99c-42 0 -82 -32 -82 -75c0 -45 36 -76 134 -123c82 -39 137 -74 162 -105s38 -65 38 -100c0 -58 -43 -122 -106 -144c39 -34 55 -71 55 -128c0 -104 -88 -171 -198 -171c-123 0 -211 74 -216 205h108
c6 -77 41 -115 105 -115c56 0 87 28 87 81c0 70 -85 110 -192 164c-108 55 -156 111 -156 182c0 70 36 119 108 149c-32 35 -43 62 -43 101c0 99 95 169 197 169zM130 325c0 -33 21 -59 55 -78l182 -102c43 20 60 47 60 82c0 33 -10 49 -80 89l-157 89
c-36 -11 -60 -43 -60 -80z" />
    <glyph glyph-name="paragraph" unicode="&#xb6;" horiz-adv-x="600" 
d="M523 -160h-80v809h-117v-809h-80v504c-133 1 -215 79 -215 182c0 123 82 188 228 188h264v-874z" />
    <glyph glyph-name="brokenbar" unicode="&#xa6;" horiz-adv-x="222" 
d="M162 411h-102v250h102v-250zM162 -89h-102v250h102v-250z" />
    <glyph glyph-name="copyright" unicode="&#xa9;" horiz-adv-x="800" 
d="M401 731c211 0 366 -166 366 -374c0 -209 -155 -374 -366 -374c-215 0 -368 161 -368 374c0 210 156 374 368 374zM113 357c0 -171 110 -309 288 -309c174 0 286 142 286 309c0 168 -112 309 -287 309s-287 -141 -287 -309zM411 572c98 0 166 -59 178 -151h-68
c-12 53 -55 86 -110 86c-78 0 -130 -62 -130 -150c0 -92 56 -161 132 -161c55 0 100 33 108 89h69c-17 -96 -91 -154 -177 -154c-122 0 -212 94 -212 226c0 122 81 215 210 215z" />
    <glyph glyph-name="registered" unicode="&#xae;" horiz-adv-x="800" 
d="M401 731c211 0 366 -166 366 -374c0 -209 -155 -374 -366 -374c-215 0 -368 161 -368 374c0 210 156 374 368 374zM113 357c0 -171 110 -309 288 -309c174 0 286 142 286 309c0 168 -112 309 -287 309s-287 -141 -287 -309zM259 557h161c98 0 147 -37 147 -119
c0 -69 -39 -105 -108 -113l116 -182h-77l-107 177h-64v-177h-68v414zM327 378h80c73 0 92 22 92 65c0 38 -28 56 -85 56h-87v-121z" />
    <glyph glyph-name="trademark" unicode="&#x2122;" horiz-adv-x="990" 
d="M391 649h-126v-347h-80v347h-126v65h332v-65zM704 422l112 292h115v-412h-75v322h-2l-123 -322h-56l-123 322h-2v-322h-75v412h116z" />
    <glyph glyph-name="currency" unicode="&#xa4;" 
d="M536 552l-56 -58c31 -32 47 -84 47 -143c0 -58 -19 -113 -48 -146l55 -59l-55 -55l-57 58c-35 -33 -85 -50 -143 -50c-57 0 -109 16 -147 49l-2 -2l-54 -56l-56 56l57 61c-33 38 -50 89 -50 142c0 63 19 114 50 144l-57 61l57 57l57 -56c36 30 95 46 146 46
c53 0 104 -18 137 -45l58 57zM135 349c0 -81 63 -148 144 -148c80 0 140 69 140 150c0 80 -60 148 -140 148c-79 0 -144 -67 -144 -150z" />
    <glyph glyph-name="cent" unicode="&#xa2;" 
d="M311 621v-90c117 -1 204 -76 213 -187h-114c-9 59 -47 97 -99 97v-365c61 11 95 50 103 118h114c-23 -132 -98 -208 -217 -208v-90h-43v90c-145 3 -231 121 -231 267c0 163 93 278 231 278v90h43zM151 253c0 -92 41 -165 117 -177v365c-73 -6 -117 -81 -117 -188z" />
    <glyph glyph-name="sterling" unicode="&#xa3;" 
d="M532 484h-114c-6 105 -52 152 -134 152c-67 0 -112 -48 -112 -117c0 -31 7 -61 46 -135h147v-65h-123c10 -20 16 -42 16 -67c0 -60 -28 -107 -101 -164l2 -2c27 12 59 27 92 27c34 0 63 -9 99 -24c18 -7 36 -11 56 -11c37 0 70 13 97 38l51 -77c-52 -43 -95 -56 -159 -56
c-23 0 -66 5 -117 20c-25 8 -60 15 -88 15c-37 0 -79 -15 -101 -34l-53 81c64 45 108 111 108 163c0 31 -7 62 -21 91h-92v65h63c-30 36 -47 95 -47 141c0 123 115 206 234 206c157 0 249 -85 251 -247z" />
    <glyph glyph-name="florin" unicode="&#x192;" 
d="M432 731c19 0 37 -1 72 -5l-17 -90c-19 4 -33 5 -41 5c-52 0 -71 -14 -84 -80l-24 -123h102l-15 -85h-102l-73 -379c-14 -76 -86 -144 -173 -144c-29 0 -36 1 -77 5l15 90c22 -4 34 -5 48 -5c43 0 61 17 69 56l75 377h-91l15 85h92l30 159c16 83 75 134 179 134z" />
    <glyph glyph-name="yen" unicode="&#xa5;" 
d="M278 394l159 320h124l-188 -351h99v-65h-137v-68h137v-65h-137v-165h-114v165h-137v65h137v68h-137v65h98l-187 351h127z" />
    <glyph glyph-name="ordfeminine" unicode="&#xaa;" horiz-adv-x="380" 
d="M189 714c84 0 142 -37 142 -92v-152c0 -20 5 -22 17 -22c5 0 12 0 16 1v-68c-3 -2 -32 -8 -48 -8c-35 0 -53 12 -61 49c-14 -24 -73 -49 -117 -49c-71 0 -122 36 -122 93c0 56 31 86 145 101c66 9 83 19 83 37c0 28 -11 45 -59 45s-69 -14 -71 -42h-85
c6 69 64 107 160 107zM103 471c0 -24 17 -33 56 -33c52 0 85 16 85 53v44c-15 -7 -33 -10 -54 -13c-68 -9 -87 -25 -87 -51z" />
    <glyph glyph-name="ordmasculine" unicode="&#xba;" horiz-adv-x="380" 
d="M193 714c115 0 178 -66 178 -171s-63 -170 -178 -170c-112 0 -178 63 -178 170c0 109 67 171 178 171zM102 543c0 -56 34 -105 91 -105c66 0 91 60 91 106c0 57 -35 105 -92 105c-53 0 -90 -46 -90 -106z" />
    <glyph glyph-name="uni00B9" unicode="&#xb9;" horiz-adv-x="390" 
d="M266 397h-87v295h-121v58c76 0 127 25 138 70h70v-423z" />
    <glyph glyph-name="uni00B2" unicode="&#xb2;" horiz-adv-x="390" 
d="M206 829c94 0 150 -49 150 -127c0 -53 -26 -91 -103 -139s-105 -58 -118 -96h218v-70h-319c1 74 19 126 102 177l67 41c59 36 66 62 66 87c0 35 -25 57 -64 57c-47 0 -72 -26 -76 -83h-87c1 95 66 153 164 153z" />
    <glyph glyph-name="uni00B3" unicode="&#xb3;" horiz-adv-x="390" 
d="M196 829c86 0 145 -44 145 -113c0 -39 -23 -69 -64 -86c55 -18 81 -53 81 -108c0 -77 -70 -134 -165 -134c-102 0 -163 54 -163 139h80c4 -47 31 -69 84 -69c51 0 84 25 84 68c0 42 -22 67 -101 67h-17v60h27c43 0 74 20 74 54c0 33 -26 54 -69 54s-72 -25 -73 -74h-80
c4 89 64 142 157 142z" />
    <glyph glyph-name="fraction" unicode="&#x2044;" horiz-adv-x="167" 
d="M-86 -24h-79l419 748h78z" />
    <glyph glyph-name="onehalf" unicode="&#xbd;" horiz-adv-x="834" 
d="M210 -24h-79l419 748h78zM244 282h-87v295h-121v58c77 0 128 26 138 70h70v-423zM644 432c94 0 150 -49 150 -127c0 -52 -28 -93 -89 -130l-85 -52c-27 -17 -42 -34 -47 -53h218v-70h-319c1 74 19 126 102 177l67 41c56 34 66 58 66 87c0 35 -25 57 -64 57
c-47 0 -72 -26 -76 -83h-87c0 93 65 153 164 153z" />
    <glyph glyph-name="onequarter" unicode="&#xbc;" horiz-adv-x="834" 
d="M230 -24h-79l419 748h78zM244 282h-87v295h-121v58c77 0 128 26 138 70h70v-423zM715 160h58v-68h-58v-92h-83v92h-193v76l198 255h78v-263zM508 160h124v159z" />
    <glyph glyph-name="threequarters" unicode="&#xbe;" horiz-adv-x="834" 
d="M279 -24h-78l419 748h78zM203 712c84 0 145 -44 145 -113c0 -37 -19 -67 -64 -86c55 -17 81 -54 81 -108c0 -75 -71 -134 -164 -134c-102 0 -163 53 -164 139h80c4 -47 33 -69 84 -69s84 27 84 68c0 43 -24 67 -102 67h-16v60h20c56 0 81 22 81 54c0 35 -24 54 -69 54
s-73 -27 -73 -74h-80c5 92 66 142 157 142zM725 160h58v-68h-58v-92h-83v92h-193v76l197 255h79v-263zM518 160h124v159z" />
    <glyph glyph-name="perthousand" unicode="&#x2030;" horiz-adv-x="1148" 
d="M236 -24h-71l397 747l1 1h73zM231 714c92 0 149 -69 149 -178c0 -99 -56 -165 -149 -165c-97 0 -149 68 -149 164c0 109 57 179 149 179zM167 533c0 -70 21 -102 64 -102c42 0 64 30 64 102c0 82 -21 121 -65 121c-43 0 -63 -40 -63 -121zM576 329c93 0 149 -69 149 -175
c0 -100 -58 -168 -149 -168c-92 0 -149 68 -149 168c0 105 55 175 149 175zM917 329c94 0 149 -68 149 -175c0 -98 -54 -168 -149 -168s-149 69 -149 168c0 108 55 175 149 175zM512 151c0 -74 24 -105 64 -105c43 0 64 37 64 106c0 84 -23 117 -64 117
c-38 0 -64 -28 -64 -118zM853 152c0 -71 21 -106 64 -106c41 0 64 33 64 106c0 82 -22 117 -64 117s-64 -35 -64 -117z" />
    <glyph glyph-name="minus" unicode="&#x2212;" horiz-adv-x="600" 
d="M552 202h-504v102h504v-102z" />
    <glyph glyph-name="plusminus" unicode="&#xb1;" horiz-adv-x="600" 
d="M351 381h201v-102h-201v-125h-102v125h-201v102h201v125h102v-125zM552 0h-504v102h504v-102z" />
    <glyph glyph-name="multiply" unicode="&#xd7;" horiz-adv-x="600" 
d="M299 324l166 174l80 -71l-175 -174l174 -174l-80 -71l-164 174l-166 -174l-80 71l175 174l-174 174l80 71z" />
    <glyph glyph-name="divide" unicode="&#xf7;" horiz-adv-x="600" 
d="M300 531c39 0 72 -34 72 -72c0 -35 -33 -72 -71 -72c-39 0 -73 34 -73 72c0 39 32 72 72 72zM552 202h-504v102h504v-102zM300 119c38 0 72 -34 72 -72c0 -34 -34 -72 -71 -72s-73 33 -73 72s31 72 72 72z" />
    <glyph glyph-name="notequal" unicode="&#x2260;" horiz-adv-x="600" 
d="M434 405h118v-99h-175l-55 -106h230v-99h-283l-76 -140h-1l-78 41l54 99h-120v99h177l54 106h-231v99h285l76 140l79 -41z" />
    <glyph glyph-name="approxequal" unicode="&#x2248;" horiz-adv-x="600" 
d="M180 442c33 0 71 -11 133 -35c62 -25 94 -32 122 -32c34 0 54 22 64 66h67c-10 -106 -62 -164 -145 -164c-32 0 -76 12 -134 35c-58 22 -94 34 -117 34c-33 0 -58 -26 -65 -69h-68c10 100 60 165 143 165zM178 236c33 0 72 -10 134 -35c61 -24 93 -32 121 -32
c34 0 55 23 64 66h67c-10 -106 -61 -164 -145 -164c-41 0 -97 19 -169 48c-36 14 -63 21 -82 21c-33 0 -58 -24 -65 -69h-68c10 99 60 165 143 165z" />
    <glyph glyph-name="lessequal" unicode="&#x2264;" horiz-adv-x="600" 
d="M163 333l389 -115v-96l-504 163v96l504 163v-97zM552 0h-504v102h504v-102z" />
    <glyph glyph-name="greaterequal" unicode="&#x2265;" horiz-adv-x="600" 
d="M552 285l-504 -163v96l390 115l-390 114v97l504 -163v-96zM552 0h-504v102h504v-102z" />
    <glyph glyph-name="logicalnot" unicode="&#xac;" horiz-adv-x="600" 
d="M552 108h-102v195h-402v102h504v-297z" />
    <glyph glyph-name="uni0394" unicode="&#x394;" horiz-adv-x="657" 
d="M665 0h-672l269 714h133zM494 105l-167 482l-167 -482h334z" />
    <glyph glyph-name="uni03A9" unicode="&#x3a9;" horiz-adv-x="767" 
d="M386 731c210 0 340 -155 340 -331c0 -120 -48 -216 -150 -290v-5h161v-105h-296v95c107 63 160 167 160 305c0 132 -85 229 -215 229c-131 0 -220 -96 -220 -238c0 -137 57 -233 164 -296v-95h-297v105h150v5c-98 69 -142 159 -142 280c0 198 144 341 345 341z" />
    <glyph glyph-name="uni03BC" unicode="&#x3bc;" horiz-adv-x="574" 
d="M174 517v-321c0 -77 29 -120 99 -120c85 0 127 51 127 137v304h114v-517h-112v72h-2c-36 -59 -87 -86 -142 -86c-38 0 -67 11 -84 26v-203h-114v708h114z" />
    <glyph glyph-name="pi" unicode="&#x3c0;" horiz-adv-x="691" 
d="M661 427h-107v-304c0 -28 13 -46 43 -46c12 0 24 2 36 5v-79c-25 -11 -52 -17 -83 -17c-76 0 -109 39 -109 105v336h-204v-427h-114v427h-98v90h636v-90z" />
    <glyph glyph-name="degree" unicode="&#xb0;" horiz-adv-x="400" 
d="M200 714c86 0 150 -70 150 -150c0 -81 -64 -150 -150 -150c-83 0 -150 67 -150 150c0 84 68 150 150 150zM106 564c0 -54 43 -94 94 -94s94 40 94 94c0 51 -41 94 -94 94c-50 0 -94 -42 -94 -94z" />
    <glyph glyph-name="infinity" unicode="&#x221e;" horiz-adv-x="806" 
d="M597 437c97 0 164 -75 164 -175c0 -101 -63 -179 -165 -179c-63 0 -119 30 -193 112c-85 -88 -125 -110 -192 -110c-98 0 -167 72 -167 175s68 176 164 176c68 0 125 -34 195 -118c71 85 129 119 194 119zM595 345c-34 0 -70 -17 -137 -88c57 -60 101 -82 140 -82
c44 0 77 32 77 84c0 54 -34 86 -80 86zM208 344c-44 0 -78 -37 -78 -85c0 -49 31 -83 81 -83c39 0 90 29 137 81c-68 69 -104 87 -140 87z" />
    <glyph glyph-name="partialdiff" unicode="&#x2202;" horiz-adv-x="548" 
d="M238 721c173 0 269 -142 269 -363c0 -236 -86 -370 -252 -370c-127 0 -216 96 -216 227c0 127 88 219 212 219c51 0 98 -16 147 -58l1 38c3 124 -59 224 -157 224c-37 0 -75 -15 -118 -48l-57 66c63 50 108 65 171 65zM142 209c0 -82 45 -141 117 -141c41 0 74 19 99 58
c26 39 39 82 39 131l-1 30c-41 47 -79 67 -129 67c-77 0 -125 -62 -125 -145z" />
    <glyph glyph-name="integral" unicode="&#x222b;" horiz-adv-x="600" 
d="M369 786c55 0 105 -29 105 -73c0 -27 -22 -49 -51 -49c-28 0 -43 15 -52 44c-5 14 -11 21 -19 21c-12 0 -19 -9 -19 -30l2 -131l1 -567c0 -152 -44 -215 -141 -215c-56 0 -102 29 -102 72c0 27 19 49 48 49c18 0 34 1 55 -52c4 -10 9 -15 15 -15c10 0 19 6 19 35l-3 111
v586c0 156 45 214 142 214z" />
    <glyph glyph-name="radical" unicode="&#x221a;" horiz-adv-x="531" 
d="M332 -214h-101l-153 319l-50 -23l-40 85l143 65l133 -281l170 835h109z" />
    <glyph glyph-name="summation" unicode="&#x2211;" horiz-adv-x="643" 
d="M605 688h-424l279 -396l-297 -409h455v-97h-593v86l306 419l-293 411v84h567v-98z" />
    <glyph glyph-name="product" unicode="&#x220f;" horiz-adv-x="737" 
d="M674 -214h-108v902h-396v-902h-107v1000h611v-1000z" />
    <glyph glyph-name="uni20BE" unicode="&#x20be;" horiz-adv-x="600" 
d="M418 357v261c-13 3 -25 4 -38 4s-26 -2 -37 -4v-261h-58v245c-84 -44 -111 -131 -111 -245c0 -147 82 -259 227 -259h236v-98h-540v94h98v4c-99 55 -140 180 -140 279c0 151 89 283 230 323v110h58v-98c11 1 23 2 37 2c12 0 25 -1 38 -2v98h58v-110
c145 -42 231 -182 231 -343h-119c0 114 -29 202 -112 245v-245h-58z" />
    <glyph glyph-name="uni018F" unicode="&#x18f;" horiz-adv-x="739" 
d="M370 -17c-195 0 -332 152 -332 366c0 5 0 21 2 41h536c0 141 -90 239 -213 239c-105 0 -185 -73 -198 -171h-118c17 158 145 273 316 273c194 0 336 -154 338 -374c2 -219 -135 -374 -331 -374zM576 305h-412c5 -127 90 -220 206 -220c118 0 203 93 206 220z" />
    <glyph glyph-name="dotlessi" unicode="&#x131;" horiz-adv-x="241" 
d="M177 0h-114v517h114v-517z" />
    <glyph glyph-name="uni0259" unicode="&#x259;" 
d="M271 -17c-150 0 -246 120 -246 263c0 13 1 26 2 39h380c0 85 -52 153 -139 153c-60 0 -105 -26 -126 -86h-108c23 111 124 176 234 176c160 0 250 -114 253 -271c3 -149 -92 -274 -250 -274zM407 210h-266c6 -72 49 -137 131 -137c80 0 131 57 135 137z" />
    <glyph glyph-name="uni10D0" unicode="&#x10d0;" horiz-adv-x="584" 
d="M286 -17c-150 0 -256 102 -256 243c0 49 15 92 29 119h120c-11 -27 -24 -69 -24 -115c0 -83 51 -148 132 -148c83 0 133 65 133 148c0 109 -51 163 -108 224c-52 56 -105 122 -105 260h125c0 -95 37 -151 84 -203c65 -72 130 -141 130 -285c0 -141 -112 -243 -260 -243z
" />
    <glyph glyph-name="uni10D1" unicode="&#x10d1;" horiz-adv-x="601" 
d="M300 -17c-144 0 -263 95 -263 253c0 144 96 233 218 250v18c0 48 -29 62 -58 82c-32 22 -63 45 -63 128h118c0 -38 20 -58 46 -77c35 -25 79 -55 79 -120v-37c107 -25 187 -113 187 -244c0 -158 -116 -253 -264 -253zM300 82c82 0 141 57 141 154s-59 153 -141 153
c-79 0 -137 -56 -137 -153s57 -154 137 -154z" />
    <glyph glyph-name="uni10D2" unicode="&#x10d2;" horiz-adv-x="600" 
d="M299 -17c-141 0 -262 88 -262 244c0 143 98 212 198 242c97 28 130 61 130 102c0 36 -32 67 -77 67c-46 0 -80 -34 -80 -81h-121c0 104 92 174 199 174c113 0 195 -67 195 -154c0 -68 -46 -106 -96 -126v-3c111 -21 178 -111 178 -221c0 -156 -119 -244 -264 -244z
M299 82c82 0 141 57 141 146c0 97 -59 154 -141 154c-79 0 -137 -57 -137 -154c0 -89 58 -146 137 -146z" />
    <glyph glyph-name="uni10D3" unicode="&#x10d3;" horiz-adv-x="898" 
d="M634 0h-134c-4 63 -97 96 -204 96h-171v86h97v4c-97 38 -185 137 -185 277c0 162 96 268 219 268c71 0 134 -32 165 -103h5c38 68 110 103 190 103c135 0 245 -109 245 -254c0 -143 -107 -253 -254 -253c-145 0 -247 110 -247 253v54c0 64 -40 102 -87 102
c-66 0 -110 -63 -110 -172c0 -159 124 -249 246 -278c124 -29 222 -75 225 -183zM608 321c80 0 135 71 135 156c0 90 -55 156 -135 156c-77 0 -131 -66 -131 -156c0 -89 53 -156 131 -156z" />
    <glyph glyph-name="uni10D4" unicode="&#x10d4;" horiz-adv-x="596" 
d="M286 -17c-151 0 -251 85 -251 216c0 39 6 71 18 100h120c-8 -29 -13 -52 -13 -88c0 -80 51 -129 127 -129c80 0 126 55 126 135v281c0 72 -38 134 -116 134c-75 0 -116 -55 -116 -112c0 -20 2 -34 6 -51h-123c-4 12 -8 33 -8 58c0 109 95 204 241 204
c152 0 242 -102 242 -226v-291c0 -141 -104 -231 -253 -231z" />
    <glyph glyph-name="uni10D5" unicode="&#x10d5;" horiz-adv-x="588" 
d="M292 -17c-154 0 -257 85 -257 209c0 34 6 66 17 91h118c-8 -23 -11 -48 -11 -72c0 -84 55 -129 133 -129c71 0 133 44 133 125c0 73 -46 127 -120 127h-45v94h42c70 0 103 46 103 100c0 55 -43 104 -111 104c-73 0 -114 -49 -114 -105c0 -16 2 -31 5 -41h-120
c-5 12 -8 34 -8 54c0 105 99 191 238 191c134 0 233 -85 233 -191c0 -78 -42 -135 -99 -157v-4c61 -21 121 -81 121 -184c0 -120 -111 -212 -258 -212z" />
    <glyph glyph-name="uni10D6" unicode="&#x10d6;" horiz-adv-x="639" 
d="M340 -17c-144 0 -261 99 -261 240c0 57 21 128 77 168v3c-84 11 -141 75 -141 159c0 110 87 178 199 178c116 0 202 -72 202 -157c0 -46 -14 -84 -42 -105v-3c125 -5 230 -90 230 -232c0 -151 -116 -251 -264 -251zM216 460c53 0 91 38 91 92c0 53 -38 91 -91 91
c-52 0 -93 -38 -93 -91c0 -54 41 -92 93 -92zM340 82c83 0 140 61 140 151c0 93 -53 149 -136 149c-80 0 -140 -56 -140 -148s56 -152 136 -152z" />
    <glyph glyph-name="uni10D7" unicode="&#x10d7;" horiz-adv-x="934" 
d="M806 0h-127c47 77 76 202 76 320v153c0 116 -42 162 -101 162c-54 0 -99 -43 -99 -144v-231c0 -177 -103 -277 -248 -277c-144 0 -253 99 -253 276v195c0 175 102 277 242 277c86 0 158 -40 192 -110h4c27 69 103 110 173 110c125 0 216 -94 216 -259v-148
c0 -130 -30 -254 -75 -324zM307 82c85 0 125 65 125 183v183c0 117 -36 184 -125 184c-85 0 -128 -67 -128 -183v-184c0 -117 43 -183 128 -183z" />
    <glyph glyph-name="uni10D8" unicode="&#x10d8;" horiz-adv-x="614" 
d="M493 0h-124c35 72 66 203 66 329v132c0 96 -41 171 -128 171s-128 -75 -128 -171v-132c0 -126 32 -257 66 -329h-124c-36 69 -67 202 -67 332v136c0 162 106 263 253 263c146 0 254 -102 254 -264v-135c0 -130 -32 -263 -68 -332z" />
    <glyph glyph-name="uni10D9" unicode="&#x10d9;" horiz-adv-x="577" 
d="M286 -17c-148 0 -256 92 -256 212c0 32 5 61 17 87h117c-8 -25 -12 -45 -12 -75c0 -74 56 -125 134 -125c75 0 130 50 130 135c0 86 -54 146 -130 146h-50v98h67c63 0 91 35 91 85c0 45 -28 77 -80 84v95c126 -9 198 -77 198 -168c0 -71 -37 -121 -91 -140v-4
c72 -31 121 -100 121 -203c0 -129 -110 -227 -256 -227z" />
    <glyph glyph-name="uni10DA" unicode="&#x10da;" horiz-adv-x="1067" 
d="M796 0h-133c-13 75 -123 98 -229 98h-304v87h99v4c-98 36 -192 131 -192 272c0 164 85 270 208 270c63 0 124 -36 147 -98h4c19 62 81 98 137 98c60 0 122 -35 139 -98h4c26 62 79 98 146 98c123 0 208 -107 208 -263c0 -77 -12 -150 -38 -211h-125c26 63 38 134 38 207
c0 110 -34 169 -90 169c-49 0 -82 -43 -82 -105v-183h-117v184c0 65 -33 104 -82 104c-50 0 -83 -43 -83 -104v-184h-117v182c0 66 -30 106 -79 106c-57 0 -93 -62 -93 -167c0 -164 135 -256 245 -267c45 -5 158 -13 222 -30c110 -30 161 -87 167 -169z" />
    <glyph glyph-name="uni10DB" unicode="&#x10db;" horiz-adv-x="619" 
d="M299 -17c-150 0 -262 101 -262 255c0 150 103 246 227 246c70 0 138 -31 170 -79h2v95c0 92 -62 132 -127 132c-61 0 -114 -33 -120 -83h-129c3 86 101 182 246 182c153 0 256 -90 256 -225v-269c0 -153 -109 -254 -263 -254zM299 82c81 0 141 58 141 151
s-59 152 -141 152c-81 0 -136 -59 -136 -152c0 -92 58 -151 136 -151z" />
    <glyph glyph-name="uni10DC" unicode="&#x10dc;" horiz-adv-x="619" 
d="M320 -17c-154 0 -263 101 -263 254v288c0 124 77 189 223 189h233v-101h-226c-71 0 -104 -30 -104 -94v-112h2c31 48 98 79 168 79c124 0 229 -98 229 -248c0 -154 -112 -255 -262 -255zM320 82c78 0 136 58 136 151c0 94 -55 153 -136 153c-82 0 -141 -58 -141 -153
c0 -93 60 -151 141 -151z" />
    <glyph glyph-name="uni10DD" unicode="&#x10dd;" horiz-adv-x="851" 
d="M719 0h-126c47 77 79 215 79 333v135c0 113 -41 164 -100 164c-49 0 -88 -42 -88 -119v-309h-118v309c0 78 -38 119 -87 119c-59 0 -100 -54 -100 -163v-136c0 -115 32 -258 77 -333h-126c-42 68 -76 202 -76 334v139c0 159 90 258 210 258c70 0 134 -31 159 -99h3
c26 68 94 99 160 99c124 0 211 -96 211 -258v-139c0 -130 -32 -264 -78 -334z" />
    <glyph glyph-name="uni10DE" unicode="&#x10de;" horiz-adv-x="573" 
d="M285 -17c-139 0 -255 84 -255 200c0 29 5 53 14 76h121c-6 -21 -9 -38 -9 -65c0 -63 55 -112 129 -112c71 0 125 52 125 117c0 71 -44 125 -121 125h-46v98h67c51 0 78 24 78 57c0 43 -38 61 -83 80c-69 29 -131 63 -135 155h125c7 -44 52 -65 91 -84
c58 -28 122 -57 122 -142c0 -53 -31 -95 -90 -114v-4c55 -16 117 -75 117 -178c0 -122 -110 -209 -250 -209z" />
    <glyph glyph-name="uni10DF" unicode="&#x10df;" horiz-adv-x="607" 
d="M290 -17c-147 0 -253 86 -253 213c0 17 4 43 11 61h122c-4 -15 -7 -36 -7 -55c0 -65 52 -120 127 -120c76 0 129 56 129 144v404l-174 -25v-3c45 -22 63 -70 63 -107c0 -79 -63 -141 -175 -141h-87v93h63c50 0 90 24 90 72c0 46 -44 73 -90 73v83l303 45h133v-504
c0 -154 -112 -233 -255 -233z" />
    <glyph glyph-name="uni10E0" unicode="&#x10e0;" horiz-adv-x="780" 
d="M672 0h-124c45 73 69 149 69 242c0 102 -40 147 -92 147c-46 0 -78 -41 -78 -105v-155h-115v154c0 68 -31 106 -76 106c-47 0 -94 -36 -94 -145c0 -90 25 -173 69 -244h-124c-44 71 -70 149 -70 298c0 245 127 335 290 366l93 18c28 5 49 14 57 32h125
c-9 -70 -51 -110 -159 -128l-88 -14c-100 -17 -199 -56 -221 -159h3c27 51 85 72 127 72c55 0 101 -31 125 -90h3c28 59 85 90 149 90c111 0 201 -91 201 -235c0 -106 -25 -183 -70 -250z" />
    <glyph glyph-name="uni10E1" unicode="&#x10e1;" horiz-adv-x="606" 
d="M316 -17c-145 0 -254 85 -254 236v495h126v-485c0 -89 52 -148 128 -148c77 0 127 53 127 120c0 121 -102 120 -105 268h121c6 -107 110 -123 110 -282c0 -126 -118 -204 -253 -204z" />
    <glyph glyph-name="uni10E2" unicode="&#x10e2;" horiz-adv-x="744" 
d="M372 -17c-184 0 -335 127 -335 361c0 213 130 335 280 360h8c-3 10 -5 25 -5 37h103c0 -13 -3 -27 -4 -37h7c151 -24 281 -147 281 -360c0 -235 -153 -361 -335 -361zM372 81c127 0 211 97 211 263c0 158 -73 238 -161 266l-2 -1c9 -50 13 -113 13 -162v-141h-123v143
c0 49 3 109 14 160l-2 1c-92 -30 -162 -101 -162 -266s86 -263 212 -263z" />
    <glyph glyph-name="uni10E3" unicode="&#x10e3;" horiz-adv-x="627" 
d="M313 -17c-148 0 -264 90 -264 217c0 35 8 66 18 93h121c-8 -24 -13 -58 -13 -84c0 -73 54 -127 138 -127c76 0 135 50 135 143v305c0 61 -28 102 -79 102c-50 0 -77 -40 -77 -98v-99h-119v104c0 49 -28 82 -84 82h-54v104h53c71 0 120 -22 141 -80h4c26 58 83 86 150 86
c114 0 190 -72 190 -187v-325c0 -140 -111 -236 -260 -236z" />
    <glyph glyph-name="uni10E4" unicode="&#x10e4;" horiz-adv-x="824" 
d="M471 -17c-163 0 -287 58 -296 192h124c17 -78 96 -94 172 -94c77 0 172 31 172 116c0 54 -32 105 -94 105h-25v94h46c65 1 94 44 94 115c0 81 -38 123 -98 123c-53 0 -92 -36 -92 -101v-36c0 -137 -86 -229 -221 -229c-138 0 -223 92 -223 229c0 138 85 234 216 234
c79 0 138 -29 173 -100h4c27 63 90 100 164 100c113 0 200 -85 200 -206c0 -96 -40 -151 -107 -178v-4c55 -26 87 -83 87 -161c0 -121 -125 -199 -296 -199zM252 361c73 0 113 56 113 137c0 85 -42 139 -112 139c-73 0 -111 -57 -111 -139c0 -80 38 -137 110 -137z" />
    <glyph glyph-name="uni10E5" unicode="&#x10e5;" horiz-adv-x="600" 
d="M283 -17c-147 0 -248 84 -248 213c0 21 4 42 11 60h118c-4 -17 -6 -35 -6 -49c0 -74 49 -125 125 -125c84 0 131 55 131 142v149c0 88 -54 137 -124 137c-68 0 -104 -48 -104 -98c0 -13 2 -25 4 -34h-122c-4 13 -6 30 -6 48c0 100 70 181 187 181c75 0 133 -33 161 -77h2
v184h126v-499c0 -154 -107 -232 -255 -232z" />
    <glyph glyph-name="uni10E6" unicode="&#x10e6;" horiz-adv-x="805" 
d="M596 0h-133c-3 56 -59 96 -167 96h-171v86h96v4c-103 39 -184 138 -184 278c0 163 87 267 208 267c70 0 132 -32 155 -99h4c27 67 91 99 156 99c123 0 208 -105 208 -262c0 -80 -14 -149 -39 -211h-127c27 61 40 131 40 206c0 114 -38 171 -100 171
c-47 0 -82 -38 -82 -105v-187h-116v187c0 70 -34 105 -81 105c-64 0 -100 -64 -100 -172c0 -167 123 -254 232 -277c119 -26 197 -77 201 -186z" />
    <glyph glyph-name="uni10E7" unicode="&#x10e7;" horiz-adv-x="613" 
d="M295 -17c-122 0 -249 62 -249 188c0 16 4 36 10 53h116c-3 -13 -5 -26 -5 -37c0 -70 60 -105 128 -105c82 0 129 49 129 141v152h-2c-24 -43 -88 -72 -162 -72c-123 0 -223 90 -223 229c0 82 26 143 47 182h118c-19 -41 -39 -109 -39 -172c0 -92 55 -143 132 -143
c78 0 135 61 135 157v158h120v-500c0 -151 -113 -231 -255 -231z" />
    <glyph glyph-name="uni10E8" unicode="&#x10e8;" horiz-adv-x="620" 
d="M300 -17c-151 0 -263 101 -263 250c0 147 105 241 230 241c70 0 136 -31 167 -79h2v137c0 62 -23 102 -73 102c-45 0 -70 -35 -70 -72v-25h-115v24c0 39 -23 64 -74 64h-55v100h68c53 0 102 -21 118 -76h5c26 58 80 82 143 82c105 0 179 -61 179 -187v-311
c0 -149 -108 -250 -262 -250zM300 82c80 0 140 59 140 146c0 89 -58 148 -140 148c-81 0 -137 -59 -137 -148c0 -87 59 -146 137 -146z" />
    <glyph glyph-name="uni10E9" unicode="&#x10e9;" horiz-adv-x="609" 
d="M513 0h-123c34 70 56 130 56 228c0 106 -60 155 -133 155s-134 -57 -134 -157v-226h-122v534c0 124 99 197 215 197c131 0 222 -83 222 -194h-120c0 49 -37 96 -97 96c-50 0 -95 -39 -95 -102v-126h2c32 42 87 79 166 79c120 0 221 -95 221 -247
c0 -104 -25 -181 -58 -237z" />
    <glyph glyph-name="uni10EA" unicode="&#x10ea;" horiz-adv-x="671" 
d="M360 -17c-174 0 -323 119 -323 393c0 135 49 257 105 338h118c-51 -82 -97 -202 -97 -335c0 -212 92 -297 196 -297c84 0 149 53 149 128c0 80 -49 134 -122 134h-60v97h71c57 0 88 26 88 70c0 89 -106 83 -111 203h117c14 -81 119 -94 119 -201c0 -52 -31 -95 -94 -117
v-4c62 -23 117 -88 117 -191c0 -123 -116 -218 -273 -218z" />
    <glyph glyph-name="uni10EB" unicode="&#x10eb;" horiz-adv-x="624" 
d="M299 -17c-150 0 -262 101 -262 255c0 150 105 248 229 248c70 0 136 -31 168 -79h2v307h126v-477c0 -153 -109 -254 -263 -254zM299 82c81 0 141 58 141 151c0 95 -59 153 -141 153c-81 0 -136 -59 -136 -153c0 -93 58 -151 136 -151z" />
    <glyph glyph-name="uni10EC" unicode="&#x10ec;" horiz-adv-x="623" 
d="M324 -17c-155 0 -263 101 -263 250v311c0 126 74 187 179 187c63 0 118 -24 144 -82h4c16 55 65 76 118 76h69v-100h-56c-51 0 -73 -25 -73 -64v-24h-115v25c0 37 -26 72 -71 72c-49 0 -73 -40 -73 -102v-137h2c31 48 97 79 167 79c125 0 230 -94 230 -241
c0 -149 -112 -250 -262 -250zM323 82c79 0 137 59 137 146c0 89 -55 148 -136 148c-82 0 -141 -59 -141 -148c0 -87 60 -146 140 -146z" />
    <glyph glyph-name="uni10ED" unicode="&#x10ed;" horiz-adv-x="651" 
d="M289 -17c-144 0 -251 80 -251 208c0 15 4 33 9 46h120c-3 -11 -5 -29 -5 -39c0 -70 52 -116 127 -116c77 0 127 47 127 132v164h-2c-23 -38 -92 -74 -168 -74c-95 0 -197 51 -197 158s91 163 208 163h159v89h125v-89h95v-90h-95v-310c0 -161 -110 -242 -252 -242z
M268 396c78 0 150 37 150 104v35h-150c-64 0 -100 -22 -100 -68s46 -71 100 -71z" />
    <glyph glyph-name="uni10EE" unicode="&#x10ee;" horiz-adv-x="625" 
d="M325 -17c-154 0 -263 101 -263 255v476h126v-307h2c31 48 98 79 168 79c124 0 229 -98 229 -248c0 -154 -112 -255 -262 -255zM325 82c78 0 136 58 136 151c0 94 -55 153 -136 153c-82 0 -141 -58 -141 -153c0 -93 60 -151 141 -151z" />
    <glyph glyph-name="uni10EF" unicode="&#x10ef;" horiz-adv-x="587" 
d="M293 -17c-148 0 -259 82 -259 208c0 24 5 47 12 65h119c-4 -16 -7 -34 -7 -53c0 -71 56 -121 135 -121c76 0 131 45 131 128c0 87 -55 138 -131 138h-65v187h-184v90h184v97h115v-97h184v-90h-184v-94c114 -15 208 -94 208 -237c0 -130 -112 -221 -258 -221z" />
    <glyph glyph-name="uni10F0" unicode="&#x10f0;" horiz-adv-x="586" 
d="M288 -17c-131 0 -259 59 -259 172c0 15 3 33 10 49h113c-3 -11 -5 -22 -5 -32c0 -64 70 -91 143 -91c78 0 136 31 136 82c0 53 -35 83 -105 83h-86v89h104c46 0 76 11 76 45c0 33 -31 48 -76 48h-104v88h105c46 0 64 13 64 37c0 29 -40 37 -88 47
c-62 14 -122 35 -129 114h112c10 -23 51 -31 101 -46c60 -18 121 -39 121 -107c0 -40 -20 -70 -82 -84v-4c49 -8 94 -39 94 -93c0 -49 -33 -75 -87 -87v-3c57 -14 103 -55 103 -132c0 -109 -123 -175 -261 -175z" />
    <glyph glyph-name="uni10F1" unicode="&#x10f1;" horiz-adv-x="604" 
d="M330 -14c-197 0 -290 147 -290 419c0 112 38 278 73 345h109c-36 -73 -68 -236 -68 -345c0 -216 59 -329 180 -329c74 0 114 32 114 94c0 53 -41 90 -115 90h-37v88h54c52 0 81 11 81 52c0 39 -31 56 -81 56h-54v88h59c44 0 66 12 66 36c0 32 -21 45 -45 60
c-31 19 -66 42 -66 110h113c10 -35 30 -52 51 -67c30 -22 61 -39 61 -100c0 -30 -22 -66 -90 -81v-4c46 -8 102 -36 102 -98c0 -58 -33 -79 -89 -94v-4c44 -13 106 -53 106 -140c0 -108 -98 -176 -234 -176z" />
    <glyph glyph-name="uni10F2" unicode="&#x10f2;" horiz-adv-x="542" 
d="M271 41c-63 -27 -129 -46 -228 -46v90c43 0 83 4 142 13v3c-81 22 -150 87 -150 193c0 126 92 220 236 220s236 -94 236 -220c0 -106 -69 -171 -150 -193v-3c59 -9 99 -13 142 -13v-90c-99 0 -165 19 -228 46zM271 120c76 34 122 103 122 176c0 58 -38 128 -122 128
s-122 -70 -122 -128c0 -73 46 -142 122 -176z" />
    <glyph glyph-name="uni10F3" unicode="&#x10f3;" horiz-adv-x="551" 
d="M280 -214c-154 0 -245 95 -245 203c0 37 7 65 21 101h110c-10 -28 -17 -60 -17 -87c0 -73 44 -127 131 -127c80 0 122 64 122 137c0 81 -47 139 -117 139h-59v92h59c65 0 81 42 81 94v72h-267v90h381v-148c0 -87 -39 -132 -90 -152v-4c65 -27 126 -86 126 -196
s-86 -214 -236 -214z" />
    <glyph glyph-name="uni10F4" unicode="&#x10f4;" horiz-adv-x="551" 
d="M280 -214c-154 0 -245 95 -245 203c0 32 6 69 19 101h109c-9 -31 -14 -65 -14 -87c0 -73 44 -127 131 -127c80 0 122 54 122 137c0 81 -42 139 -122 139h-39v92h49c52 0 88 21 88 68v98h-101c-98 0 -210 43 -210 200h113c0 -88 58 -110 138 -110h177v-175
c0 -61 -25 -98 -90 -125v-4c52 -20 111 -86 111 -196c0 -123 -86 -214 -236 -214z" />
    <glyph glyph-name="uni10F5" unicode="&#x10f5;" horiz-adv-x="602" 
d="M263 -14c-124 0 -223 55 -223 171c0 114 90 167 223 167h109v116h-109c-133 0 -213 47 -213 161c0 116 89 163 213 163c128 0 219 -63 219 -185v-51h105v-88h-105v-116h105v-88h-105v-57c0 -122 -91 -193 -219 -193zM372 528v53c0 67 -52 95 -112 95
c-58 0 -102 -17 -102 -76c0 -60 39 -72 100 -72h114zM260 74c60 0 112 36 112 103v59h-114c-61 0 -110 -18 -110 -78c0 -59 54 -84 112 -84z" />
    <glyph glyph-name="uni10F6" unicode="&#x10f6;" horiz-adv-x="743" 
d="M229 -119h39c32 0 46 13 46 70v50c-178 9 -274 91 -274 255c0 177 120 253 275 258v79c0 106 47 157 149 157h50v-90h-39c-32 0 -46 -13 -46 -70v-76c172 -5 274 -104 274 -260c0 -168 -99 -247 -275 -253v-53c0 -106 -47 -157 -149 -157h-50v90zM316 92v332
c-104 0 -162 -59 -162 -168c0 -118 59 -164 162 -164zM428 424v-333c104 0 161 45 161 163c0 112 -60 170 -161 170z" />
    <glyph glyph-name="uni10F7" unicode="&#x10f7;" horiz-adv-x="540" 
d="M270 -214c-136 0 -240 81 -240 214c0 140 93 190 175 229c64 31 120 58 120 120c0 43 -25 77 -71 77c-48 0 -72 -32 -72 -89h-109c0 106 74 177 179 177c114 0 180 -78 180 -155c0 -130 -87 -168 -167 -206c-63 -30 -121 -66 -121 -153c0 -57 41 -125 126 -125
c84 0 126 67 126 137c0 35 -1 55 -13 88h110c9 -19 17 -50 17 -75c0 -155 -104 -239 -240 -239z" />
    <glyph glyph-name="uni10F8" unicode="&#x10f8;" horiz-adv-x="560" 
d="M291 -214c-150 0 -236 77 -236 235v479h110v-135c0 -114 47 -178 125 -178c80 0 121 52 121 150c0 58 -19 122 -39 163h105c22 -36 48 -100 48 -181c0 -131 -81 -220 -202 -220c-72 0 -122 21 -152 69h-2v-143c0 -84 31 -149 122 -149c82 0 119 46 119 107
c0 12 -1 25 -3 38h105c5 -18 8 -35 8 -51c0 -121 -98 -184 -229 -184z" />
    <glyph glyph-name="uni10F9" unicode="&#x10f9;" horiz-adv-x="560" 
d="M280 514c136 0 240 -83 240 -239c0 -147 -117 -216 -211 -233c-49 -9 -84 -36 -84 -91c0 -43 25 -77 71 -77c48 0 72 32 72 89h109c0 -106 -74 -177 -179 -177c-114 0 -180 78 -180 155c0 69 33 107 80 125v4c-96 21 -158 99 -158 205c0 155 104 239 240 239zM280 425
c-84 0 -126 -67 -126 -150c0 -86 41 -148 127 -148c83 0 125 63 125 148c0 82 -41 150 -126 150z" />
    <glyph glyph-name="uni10FA" unicode="&#x10fa;" horiz-adv-x="528" 
d="M434 0h-110c-17 50 -48 55 -141 55h-98v77h84v4c-80 19 -129 93 -129 175c0 112 77 203 227 203c154 0 226 -83 226 -212c0 -26 -3 -47 -10 -70h-107c4 19 7 39 7 56c0 84 -35 137 -116 137c-83 0 -116 -56 -116 -125c0 -93 75 -128 148 -154c65 -23 129 -53 135 -146z
" />
    <glyph glyph-name="uni10FD" unicode="&#x10fd;" horiz-adv-x="582" 
d="M298 -17c-179 0 -255 91 -258 255h115c1 -102 42 -163 144 -163c103 0 128 51 128 114c0 53 -25 104 -142 145c-166 58 -218 130 -218 218c0 138 91 209 221 209c155 0 233 -84 234 -228h-115c-3 82 -25 136 -121 136c-75 0 -104 -49 -104 -109c0 -50 36 -97 144 -136
c147 -53 216 -118 216 -219c0 -131 -76 -222 -244 -222z" />
    <glyph glyph-name="uni10D0.case" horiz-adv-x="584" 
d="M286 -17c-150 0 -256 102 -256 243c0 49 15 92 29 119h120c-11 -27 -24 -69 -24 -115c0 -83 51 -148 132 -148c83 0 133 65 133 148c0 109 -51 163 -108 224c-52 56 -105 122 -105 260h125c0 -95 37 -151 84 -203c65 -72 130 -141 130 -285c0 -141 -112 -243 -260 -243z
" />
    <glyph glyph-name="uni10D1.case" horiz-adv-x="601" 
d="M300 -17c-144 0 -263 95 -263 253c0 144 96 233 218 250v18c0 48 -29 62 -58 82c-32 22 -63 45 -63 128h118c0 -38 20 -58 46 -77c35 -25 79 -55 79 -120v-37c107 -25 187 -113 187 -244c0 -158 -116 -253 -264 -253zM300 82c82 0 141 57 141 154s-59 153 -141 153
c-79 0 -137 -56 -137 -153s57 -154 137 -154z" />
    <glyph glyph-name="uni10D2.case" horiz-adv-x="600" 
d="M299 -17c-141 0 -262 88 -262 244c0 143 98 212 198 242c97 28 130 61 130 102c0 36 -32 67 -77 67c-46 0 -80 -34 -80 -81h-121c0 104 92 174 199 174c113 0 195 -67 195 -154c0 -68 -46 -106 -96 -126v-3c111 -21 178 -111 178 -221c0 -156 -119 -244 -264 -244z
M299 82c82 0 141 57 141 146c0 97 -59 154 -141 154c-79 0 -137 -57 -137 -154c0 -89 58 -146 137 -146z" />
    <glyph glyph-name="uni10D3.case" horiz-adv-x="898" 
d="M634 0h-134c-4 63 -97 96 -204 96h-171v86h97v4c-97 38 -185 137 -185 277c0 162 96 268 219 268c71 0 134 -32 165 -103h5c38 68 110 103 190 103c135 0 245 -109 245 -254c0 -143 -107 -253 -254 -253c-145 0 -247 110 -247 253v54c0 64 -40 102 -87 102
c-66 0 -110 -63 -110 -172c0 -159 124 -249 246 -278c124 -29 222 -75 225 -183zM608 321c80 0 135 71 135 156c0 90 -55 156 -135 156c-77 0 -131 -66 -131 -156c0 -89 53 -156 131 -156z" />
    <glyph glyph-name="uni10D4.case" horiz-adv-x="596" 
d="M286 -17c-151 0 -251 85 -251 216c0 39 6 71 18 100h120c-8 -29 -13 -52 -13 -88c0 -80 51 -129 127 -129c80 0 126 55 126 135v281c0 72 -38 134 -116 134c-75 0 -116 -55 -116 -112c0 -20 2 -34 6 -51h-123c-4 12 -8 33 -8 58c0 109 95 204 241 204
c152 0 242 -102 242 -226v-291c0 -141 -104 -231 -253 -231z" />
    <glyph glyph-name="uni10D5.case" horiz-adv-x="588" 
d="M292 -17c-154 0 -257 85 -257 209c0 34 6 66 17 91h118c-8 -23 -11 -48 -11 -72c0 -84 55 -129 133 -129c71 0 133 44 133 125c0 73 -46 127 -120 127h-45v94h42c70 0 103 46 103 100c0 55 -43 104 -111 104c-73 0 -114 -49 -114 -105c0 -16 2 -31 5 -41h-120
c-5 12 -8 34 -8 54c0 105 99 191 238 191c134 0 233 -85 233 -191c0 -78 -42 -135 -99 -157v-4c61 -21 121 -81 121 -184c0 -120 -111 -212 -258 -212z" />
    <glyph glyph-name="uni10D6.case" horiz-adv-x="639" 
d="M340 -17c-144 0 -261 99 -261 240c0 57 21 128 77 168v3c-84 11 -141 75 -141 159c0 110 87 178 199 178c116 0 202 -72 202 -157c0 -46 -14 -84 -42 -105v-3c125 -5 230 -90 230 -232c0 -151 -116 -251 -264 -251zM216 460c53 0 91 38 91 92c0 53 -38 91 -91 91
c-52 0 -93 -38 -93 -91c0 -54 41 -92 93 -92zM340 82c83 0 140 61 140 151c0 93 -53 149 -136 149c-80 0 -140 -56 -140 -148s56 -152 136 -152z" />
    <glyph glyph-name="uni10D7.case" horiz-adv-x="934" 
d="M806 0h-127c47 77 76 202 76 320v153c0 116 -42 162 -101 162c-54 0 -99 -43 -99 -144v-231c0 -177 -103 -277 -248 -277c-144 0 -253 99 -253 276v195c0 175 102 277 242 277c86 0 158 -40 192 -110h4c27 69 103 110 173 110c125 0 216 -94 216 -259v-148
c0 -130 -30 -254 -75 -324zM307 82c85 0 125 65 125 183v183c0 117 -36 184 -125 184c-85 0 -128 -67 -128 -183v-184c0 -117 43 -183 128 -183z" />
    <glyph glyph-name="uni10D8.case" horiz-adv-x="614" 
d="M493 0h-124c35 72 66 203 66 329v132c0 96 -41 171 -128 171s-128 -75 -128 -171v-132c0 -126 32 -257 66 -329h-124c-36 69 -67 202 -67 332v136c0 162 106 263 253 263c146 0 254 -102 254 -264v-135c0 -130 -32 -263 -68 -332z" />
    <glyph glyph-name="uni10D9.case" horiz-adv-x="577" 
d="M286 -17c-148 0 -256 92 -256 212c0 32 5 61 17 87h117c-8 -25 -12 -45 -12 -75c0 -74 56 -125 134 -125c75 0 130 50 130 135c0 86 -54 146 -130 146h-50v98h67c63 0 91 35 91 85c0 45 -28 77 -80 84v95c126 -9 198 -77 198 -168c0 -71 -37 -121 -91 -140v-4
c72 -31 121 -100 121 -203c0 -129 -110 -227 -256 -227z" />
    <glyph glyph-name="uni10DA.case" horiz-adv-x="1067" 
d="M796 0h-133c-13 75 -123 98 -229 98h-304v87h99v4c-98 36 -192 131 -192 272c0 164 85 270 208 270c63 0 124 -36 147 -98h4c19 62 81 98 137 98c60 0 122 -35 139 -98h4c26 62 79 98 146 98c123 0 208 -107 208 -263c0 -77 -12 -150 -38 -211h-125c26 63 38 134 38 207
c0 110 -34 169 -90 169c-49 0 -82 -43 -82 -105v-183h-117v184c0 65 -33 104 -82 104c-50 0 -83 -43 -83 -104v-184h-117v182c0 66 -30 106 -79 106c-57 0 -93 -62 -93 -167c0 -164 135 -256 245 -267c45 -5 158 -13 222 -30c110 -30 161 -87 167 -169z" />
    <glyph glyph-name="uni10DB.case" horiz-adv-x="619" 
d="M299 -17c-150 0 -262 101 -262 255c0 150 103 246 227 246c70 0 138 -31 170 -79h2v95c0 92 -62 132 -127 132c-61 0 -114 -33 -120 -83h-129c3 86 101 182 246 182c153 0 256 -90 256 -225v-269c0 -153 -109 -254 -263 -254zM299 82c81 0 141 58 141 151
s-59 152 -141 152c-81 0 -136 -59 -136 -152c0 -92 58 -151 136 -151z" />
    <glyph glyph-name="uni10DC.case" horiz-adv-x="619" 
d="M320 -17c-154 0 -263 101 -263 254v288c0 124 77 189 223 189h233v-101h-226c-71 0 -104 -30 -104 -94v-112h2c31 48 98 79 168 79c124 0 229 -98 229 -248c0 -154 -112 -255 -262 -255zM320 82c78 0 136 58 136 151c0 94 -55 153 -136 153c-82 0 -141 -58 -141 -153
c0 -93 60 -151 141 -151z" />
    <glyph glyph-name="uni10DD.case" horiz-adv-x="851" 
d="M719 0h-126c47 77 79 215 79 333v135c0 113 -41 164 -100 164c-49 0 -88 -42 -88 -119v-309h-118v309c0 78 -38 119 -87 119c-59 0 -100 -54 -100 -163v-136c0 -115 32 -258 77 -333h-126c-42 68 -76 202 -76 334v139c0 159 90 258 210 258c70 0 134 -31 159 -99h3
c26 68 94 99 160 99c124 0 211 -96 211 -258v-139c0 -130 -32 -264 -78 -334z" />
    <glyph glyph-name="uni10DE.case" horiz-adv-x="573" 
d="M285 -17c-139 0 -255 84 -255 200c0 29 5 53 14 76h121c-6 -21 -9 -38 -9 -65c0 -63 55 -112 129 -112c71 0 125 52 125 117c0 71 -44 125 -121 125h-46v98h67c51 0 78 24 78 57c0 43 -38 61 -83 80c-69 29 -131 63 -135 155h125c7 -44 52 -65 91 -84
c58 -28 122 -57 122 -142c0 -53 -31 -95 -90 -114v-4c55 -16 117 -75 117 -178c0 -122 -110 -209 -250 -209z" />
    <glyph glyph-name="uni10DF.case" horiz-adv-x="607" 
d="M290 -17c-147 0 -253 86 -253 213c0 17 4 43 11 61h122c-4 -15 -7 -36 -7 -55c0 -65 52 -120 127 -120c76 0 129 56 129 144v404l-174 -25v-3c45 -22 63 -70 63 -107c0 -79 -63 -141 -175 -141h-87v93h63c50 0 90 24 90 72c0 46 -44 73 -90 73v83l303 45h133v-504
c0 -154 -112 -233 -255 -233z" />
    <glyph glyph-name="uni10E0.case" horiz-adv-x="780" 
d="M672 0h-124c45 73 69 149 69 242c0 102 -40 147 -92 147c-46 0 -78 -41 -78 -105v-155h-115v154c0 68 -31 106 -76 106c-47 0 -94 -36 -94 -145c0 -90 25 -173 69 -244h-124c-44 71 -70 149 -70 298c0 245 127 335 290 366l93 18c28 5 49 14 57 32h125
c-9 -70 -51 -110 -159 -128l-88 -14c-100 -17 -199 -56 -221 -159h3c27 51 85 72 127 72c55 0 101 -31 125 -90h3c28 59 85 90 149 90c111 0 201 -91 201 -235c0 -106 -25 -183 -70 -250z" />
    <glyph glyph-name="uni10E1.case" horiz-adv-x="606" 
d="M316 -17c-145 0 -254 85 -254 236v495h126v-485c0 -89 52 -148 128 -148c77 0 127 53 127 120c0 121 -102 120 -105 268h121c6 -107 110 -123 110 -282c0 -126 -118 -204 -253 -204z" />
    <glyph glyph-name="uni10E2.case" horiz-adv-x="744" 
d="M372 -17c-184 0 -335 127 -335 361c0 213 130 335 280 360h8c-3 10 -5 25 -5 37h103c0 -13 -3 -27 -4 -37h7c151 -24 281 -147 281 -360c0 -235 -153 -361 -335 -361zM372 81c127 0 211 97 211 263c0 158 -73 238 -161 266l-2 -1c9 -50 13 -113 13 -162v-141h-123v143
c0 49 3 109 14 160l-2 1c-92 -30 -162 -101 -162 -266s86 -263 212 -263z" />
    <glyph glyph-name="uni10E3.case" horiz-adv-x="627" 
d="M313 -17c-148 0 -264 90 -264 217c0 35 8 66 18 93h121c-8 -24 -13 -58 -13 -84c0 -73 54 -127 138 -127c76 0 135 50 135 143v305c0 61 -28 102 -79 102c-50 0 -77 -40 -77 -98v-99h-119v104c0 49 -28 82 -84 82h-54v104h53c71 0 120 -22 141 -80h4c26 58 83 86 150 86
c114 0 190 -72 190 -187v-325c0 -140 -111 -236 -260 -236z" />
    <glyph glyph-name="uni10E4.case" horiz-adv-x="824" 
d="M471 -17c-163 0 -287 58 -296 192h124c17 -78 96 -94 172 -94c77 0 172 31 172 116c0 54 -32 105 -94 105h-25v94h46c65 1 94 44 94 115c0 81 -38 123 -98 123c-53 0 -92 -36 -92 -101v-36c0 -137 -86 -229 -221 -229c-138 0 -223 92 -223 229c0 138 85 234 216 234
c79 0 138 -29 173 -100h4c27 63 90 100 164 100c113 0 200 -85 200 -206c0 -96 -40 -151 -107 -178v-4c55 -26 87 -83 87 -161c0 -121 -125 -199 -296 -199zM252 361c73 0 113 56 113 137c0 85 -42 139 -112 139c-73 0 -111 -57 -111 -139c0 -80 38 -137 110 -137z" />
    <glyph glyph-name="uni10E5.case" horiz-adv-x="600" 
d="M283 -17c-147 0 -248 84 -248 213c0 21 4 42 11 60h118c-4 -17 -6 -35 -6 -49c0 -74 49 -125 125 -125c84 0 131 55 131 142v149c0 88 -54 137 -124 137c-68 0 -104 -48 -104 -98c0 -13 2 -25 4 -34h-122c-4 13 -6 30 -6 48c0 100 70 181 187 181c75 0 133 -33 161 -77h2
v184h126v-499c0 -154 -107 -232 -255 -232z" />
    <glyph glyph-name="uni10E6.case" horiz-adv-x="805" 
d="M596 0h-133c-3 56 -59 96 -167 96h-171v86h96v4c-103 39 -184 138 -184 278c0 163 87 267 208 267c70 0 132 -32 155 -99h4c27 67 91 99 156 99c123 0 208 -105 208 -262c0 -80 -14 -149 -39 -211h-127c27 61 40 131 40 206c0 114 -38 171 -100 171
c-47 0 -82 -38 -82 -105v-187h-116v187c0 70 -34 105 -81 105c-64 0 -100 -64 -100 -172c0 -167 123 -254 232 -277c119 -26 197 -77 201 -186z" />
    <glyph glyph-name="uni10E7.case" horiz-adv-x="613" 
d="M295 -17c-122 0 -249 62 -249 188c0 16 4 36 10 53h116c-3 -13 -5 -26 -5 -37c0 -70 60 -105 128 -105c82 0 129 49 129 141v152h-2c-24 -43 -88 -72 -162 -72c-123 0 -223 90 -223 229c0 82 26 143 47 182h118c-19 -41 -39 -109 -39 -172c0 -92 55 -143 132 -143
c78 0 135 61 135 157v158h120v-500c0 -151 -113 -231 -255 -231z" />
    <glyph glyph-name="uni10E8.case" horiz-adv-x="620" 
d="M300 -17c-151 0 -263 101 -263 250c0 147 105 241 230 241c70 0 136 -31 167 -79h2v137c0 62 -23 102 -73 102c-45 0 -70 -35 -70 -72v-25h-115v24c0 39 -23 64 -74 64h-55v100h68c53 0 102 -21 118 -76h5c26 58 80 82 143 82c105 0 179 -61 179 -187v-311
c0 -149 -108 -250 -262 -250zM300 82c80 0 140 59 140 146c0 89 -58 148 -140 148c-81 0 -137 -59 -137 -148c0 -87 59 -146 137 -146z" />
    <glyph glyph-name="uni10E9.case" horiz-adv-x="609" 
d="M513 0h-123c34 70 56 130 56 228c0 106 -60 155 -133 155s-134 -57 -134 -157v-226h-122v534c0 124 99 197 215 197c131 0 222 -83 222 -194h-120c0 49 -37 96 -97 96c-50 0 -95 -39 -95 -102v-126h2c32 42 87 79 166 79c120 0 221 -95 221 -247
c0 -104 -25 -181 -58 -237z" />
    <glyph glyph-name="uni10EA.case" horiz-adv-x="671" 
d="M360 -17c-174 0 -323 119 -323 393c0 135 49 257 105 338h118c-51 -82 -97 -202 -97 -335c0 -212 92 -297 196 -297c84 0 149 53 149 128c0 80 -49 134 -122 134h-60v97h71c57 0 88 26 88 70c0 89 -106 83 -111 203h117c14 -81 119 -94 119 -201c0 -52 -31 -95 -94 -117
v-4c62 -23 117 -88 117 -191c0 -123 -116 -218 -273 -218z" />
    <glyph glyph-name="uni10EB.case" horiz-adv-x="624" 
d="M299 -17c-150 0 -262 101 -262 255c0 150 105 248 229 248c70 0 136 -31 168 -79h2v307h126v-477c0 -153 -109 -254 -263 -254zM299 82c81 0 141 58 141 151c0 95 -59 153 -141 153c-81 0 -136 -59 -136 -153c0 -93 58 -151 136 -151z" />
    <glyph glyph-name="uni10EC.case" horiz-adv-x="623" 
d="M324 -17c-155 0 -263 101 -263 250v311c0 126 74 187 179 187c63 0 118 -24 144 -82h4c16 55 65 76 118 76h69v-100h-56c-51 0 -73 -25 -73 -64v-24h-115v25c0 37 -26 72 -71 72c-49 0 -73 -40 -73 -102v-137h2c31 48 97 79 167 79c125 0 230 -94 230 -241
c0 -149 -112 -250 -262 -250zM323 82c79 0 137 59 137 146c0 89 -55 148 -136 148c-82 0 -141 -59 -141 -148c0 -87 60 -146 140 -146z" />
    <glyph glyph-name="uni10ED.case" horiz-adv-x="651" 
d="M289 -17c-144 0 -251 80 -251 208c0 15 4 33 9 46h120c-3 -11 -5 -29 -5 -39c0 -70 52 -116 127 -116c77 0 127 47 127 132v164h-2c-23 -38 -92 -74 -168 -74c-95 0 -197 51 -197 158s91 163 208 163h159v89h125v-89h95v-90h-95v-310c0 -161 -110 -242 -252 -242z
M268 396c78 0 150 37 150 104v35h-150c-64 0 -100 -22 -100 -68s46 -71 100 -71z" />
    <glyph glyph-name="uni10EE.case" horiz-adv-x="625" 
d="M325 -17c-154 0 -263 101 -263 255v476h126v-307h2c31 48 98 79 168 79c124 0 229 -98 229 -248c0 -154 -112 -255 -262 -255zM325 82c78 0 136 58 136 151c0 94 -55 153 -136 153c-82 0 -141 -58 -141 -153c0 -93 60 -151 141 -151z" />
    <glyph glyph-name="uni10EF.case" horiz-adv-x="587" 
d="M293 -17c-148 0 -259 82 -259 208c0 24 5 47 12 65h119c-4 -16 -7 -34 -7 -53c0 -71 56 -121 135 -121c76 0 131 45 131 128c0 87 -55 138 -131 138h-65v187h-184v90h184v97h115v-97h184v-90h-184v-94c114 -15 208 -94 208 -237c0 -130 -112 -221 -258 -221z" />
    <glyph glyph-name="uni10F0.case" horiz-adv-x="586" 
d="M288 -17c-131 0 -259 59 -259 172c0 15 3 33 10 49h113c-3 -11 -5 -22 -5 -32c0 -64 70 -91 143 -91c78 0 136 31 136 82c0 53 -35 83 -105 83h-86v89h104c46 0 76 11 76 45c0 33 -31 48 -76 48h-104v88h105c46 0 64 13 64 37c0 29 -40 37 -88 47
c-62 14 -122 35 -129 114h112c10 -23 51 -31 101 -46c60 -18 121 -39 121 -107c0 -40 -20 -70 -82 -84v-4c49 -8 94 -39 94 -93c0 -49 -33 -75 -87 -87v-3c57 -14 103 -55 103 -132c0 -109 -123 -175 -261 -175z" />
    <glyph glyph-name="uni10F1.case" horiz-adv-x="664" 
d="M368 -17c-184 0 -331 123 -331 390c0 133 37 244 95 341h118c-54 -97 -90 -213 -90 -338c0 -211 98 -294 208 -294c75 0 137 28 137 83c0 52 -36 84 -101 84h-73v89h90c46 0 69 14 69 46c0 33 -25 50 -69 50h-90v90h91c48 0 60 16 60 39c0 26 -20 39 -43 54
c-27 17 -58 38 -62 97h118c7 -26 26 -42 46 -58c29 -22 60 -44 60 -96c0 -33 -21 -65 -83 -79v-4c49 -8 93 -37 93 -93c0 -51 -33 -77 -86 -88v-4c56 -15 104 -63 104 -136c0 -106 -120 -173 -261 -173z" />
    <glyph glyph-name="uni10F2.case" horiz-adv-x="611" 
d="M547 95v-98c-90 0 -169 25 -241 62c-73 -37 -152 -62 -241 -62v98c45 0 109 8 152 25v4c-104 51 -181 175 -181 323c0 170 123 284 270 284s269 -114 269 -284c0 -150 -77 -272 -181 -323v-4c43 -17 107 -25 153 -25zM306 164c91 58 144 155 144 275
c0 110 -55 193 -144 193c-90 0 -145 -83 -145 -193c0 -120 53 -217 145 -275z" />
    <glyph glyph-name="uni10F3.case" horiz-adv-x="585" 
d="M293 -17c-148 0 -259 90 -259 210c0 33 7 64 17 89h120c-9 -25 -13 -54 -13 -77c0 -70 54 -123 135 -123c78 0 130 65 130 134c0 81 -46 141 -117 141h-56v96h58c62 0 87 41 87 95v70h-308v96h431v-154c0 -81 -37 -132 -93 -153v-3c72 -25 123 -96 123 -197
c0 -127 -109 -224 -255 -224z" />
    <glyph glyph-name="uni10F4.case" horiz-adv-x="584" 
d="M293 -17c-149 0 -259 89 -259 210c0 27 5 54 13 76h120c-6 -21 -10 -46 -10 -66c0 -66 55 -121 137 -121c77 0 128 53 128 117c0 72 -48 117 -117 117h-50v97h51c62 0 87 38 87 91v33h-128c-108 0 -186 60 -189 177h121c2 -52 28 -82 102 -82h219v-115
c0 -78 -37 -130 -94 -150v-4c70 -19 123 -73 123 -173c0 -117 -109 -207 -254 -207z" />
    <glyph glyph-name="uni10F5.case" horiz-adv-x="630" 
d="M272 -17c-117 0 -235 57 -235 170c0 107 87 163 218 163h146v98h-145c-131 0 -210 51 -210 156c0 113 116 161 234 161c119 0 241 -49 241 -176v-52h94v-89h-94v-98h94v-89h-94v-56c0 -128 -122 -188 -249 -188zM401 503v45c0 67 -57 90 -119 90c-61 0 -118 -20 -118 -68
c0 -50 41 -67 101 -67h136zM277 78c63 0 124 22 124 91v58h-140c-60 0 -103 -25 -103 -74c0 -50 58 -75 119 -75z" />
    <glyph glyph-name="uni10F6.case" horiz-adv-x="761" 
d="M236 90h28c43 0 59 12 59 65v48c-171 12 -288 93 -288 256c0 162 129 239 292 252l-4 30h115l-3 -30c170 -13 291 -101 291 -252c0 -167 -120 -246 -288 -255v-51c0 -108 -45 -153 -154 -153h-48v90zM438 622v-327c97 5 168 43 168 164c0 112 -74 157 -168 163zM323 295
v326c-96 -6 -168 -54 -168 -162c0 -118 72 -158 168 -164z" />
    <glyph glyph-name="uni10F7.case" horiz-adv-x="586" 
d="M291 -17c-136 0 -261 84 -261 220c0 150 113 211 210 251c68 28 129 52 129 108c0 42 -36 72 -79 72s-81 -31 -81 -84h-119c0 108 94 181 198 181c105 0 200 -67 200 -162c0 -118 -96 -159 -184 -198c-76 -34 -150 -70 -150 -168c0 -68 54 -122 138 -122
c89 0 141 52 141 122c0 33 -4 61 -15 95h120c9 -19 18 -60 18 -95c0 -138 -120 -220 -265 -220z" />
    <glyph glyph-name="uni10F8.case" horiz-adv-x="613" 
d="M317 -17c-142 0 -255 80 -255 231v500h120v-158c0 -96 57 -157 135 -157c77 0 132 51 132 143c0 63 -20 131 -39 172h118c21 -39 47 -100 47 -182c0 -139 -100 -229 -223 -229c-74 0 -138 29 -162 72h-2v-152c0 -92 47 -141 129 -141c68 0 128 35 128 105
c0 11 -2 24 -5 37h116c6 -17 10 -37 10 -53c0 -126 -127 -188 -249 -188z" />
    <glyph glyph-name="uni10F9.case" horiz-adv-x="596" 
d="M299 730c141 0 262 -88 262 -244c0 -143 -98 -212 -198 -242c-97 -28 -130 -61 -130 -102c0 -36 32 -67 77 -67c46 0 80 34 80 81h121c0 -104 -92 -174 -199 -174c-113 0 -195 67 -195 154c0 68 46 106 96 126v3c-111 21 -178 111 -178 221c0 156 119 244 264 244z
M299 631c-82 0 -141 -57 -141 -146c0 -97 59 -154 141 -154c79 0 137 57 137 154c0 89 -58 146 -137 146z" />
    <glyph glyph-name="uni10FA.case" horiz-adv-x="597" 
d="M471 0h-124c-3 56 -26 95 -126 95h-113v87h106v4c-92 44 -177 128 -177 275c0 167 114 270 263 270c150 0 260 -103 260 -270c0 -46 -11 -100 -24 -133h-122c12 38 21 77 21 133c0 104 -56 169 -137 169c-83 0 -136 -70 -136 -169c0 -289 306 -222 309 -461z" />
    <glyph glyph-name="uni10FD.case" horiz-adv-x="661" 
d="M330 731c155 0 273 -84 274 -228h-125c-8 85 -58 126 -154 126c-75 0 -131 -33 -131 -93c0 -47 30 -78 91 -94l191 -50c61 -16 148 -74 148 -185c0 -141 -116 -224 -284 -224c-179 0 -295 91 -298 255h125c1 -102 72 -153 181 -153c96 0 151 45 151 108
c0 45 -22 76 -59 88c-40 13 -71 22 -204 56c-113 28 -167 91 -167 184c0 145 131 210 261 210z" />
    <glyph glyph-name="uni10FC" unicode="&#x10fc;" horiz-adv-x="390" 
d="M207 388c-88 0 -142 57 -142 150v159c0 91 45 122 139 122h111v-67h-102c-44 0 -69 -14 -69 -58v-55h2c17 27 39 44 80 44c69 0 122 -52 122 -145s-52 -150 -141 -150zM207 460c38 0 59 31 59 74c0 47 -19 78 -59 78s-63 -27 -63 -78c0 -43 24 -74 63 -74z" />
    <glyph glyph-name="uni10FE" unicode="&#x10fe;" horiz-adv-x="544" 
d="M272 -16c-144 0 -236 94 -236 220c0 106 69 171 150 193v3c-59 9 -99 13 -142 13v90c99 0 165 -19 228 -46c63 27 129 46 228 46v-90c-43 0 -83 -4 -142 -13v-3c81 -22 150 -87 150 -193c0 -126 -92 -220 -236 -220zM272 74c84 0 122 70 122 128c0 73 -46 142 -122 176
c-76 -34 -122 -103 -122 -176c0 -58 38 -128 122 -128z" />
    <glyph glyph-name="uni10FF" unicode="&#x10ff;" horiz-adv-x="572" 
d="M286 -14c-156 0 -250 107 -250 263c0 153 94 263 250 263s250 -110 250 -263c0 -155 -94 -263 -250 -263zM286 76c94 0 136 90 136 173c0 86 -41 173 -137 173c-93 0 -135 -88 -135 -173c0 -82 41 -173 136 -173z" />
    <glyph glyph-name="uni10FE.case" horiz-adv-x="611" 
d="M306 -17c-147 0 -270 114 -270 284c0 148 77 272 181 323v4c-43 17 -107 25 -152 25v98c89 0 168 -25 241 -62c72 37 151 62 241 62v-98c-46 0 -110 -8 -153 -25v-4c104 -51 181 -173 181 -323c0 -170 -122 -284 -269 -284zM306 82c89 0 144 83 144 193
c0 120 -53 217 -144 275c-92 -58 -145 -155 -145 -275c0 -110 55 -193 145 -193z" />
    <glyph glyph-name="uni10FF.case" horiz-adv-x="704" 
d="M352 -17c-197 0 -324 160 -324 374c0 210 125 374 324 374c197 0 324 -159 324 -374c0 -218 -130 -374 -324 -374zM352 81c134 0 198 123 198 276c0 151 -64 276 -199 276c-134 0 -197 -125 -197 -276c0 -149 62 -276 198 -276z" />
    <glyph glyph-name="uni00AD" unicode="&#xad;" horiz-adv-x="389" 
d="M340 218h-291v108h291v-108z" />
    <glyph glyph-name="guillemotleft" unicode="&#xab;" horiz-adv-x="463" 
d="M205 348l-95 -76l95 -76v-103l-155 123v112l155 123v-103zM403 348l-95 -76l95 -76v-103l-155 123v112l155 123v-103z" />
    <glyph glyph-name="guillemotright" unicode="&#xbb;" horiz-adv-x="463" 
d="M215 328v-112l-155 -123v103l95 76l-95 76v103zM413 216l-155 -123v103l95 76l-95 76v103l155 -123v-112z" />
    <glyph glyph-name="uni10FB" unicode="&#x10fb;" horiz-adv-x="568" 
d="M208 371h-139v135h139v-135zM508 186h-139v135h139v-135zM208 0h-139v135h139v-135z" />
    <glyph glyph-name="uni10FB.case" horiz-adv-x="557" 
d="M210 552v-143h-131v143h131zM497 368v-142h-130v142h130zM210 183v-142h-131v142h131z" />
    <glyph glyph-name="uni00A0" unicode="&#xa0;" horiz-adv-x="278" 
 />
    <glyph glyph-name="uniFEFF" unicode="&#xfeff;" horiz-adv-x="0" 
 />
    <glyph glyph-name="Euro" unicode="&#x20ac;" 
d="M389 714c58 0 117 -21 178 -62l-46 -91c-43 43 -89 64 -140 64c-82 0 -142 -63 -163 -170h264l-26 -64h-245c-1 -12 -1 -23 -1 -34s0 -23 1 -34h231l-25 -63h-201c16 -112 77 -184 174 -184c68 0 95 16 150 66v-111c-45 -29 -96 -44 -151 -44c-166 0 -264 97 -290 273
h-77l27 63h45c-1 11 -2 23 -2 34s1 22 2 34h-72l26 64h53c39 170 141 259 288 259z" />
    <glyph glyph-name="uni2206" unicode="&#x2206;" horiz-adv-x="657" 
d="M665 0h-672l269 714h133zM494 105l-167 482l-167 -482h334z" />
    <glyph glyph-name="uni2126" unicode="&#x2126;" horiz-adv-x="767" 
d="M386 731c210 0 340 -155 340 -331c0 -120 -48 -216 -150 -290v-5h161v-105h-296v95c107 63 160 167 160 305c0 132 -85 229 -215 229c-131 0 -220 -96 -220 -238c0 -137 57 -233 164 -296v-95h-297v105h150v5c-98 69 -142 159 -142 280c0 198 144 341 345 341z" />
    <glyph glyph-name="uni2219" unicode="&#x2219;" horiz-adv-x="278" 
d="M139 376c42 0 75 -37 75 -74c0 -39 -33 -76 -75 -76c-41 0 -75 36 -75 76c0 37 33 74 75 74z" />
    <glyph glyph-name="uni2215" unicode="&#x2215;" horiz-adv-x="167" 
d="M-86 -24h-79l419 748h78z" />
    <glyph glyph-name="uni00B5" unicode="&#xb5;" horiz-adv-x="574" 
d="M174 517v-321c0 -77 29 -120 99 -120c85 0 127 51 127 137v304h114v-517h-112v72h-2c-36 -59 -87 -86 -142 -86c-38 0 -67 11 -84 26v-203h-114v708h114z" />
    <glyph glyph-name="uni2113" unicode="&#x2113;" horiz-adv-x="500" 
d="M295 721c80 0 134 -58 134 -142c0 -101 -62 -201 -183 -310v-128c0 -47 27 -73 66 -73c26 0 56 12 88 38h2l38 -58c-51 -45 -102 -62 -155 -62c-95 0 -150 58 -150 136v73l-57 -53h-2l-39 60l97 85v250c0 102 68 184 161 184zM246 558v-194c58 64 92 137 92 207
c0 45 -19 75 -45 75c-28 0 -47 -40 -47 -88z" />
    <glyph glyph-name="uni2116" unicode="&#x2116;" horiz-adv-x="1068" 
d="M190 511v-511h-119v700h132l298 -512v512h119v-700h-132zM841 121c-98 0 -163 59 -163 153s67 158 163 158c98 0 163 -59 163 -153c0 -92 -63 -158 -163 -158zM840 366c-45 0 -76 -31 -76 -89c0 -55 33 -90 77 -90c48 0 77 32 77 89c0 54 -31 90 -78 90zM679 85h325v-85
h-325v85z" />
    <glyph glyph-name="uniE002" unicode="&#xe002;" horiz-adv-x="584" 
d="M432 818h-288v65h288v-65zM286 -17c-150 0 -256 102 -256 243c0 49 15 92 29 119h120c-11 -27 -24 -69 -24 -115c0 -83 51 -148 132 -148c83 0 133 65 133 148c0 109 -51 163 -108 224c-52 56 -105 122 -105 260h125c0 -95 37 -151 84 -203c65 -72 130 -141 130 -285
c0 -141 -112 -243 -260 -243z" />
    <glyph glyph-name="uniE003" unicode="&#xe003;" horiz-adv-x="600" 
d="M248 817h-114v108h114v-108zM420 817h-114v108h114v-108zM286 -17c-150 0 -256 102 -256 243c0 49 15 92 29 119h120c-11 -27 -24 -69 -24 -115c0 -83 51 -148 132 -148c83 0 133 65 133 148c0 109 -51 163 -108 224c-52 56 -105 122 -105 260h125c0 -95 37 -151 84 -203
c65 -72 130 -141 130 -285c0 -141 -112 -243 -260 -243z" />
    <glyph glyph-name="uniE005" unicode="&#xe005;" horiz-adv-x="576" 
d="M259 933h-114v108h114v-108zM431 933h-114v108h114v-108zM432 818h-288v65h288v-65zM286 -17c-150 0 -256 102 -256 243c0 49 15 92 29 119h120c-11 -27 -24 -69 -24 -115c0 -83 51 -148 132 -148c83 0 133 65 133 148c0 109 -51 163 -108 224c-52 56 -105 122 -105 260
h125c0 -95 37 -151 84 -203c65 -72 130 -141 130 -285c0 -141 -112 -243 -260 -243z" />
    <glyph glyph-name="uniE021" unicode="&#xe021;" horiz-adv-x="596" 
d="M431 818h-288v65h288v-65zM286 -17c-151 0 -251 85 -251 216c0 39 6 71 18 100h120c-8 -29 -13 -52 -13 -88c0 -80 51 -129 127 -129c80 0 126 55 126 135v281c0 72 -38 134 -116 134c-75 0 -116 -55 -116 -112c0 -20 2 -34 6 -51h-123c-4 12 -8 33 -8 58
c0 109 95 204 241 204c152 0 242 -102 242 -226v-291c0 -141 -104 -231 -253 -231z" />
    <glyph glyph-name="uniE03C" unicode="&#xe03c;" horiz-adv-x="614" 
d="M452 818h-288v65h288v-65zM493 0h-124c35 72 66 203 66 329v132c0 96 -41 171 -128 171s-128 -75 -128 -171v-132c0 -126 32 -257 66 -329h-124c-36 69 -67 202 -67 332v136c0 162 106 263 253 263c146 0 254 -102 254 -264v-135c0 -130 -32 -263 -68 -332z" />
    <glyph glyph-name="uniE064" unicode="&#xe064;" horiz-adv-x="851" 
d="M570 818h-288v65h288v-65zM719 0h-126c47 77 79 215 79 333v135c0 113 -41 164 -100 164c-49 0 -88 -42 -88 -119v-309h-118v309c0 78 -38 119 -87 119c-59 0 -100 -54 -100 -163v-136c0 -115 32 -258 77 -333h-126c-42 68 -76 202 -76 334v139c0 159 90 258 210 258
c70 0 134 -31 159 -99h3c26 68 94 99 160 99c124 0 211 -96 211 -258v-139c0 -130 -32 -264 -78 -334z" />
    <glyph glyph-name="uniE065" unicode="&#xe065;" horiz-adv-x="851" 
d="M397 933h-114v108h114v-108zM569 933h-114v108h114v-108zM570 818h-288v65h288v-65zM719 0h-126c47 77 79 215 79 333v135c0 113 -41 164 -100 164c-49 0 -88 -42 -88 -119v-309h-118v309c0 78 -38 119 -87 119c-59 0 -100 -54 -100 -163v-136c0 -115 32 -258 77 -333
h-126c-42 68 -76 202 -76 334v139c0 159 90 258 210 258c70 0 134 -31 159 -99h3c26 68 94 99 160 99c124 0 211 -96 211 -258v-139c0 -130 -32 -264 -78 -334z" />
    <glyph glyph-name="uniE066" unicode="&#xe066;" horiz-adv-x="851" 
d="M393 817h-114v108h114v-108zM565 817h-114v108h114v-108zM256 0h-126c-42 68 -76 202 -76 334v139c0 159 90 258 210 258c70 0 134 -31 159 -99h3c26 68 94 99 160 99c124 0 211 -96 211 -258v-139c0 -130 -32 -264 -78 -334h-126c47 77 79 215 79 333v135
c0 113 -41 164 -100 164c-49 0 -88 -42 -88 -119v-309h-118v309c0 78 -38 119 -87 119c-59 0 -100 -54 -100 -163v-136c0 -115 32 -258 77 -333z" />
    <glyph glyph-name="uniE08A" unicode="&#xe08a;" horiz-adv-x="627" 
d="M448 818h-288v65h288v-65zM313 -17c-148 0 -264 90 -264 217c0 35 8 66 18 93h121c-8 -24 -13 -58 -13 -84c0 -73 54 -127 138 -127c76 0 135 50 135 143v305c0 61 -28 102 -79 102c-50 0 -77 -40 -77 -98v-99h-119v104c0 49 -28 82 -84 82h-54v104h53
c71 0 120 -22 141 -80h4c26 58 83 86 150 86c114 0 190 -72 190 -187v-325c0 -140 -111 -236 -260 -236z" />
    <glyph glyph-name="uniE098" unicode="&#xe098;" horiz-adv-x="627" 
d="M275 933h-114v108h114v-108zM447 933h-114v108h114v-108zM448 818h-288v65h288v-65zM313 -17c-148 0 -264 90 -264 217c0 35 8 66 18 93h121c-8 -24 -13 -58 -13 -84c0 -73 54 -127 138 -127c76 0 135 50 135 143v305c0 61 -28 102 -79 102c-50 0 -77 -40 -77 -98v-99
h-119v104c0 49 -28 82 -84 82h-54v104h53c71 0 120 -22 141 -80h4c26 58 83 86 150 86c114 0 190 -72 190 -187v-325c0 -140 -111 -236 -260 -236z" />
    <glyph glyph-name="uniE099" unicode="&#xe099;" horiz-adv-x="627" 
d="M263 817h-114v108h114v-108zM435 817h-114v108h114v-108zM313 -17c-148 0 -264 90 -264 217c0 35 8 66 18 93h121c-8 -24 -13 -58 -13 -84c0 -73 54 -127 138 -127c76 0 135 50 135 143v305c0 61 -28 102 -79 102c-50 0 -77 -40 -77 -98v-99h-119v104c0 49 -28 82 -84 82
h-54v104h53c71 0 120 -22 141 -80h4c26 58 83 86 150 86c114 0 190 -72 190 -187v-325c0 -140 -111 -236 -260 -236z" />
    <glyph glyph-name="uniE09A" unicode="&#xe09a;" horiz-adv-x="627" 
d="M468 783h-93l-71 90l-70 -90h-92l107 143h111zM313 -17c-148 0 -264 90 -264 217c0 35 8 66 18 93h121c-8 -24 -13 -58 -13 -84c0 -73 54 -127 138 -127c76 0 135 50 135 143v305c0 61 -28 102 -79 102c-50 0 -77 -40 -77 -98v-99h-119v104c0 49 -28 82 -84 82h-54v104
h53c71 0 120 -22 141 -80h4c26 58 83 86 150 86c114 0 190 -72 190 -187v-325c0 -140 -111 -236 -260 -236z" />
    <glyph glyph-name="uniE156" unicode="&#xe156;" horiz-adv-x="584" 
d="M293 -17c-149 0 -259 89 -259 210c0 27 5 54 13 76h120c-6 -21 -10 -46 -10 -66c0 -66 55 -121 137 -121c77 0 128 53 128 117c0 72 -48 117 -117 117h-50v97h51c62 0 87 38 87 91v33h-128c-108 0 -186 60 -189 177h121c2 -52 28 -82 102 -82h219v-115
c0 -78 -37 -130 -94 -150v-4c70 -19 123 -73 123 -173c0 -117 -109 -207 -254 -207z" />
    <glyph glyph-name="uniE169" unicode="&#xe169;" horiz-adv-x="586" 
d="M291 -17c-136 0 -261 84 -261 220c0 150 113 211 210 251c68 28 129 52 129 108c0 42 -36 72 -79 72s-81 -31 -81 -84h-119c0 108 94 181 198 181c105 0 200 -67 200 -162c0 -118 -96 -159 -184 -198c-76 -34 -150 -70 -150 -168c0 -68 54 -122 138 -122
c89 0 141 52 141 122c0 33 -4 61 -15 95h120c9 -19 18 -60 18 -95c0 -138 -120 -220 -265 -220z" />
    <glyph glyph-name="uniE16B" unicode="&#xe16b;" horiz-adv-x="586" 
d="M437 818h-288v65h288v-65zM291 -17c-136 0 -261 84 -261 220c0 150 113 211 210 251c68 28 129 52 129 108c0 42 -36 72 -79 72s-81 -31 -81 -84h-119c0 108 94 181 198 181c105 0 200 -67 200 -162c0 -118 -96 -159 -184 -198c-76 -34 -150 -70 -150 -168
c0 -68 54 -122 138 -122c89 0 141 52 141 122c0 33 -4 61 -15 95h120c9 -19 18 -60 18 -95c0 -138 -120 -220 -265 -220z" />
    </font>
</defs>
</svg>
